<mxfile host="app.diagrams.net" modified="2022-01-21T14:22:30.948Z" agent="5.0 (X11; Linux x86_64) AppleWebKit/537.36 (KHTML, like Gecko) Chrome/97.0.4692.71 Safari/537.36" etag="vKvB_K7jFuS4P_Mb1HhX" version="16.4.0" type="github">
  <diagram id="ZKbcPqMe4jBBzjfeDMgt" name="Page-1">
    <mxGraphModel dx="813" dy="438" grid="1" gridSize="10" guides="1" tooltips="1" connect="1" arrows="1" fold="1" page="1" pageScale="1" pageWidth="850" pageHeight="1100" math="0" shadow="0">
      <root>
        <mxCell id="0" />
        <mxCell id="1" parent="0" />
        <mxCell id="QAu8P93m0b1dn1SRwFHF-37" value="" style="edgeStyle=orthogonalEdgeStyle;rounded=0;orthogonalLoop=1;jettySize=auto;html=1;" parent="1" source="QAu8P93m0b1dn1SRwFHF-1" target="QAu8P93m0b1dn1SRwFHF-36" edge="1">
          <mxGeometry relative="1" as="geometry" />
        </mxCell>
        <mxCell id="QAu8P93m0b1dn1SRwFHF-1" value="React&lt;br&gt;SPA" style="whiteSpace=wrap;html=1;aspect=fixed;fillColor=#dae8fc;strokeColor=#6c8ebf;" parent="1" vertex="1">
          <mxGeometry x="40" y="40" width="80" height="80" as="geometry" />
        </mxCell>
        <mxCell id="QAu8P93m0b1dn1SRwFHF-6" style="edgeStyle=orthogonalEdgeStyle;rounded=0;orthogonalLoop=1;jettySize=auto;html=1;" parent="1" source="QAu8P93m0b1dn1SRwFHF-4" target="QAu8P93m0b1dn1SRwFHF-5" edge="1">
          <mxGeometry relative="1" as="geometry">
            <Array as="points">
              <mxPoint x="140" y="175" />
              <mxPoint x="140" y="175" />
            </Array>
          </mxGeometry>
        </mxCell>
        <mxCell id="QAu8P93m0b1dn1SRwFHF-10" style="edgeStyle=orthogonalEdgeStyle;rounded=0;orthogonalLoop=1;jettySize=auto;html=1;" parent="1" source="QAu8P93m0b1dn1SRwFHF-4" target="QAu8P93m0b1dn1SRwFHF-9" edge="1">
          <mxGeometry relative="1" as="geometry">
            <mxPoint x="110" y="280" as="targetPoint" />
            <Array as="points">
              <mxPoint x="80" y="260" />
            </Array>
          </mxGeometry>
        </mxCell>
        <mxCell id="QAu8P93m0b1dn1SRwFHF-18" style="edgeStyle=orthogonalEdgeStyle;rounded=0;orthogonalLoop=1;jettySize=auto;html=1;" parent="1" source="QAu8P93m0b1dn1SRwFHF-4" target="QAu8P93m0b1dn1SRwFHF-17" edge="1">
          <mxGeometry relative="1" as="geometry">
            <Array as="points">
              <mxPoint x="80" y="295" />
            </Array>
          </mxGeometry>
        </mxCell>
        <mxCell id="QAu8P93m0b1dn1SRwFHF-21" style="edgeStyle=orthogonalEdgeStyle;rounded=0;orthogonalLoop=1;jettySize=auto;html=1;" parent="1" source="QAu8P93m0b1dn1SRwFHF-4" target="QAu8P93m0b1dn1SRwFHF-7" edge="1">
          <mxGeometry relative="1" as="geometry">
            <Array as="points">
              <mxPoint x="150" y="215" />
              <mxPoint x="150" y="215" />
            </Array>
          </mxGeometry>
        </mxCell>
        <mxCell id="QAu8P93m0b1dn1SRwFHF-23" style="edgeStyle=orthogonalEdgeStyle;rounded=0;orthogonalLoop=1;jettySize=auto;html=1;" parent="1" source="QAu8P93m0b1dn1SRwFHF-4" target="QAu8P93m0b1dn1SRwFHF-22" edge="1">
          <mxGeometry relative="1" as="geometry">
            <Array as="points">
              <mxPoint x="80" y="335" />
            </Array>
          </mxGeometry>
        </mxCell>
        <mxCell id="QAu8P93m0b1dn1SRwFHF-29" style="edgeStyle=orthogonalEdgeStyle;rounded=0;orthogonalLoop=1;jettySize=auto;html=1;" parent="1" source="QAu8P93m0b1dn1SRwFHF-4" target="QAu8P93m0b1dn1SRwFHF-26" edge="1">
          <mxGeometry relative="1" as="geometry">
            <Array as="points">
              <mxPoint x="80" y="375" />
            </Array>
          </mxGeometry>
        </mxCell>
        <mxCell id="QAu8P93m0b1dn1SRwFHF-31" style="edgeStyle=orthogonalEdgeStyle;rounded=0;orthogonalLoop=1;jettySize=auto;html=1;" parent="1" source="QAu8P93m0b1dn1SRwFHF-4" target="QAu8P93m0b1dn1SRwFHF-30" edge="1">
          <mxGeometry relative="1" as="geometry">
            <Array as="points">
              <mxPoint x="80" y="415" />
            </Array>
          </mxGeometry>
        </mxCell>
        <mxCell id="QAu8P93m0b1dn1SRwFHF-33" style="edgeStyle=orthogonalEdgeStyle;rounded=0;orthogonalLoop=1;jettySize=auto;html=1;" parent="1" source="QAu8P93m0b1dn1SRwFHF-4" target="QAu8P93m0b1dn1SRwFHF-32" edge="1">
          <mxGeometry relative="1" as="geometry">
            <Array as="points">
              <mxPoint x="80" y="455" />
            </Array>
          </mxGeometry>
        </mxCell>
        <mxCell id="QAu8P93m0b1dn1SRwFHF-4" value="Tech" style="whiteSpace=wrap;html=1;aspect=fixed;fillColor=#dae8fc;strokeColor=#6c8ebf;" parent="1" vertex="1">
          <mxGeometry x="40" y="160" width="80" height="80" as="geometry" />
        </mxCell>
        <mxCell id="QAu8P93m0b1dn1SRwFHF-12" value="" style="edgeStyle=orthogonalEdgeStyle;rounded=0;orthogonalLoop=1;jettySize=auto;html=1;" parent="1" source="QAu8P93m0b1dn1SRwFHF-5" target="QAu8P93m0b1dn1SRwFHF-11" edge="1">
          <mxGeometry relative="1" as="geometry" />
        </mxCell>
        <mxCell id="QAu8P93m0b1dn1SRwFHF-5" value="Storybook" style="text;html=1;strokeColor=#666666;fillColor=#f5f5f5;align=center;verticalAlign=middle;whiteSpace=wrap;rounded=0;fontColor=#333333;" parent="1" vertex="1">
          <mxGeometry x="200" y="160" width="100" height="30" as="geometry" />
        </mxCell>
        <mxCell id="QAu8P93m0b1dn1SRwFHF-14" value="" style="edgeStyle=orthogonalEdgeStyle;rounded=0;orthogonalLoop=1;jettySize=auto;html=1;" parent="1" source="QAu8P93m0b1dn1SRwFHF-7" target="QAu8P93m0b1dn1SRwFHF-13" edge="1">
          <mxGeometry relative="1" as="geometry" />
        </mxCell>
        <mxCell id="QAu8P93m0b1dn1SRwFHF-7" value="react-router-dom v6" style="text;html=1;strokeColor=#666666;fillColor=#f5f5f5;align=center;verticalAlign=middle;whiteSpace=wrap;rounded=0;fontColor=#333333;" parent="1" vertex="1">
          <mxGeometry x="200" y="200" width="140" height="30" as="geometry" />
        </mxCell>
        <mxCell id="QAu8P93m0b1dn1SRwFHF-16" value="" style="edgeStyle=orthogonalEdgeStyle;rounded=0;orthogonalLoop=1;jettySize=auto;html=1;" parent="1" source="QAu8P93m0b1dn1SRwFHF-9" target="QAu8P93m0b1dn1SRwFHF-15" edge="1">
          <mxGeometry relative="1" as="geometry" />
        </mxCell>
        <mxCell id="QAu8P93m0b1dn1SRwFHF-9" value="React Query" style="text;html=1;strokeColor=#666666;fillColor=#f5f5f5;align=center;verticalAlign=middle;whiteSpace=wrap;rounded=0;fontColor=#333333;" parent="1" vertex="1">
          <mxGeometry x="200" y="240" width="100" height="30" as="geometry" />
        </mxCell>
        <mxCell id="QAu8P93m0b1dn1SRwFHF-11" value="Documentação dos Componentes" style="text;html=1;align=center;verticalAlign=middle;whiteSpace=wrap;rounded=0;" parent="1" vertex="1">
          <mxGeometry x="390" y="160" width="100" height="30" as="geometry" />
        </mxCell>
        <mxCell id="QAu8P93m0b1dn1SRwFHF-13" value="Rotas da Aplicação" style="text;html=1;align=center;verticalAlign=middle;whiteSpace=wrap;rounded=0;" parent="1" vertex="1">
          <mxGeometry x="390" y="200" width="140" height="30" as="geometry" />
        </mxCell>
        <mxCell id="QAu8P93m0b1dn1SRwFHF-15" value="Comunicação com as API&#39;s" style="text;html=1;align=center;verticalAlign=middle;whiteSpace=wrap;rounded=0;" parent="1" vertex="1">
          <mxGeometry x="390" y="240" width="100" height="30" as="geometry" />
        </mxCell>
        <mxCell id="QAu8P93m0b1dn1SRwFHF-20" value="" style="edgeStyle=orthogonalEdgeStyle;rounded=0;orthogonalLoop=1;jettySize=auto;html=1;" parent="1" source="QAu8P93m0b1dn1SRwFHF-17" target="QAu8P93m0b1dn1SRwFHF-19" edge="1">
          <mxGeometry relative="1" as="geometry" />
        </mxCell>
        <mxCell id="QAu8P93m0b1dn1SRwFHF-17" value="Firebase" style="text;html=1;strokeColor=#666666;fillColor=#f5f5f5;align=center;verticalAlign=middle;whiteSpace=wrap;rounded=0;fontColor=#333333;" parent="1" vertex="1">
          <mxGeometry x="200" y="280" width="100" height="30" as="geometry" />
        </mxCell>
        <mxCell id="QAu8P93m0b1dn1SRwFHF-19" value="Autenticação &amp;amp; DB" style="text;html=1;align=center;verticalAlign=middle;whiteSpace=wrap;rounded=0;" parent="1" vertex="1">
          <mxGeometry x="390" y="280" width="100" height="30" as="geometry" />
        </mxCell>
        <mxCell id="QAu8P93m0b1dn1SRwFHF-25" value="" style="edgeStyle=orthogonalEdgeStyle;rounded=0;orthogonalLoop=1;jettySize=auto;html=1;" parent="1" source="QAu8P93m0b1dn1SRwFHF-22" target="QAu8P93m0b1dn1SRwFHF-24" edge="1">
          <mxGeometry relative="1" as="geometry" />
        </mxCell>
        <mxCell id="QAu8P93m0b1dn1SRwFHF-22" value="Styled Components" style="text;html=1;strokeColor=#666666;fillColor=#f5f5f5;align=center;verticalAlign=middle;whiteSpace=wrap;rounded=0;fontColor=#333333;" parent="1" vertex="1">
          <mxGeometry x="200" y="320" width="120" height="30" as="geometry" />
        </mxCell>
        <mxCell id="QAu8P93m0b1dn1SRwFHF-24" value="Estilização" style="text;html=1;align=center;verticalAlign=middle;whiteSpace=wrap;rounded=0;" parent="1" vertex="1">
          <mxGeometry x="390" y="320" width="120" height="30" as="geometry" />
        </mxCell>
        <mxCell id="QAu8P93m0b1dn1SRwFHF-28" style="edgeStyle=orthogonalEdgeStyle;rounded=0;orthogonalLoop=1;jettySize=auto;html=1;" parent="1" source="QAu8P93m0b1dn1SRwFHF-26" target="QAu8P93m0b1dn1SRwFHF-27" edge="1">
          <mxGeometry relative="1" as="geometry" />
        </mxCell>
        <mxCell id="QAu8P93m0b1dn1SRwFHF-26" value="React Testing Lib" style="text;html=1;strokeColor=#666666;fillColor=#f5f5f5;align=center;verticalAlign=middle;whiteSpace=wrap;rounded=0;fontColor=#333333;" parent="1" vertex="1">
          <mxGeometry x="200" y="360" width="120" height="30" as="geometry" />
        </mxCell>
        <mxCell id="QAu8P93m0b1dn1SRwFHF-27" value="Testes Unitários" style="text;html=1;align=center;verticalAlign=middle;whiteSpace=wrap;rounded=0;" parent="1" vertex="1">
          <mxGeometry x="390" y="360" width="120" height="30" as="geometry" />
        </mxCell>
        <mxCell id="QAu8P93m0b1dn1SRwFHF-30" value="Framework CSS ?" style="text;html=1;strokeColor=#666666;fillColor=#f5f5f5;align=center;verticalAlign=middle;whiteSpace=wrap;rounded=0;fontColor=#333333;" parent="1" vertex="1">
          <mxGeometry x="200" y="400" width="120" height="30" as="geometry" />
        </mxCell>
        <mxCell id="QAu8P93m0b1dn1SRwFHF-35" style="edgeStyle=orthogonalEdgeStyle;rounded=0;orthogonalLoop=1;jettySize=auto;html=1;" parent="1" source="QAu8P93m0b1dn1SRwFHF-32" target="QAu8P93m0b1dn1SRwFHF-34" edge="1">
          <mxGeometry relative="1" as="geometry" />
        </mxCell>
        <mxCell id="QAu8P93m0b1dn1SRwFHF-32" value="ESLint + Prettier" style="text;html=1;strokeColor=#666666;fillColor=#f5f5f5;align=center;verticalAlign=middle;whiteSpace=wrap;rounded=0;fontColor=#333333;" parent="1" vertex="1">
          <mxGeometry x="200" y="440" width="120" height="30" as="geometry" />
        </mxCell>
        <mxCell id="QAu8P93m0b1dn1SRwFHF-34" value="Identação" style="text;html=1;align=center;verticalAlign=middle;whiteSpace=wrap;rounded=0;" parent="1" vertex="1">
          <mxGeometry x="390" y="440" width="120" height="30" as="geometry" />
        </mxCell>
        <mxCell id="QAu8P93m0b1dn1SRwFHF-39" style="edgeStyle=orthogonalEdgeStyle;rounded=0;orthogonalLoop=1;jettySize=auto;html=1;" parent="1" source="QAu8P93m0b1dn1SRwFHF-36" target="QAu8P93m0b1dn1SRwFHF-38" edge="1">
          <mxGeometry relative="1" as="geometry" />
        </mxCell>
        <mxCell id="QAu8P93m0b1dn1SRwFHF-36" value="TypeScript" style="whiteSpace=wrap;html=1;aspect=fixed;fillColor=#f5f5f5;strokeColor=#666666;fontColor=#333333;" parent="1" vertex="1">
          <mxGeometry x="200" y="40" width="80" height="80" as="geometry" />
        </mxCell>
        <mxCell id="QAu8P93m0b1dn1SRwFHF-38" value="npx create-react-app my-app --template typescript" style="text;html=1;strokeColor=none;fillColor=none;align=center;verticalAlign=middle;whiteSpace=wrap;rounded=0;" parent="1" vertex="1">
          <mxGeometry x="390" y="65" width="280" height="30" as="geometry" />
        </mxCell>
        <mxCell id="QAu8P93m0b1dn1SRwFHF-47" style="edgeStyle=orthogonalEdgeStyle;rounded=0;orthogonalLoop=1;jettySize=auto;html=1;" parent="1" source="QAu8P93m0b1dn1SRwFHF-40" target="QAu8P93m0b1dn1SRwFHF-44" edge="1">
          <mxGeometry relative="1" as="geometry" />
        </mxCell>
        <mxCell id="QAu8P93m0b1dn1SRwFHF-64" style="edgeStyle=orthogonalEdgeStyle;rounded=0;orthogonalLoop=1;jettySize=auto;html=1;" parent="1" source="QAu8P93m0b1dn1SRwFHF-40" target="QAu8P93m0b1dn1SRwFHF-49" edge="1">
          <mxGeometry relative="1" as="geometry">
            <Array as="points">
              <mxPoint x="80" y="625" />
            </Array>
          </mxGeometry>
        </mxCell>
        <mxCell id="QAu8P93m0b1dn1SRwFHF-65" style="edgeStyle=orthogonalEdgeStyle;rounded=0;orthogonalLoop=1;jettySize=auto;html=1;" parent="1" source="QAu8P93m0b1dn1SRwFHF-40" target="QAu8P93m0b1dn1SRwFHF-53" edge="1">
          <mxGeometry relative="1" as="geometry">
            <Array as="points">
              <mxPoint x="80" y="675" />
            </Array>
          </mxGeometry>
        </mxCell>
        <mxCell id="QAu8P93m0b1dn1SRwFHF-66" style="edgeStyle=orthogonalEdgeStyle;rounded=0;orthogonalLoop=1;jettySize=auto;html=1;" parent="1" source="QAu8P93m0b1dn1SRwFHF-40" target="QAu8P93m0b1dn1SRwFHF-57" edge="1">
          <mxGeometry relative="1" as="geometry">
            <Array as="points">
              <mxPoint x="80" y="725" />
            </Array>
          </mxGeometry>
        </mxCell>
        <mxCell id="QAu8P93m0b1dn1SRwFHF-67" style="edgeStyle=orthogonalEdgeStyle;rounded=0;orthogonalLoop=1;jettySize=auto;html=1;" parent="1" source="QAu8P93m0b1dn1SRwFHF-40" target="QAu8P93m0b1dn1SRwFHF-58" edge="1">
          <mxGeometry relative="1" as="geometry">
            <Array as="points">
              <mxPoint x="80" y="775" />
            </Array>
          </mxGeometry>
        </mxCell>
        <mxCell id="QAu8P93m0b1dn1SRwFHF-40" value="Arquitetura das Pastas" style="whiteSpace=wrap;html=1;aspect=fixed;fillColor=#dae8fc;strokeColor=#6c8ebf;" parent="1" vertex="1">
          <mxGeometry x="40" y="520" width="80" height="80" as="geometry" />
        </mxCell>
        <mxCell id="QAu8P93m0b1dn1SRwFHF-41" value="SOLID" style="text;html=1;strokeColor=none;fillColor=none;align=center;verticalAlign=middle;whiteSpace=wrap;rounded=0;" parent="1" vertex="1">
          <mxGeometry x="40" y="490" width="80" height="30" as="geometry" />
        </mxCell>
        <mxCell id="QAu8P93m0b1dn1SRwFHF-46" style="edgeStyle=orthogonalEdgeStyle;rounded=0;orthogonalLoop=1;jettySize=auto;html=1;" parent="1" source="QAu8P93m0b1dn1SRwFHF-44" target="QAu8P93m0b1dn1SRwFHF-45" edge="1">
          <mxGeometry relative="1" as="geometry" />
        </mxCell>
        <mxCell id="QAu8P93m0b1dn1SRwFHF-44" value="assets" style="text;html=1;strokeColor=#666666;fillColor=#f5f5f5;align=center;verticalAlign=middle;whiteSpace=wrap;rounded=0;fontColor=#333333;" parent="1" vertex="1">
          <mxGeometry x="200" y="545" width="120" height="30" as="geometry" />
        </mxCell>
        <mxCell id="QAu8P93m0b1dn1SRwFHF-45" value="Guardar as Imagens" style="text;html=1;align=center;verticalAlign=middle;whiteSpace=wrap;rounded=0;" parent="1" vertex="1">
          <mxGeometry x="390" y="545" width="120" height="30" as="geometry" />
        </mxCell>
        <mxCell id="QAu8P93m0b1dn1SRwFHF-48" value="png/svg/fonts/etc" style="text;html=1;align=center;verticalAlign=middle;whiteSpace=wrap;rounded=0;" parent="1" vertex="1">
          <mxGeometry x="200" y="515" width="120" height="30" as="geometry" />
        </mxCell>
        <mxCell id="QAu8P93m0b1dn1SRwFHF-51" style="edgeStyle=orthogonalEdgeStyle;rounded=0;orthogonalLoop=1;jettySize=auto;html=1;" parent="1" source="QAu8P93m0b1dn1SRwFHF-49" target="QAu8P93m0b1dn1SRwFHF-50" edge="1">
          <mxGeometry relative="1" as="geometry" />
        </mxCell>
        <mxCell id="QAu8P93m0b1dn1SRwFHF-49" value="common" style="text;html=1;strokeColor=#666666;fillColor=#f5f5f5;align=center;verticalAlign=middle;whiteSpace=wrap;rounded=0;fontColor=#333333;" parent="1" vertex="1">
          <mxGeometry x="200" y="610" width="120" height="30" as="geometry" />
        </mxCell>
        <mxCell id="QAu8P93m0b1dn1SRwFHF-50" value="Guardar coisas em comuns" style="text;html=1;align=center;verticalAlign=middle;whiteSpace=wrap;rounded=0;" parent="1" vertex="1">
          <mxGeometry x="390" y="610" width="160" height="30" as="geometry" />
        </mxCell>
        <mxCell id="QAu8P93m0b1dn1SRwFHF-52" value="colors, fonts, etc" style="text;html=1;align=center;verticalAlign=middle;whiteSpace=wrap;rounded=0;" parent="1" vertex="1">
          <mxGeometry x="200" y="580" width="120" height="30" as="geometry" />
        </mxCell>
        <mxCell id="QAu8P93m0b1dn1SRwFHF-55" value="" style="edgeStyle=orthogonalEdgeStyle;rounded=0;orthogonalLoop=1;jettySize=auto;html=1;" parent="1" source="QAu8P93m0b1dn1SRwFHF-53" target="QAu8P93m0b1dn1SRwFHF-54" edge="1">
          <mxGeometry relative="1" as="geometry" />
        </mxCell>
        <mxCell id="QAu8P93m0b1dn1SRwFHF-53" value="components" style="text;html=1;strokeColor=#666666;fillColor=#f5f5f5;align=center;verticalAlign=middle;whiteSpace=wrap;rounded=0;fontColor=#333333;" parent="1" vertex="1">
          <mxGeometry x="200" y="660" width="120" height="30" as="geometry" />
        </mxCell>
        <mxCell id="QAu8P93m0b1dn1SRwFHF-63" style="edgeStyle=orthogonalEdgeStyle;rounded=0;orthogonalLoop=1;jettySize=auto;html=1;" parent="1" source="QAu8P93m0b1dn1SRwFHF-54" target="QAu8P93m0b1dn1SRwFHF-56" edge="1">
          <mxGeometry relative="1" as="geometry" />
        </mxCell>
        <mxCell id="QAu8P93m0b1dn1SRwFHF-54" value="common" style="text;html=1;strokeColor=#666666;fillColor=#f5f5f5;align=center;verticalAlign=middle;whiteSpace=wrap;rounded=0;fontColor=#333333;" parent="1" vertex="1">
          <mxGeometry x="390" y="660" width="120" height="30" as="geometry" />
        </mxCell>
        <mxCell id="QAu8P93m0b1dn1SRwFHF-56" value="componentes compartilhados (button, etc)" style="text;html=1;align=center;verticalAlign=middle;whiteSpace=wrap;rounded=0;" parent="1" vertex="1">
          <mxGeometry x="580" y="660" width="180" height="30" as="geometry" />
        </mxCell>
        <mxCell id="QAu8P93m0b1dn1SRwFHF-60" style="edgeStyle=orthogonalEdgeStyle;rounded=0;orthogonalLoop=1;jettySize=auto;html=1;" parent="1" source="QAu8P93m0b1dn1SRwFHF-57" target="QAu8P93m0b1dn1SRwFHF-59" edge="1">
          <mxGeometry relative="1" as="geometry" />
        </mxCell>
        <mxCell id="QAu8P93m0b1dn1SRwFHF-57" value="utils" style="text;html=1;strokeColor=#666666;fillColor=#f5f5f5;align=center;verticalAlign=middle;whiteSpace=wrap;rounded=0;fontColor=#333333;" parent="1" vertex="1">
          <mxGeometry x="200" y="710" width="120" height="30" as="geometry" />
        </mxCell>
        <mxCell id="QAu8P93m0b1dn1SRwFHF-62" style="edgeStyle=orthogonalEdgeStyle;rounded=0;orthogonalLoop=1;jettySize=auto;html=1;" parent="1" source="QAu8P93m0b1dn1SRwFHF-58" target="QAu8P93m0b1dn1SRwFHF-61" edge="1">
          <mxGeometry relative="1" as="geometry" />
        </mxCell>
        <mxCell id="QAu8P93m0b1dn1SRwFHF-58" value="pages" style="text;html=1;strokeColor=#666666;fillColor=#f5f5f5;align=center;verticalAlign=middle;whiteSpace=wrap;rounded=0;fontColor=#333333;" parent="1" vertex="1">
          <mxGeometry x="200" y="760" width="120" height="30" as="geometry" />
        </mxCell>
        <mxCell id="QAu8P93m0b1dn1SRwFHF-59" value="funções compartilhadas" style="text;html=1;align=center;verticalAlign=middle;whiteSpace=wrap;rounded=0;" parent="1" vertex="1">
          <mxGeometry x="390" y="710" width="160" height="30" as="geometry" />
        </mxCell>
        <mxCell id="QAu8P93m0b1dn1SRwFHF-61" value="páginas da aplicação" style="text;html=1;align=center;verticalAlign=middle;whiteSpace=wrap;rounded=0;" parent="1" vertex="1">
          <mxGeometry x="390" y="760" width="160" height="30" as="geometry" />
        </mxCell>
        <mxCell id="DcXh2wUwOKzSPhFC_znG-1" value="" style="shape=image;verticalLabelPosition=bottom;labelBackgroundColor=default;verticalAlign=top;aspect=fixed;imageAspect=0;image=data:image/png,iVBORw0KGgoAAAANSUhEUgAAAggAAAE0CAYAAABJrMsoAAAAAXNSR0IArs4c6QAAIABJREFUeF7snQd0VNX2h78pmZlMeu8kIRB67yC9CYqKPnl2RewFu89e/3bF7rN3RBApovQWeu8kAUJ6QnpPps/817lDMJQnCAkGOHctFpDce8pv33vPd/fZZx9VaUWVC3lIBaQCUgGpgFRAKiAVaKCASgKCvB+kAlIBqYBUQCogFThWAQkI8p6QCkgFpAJSAamAVOA4BSQgyJtCKiAVkApIBaQCUgEJCPIekApIBaQCUgGpgFTg5ApID8LJNZJnSAWkAlIBqYBU4IJTQALCBWdy2WGpgFRAKiAVkAqcXAEJCCfXSJ4hFZAKSAWkAlKBC04BCQgXnMllh6UCUgGpgFRAKnByBSQgnFwjeYZUQCogFZAKSAUuOAUkIFxwJpcdlgpIBaQCUgGpwMkVkIBwco3kGVIBqYBUQCogFbjgFJCAcMGZXHZYKiAVkApIBc5XBex2O1qttlG6JwGhUWSUhUgFpAJSAamAVOCfVcDhcDB//gLGjbu0URoiAaFRZJSFSAWkAlIBqcC5ooDFYmHZ8hUUFRcf1WSNWs3YsWMICgxstK7sP3CA2bPn4Ovri81mJzQ0hH9ddeUZf+VXVFSQl59Ph/btj7S1qKiI1WvWctWV4xul/U0DCJZsPv9mKeNvv5UQzQna6bSxafkKfHqNpJ2fqlE6cuaFuFj1w9dkd7icG7oHn7A4VVUGMxYcYOT4UfjrTqdGC5sWLyVuwChCvTxOWEDR/s2sMsXyry6hx/1eXbSZxWnejOjf7oTX2mpSefPHVJ6+64rTaZy8RiogFZAKXBAKZGVn88vMWUy+/96j+puWdhCVCtq1bdtoOsyY+Ss9unUjPj4Ol8vFJ59+zvXXXUNgQMAZ1fHjj1OxWK1MunVi8wOEmR8+Trq2Ff4qB9V2X664/ioSAgyAjdwtK7G1HEh8oPj/iQDBzp4NW/Hq1Jt4n9MEBIeJvZtWsmDBYhj3OI/2ijip2FUZK3nizSTadYtEb7fgldCb60f3dl9Xm8vOTAddOsT+z3JcNYdYtiqLPiP74nPi8f0kbTCze9M2ojr3JtBw4jmi8qy9bDeHMazN8ZDiLE1lc7aePt3iT1iPtTqZV75N5sX7/3VSLeQJUgGpgFSgOStgtVpJTkmlU8cOaDRHf2mKefaUVPG7jqfVhaysLGbOmsMjDz2gXJ+Rmcn2bdtxHVNa1y6dSUhI+Nt1FJeUMHXqT5SWlhETE33c9cKDkZmZxb8nXE3v3r3+dvnigq+/+ZZbbr6J6upq/pi/AJPJTE1NDZVVlURFRillDho4gNatW59W+eKi0/YgzPzgTVrd+iBdvGDn1CfYEnEXk4YnsnX+98yYtxFdy37cM/l6IvUqirfO4v1pq7H4xxHuo6LXFXeQu+ADQsY+ymhjCo++k8OoAYdYvGgPHcbfzs3D2oKzmg1zf2Vm0nZo0ZcHb7uSaF/9kY6qqlKZnVRKeNky1rS//ZQB4T+vl/Hip+MJcdXx+UdfMmryA3inbWb6tFnsqtAz8to7ubJnBGqHjaXTPmHW+oNExiXg5+vNhNF9ePPTGTz8zItYdkwjXRdLxqL57NPEcNOdk+gS5EHNoWSm/TCVHXl2Bky4m+sGxDUwTh0zvvyYTlfdS2D6ajbbYnHtmsP8gyb+ddO9DOsQSt6qOTxXksDXV3YCaxHTv/iMFXsK6H35bdzWtoS3Vlt45MZLKdq/iek/z2Z3pYHR193BFT0icEhAOO0HQV4oFZAKnJkCRaVllJRW0CYh9rgB/XRL/viTT+nQvh1Dhgw+qoiVSUmsTFrNC889c1pFHwsIP/z4I8OGDsXD488vP/G1P3/hIibefNPp1ZGdzZ49exk75uLjrs/Ozmb27Lk8+ODk0yq7ISCo1WrFMyH+FBUVs3btWsaPd3uRxe/O5DgDQHiNsPETaeWsYOkPX+A3/kku6xBMSUE+ev8QDm2YwVuHOvHxCC3PP/87t736MBFFK/hxs5Y7rhnAD59NIfSSxxljTObOl6Zy5cRJdA5x8P13vzP03ofpGeCiKCsLQ2goBVsWsLqmLZPGHEuLdax/+XXWXnz3qQPCG/k89H8j0B/az8w1mdx59w2oy4spdRjwJ59vn/ucYS+9QYv835iaEs5d/+rFks8/p3roLfwrKIP73pzG48//H5b1nzE1M5pbLutN1c75TE2O4enJw9FZKimudhKgrea7936m9+TH6BFc7yWp4+fPPqDz1ZMJTE/irYXZ3HjD5YTZUvludjr3PngLFevn8HRxK76/LIbZU17F3PdmRnQIxanWE1m1kddWmXn85suoKyum1CnanMe3L3zNiBdfJUG3X3oQzuRpkNdKBaQCf1sBp9PJocJirDYbAf5+VFbVEB4ShF5/WvOwR9UvvrS///5HomOiGDVypDIILl6yhJ279nD3nbfj7+//t9srLjgWEL797geuv+5aPDy0rN+wkX59+yjlfvPt90y85fQAITs7hz179yjtfmfKe9w2aSKff/El995zN+UVFUpcwoMPNA4g1IvQbGIQZn54Lwt3O/D0jWDYhImM690C4TTfsWQGsxevIL/CibXXRD6/Jpz3n/iMS557nuhDi5idHsEtV3Q9ChDue/NnHn/+ZaL1dXz6wTu0mfAMQ2Ns7Pj9Z2Yt28ahGjNxY+/g6fE9jrkZTgwIDlMV6Tn52FWexLZsgVHjHqDdUww/Y3NAQGxfbp54JR0ifSlP38702b+xZ98hrBotdz33Dh1Na/lylYO7bxjEvP9+hdf4uxipT24ACF+x3mMINwxphfnAUp6fWs4TT1+NriyVn6fPZsOeLOVmvvXFT+kfeWJAePZAEF9cK6Y4cvnw5Tnc8Nhd1Gz8TQGErwZ58OALK3n0rbuI93Jfr8lYfAQQyg5uY/rseezZfwi7h567n32T9l4HJSCc1utCXiQVkAqcrgL5BUXU1NWR2NLtLa2qriH3UBEJcdHodWcOCaLMjz7+L506dVDKX74iiReff/Z0m6tc978AwWaz8uBDj/Deu+9gNBrPOUAoLi4mPSOTPqc5bXGsqGfgQXiT1pMeokuDYDtz8q98vFrP3ZMuoSZ5Lo9tCOez2zqT/N277PPpSkh4BN27dyJQ7zoJIDxNQsb3fLw7hidvG4o9bQW/7A/g7lMEBGtVPqs27MDkEcigi3rh5+GevxKA8J/Xy3nps/GEHFGijs8//Iq+106ik28NMx54idbPvUMX/1Lm/rwIfVgEIS070rttNOriPScBhBEsfXMKIVc/wKBYLd++9Q5tb33ptADh2+FGHnvmRya++Awdg93xCvWA8NhNw/nsw2/of/2tdPKpZvpDr9JWAsIZvTDkxVIBqcDfVyCvoBCr1UZsdOQRd7b4MKquqaW8spoWUeGoRNTfGR5ms5kFCxch/r744tEEnKbnoL4Z9YAgvBCenp589/2Pigdh9pw5LFmyVJnSEP8/1zwI9f0zmUxKv870aFRAsO6ZxcvLrTx4/UAWT/+ehdqhfHZ7V3Z+8yZfbyoAlYaWA6/iwX/3Z0aDKYbjPQhP0zrzSz5cH8g913Zl/S/fkt36Sh4fd2oehP8lyokBwcRXU6bQcvxdBKYtYerytVwz+W06B1byyWtvsbegFqdXGBdfeztXxpbxwJEphhN5EIax+K13MIy5g3bWPfw8bSEjHv/wtADh+38lkPTec6zzHsi4fq2xqvT08kx3exBuGsEXU96j9ZV34L9/MdOSNnHt5DekB+FMnwZ5vVRAKvC3FKisqsbP1+eE19TW1mE0ejYKIPytRp3CyWLq4q23p5Cbm8s999zFtm07FCCw22088ujjvPP2m8oA21iA8P77HzJx4s18+dXX3HXnHU02xSC6LrwIL7z4Mh9/9MEpKPHXp5w2IOzbtomATj0IPfx17q7GTOqmrWTWQZc28Wwvgk41W/ihIIZJQ2LROq0smTqXyH9PIrhgK8aE3sR7lLJ0Uyq9+12Ej9bGzq2bCWjbjxb6GnZv306RxZPE9i2pNttpHx12TG/s5K/fSF58V3qFe51UDGtlDkkbzQwY1Rpjg7NLs1PZkpJNWKvOtHCmYIvsSfbX71I+8CZ6tvDFVpLKp5/t4o6nriJ5dyq9+w/Ekb+LfE0L2sf4Yy/PYm2ymT792mAvSmPznky8o1oRTSHOmN5EedcTtI3UndsIadMDQ0UOa8oNjG4nVl9Us219Gu17dcF26CCrTf6MTQwBWxV7tu0mr8JGiw6dae9TxcZcB707JFCSlcrWfTmEt+pMtCMFR+RAgjwq2LCnlAHdE0+qhTxBKiAVkApcyAoIb4TwdhgMhiMeBBGD0PA4E0DIzc1j3fr1TLj6+FVl+/fvZ/6ChWcUg/Dtt9/Rrn171Md4aAQgbNy0mRdfeO6MzXvagHCqNWetns5HByN56NKO6Osy+WLWLm548GaOX/hxqiWejfNqWDnlBUoH3Mmw1oGkb5jHtOwEXrhrIN5no3pZh1RAKiAVkAqcNQV+nj6DnNy847wdEeGhXH/ddafVjqqqKiUosV27dkctdRTu/zlz5nLllePp1bPnaZUtLhIrJHbs3KlATsNDxE4MGzqEgDPMsyDKbHJAwG4iY18yWQWVaHwCadU6kYiAht/vp61Pk17orCtl964USupsBITF0bZtPMYTJX1q0lbIwqUCUgGpgFSgqRUQeRVycnOPG2xbxMScdsZDsbqjoKBAyeXQ8BBLDyMjI2jbpk1Td+uMy296QDjjJjZeAXa7QylMq9Wg/FsFWo0GYUin04VG414z6nA4UalViutG+bdKpfxO5LkWrCbScYrzBbmJn4u/xf+F4YW3x30NylrghnUq17vEzxteo1LKr69HrVbhcDpF05TrG17jFGtdD7dTlCPaLc4X9dodh/t2TJ2Np54sSSogFZAKSAUuJAUuKEAoKStXbBsU4E9ZReWRf9fU1iGCVry93HEM1bW1yhpeg16PCMLReXjg4+2l/FuAgEiaVFtnUtb9+vn4YLPZqDOb8TYaFdqsrK5WwMPX14fSBnWK68Xg7+/ro1wryjB6eirAIpYG6XQeyv/FeRq1RqlH/NxmtyvXmMwWJbWmr7c3TpcT0W5Pg165RvRHhYoAf19KyyuUfgQHnlkqzwvpQZB9lQpIBaQCUgG3AvXTFo0OCMfOh0jBpQJSAamAVEAqIBU4ewqc7tLShuO38FKfFiBICDh7hpY1SQWkAlIBqYBUoLEUOBE8HAsGh/0Ifw8QjirE7YdorDbLcqQCUgGpgFRAKiAVaCIFjgWD+v8fDwfucV38/JQ9CPWF1G8K0XCeoon6I4uVCkgFpAJSAamAVKARFKgHAvH3sbDw57e+O/he/N/F3wSEejhIGjyQuvz8RmiyLEIqIBWQCkgFpAJSgbOhgGdkJEOSVh8BBAEKChyIZXOHd4RUVssphHCKgFDvPRDL6sSxcvBATBIQzoY9ZR1SAamAVEAqIBVoFAUMkZEMTVqtlKXAgcIGCh24l+sfXkovfm6z2U9tiqEhIIhlfquGDjpnAEF0tErrRZUxhNC6AvR2c6MILQuRCkgFpAJSAanAuaSAISKSwSuTFDhQqdx5f0TOHncuH6fgBBwuJ3abHb1ef+qAUF+AAITVwwafE4DgQkW1Rs/vCZdQHd2ZIanzSMzfipub5CEVkApIBaQCUoELRwFDRAQDlycpCfYEILjhwB1vUD/Gm8xWAv188Pf1Pr8BoUzvz4yE0bgSOhPsa0ebXc7ojV9htNYoLhV5SAWkAlIBqYBUoDEVUKnVeEVEEj7gIgzBwcrgqzjyjwQHujPvijFIZMEVv/sz+N+lDNwum43S3bso2rQJp8PeaM2rBwTRFgEJ4lBGQqcLh8ulJP3z9fYiwM+9Q+cprWKob7ySktjhZPXwIc3eg1Dj4c2SxNGkxfbllh7b6RKQzrSdfXBsL+Ki5Nl4KFMN7rmXM9+tvNHsJwuSCkgFpAJSgXNYAa2XN10eeohWN9+ESuuByynS+rtHGQEE9bF8yqe7MlCrcTmdRz5ZlcHbw4PSrdtYfsP12KqrG00NvfAgLFuJWqM+PO4dhhNc2Kx29DoPQoMD/gxiLK2oOumndD0gKPsCKFMMQzAdOvurGJShXOxboNLgVGmwqdR4uOzoHNajBDR5GFmeOJJ9Cf0Z0SqbJwatpLRSw9ebe7P6YBsuW/9f1JYaSoNboVGB3lqLt6kM39oSdA4LKpc7GPNkRz1ayCmLkyl1bv5eazAoXwBqvf7c7IBsdZMo4DCZMZcU47Ae/d5pkspkoeeUAmJw1wcF0eftdwjo2JH9n39BnRgrD68McM/7H142IH4mPlCFxwAXGq0WY3gEQb17ETZoEJbSEhZefDGWcvcWAWd6iFoVD8KylQqvKG05HH8g9gKy2xy0iA47avvov+VBOB1AcNOHiJN0O1rqJz3c3+7ub/iTHfUDca3ej9yQtmSGtsdZnk+VxkCETk2/fX8oA7s4BDysThhCUvtxjIjN5tkhy1mTGc2cvV1xHqygY8oKdNVFLIvsT3VCP4xGNSaLWvEohNfk0ylrHdEFe9A4/9qtI9p0yCscl4eRkOo8PA7XL2HhZNY8N34f3KUrvd96E8+QEAkI54bJzlorBSCUbN3Cjtdepyoj/azVKys6BxQQgOAfQI/nnsPYIoZNjz3uvkf+IqmgSq1B7+dP7LhLib3iCnwSW6MLCqIuJ4eFo0c3PiAsXYnCKWLKQ8wuOF3Y7A5lWsHX++idlk8KCA0TJJ0qILhUKixaT2oNgZR4R1DsF0uFbygmg7fSKK3Ngn9VERFl6URUHMTHVIr6mK92MQBbNQZqPf0p8Y0iO7Q9BcHxuIxaKh1e1BXl4GH0wdfPSExOCn1Tf8fLXEGabwxTO03A2z+GHpF51Fn1lBVraZ2xlXaZ6/E3FZOpD+H3xEswxiby6shfqTTr2VMSw/bCOHLLA2iTtYUe+xbhZa76n7EKRVpf5kQPQhXfDx9bNdGl+4ksSyOwpgCDtQad3Xxcn86B21s2UVB2UDBjlyzGOzZW6iEV+J8K5M5fQNKkSTis7o8TeUgFhAJqjRZDUBAqjQZTSQlOu+2EgKDWeuAVGUX4gP7EXn45gd274+Hne2TaoSYjk/mjRjYyIEQycOkKUAnPhfvz3OF0YbXZiYkIwUOrPcqIjQoIAgxqdX4cCkwgI7QjpUExePk5CPWuJMi7Fi+DBZXKRa1FR0m1L/kVgVBSQ6fMVcQV7jnyFS7gIFsXwJ6oXpTF9sY70ElMUBmJoYWEGir4fOcoiitVtA6rYGTsHpYd7IgmrYhu+xeT4TKwIrof2phO6IyeaFVOxbvgXV1OSFkOiXlbqbBaWJY4hqiEMOZOnIpY3SG8CPnlHixPb8kfad0IPXCAfrvn4Gk98fxPsdaHn6MG42g9kPjAKvw86iis9sVRbSewMp/W+duJL9qNWsw/yeOcUqDXiy/R7r57z6k2y8aefQWcdjsLho+gdM/us1+5rLF5KyDiCDRahHfAabMc2R2xvtFagydxV4yn1XXX4te2DTp/fyVIUHyQix2BxeBdk5nJHyNGNAog1McRiGWOFy1drjRDBCnW5zvQaDREh4ccp2mjAILyta81kB/Ymv0xvSmJiKN1WCHdIvPoFJFLi6BqvHQutGqRiAGsdiir0bL3UBCL0zqxNyuSAXvn0KpgG2qXA5tKw+8hPdgWN4CWkWH8Z9AfdIwsI9zXTnaRhocWT6DWYeCevisYEJnFuoPhTEvuj+1gNUFFB9nbqj/R4SbaBhXQwqccNQ4KarzZVxZJZnEQntkpFPpE0iXRybc3zMVmVSnt0qhdmM0wdWd7pu/uS79Ns2iTvVERTcCPU6XGqdaicjoxq7T8EtGf0rh+jO54iCvbbiO7IoDU8mi2FCbglZbLiB0/orfXKdeLawWvnWp8Q/O++8/v1l25YwfeMTHndydl745SwGm1otbp/rYq2194kd0ffvC3r5MXnN8KiPl9sZIh7vLLyFm0iKrMTHewojhUKgwBgfR56y2ixlyMRqdrsIrBfYoYsKvTMxrNg3AiQBAQIhIjWa02Av19lWWNxx6NAggWtY41iePIju5Ox9h8buixjTYRNfgYbGg0hwMNGgYbuLM4YrFCSraBn3b2IiU5gGE7phJcnYdNpWVW7BCS4i+irZcv7UOLeGjgSrpGV5BboOLJZZfRKzaDO/ruxlProrIa1h8I4vNdQ8moCuXajhu5rmsKQT4mPDTuvNIWi4q0fD1L01sxff8A7BYXo9rs543LVvLVunaszOxAYmgBE7tvRONy8dKq4ZRsMTN201dYtZ4cjOhCelhHqjwD0DpseJsryHWoKNP6MqSLjecvXoaP1kFhuZrPt/Zn7zZ/Ltn6BV6WSmW65UBkd7zMlcSUpCrxDacSe3F+P0LNt3cSEJqvbRq7ZelTfyJt+nQsFeWEdOtB4i03E9it6ylXk/zBB2x58cVTPl+eeGEoIADBt2VL+n/4IXV5eWx/9RWqs7KU1QoCEDyDguk3ZQrhI0coH58CCNxLHkVMgBMxnW/KyWHBqFGN60GIjOSiJcKD4F5BIcZGk8lMi6hwZQVDowOCRaVhvn8n0mN64xvdimdHL2Rk23xUAgwaHocRxu4UHgS1MnCLP2YLbEj15d31F9Nq62o6Za1SFh7Ob3Mxi2P6Em11EBTgyQuj/2Boq0IKS1X8vLszE7qlEunnnvuz2lXM3NWSr7YNYlh8Cg9ctJGSOgO/JSeyOz+GtlEFTOy6Aw1OvtvUnh9SBmGzqLihywYeumgLD88ZRuq+INQ6J9bwAN4a8St7CwL4Zs1FDNswla2JI3FG+RERUEmgZx12h5qSWi+yq4MoNnkT71/OG2Pm0ibURE2dik/WdGHJltaM2/SZ4m3Y3Fost3S/dAIqCmmfs5HIkjR8TaV4OGwyJ0Mze2dIQGhmBmmC5thNJtbfez+1h/KJHjECn/h4Zc35oZUraHfnnbSeOPGUapWAcEoyndcnaT2PDuwTnVWrNfjEx9H/k4+VWKa8BQvZ/e57VKTtVyDhWEAQcCD+iK96JdbP5aIuO7uRAUGFITKCAYuXK1P9IlJRtKXWZKF1fPRRqxfqDXbGHgS7Ss16n0SWRPfFL6w1F3fI4pVxq9CeABAsVhULU6PZXRBFmHclY9ofIMrPTk6RlleWDsexKZ9+++Zh12jZE9aJZF0wOS4Dwe178sTIJVzWPpeqGqizaQnztx/JArVgXzQfbRimrJT45IpZBBlMTEnqTf46KxZfH0I6aZjcdzUbc6J4e83F1FXUoVXpuWfwWiZ02Mv9v4wlbO0WgipzmT3wXq7uvZ1uYRk8t+IqtFVW+rdN49+ddxEXUIfd6ULldFFj0rD3kD9zD3Rjb0UsD/ZbyhXtM7HZ4MeNrfhha38u2v4rByK6UZEQz6C4ZMUYe8tjya0MRFdRQ8tDybTN3qB4TeTqh+bzDpGA0Hxs0VQt2fjQI9itZvq88QZab7drVTyfltIyNtw/mc6PP0Zg924nrV4CwkklOq9P0Oj0DJ027ch8vsgT5AYENR5eXvgmtkbt6YnDbKFwxUq2v/IyVRmZ6P39laWQ0RePUnIeNNwlWVyvTDFkZDB/ZOMEKdavJnQDwrLDaRnco05NrYm2CS1OaKczBgRRgUmt5/OEMWSHtaddgC9PDl9Cv/gCpUJ/o8PdGBeUV6p4fv4wcrKNqDw96Nkmh8lDtmKxqHny9+HU7KgmsjyNoqBY7L4+mNQ6sq06PPxCeWDwcq7tml6fW0Ip2+ZQsTYjlPeXD6S8wkC71iW8delSKmo0vPxbf7Tb87D2jGPyyA3kV/rw0Yah5Nf4Ya+pRqfW89ToZfQJPchDMy+n87rfCS3L5NehD9OvTz4j4pN5ZuXVtPXL59mhS/DR2VmZLuAmHF8vC0PjM4j3rSI1x5NPtg9FpVfz6oglBOgtzN8VzpRNY1FVmvAOU3FX39UMaJGLxeQip8yTP9I783t2D+zlNVy2/Udalqag+otlMOf1E9YMO/fXgGAjbfXvbM23ojP6MGzUWPxOO02ClfRFSzgU35v+iSFHTTtZ87aSlAXD+vVQcnXIo/EUqEhOYf7oUYxLWoVPy/jjCt75xhuUb9/JkJ9/OmmlEhBOKtF5fYIINrwuL9cNmC6X8vUvDhFo2PBnysZIZgt5Cxey4403sFZV0fvNt4geMxrNYUCov1bAQdMEKdZ7EI4GhNo6MwmxkWiVeICjjzMGBEUEVGwK6cDn7S4h1hBErMFFdEA5bcLzuX/gFnz0bqqyWeG/SR1YuSaK1hyksl0iz49djt2i4r45V1BcYSTOv5jLOu+khV8FIg9JWlkwc9P60q9lGg9dtBlPnXCNuIFjVXoory8bRfD+VMVVbxwSxmtjl2M1u3hp2WDy6wJ4a8wi0kr9eD1pNH3DUvDR1vJL+kWonfDG6LkEqop4YdZYLtowFYuHJ78OmcytvVbTKuAQr669gk9H/0TroFpm747h9z9a0Cp/KxvbX0rndiU8edFqZQ3plJW9WZjVjf8b8RtD4/LYmObLq+suxaVW89roeXQIrVICIAUpbcvz58VVY0jPdDFs6zS6VB5A65IrHZrTW+SvAKFu13TaXvIwL32/gEFxvkS1iEN//HN1it0p56vOPfjj1u+Y8eBAGi4wKp9zL6OmwqppH+N59MqjUyz7bJxWznPPvcTkJ94k2Hj8/OXZaMHp1FG4Zg3r7r2f8Tu3n/DyghUrWXbD9Vyfl3fS4iUgnFSi8/oEAQj/zs46kiHRvX2yewmhEgR4eAdk8bfK4aBk/QY2/ec/WKqq6Pv220SMGqkAQv159dcLD4TwIDRuDMKJAaGuzkxUeAheRkPTAIIotVbryc+drmJLdA9a20TEvoNgTwuvjfudnjGlbppywqrUAF74fRyRtRl06G/mzgFbmb2jNT/sGMCQVilc2WEXG3NiifCpYmirXMqq1KTm+/PD3oFM6LGrvaaKAAAgAElEQVSNS9rmIGI5zGYXf+yJZv7+LhSU+VBn9sA/xMHH4+cSZqwjOd8Lh9aD1v4VzE+JJcynmi6R5ZSUqZmV2pEZaRcxutVO+gen8PmCi2idtYnU2J644nyYMmouq7Kjmbu/N7Mn/IDFAu8k9SRzmR1NuJEu/WoZ2y6Fohpfpu3qxvqcVoQYq3lt1Hw6hZaxP1/H4vQ2jG6fQaugGkTK6yqLhqSMaD7edBEV6eV0SV1Gr7K96FyNl2f7vH4Sz2Ln/goQLOlLGTz4akLHPsrESTcyJr6OJ26/mH3azpiT4/nvhjexLnubN3/dQ0ZyMo99uxR+mczcPCerU8r4+ZkxPHj3HFoMjWfCU/9H6dWDeS9sCK2r5lM3/HXm/t8t6NUgAKH7i9sZmGgkyzWE2Q97MOzJFFYte5t7Bg7k4u/2ckMrNQ7rOkb0epFruwXz+p5cvl+0HK+5H/Deii2sTyrmtkU/MnTFk4yd6c2EsC38uEzLpeNCWL9wN58mbSQ8+X0mf7gOf081fe94nScu7aIovXHaEzzyzV50zjp6PTiFSbZFTJyRgXdBKs9P+43+4QZ2fnYbw59ezrBRbzCy52ruSerNgWcNdBjwJt/OfZIbxr3JzZO7s/jdrXyUvoAWc15i8g8HCfXJoO9/5vHwmNZn0ap/VlWZksqyCRMYt24dHj7HR27nLVzE+kce4V9795y0fRIQTirReX2C2kPHkO+/V6LuFSgQg5OSIRE0Rk8lm6LGaESskilev4E977xD8fbt6Hx9lSDFCBGkeDj+QHgOxKFsaSBiA7KyGi1R0tFTDEfHIFisNny8vAgN9m86QBBehCz/WL7ueR1+JjP79AEkenhxZ5/13Dto95G9kXIKNTwy7wpCvKuYPGQ1FWYDT80fT9eoLB4avJr1ByP5ZPNwXr9kLl3Cy1iwvwV9w3P4YkMvbGo9Twxfi5depHwWcycqCis0pBb5szm/JZsLExnXcTsTeySj17glEStLnIgoUXc+xhqLik83dGF+eneubLsFTa2ZabsH4aG10TqigPv6riEyyMzzSSPIrwpi5r9/wmpx8eOWRHaXxjKhyxaCvCws3NeGhQc6U1Tni8NiJz6ggncvn098QJUSeOlAjVHnVKZXSus0TN3Vkak7eqDNOsiA/UtJrM6ScNBMXx1/PcXgpLook5n33c7jO6uZP+VG+lz+CGHhwdTW6flk2Rr0v1zBo1MLqSoyc8d3S+m3+xGmGu/gvYndWHbNlfwwdAp/PD8CHW4PwrwbvubTxJmM/qKaVbO/w0/nBoThP7hY+94o+o36nNk7ZvLZ9TfT/fr+PPt1OsnzPkS8ThRA6Pou3+36gVfGdSb2hV3Ez7idJ2euorSkkMBXVjJT9wVXTOlA0nd6ukx4n/lrpjOj13h6L1wDX/bh3hl2/LRWyi/7P+q+dOd/+OiWjuSP/4Uryr5m5IxAltyhYdx7pSz56SHahIei16ih4A96jvuM31fMJLh8G6EdruD26y9hivZyyu5RE9z5cn7bvoOvu3YhbsYC/K8Zw6teYfhpqul44yssfPeBf+QOsFVV8WvXrvR/731aXDbuuDZsfOhhDIGBdHn2mZO2TwLCSSU6v08QKxKCQ4/kBVZmA5X17Cq8Y1rQ57138Y6LpXTjJra++CLlycnK5kuGQHc65sjRI1Efno44NkixqQDh2FUMdrsdu8NJQovII8mT6o3WKFMM9YU51FpyfKPQW0180P5KtD7R9Aoz8/m1swkQsQgiXsEMy5IjaBNdhcmm5oNVg0kpjuSZUX8wtGU+369L5Itdw+kal018SCkp5eF8NHwOs7cksLGgNS+PEVMSLgrqjCSGVirLHK1WFwWlGmYnt+W3zD5c3XELYxIPEOHnTszkcqqoqNOyozCUZQdbkZTVnnZBeTw7eCFT13Wm1OJDp4h8hrbOJCHMwpqccJ5Yfjkah4vvrvyOGD8LpTUaZYMLu9XJrL1tyKkOJsqrjD2FkWwqao232sL7l/9Gt8iiIw+EyK2QWe7Fp1t6syIlBr+Du+iftZr4ukPKigp5NE8F/goQqrN28PPizZTs/IUZJR2Z+eSlTL7vdjqOe4TOceFcOqIN9/cbjeGaZwnY+RVc96UCCHOin+PbO3uy/oXJPDZXxTX39KL/uEvZPmqAMsXweavZDP9v6VGA0O2NdB6/MoEfkvSsmPMW2756jEF3T+GuT7bw0V09FPEUQOj9AVO3fMvLl3cj6skN7H++C3UDnsBrwzesHPu+Agjj3+3Kqu/VdL76fRas+5Vfe4yj24I1xG76D29uDmV8/+50GX4JvVsGKuWu+fJ+Xt3sS4JlDwf7PsB7YVsY+KmT1EVPEFBvtqrNjBl+NyNufoEbbx/E1uuGMnapi7nJ6xhZtRT/zpdz78uvsfrpT7hv1zJCXruLT03dGTe2DT1Gjqd7iyMlnfUbIfu339j74Ud0feopgnv2wMPHh9qcHDJmzSLl4/9yxbYteBwOXvyrxklAOOumOycqPLLM8ZOPMReVsGfKO5Ts3oXLbnfnQQgMou87AhBGHYlBqM9aLDooYEEkSmrcIEWxF0N9oiT3HhAiD4LwVlitdiVRksFwdC6QRgWEess50TA7ZgBLo3rSKSCE2/ptYmKfFHdOBBeIOI51maG8u3IY2ZX+eBtsfPPvn2jhZ2LbQU/e2zyK7dUt0RnsPNlvAVclpvHjhjZsPNSSly9eztaDfkzZNIbOETnc3Xc9LYNNiGn8g3ka/khtw8z0AWjVTuL8ywj1qqKo1pfMqkBqrB7UVtWhd2m5omsy9/TdQGGZTlkREejrRKMVezmoeWrxEBYkJ6J32ekbn8trYxbhLWIfAGFfq12jeCRcYmfLFD/e2XEZ1VYj74yZQ9+YQoUgBRzsLfLmmaWXk1GgI3pfEmNykvC118kVC838Ef8rQHDZTBSWVio98AwIxU+vxlxVTEWdA5E6NTAwAEtFMdVWLUZPDSq9Nzp7FWa1N35GHTitlBWVIbb58Q4MQVNVhsXoh6/GQlmdkyB/P8Xr5DRXUVptUR5enacvAb6eFKz7lJhB9zAvzcrFcYcDE1w2ykpr8Q/2o6a8FI13EI7aMuosdgxaLTaDL/6qOipqPQj0h5KKOgIC/bGUlqMNCESvdlBeWo7NqcLLPxAfg7tcp91MaVkFDjwIDApAbTNRZoLgAC/cq7WVs6gqLabOpiMoNIDqOXfR+VMr+/74EnXafAUQft5aQL9QLcFhAWidZkqKKxBZQLwDgvDW/3PBFS6Hg+zf5rH+oQfRBwRiCAigMjMDnacXAZ07YSooZORvcxRwkIDQzB/YZtg8MfiKZGttJ00i7aefqDiY5oYDcTQAhOiLRx9ZxSCedQEJTRek2BAQDmdSVMZjB3aHA4PeQESo+wOh/mgSQBBD6QGvaH6IG4oxIJaW4Qa+uOYXIv0tCiCUVqp5ftEwVmXFUmqpo22QJ99eO5UYfws1dZBVqKPQ5Euwn5XEsGol78ArS/rjqXfw2OANrNgbwv+tuRSL2Yavj4uRifsZ0TqdVoGl1NZAaqE/m/LjSS2PYl9FFJQewrOymIiSdJI9AjC07M6kQVu4vW9qvTdIGdSLaj2YvqcdM7Z1x7h/B4dUXhji2jOu0x6u7riXGL8aPLVOJabAIRJM2NTszPHjy60DyKgN4+3Rv9EzsliZf9qa7ceLqy7hUI6NNvtW0KdwO36OWpkgqRk+zMc2qVkuc6zcyatPf0H+mMl8dElis1MxZ/UcpkxfSq8bHuPavrHYC/bw6Kufcc+LH9AmoPkuwxA75ZVu2YqlrAz/Du2VOWORI2HDQw/hNFvo99GHf+lJkB6EZncrNo8GiT2HDAY8vH0wl5UigPTPUfdoD4KYYmjoPRDnuYMUM1nQpHsxuHeWFHsxCEiwWKxERYTi5flnsGKTAILooFiiOCusH2lBiYTGtOWR4cv4VxexqxVK5sM3l/Vnzr42lFcXkBARzRuXzKZ/fImiofKt3mAT6i3ZAby2YhST+qxlTJtcFu4M4/UVwyjPzsCq90YfEE5QoJrBLdMY1243iYE1OGwuFqXE8M6mS+i17htaVhxEg4r/thhNSJuePDJqMeM7ubesrrOq2F9iZNqunixO60hc+nr671vAVkMUu2L6oYuMJybETvfoTBICizBobVRbDaSXh7G3MBqdxsboNru5st0BAjwdipdhSXIIr60bR8tNC+ibtw6jU27o0jye3JO3olkCwsmbLc9oRAXEC33Dww9TvmsPo/6Yh9Z4fDIcUZ0EhEYU/XwpSq1G4+F21TttVnf2xKM+y+szKb5L+MjhZyWTYv2Qqmz3fMxujo7Dngu73YHDLrZ8Dj+yaVOTAYIICUw2RvN7cFc00V0Y3qWc5y9egb/RqQyg36xpw5fbBlCcl45PQAiX9cjjvos2E+JtU77QRVoAmwN2HwrggzUDKazx59Wxc+gWUcWCneF8sqQvidvnc8ilYb9fHHX+0Wj8ggkL0TG45X6GJaSRU+TFextHc/XKKYRU5XJI5893LccS0rIL/+qxhbigSopqfThQGsS2/FjKy8C/MIWhB5YQXVdIrVrHbmMk+/xbURLUCqeXPyq9J06NFhGj1a1FEaPbZdE3JosoHxMF1QbCvc1KhsjNB715ZuUV9F09m4SC7XJnx3Po4ZeAcA4ZqwmbKjwJO155hQ733Y9neNgJa5KA0IQGOBeLFts9+/rR9o47lXtmz3vvU5uXc5SHQKx2MAQeTrU8YpjIiqQEBzZlJsWjAGHZSmUaU0yDiC9xEYcgxlvhRRC7Omo1amXZo9jZsckAQTTIjAfTA7uRFRBHRNvuvHzpbwxpVabsnrgqOYA3Vo0hNy2XmupyAlt1p2d8Cbf0WUe7sEqKazxYkNKWuXu6UVIJvt4uXrn0D7qFlzJ3eyzTV3dj6IYfCKg5RJXGwDr/Nuz0S8BqDMArrCUGH0/8dXWU1Rq5dtXbhFblkuoVye+tx+IZ3kHJfIXWvRzFWleLteIQiXm7GF24AYPTdiROQLCf2BuiQm0kT+9PbkA86S360zLWxZOjk+geU65MG+zI8+PlZWN4cdRvtA+p4+AhHY8tGU/L9avplJmERu7qeM487mPm/U5I/37nTHtlQ/85BbY+9RR7P/vsn2uArLlZKaAM/sFi8H8Xv8RENj76KFUH0494EdyrHFToAwLo9sLzhA0ehEarPbK0Ufy6Pu1yY2ZSrBdJLzwIAhDUqsOplUXeBqeSy8ipxCKID3g7DoeT+BYRTQsIotINni2YH9iJgNgujOlZzH9GrMXf4CAt34PXlg2nZEcFtXl7yQ1qjSE0GqO3EZ1Ojd3uwqO2Gn1JLgfMDnzjuxASoEK4Q+pMKoJL8hm55xf8TWLOX4VNpaZQ589unzjSvaOoDGyB1i8Und6L69e9p3gQ9ni1YFl4d7QGb9QuFx52CzpzFaGmMlrV5hFjLkHvtJ4wTsCu0rDXGM2y6P7Y/KLQeXrj662lZVgFcUGlbMltQUFNAI8PWcT4jhkUlap5eulYdBvT6ZPyG1qnzHfQrJ7kv2hMy8vHc9HXX54rzZXt/IcUcJhMzB8xkvLUlH+oBbLa5qiAzseH7k8+Rfy/J2CprMQulu6JgV+4nQ+PLmKDJn1wEHpfXyV3Qn0WxiPbPYN7N8fRjbNZU0NAGLRspQIpGqU9IqDevXuiSPon/i3gQECCktuhtKKqwWz/8XLXB08c6YDTxephQzAdcs/fn+woUxv5IrgfjtAEohLieHXcfPrEllBaAR8ndWfzzkhGrfuETcYWpBlCsRm80Wm0hJrLaVeZgdZhYXZgN3yCwvF22jDWleNrKqNdVRbhlpLjshA6VSoKtX7s8InnoG80fh4GLs9diq+pnBq1gVIPb2XrZQ+nE4PTgrfDrOQjUDcMejhBp5yoydMFsN87ikxDCCWGQKxe/ui8AvHQG7FbqtF4+3FljyyeGLqW6ip4a81FHFprZvCO6Xg4RNy6PM4FBVQaDcN/mkbkiOHnQnNlG/8hBZI/+JAtL77wD9Uuq22uCqjUGoyhYSTefBP+HTooHgJxiIG2PlOiRq/Hp00i+uDgIx4E8TtlwBZZF10uREbPpEmTsNfVNlpXlRiEeg+CWkxtiPrc2YmFJ0F49+sTNYmVDU0OCDY0rPWKY1VwJ3ziunHDgP3cP2gb6UWefL+xCxv2J3Dp+k/wrS2iTq3DpNIqg76P04LO5cCi1pLn4Y+Xw4LRaVMGc/FztZL+6H8fNpWGMg8fDA4rvg7TUUsLhcfhdDdHEnBRrdZTqAsgxzOYLM8Q/B0WzGoPsmN706cjfHj5PBxWF99s7sDqVWGM2fAlOocMUmy0u/wsFGQMDyfxppvxiYvDKyrqLNQoqzhXFLCUl5G3ciUZv/yCrbbxXt7nSv9lO0+ugPAKaHQ6xMdGvddAXCUGZAEKIgahzxuvEzpksBKkqBZZGF0uTIWFFK5dR8GqVRSuX09NdtZxKxxOXvv/PkMBhOVJSjvEjpOHmUSJQVCmGg57EhSHgACVpvYgCDHqVDo+C+mPNao9odFxtA4rJqUgHJtDg7a6iDF7ZhBTmY5KpEc8hw7hVRAeC7Fz5ia/1qyIG0Zkmxa8NPJ3OoWUsmhvFN8s6cHlaz/BaKs+h3ommyoVkApIBaQCTaKAyL4YFEzfd6YoqxjEZ7ulsJDMGb+QNm0a5rIy7GazknFRGbkb8RCAMGh5ksIs7tTO7o2N3PtGiJg8kVjwcEzC2QAE0TcHGub7tmV7YBv8IhPxcZrwqSggqCKTNhUZhFtK0ZzjGxYd8Izgt4h+WELi8fHzJC7MQqR3DXvSgrli7Wf41f2ZYbER7S2LkgpIBaQCUoFzSQERyOgfQKdHHsHD6EXh+nWUbN1K7aFDOCzm45dFNmLf6gFBCVJUqw9Pebg9G+L4ExLcsNDkHoT6vh3UBbPBK44Il1lJNRxmq8ET63mzzbFJpWOfZwT7fKLJN4ZQ6x0MPqEEql1cuetHwqtyGtHMsiipgFRAKiAVOFcVEEsMtZ5GxUtwwlwJTdSxhoBQvzmUu6rDWyQf3rZaOC6crrMwxVDfT7tKjYhH0Al/wjk2lXCqthKxDSJmosTDlyxDMAe9IvB32RlasgMfW82pFiPPkwpIBaQCUgGpQKMrcCwgNNyeWlTmntEQeREO7//Y1DEIjd5DWaBUQCogFZAKSAWkAn9bgRMBwrGFKGygOBTO4hTD3+6JvEAqIBWQCkgFpAJSgUZT4H8BQv0Sy4Z7QghQOK0YhKw3XsdeLaPyG81qsiCpgFRAKiAVkAo0sQJaf39iH31MyaRYv2ukqLIeENzTDH+unDgtQAgNDlAiIOUhFZAKSAWkAlIBqcC5oYDYkKmkrOIvAaFhTyQgnBt2la2UCkgFpAJSAanAGSkgAeGM5JMXSwWkAlIBqYBU4PxUQALC+WlX2SupgFRAKiAVkAqckQISEM5IPnmxVEAqIBWQCkgFzk8FJCCcn3aVvZIKSAWkAlIBqcAZKSAB4YzkkxdLBaQCUgGpgFTg/FRAAsL5aVfZK6mAVEAqIBWQCpyRAhIQzkg+ebFUQCogFZAKSAXOTwXOS0BYuHDhUdmdzk/T/TO96t27N0FBQWelcovFwvLly89KXRdiJZ07dyYqKuqsdz09PZ19+/ad9XovhAr9/Pzo06ePkvWusQ+Hw8GWLVsoKytr7KJleaA8i+KZbE7HeQkIs2fPxmw2Nyedz4u2iPSaw4YNIzQ09Kz0RwDCrFmzzkpdF1olwpYDBw78xwBh48aNF5rkZ6W/ISEhDB06tMkAISkpicLCwrPSlwutkg4dOkhAOBtGrwcErVaL0Wg8G1We13WIL4fa2lol//Y/BQgiVbe3t/d5rfPZ6Jzdbqeurk6xZXMABPF8iudUHmemgHg+xXN6tgBB3D8+Pj5n1mh5tWIzYTtxSEA4SzdEPSD4+/szaNAg+QI6Q92zsrLYunXrPwoIBoOBsWPHnmFP5OXCtb93795mAwg9evQgNjZWGuYMFVi8eDE1NTVnDRAE1F122WVn2Gp5eW5uLps2bZKAcDY3a6oHhICAAIYPH46Hh4e8E89AgbS0NDZv3vyPAoKnpydXXHHFGfRCXioU2LVrV7MCBBHTkpCQII1zhgrMmzfvrAPC1VdffYatlpdnZmayfv16CQgSEM7dh0ECwrlru2NbLgHh/LFlw55IQDg37SoBwenibG/3LD0IjfuwSEBoXD3/ydIkIPyT6jdd3RIQmk7bpixZAoIEhKa8v85K2RIQzorMZ6USCQhnReazXokEhLMueaNUKAGhGQJC8uw3GDJxG9OX3crEi//NYwszubeHPy5bDXsXfc4tdz7P1vwa/shwMDZO3Sg3wrlcSHMGhLwVU+h5yy4WrLuLu/tfxaRFOdzWVo3LZmLX/I+4fdITbC7tx4Ki1VwcojqXzdAobT9XAOGhy9sxb9RM3jjwAjcu7EtG6iOEAbUF+/jy6bt48uuVBNwxkwOfXYVcpwTNBhAOLaZn24f4z/rZ7Lx/MBV3LuOjCe2Ve/fQtt944MZb+CXZh3c2beXhXsGNck+fy4VIQGiGgDDvzZsZv7UX2+5wMnLcb/yas4SLglQsfe9ObnrmKw7VOpR7TgKC+9FrzoCw7oN/8e9tfdl4XxBDhs9nRtkvdNXYWfHeZG585ivyaq3AAAkIh9+i5wYg5HNN56H0/WkXBS8P4aNO71L1TF8cZcncetV4fl65HzsQKQHhyNjYXAChdPmrJNy/kNV/vMJznW5n/NqV3NQ5lPyln3DJdU+zs6QKl6uFBITDlpOA0IwAofLAcvoMHsO+Q2LQaHC0GMCmFW/z5Q23sS1qHL5pH7B8R50EhMMSNUdAqC3ezthe/ViVZTnalhGJ/D79I2Y8dA/J7YcRueobfsvqLQHhHAGEX/9zDf96c/pxH4UjJ7/NBxflM+75JVx6cRe+ffdHjBIQmhEglPPckDheTqo6znYTvllOrz+e5sM8f0bYtvL1FoMEBAkILiUJhKsZAYLTZiI3bwcvjb8O3we+JXjFI7xjvJWN/7mM6JhIHJXl2L3sPNo/gS+31UpAaMaA4HJYyM9dz1MJ4/Gb8gMJW25jutejfP+fq4mIikZVW4ZNV8gTfp351N5fAsI5Agg1pQUULHuD1u/kse+7q7mpw6vcunkGl7YIISLQSElpDfYt7xE59mXpQWgwFP/zHgQnZXl7+OzyCczwnsizoxdz/wwH07/5jFat4glRV1NcV8uc/v25+4BGAoIEhOYHCKUHt7JozSI+vvU94p96CvuSl9kafydvTxrDmKED0Snpy0u4vUecBIQGL5/m6EGoyd7GzN/nMuXBd0mc/CCey6ewr9VEHr/+JsZc2gsvxZb7uNujnQSEBrZs7lMM6xdPY9ucD3l0jZ6PJ3bi+UeWcdO3T3D10HF0jfFXelK44HnCx74kAaE5AUJFBt/OnMesV18jJf5yLvNJ4qdUT558+FUm3Hwx4XrR2FI+S+zCXRIQjlhOTjE0Iw/Ctu+fZPjNr1NxjBOs85gbSZr9Pf7KTSwB4VgfYXMEhMw5TxE//rXj3JmxHR9izeZ3iDaIgEQJCMcK1NwB4e4RgXy6rPzoZmv1PD9rGy+Mcwe7SUA47rb/54MUU35G1f7a4xvGUFaULGNIkHgeJSAcK5AEhGYECOAi44eJDPqkmPVf3sawEa/y0ZaljIrya2A3CQjnAiCAk51f3cXwlw6wbOrtDBr/NF+u3MTVHUIaNF8CwrkGCJjSuN0nEc2UFVyTeSvPVN/Fmi8eO6obEhCaISCIT6uU+QwccjfPzlvIpzcOI/Tphcy4qQt/rgOTgCABweVSNHC5mt8UA9Qw4+ZBvF40nml3mejz8k52LJ1NnL9OAsIJ2L/+R83Rg4DTzLRbLufxDWOY+WoGYx5dwtKNO+ke1jCttgSEcw0QbAeX4dN6BE8uW4dq3GDSH5/Ht8+NloDwF8+n+NU/H4MAB/54hyGX7eXnlJu5c+ho7vmtjPt6NFyEKgFBAkKzBoSTPGXy1ydUoFkCgrTVaSnQ3KcYTqtT8qJmAQjSDH9fATnF0KymGP6+AeUVzTsPgrTP31NAAsLf0+tcObs5eBDOFa2aUzslIEhAaE7342m1RXoQTku2ZnmRBIRmaZYzbpQEhDOW8B8pQAKCBIR/5MZrzEolIDSmmv9sWRIQ/ln9m6p2CQhNpWzTlisBQQJCk9xhdrsdjUaDStX0+wtIQGgSEx4p1GazodVqz4otJSA0rS3rS68P0hZ2PRuHBITGU1k8j+LdqlY3/T48EhAkIDTenXu4pNraWpI2rKJVbAKtE1orP3U4HcoAo1apG32gkYDQ6CY8UmBlZSVL1y6nW/suxMfGK6t/xB9xiBdUYwOgBISms2VDOEhPT2f3/r2MG3WJYkdhU6fTqfy7KQYeCQiNY1eTycSyNcsJCwqle5fuiq3EuxUXTfJBJgFBAkLj3LmHSxGegy07tjJ76x/o0TNh4OUUV5eyI3svYfgzYfwE5Wu0MQ8JCI2p5p9lCVsmrV/F4n1J+OLN9aMmcDAvnV15ycToIrhq3HgJCE0jfZOVKkCgorKCL3/5hhxnEf2Du9O1Sxd2Ze0hOy+XS3qNom3bto1uVwkIjWPSPal7mbVxHrVmM3eMvomC0gJ2H0rFVe1g4vgbMRgMjVPR4VIkIEhAaJQbSvmyxEVWdhb/nfsVHnFG0vZlEmz2IrJTFAeysrhv6ES6dejS6F+eEhAaxYRHCqm3ZdrBNH5MmoEjVMO+HftpoQkhsEMomUWHmNTj3/Tu0qPRbSk9CI1ry4al1U8rzFwwi101qdQZHKT+sYs+/XrgCNZSl1nDS5OewGg0NroXQQLC6du1/nksKS7h+wU/UelnIvtQAcZcF1HdoimimpbVEdx74x1oG3laVwKCBITj7tx6F7L4hRj0//JwgXBDZ+dkk5pzgI01uTQAACAASURBVH0laTgDVdh1kLo3jRCDD2GtIti9di/jOo3A4GMkVB/A0MFDGu0rRQLC/7bQcbYU5jw2LKT+Zy6Ur8us7GxSsvexv+wgBGoUWyZvTyU6OBS/6ED2bkplTKuB+AYFEBccRZ8evU//7XfMlRIQTk3Kerse93wea18XCE9QUVERqen72V+QRr69CH2IJ8V1VaQs30X/EX0pra2iblc5lw0fi91mZ2D3/oSFhp5aY07hLAkIbpH+1vMI1NWZyMnNJiVjPylF+zF5WfHw1ZOWkY2uzklsh3j2ph4kviKA7n16EWj0Y2i/Qcp0Q2McEhAkIBx1H4n5LKvFyqGiAuYvnE9OQT4WuwWzxYxLBZ56T/y9fZUbvcZSR3F5MdogPZGJURi8DLg0oNKpKS+vID8tn8Qurah1WNm+ZBthMRFY66w8MOwWBvTr32hfKRIQTvwqELuVWqxWyspL+XXOLPKLC7HYrYotRX5Zg96An6c3LlTUmGooqixBH+pJVGI0OqMHLrVKsWVZWQVl+SXEtY+l2mRiw6x1xHSIR+fQMGnQvxnUd2CjwZ4EhJO/1q1Wtw03b93M6rVrqLWZqTXV4sCFRqPG19sXnXgQPdQUFBVQpzIT2DKE4KhgVFoVaNXg4SJ56z6iW0TgFejFgZRMSnNKCYwIJs4jnEeuvYegoKCTN+YUz5CAgBLjIWxXVVPFvN/ncTA7A6vTTo25DqfLgd5DR6BvAConWHGSW5QLRhVR7aLxCvBW3r8qnUp5hg/sSFPerTacrJ6xirCEKGXqdnTCAG658oZGe7dKQJCAoAz2Ivhl38H9JGenUmYrp85lxuDnicHTgMPuxGQ3YXXYlO2xHUowk0q5CZ1iasHhVG5ecQjAKCsuV8oMjghEo9NSVlFF2o50jP5eJGgjee6Ox9F56BptUJGA8OdbWryExOCRvD+F1Nz9lFnLqXWZlBeMwaDHZndgspuxHbal0+V0B49q1DidLsW+qEQgIjgcdspLK5QXW3BEkGLL4rIKUtalEhARSFuvFjx83b34+TbcK+QUR4z/cZoEhBMLY3fYKSsrY9POzRTUFVHpqMalB6OvF2o0WBxWLA6L4i1QAg5dLjRaNSpUiv2OfLmqVFRXV1NbVYvR14hfsC9Wq52D+7OprazDoNJx66AJDO83pNEGGdGjCxUQhO4CCjKyM9h1cC/FpmJqXCb0vno8jZ44HC7MDgtWh1Wxk3gGhYdPvF/F4XT8+Ty6XE4qyiux1FkIjAjAYPSkqqaWbct3EhgdhJ/VwJPXPEB8XPyZPYQNrpaAcAEDgrh5xZKZrPxsZi2dS42XidiEaNRq4QZw35xmiw2TzYTNZcfpcLonHZx/7mVRv9xG5aGiqrxK+RMRG4mHTqNMT9jtTooOlZKTnoe3vzdDA3ty2w0TG+0GFgVJQHDbQ9jyYNZBps2fiTpCQ1RcpHvViFql2NJktmG2m7AftqV7RYLYVsqp2FaZvxReA42KitIqaqprCIsOQ2/wOGLLgrwiMlKyCQj0Y3BID+64+bZGAz1hSwkIRz8awkZVNdWs37qeBduW0qp3Ika9DpWy8gDsNgcm4VGwmXCgPJgK5ImZBuFBEv/WajWotWpsYqohr0iBisCQAMQqOYf4OKi1cDA1E5vNjrFOy4uTniC+RVyjPqMXIiAIWCssKWLO0t/IsOTSql08Hh4eyvMi7Gq22BXvrAA7AQfCdspfuPcJ0ohVQmq1Anq1NXWUFZURFB6El69ReT8LuBAAv3dzKgGhgcTUBvD6s/+nPPONdUhAuEABQZkiqKlh8aqlbC/ajSHCiI+3N1q1FhXia9KJ2WpRvjSdavFF4sRcbcZUVYel1opO56G8aDx9PFFpXQJ5FS+CWiPI14VapVK+YmwWB2m7D2Ky25QB6LaeExgxZHhj3b9KORc6IAhblleUsyhpCXsr9uEZ6Y23lxdalUaxpRgkTFa310DYUnh53LY0KVM+ep0Hnn5eePt64VA5UAkXtDjcnKjYUgwkdouD1O37sKtVGNByc4+rGD5s+HEhDWdiXAkIf6onBpj9afuZv3ExFZ41+If5Y/DQKx4DYXO73YHZZsYhJhc0YKm1YK2zUFNei3gYjUaD4rXz0GlReYinUqXYVPlLDFKKx8+pnJ+8bR8Gfy9aekTwyLX3EhLScNfRM7Go+9oLDRDMZjOrNq5h9YH1aMN1+Pn7Ke9WtXgeXS5l6s9qt2JXOXHhxCKexxoTpmoLOg8tRm+j4vVz4kDtoQaRT6bB8yjerQ6bi/ysQxQVl+HpYWBkRB9u+n/2vjtO8rrK9lT6Vc6hc+6ensREZsg5SFwUAQUERVl0Dauu4Zl1dddV365hF9ewhlVcn6AgiEiGYUDCzDBM7gmdc1dXDr9cv3qfe39VPYP73r5nz/xBz84PcWCoru6p+w3nnnvuubfcxqzRiXpOAYT/pgCBss1//9U9eHxwK9acuWpB1GL2tlthUPZhqXLNkg6qqcOT0EQNbR3taGppRLVqomClIkPSZF7krI+yE11t4b5cOnwqSgV7X94Pq8/JC/eO9dfjiksuP1Hr9xRAAJjC/Pn9v8SWsZe4LlkXKNV/rRDzY6kCdgs0WcHU4DSqioG27nY0NCY4EyVWSK0oEDWqh1b5PKLXL1CdhsEAYefWXfA1h2GVqnjH+uvwpktPbCxPAYSjW+PI8CC+dc934ez1IhqLcEwYsNntDPqobk06EViryCdzSE2k4BHc6Fu9jDsRiF2g14i6BE1Xzf1Jl4zNjKt5yRgoZkvY9co+RFvjaEEUn7zlQ0icQIHifzeAoOkatv7xedzz/G/QuaETjlpbN5+tVJatna2wWhisz43OQsyIfK62drQyA0BMgmZovB/Z56B2tnL8CLATS6QaGD0yhrKqwW5YcVFiI979jjtOKKN3CiCcBABBFEWkMxmmpSLhMPx+/3+5SOhi37V7F77xwHfh7QihtSnBAhc6NIhirg9IJ4BQKooY2zeKaCKC1u5WeOweWKo1dsAw655cu6bjh8pldIiZ+MCkQHUdu17cC2fQwzXsCyIbcNet7z6hi/hkYhA4ltkMdE1DLBrjWP5XDzE9217dju889EP4eyJobojzgUQsIx1GC7GEGUsCeqFYCC3tzWYsOaMxoBoq10KZniaAQN+U3oP5oKOx3LFlJ0LtceiihgsTG3HXbe85obXqkxEg0OeZzqSZsRMEJ2LRKATh2BHu/znCpBP4wb0/wauZA2jpbkKI9jTrfiymeJQCwzRzBbNjcyini2jpa0VDLAGLQcyRBbqhQzFMFpC3Zy2udQaagWEVyOby2PPSPiS6mmDL6Pj87Z9AX3fPCQXxS5VB4DJBMskaLTpbI5HIf/m50Gd8ZOgIvvTDr0HoCqC9rRFOgUpCFC8CCGbc6GyVJQWTR6aYwWvrboPf7YelarJ3BA4UXYZOGiEuG/GXv+5spb06eHAYKv133UCbEsHff/JvITiOHSl/fGE8BRCWOECg7PG53dsxUU6jJIqw60B7IIrNq9chFAjy4U2LnA4SWl1MFxsVfPrvP49kWITT70J7ayNcAmX4tUuB6UcDkqxidGACcqaMeEcDGttinJmY2UsVhoVYBjM5repHG67MLIeYiCpEScXe7Qdg9zq5FtpaieHvPvg5PiBPlAvfyQIQSFz41PYXkdRLKJbLEAwrOoMxrFuxGtFg2MwcKhX+m/6Z/lYUBR//8qdRbDbgDnjQ2pzgWHLGQWCPwZoBSVIWYtnQ2YiG1hiLpKhszRoEiylWZF1CxdQm1IlKKynfLeD3eO3FvfAlQjB0nQWnn7z9wwiFQsd3Ch3z1ScbQKDPcy41j6f3b0dRlaCpGgJWJ1a3daOvqwcel5vLeRRT+rUe1917d+PbD/0QlrgLsUQYiSgxCDXyuAbiDRIuposY2TmEcEMU4UQQjW1xjimqVi49GFb6F7AyngVv9S5XKznvmSLjubk0Dr12BOGWKCpFFXeccxPedMGlJxT4LUWAQCzr1ldfxoSSQ47AnWFB3OnD+v5VaG1s5pJpfT/S6UfRoXj/+32/wHPJHXAFPGhqjsPv9pjJUy1udLoqmobJ4RnMHJhE6/J2JJojCISDHDt6L9qTBNApPqD9SAChtiGJoaX3Is3I4YFhKBWDyAi4izZ85paPoK/XdK89Ec8pgLCEAQItzh37dmNbZhQIuCFqCsSyBEOUkT04ho3d/WhoaYYkS6wn4IyySlUt4PEXnoLhpdYbDf6gG+FwAP5ggBdyLpkHqqRFcMAleBCIRZEWi5gbGkD/hi4YNTBAVCUtVEKvNfddXpMkqqFLhQ4k6mAYH57i1kmXz41KWsbHrnkfNp++6RRAOGYHE4jb+uor2CcnAZ8TkqZCEiVUihJKQ1NY29mHeGMDJEWGrMqw2ex8kGgVHY8+/ySsATvHMhD0IMSx9POhkZ7JwWpzwmLYOZbecBDpUhGF+TF09jdzjEzquUY7/99iqRtI5woYG5qCKsvwhPwQSsBdl9yKczaffSLOIn6Pkw0glMpl/OzRB1Btj0CzVNkBT1cUlCbn4S3q2Lh2HYMvUZUZyFu5f72KqflZvHpkFyxOAtsWxCIB+MN+eD0eiCURxZQIh5MYIDt8viAcIR+GBgbQ2OaB2+MyGYO6JoiEqDVwYF5UgF0wC9qqrGFqLoXp4Sm4fW5YrHYsszXjI+94//8zW/5zgr7UAAJd9AeGDuOZsX2whNyQKzrKooSqoqEwOImeQAJdPd2s7VFqZyt3j6CKnQO7MaekUDE0uD0ORCNBBMIBLv1lZ6kryAq7hRImF7yBIERUMDU4gM7lDXDYSRBsggkCAiQeJnDAD0m97BbYHKauKF8UMTkxg+xsBoF4CEZZx5W95+O2628+YeDuFEBYwgAhmU7hl1sfhdroR4VuA8NAcXoOs0PjWLl2NXxuDzzUpki4gGlJ0hNUUNYUSKoCQ1X5glEqGtRSGfMj47BIGpZvWI9IPAFPwAdZ11BQZZRlCYde3oaeFTE4nc6FRWwKp6t86NBCpkVtF8wFLEoK5nN5FHJFFJM5+ONBrotGZwV880vf4Pc5Ec/JwCBQlvmbHVtQCjnMBNAwkJucQXp0Gv2rVyDg98HjqsWSMkmrBXqlgpKiQNbMWKq6zq2ocrGM1Mgo7GoV/advQDgahdfvg6irKKoySrKCsd2voa0rxGJTPpC4LlRjDsx/ZBbI5qA2uSpEUWaAUMiVkB6bRbQjwfqS01zd+Ph7Pvz/pMz/f+N8MgEE2hdP/XErdlVTMAQ7Cz0rRCvvP4SAx8f1Zr/HA7vDDp2YZapRVwFZ01AiwKAqXGqiy4l+Lc2nMHngIJb1r0RrXy8CoRCsgh1FRebYTgyPAfIsEk0xsxRRu2i4dbV2wRAosDtssNiBilpBrljGfDqHQioPG9kjeFww0io+fPWd2Lz+9BN20Sw1gEBg7ZdPP4IZv4Eqt3MbkNJZDO/cj2UrlyMej8LjdhNRw//d7BQyUFZVTtQqisz7U6noUEUR2akZqOk8+jeuRyQWRyAYhFLVUaDYaSqGd+9FLGqFP+QzY1XTm9SZA2b0rLWz1QIokopMoYB0Ko/ZI1No7G3ifdqsh/GlOz8Fr9d7QhKwUwBhiQIEWrAvvrYDT8wehCPsh2CxIGAX4K4CDsEFq93B5QTSCxIA0GlYUq0nWiFK01KBqmtc41IouzCqcGkGAl4fH/Y6CEioEHWdN4eq6Zg5PAyLOo+23hbTX7Hu2kbUF4GD2oVCOalYVpAvlZArlKArKorzBVblOgQHLOUKbl53HS6/6MTQmEsdIBC1vGXbS3ihMAar3w2H1YqgXYDLAATBBQvpQ6g8ZIWpfDaIzqSWqCoUo4KKxYBCsSQjFqNKmjU4VYNBBbVV6VUTFIo1GlvRdEztPwivU0aiNXY0lnX++RhwQJdcuSwjVyojXyzCkHVk57LwR/0MLhxF4NYzr8eF515wQi6TkwkgkJ7kR089hEKcgLAFXrsdPosdLqsNNofA7cSs+6H9oqk1vQexQgbvS2otJgBPMaWY23UDfpuDy3zUaUKGOUVNhUb989Uq8ukcBl9+EWvP6ofNXpO8H+OsSNvUVgcHWgX5YpnjWi6WoZZlvnQCUT8shgUtcgQfe+eHEIvF/n+x3X/5uqUEEGjN792/Dw+P7oYR8cBO+1EQ4KpY4KRSrM3OLYiUk5HOQ63oHDuKAcWqUq1ANTRoFfrVFPDYZQ1Bn6+WXFUZ0JV5z1K8K0iOTcIoTKO1lwTgtbO1Btw5AaPEi7sZyLNGRb5URrZQhCapKMzl4PQ64fZ7YJeBy9rOwY3XvZX3/vE+pwDCEgUIRGv9/KmHMe2tQLDa0RgMIiA4YbNY+cKvGyTT4aPRRV8uI5cjS+QJJOeSkIsiWns70bW2HxqsEOjQstDfpGA3+JCSK1wJ48tJUXUkhyehF2bQ0d+4sO5qiadJiQmU1eoQJRmFkoSSJEETVdpFKGVKEDwCt0b6nS5EJB8+c8fH4Xa7j3cNL/k2R1GS8G+P3Y9swMqCpuZgCH4CBrDwgfP6WCool0XkcjmMjU1gPpmEUhLR3NWOng2roMECJ7VTWaxmLGFAM8iMhbvk+SAjgDA9MAynrYSmtqOiq9fF0gHOgDiWZRFFkWKpw0KtdaLMBVFf0Aevw4HmagIfuPEvEQmFjzuWJwtAoEN9dGoCP9nxJOxBL8JeL+JeP9wE2PjCP+ajqlYgSxKoHDE7N4fJiSnkMzlYqgZOO28zPJEQdw05CfSTAZLFpLJpf6qkW+D7xIJiroiDW7dh/TntzErUM9H6ArIRs2cxW+xKZREFUWIr36pShUGAIZlDuDkKr9sJmwK8edWbcPn5JwbELyWAQNqDXzz6IIYFCXanEy3hEEJOAgpkSGV2a5lYmuKoQyKQVSphZHwCM9MzzOB5PG6sufhsVB0OOKw2bjm2WszYEZCXSEtU0/louoHU1BzU9BQ6+mIL5dqF/UjJgWBqxyRZQZH2oyRxWyv0KpeP8rMZRNrj8AlOCDkLPnDde9Df23/cLMIpgLBEAcLc3By++8h9yFlU9Pd1o4GU0XaqQ1f5QqDFp8kyJoZHMTk1AamiIpPPQ65SX60NDksFfb0rEe9oA+FfAgFuVkmTgpbaF00hYs3QC7KqIzM+Czk9hZaeMASnwIcN0ZdUtqC/WDWt6SjKMmRR4WyTmAluedQryE1nEO9IMK1qUarYHF2D2268BXbb8U13XOoMwuEjR/DTrX+A5DCwvK8H8VCYY0ltohxLiockYXxwBNNz0xB1BVmKJQyuRwoWA11d/Wjs7oTOgM4KN2kKLIBGZle1zoR6LCVFRXp0BkpuGm09MTicdr7wiSIlpqlCmStZbmsaipIZy6pimu5QLA3dQGE+h1hrDB7BCatqwVXLL8JVF11x3B7wJwtAoL1z/8MPYsvsEURiIfT3dMPvdjPoo5gSSCDmKJ/O4MiBgyhpZc4K82IZFbsFDrsFfsGNVadvhM3tBsEAp9UCwWb20RM40PiCMTtO6PsVskUkD40iHNERawrTQjCNsCoVaIbOmS0BeKLBS6IMncF7zT0TgFyQ+LWRhgicdjvcBQc+dftHkYjFj/uiWUoAIZVK4YePPoAZrYC+nk40xmNwO5wmQ1Chs5XaQzXMjE1gZHgIUlVjh8My7T47JVtVxINxLNu4FrqFmAYrXFYLbNzWSImX+R71tlVF15GbSaE4OY7mTj/cPhfvRz5bGUjU9qOuoawoXO4zRDpbzfIus3yZIvwRP7y0xgxgfXgl3v2W2467jHsKICxRgHB48Aj+7id3Y+VFm9Dc0AiPIDDCpUdRNUxMTmNw4BDyapEpalpYpCegrMRpsyBaW8AViwV2Cx08JkggutJkIEzqk36PnrKsID+TQXZsCIlOLxxegZW2mqpz+YEWOV0orMbWDFg0lscvSOGpxp0cmkGkLY4wiSGJCs9U8JEb/gr9fcuOK/Nc6gBh64sv4N8e+TVWX3QGWhoa4HaYsaQDSVFUTE7N4PDBgyjpItc7RZnc11Q+/F12C+KhBProMCIq02IF6c84lhUDCl1EsJC1jtmlQHS2pKAwk8X0wb1oXxmD4HVyLBVFY2U01001s/OlSnHUzEuEAIapVwDS4ym2W6YyBqFRv+jCh268C53tHccVy5MGIBgGPve1r6AQtmPdmRvhE1xw2clFz/QHyeULGB0aw+DIIGweAZKmQVIUvsgdVgs8dgd6V65GIBFDlfYn1Z9rCE/WK3Sv8w611nqLKSstZAoQ5/MozB9Gy/IWBvBMgctmqYL2P8WXrNEN1YCFsohaCYJ+LjLNEvMi4i0xuJ1OyAUZ5zSuw7tuuv246eqlBBCGRobxle9/G+1nrEJvTzebUxFgYnMqaiudS+LIgcOYy6dgdznMS1tTWYQl2C2IeENYfeZmaHR+wjxbyZiKQCEBuz89W8kJs5DMYXbgEGJtAnwRP3efqLX9SNoiKiFSksViU6pbcJnx6H4sZ0uwu5wIBX1wUAmkUMV7r7gdp6087bjA3SmAsAQBgqqp2LL9JbyUGkSitQE+B9WtbWaPbLWKmalZPPfMsxAiPqhVGtijMz1F/bSC1Yr29k609fWgQjaeFgsDBrOeBka39NBhZLbsmhdLXpT4UkmOjsIelGHzCmzQQiY8hlrhrJIuEUstyzx2BiS1U9H706VTSpXQ0tHEK5sosquWXYAbrnzLcdWvlzJAoNbGx17air2lScSaGri0QODA3PxVTE1O45UXXwa8AhQ67OniNipMNZNWoaO9Ey3L+mDwDB7KXswLnO51ynZqfkcL2QrFNi/KKM5mMXHgIDzNFjg8DnZYpIuDhGt0EBG4+8+xtIBE9lQ3J3teKSuiqaOJwUg5U8JNG6/BlRdeflyXyckCEKbnZvDTpx6EuzOOIJUW7A6uW9O6V1UNr27bgcm5GcBth6ya9Wryo6C4hrw+9K5cCW8kzJcJgQOHzSTjCLwTOKDOU7OLtc4UVZBJFyCnipgY2YdwdwAGKR7JtpcuFoV8/g3OLvmNakJUpspJq2QzM9bsXA6hSIidOHkmx7yCL73nU2hqaDqui2apAAT2Fdm3C08O70S4JYGgy8v7ii56+jRLxSJeeO4FiNCgw2BBqV4hCF4F9RU1RBPoXr0KFqfA+8J1zNlKYJ1A/dHYmflTSVWRn8th5uAwLN4SXGE3DBuBcgMVrcJmVkwJ0/law3SmBIxYCbNdVZVVZKeyaO1rZcdG0pSckTgNt735FhYsLvY5BRCWIEDYP3gIv927FcG2BGsOCCDQIqaHDhpCqX98YgvmyxlUmFSw8GHv83jRtawP4SYa42r2VDsJJHC/LQFT81qnDOZYdEqrOlssozyXQzY5j1RmDL6E12y5qZnomG589dVrbgQW25BDKIENC+U6VeRmc2hpb2S3RgIzwZIHn7jt+MRQSxUg0J9/z6EDeHLkNQhxPwMDv8PFWhDa/ip1KcgKdjz/EmcrFbaxJn/cKgI+H3pWLEcoEas5H1qYxqRLg8tLNe0CXS7HxpIOQFKui8k8MrNJZIuT8ETdsJFr4p/Esu6FwO1bbIJl0qS01KgbhcBeQ0ucTbbotaGCG3/zzg8gEVv8mOCTASCQPug3zz2GeY8Oq9MOt90Jr52MkUyDMWJoCPi9tm07RGvdS4TEpRY0JBrRtbIfDpfZKVRn9zjDrxCINxi80+/XH/pHSdVQSOchZkuYGDwIZ9zKrqb2mqspl4YoiNxnXzPAYj8TumDMFld6x3KuzEY7BBLo0Usarll+Ma69/OrjAvFLASDQOp+YnsKDrz2HasILu80Kv8MUKZrGU+bZum/XHjZD0h0mpUZnK01i7OzpQXNPJzNE9FkSgCddIWEyAuv0udO/18EGh7BaZX0PdXnl57OYmT4MX8IDq9MGKrzyOcpdTTUvBDpF62crgUNiJ2imRsXgszXeEGV/E3pNaSiLT7/zo1i1YuVi8QFOAYQlBhC4/ebZR1AK0Uojj3wDLpuDL5dMMoXpqRnE+nu41jh5ZAiTY+Oc0SVampFobYGTzHFqXuy0AOkAoXVK9BddLAwOXpddmG5t+XwJSqYIsVjAge3bEF/RAKfbVMnS0JBjjRDqhiF1gLBgumMBZ67NXc1wOkgvYYGWVXHDhitx+UWXLXoRL1WAkC/k8dtXnkU5YI7gpcuDaGiHxY7U7ByS82lEl3VBlmRMDg1jemwcgtOJhtZWxFobIbhc5qVNZaJjYknggA7+o7E0rwRmcfQKt52quSIUUcLAzm2ILItDoOFa9UvkWFOLWqq5wAgtUNIWlNMFRKMheP1eU/uSVnHX5e/A6Ws3LjqWSx0g0CWz79AAtkztYwaPOohob9Ie1VUd0+OTMFxOuCJBFNJZjBw+jEImi1AshqbOdgTJUpm6G2p71MGgzNxeBOAp1vU734T+Zi5ZllWUUzloZIi17wA0pwx/3MdgjnE7M4NH5XX1ltY6eqyXjujFYqqI1h5z0JemVuCas+Cbn/3aSQ8QSCz82CtbMW4twul1QatWOG4Oqx3FTI5LC8GudhZ5zk9MYnx4hDUb8eZmNLS3wuP3mlk9bWfak3XAzlW6KhZiyRe/ycwSYC8UypAzeWYLXnvuOYR7I3AHSKRcP1vNGJvP0XbkY2PHQvKyBKtWRWN7g6lLyCu4rPNs3PLmmxa9H08BhCUEECjo+w8dxEMHXoTP5kaumENwWROjR2IStj7+NErZIs674Vo47DbWE5RzBXb8cgd8vHjNDNOsjVkrOlxOBwMDUueST79eKsPtdsHp85idCRYLZyelTAF6WYQiyji4YzdcCQGeqJOtQennOvYxbWBNV7H6uqZX0HvlZ9IINUYQDvi5fVIsEBW2Bu9+6+2LFtQsRYBAZYJX9ryGLSN74LW4kCllEext5AODKMLHfvMQ7A4nzn7zlVwaImaolMnD6RTg9JuUoemKaWoDbIYBp2BnV1h2wAAAIABJREFU+pmyFTIzqhSKcPu8ZizZRRMQFZVjWRElvrAGtr8GR9QKX5Tc3moxOyaY7I9QK129LpZWC8rzOQYHNBmQaqNiQcK1Ky/FdZdczazCYp6lDhDyxQJ+9ewfIDkBfV6EErHCEw/RSY+ZsWns2bkLHcuWoXNVv9k+rKgQs3kEElHT6bRWhqB802pQGYmMx2wcU9KUqMUSrJoGTzjInQp8yVAWSnszXWDx3NTgGAqFLFwJKwSP8xhm72hEqG3ObKcz9+jRbsgqclNptPe1smkPKezTw0nc/ZFvoLGhYTEh5a9ZCgzCkbERPLBzCzwuD+anZ+Hva+QkjBKsx+99CHafG2dceRmDNDpDxUKRTeK8YSrnmKwO7UfaMlbaj9xqamEdEDloaoUiaxlcQR+PVzd9aXQWl2qFModi7x+3wxqoItBIPga1s/XY45Wt7I8BCQs6BAu0kgitrKCtt82c7lox0G1rwd+84wOL9ik5BRCWEEAgW+V/vv8eOAI+rPC0Y8vTDyN2zSZk5uYRbozjmQf/AMHtxvpLzjdHNtcoLVrQZo+uOcWNDiabUYVaKCKSiKGgaRALJRT3jkHa+jLCAS9sl2xCdHk3g4QSHWLzWVRkDYqsIj2bhOC2I5ebgRAUarbKpqEOZzSMBmpnSY2aJgqT2ArqZLA7BcQawwxMqAOiQQniQze9Fy3NLYs6gJYaQKDNK8oS7nn6YVY5tyKEP259HI1Xb8LszBwaOlrx0E//F5q6O7D2/HO4NGNSlmZ2QiCAWAKiMIlyJnCg5IpcbihVdBRTWZT3j8PY8hL8NNb3mnMR62zlOil1JYipHCqKDlXRkUnOw+60IJubgTvsMoFHbZDPsUlLLVHlDIYoaYol9V9b7TbEGqPmtEe9ghYlik/c8WEEg8FFxXIpAwRmD4YO43d7nkdPoAPlkWkM6TOIrOtDOV9ENp3BwN4D6FuzGo3dHXw5E8gj3Qh9rsz8mEM0+Vclm0PQ50fF6eA21eLILCae247O6Tkoy9oRvfIceIJ+Bo+FfIlZoYpuIDObYuFpLjUL3VqG4HXxRUf1ax7EdZR6WADwbMJTM1sjAWq8Pc5UtULaCNXAmxJn46Ybblw0i/BGBwjEkj6x4wXsn5tAt9CEVx79PQKXrMZcOo325T144If3oHFZN9ZfcM6CFoMAAQE4UzdoCoSJ0UXFQHF2Hk1tzRCrBvtMaCMp5J56Ho0E0s9fh6ZNq3l/kKC8mM5DE2VU9Cpmxybg8ruRSU3CGRZgIf1WrRvlaP9jbWuxCJzKDKb+SCmKPJmzpaeZf59KlGHZg8/c+jeIRqOL0pCcAghLBCCw9efhg/jNoZexytECTyqLfQ/eh+oHr8f8XBrxrjYM7z+CQEMcfrL1pMVLiFaWkJycYbtkRzDAhwMJFck1cVlPDzSrBbPzaYSyVtgPj8O7bRvcioJ9DgP2d16NQFcLCsUiyskiNJWEiBUUUym4iILTVSTnJ+CKuFgow6WEo6XR2uwHs8Zp1vGAfDIPu+CAN+Q127DoQkrr+ORNH8aynsV5iC9FgHBoeBC/3vEcVoU64Rgcwf6nH4X9r96MkfEZtK7oxeCeAUTaW9ifnS4MOozUUgnp2TmEmhph83j4lCCDrPnhcfT19kCzWZGcS6FF8UPesRfRvXtgLYvYXhHhef8NCHc0I18oQpyvxbJqID87i2A8glKxgNm5EfgSfjOWRxtQFphNNt6qAT0qIxUzRb4wyACLX08lr0kJX//gV9AQX5wOYSkDBOri+c2zj2I0ncK5batx8Pvfx+zyODwXbUQ2k+ee+NR0Eo09HWwyxXsUVaRn5qCKEmI9nSwUpou6UhZhVXQ0NjUiJZWRH0thmS2O+V/di05qUy0XMXBaO9puvpLNsuiSoa4DXae5KDLmBkfQuqoPE4OD0O0yXEET/B27PetIgWJKe5STB6plz2QRbAjB7nRwMiE4BLQVY/j0Bz+x6DbWNzpASKVT+PHjv0WzvwltugU7/vW70O64Akfm57Fs01oM7j8Mt9+PeHvLQgnBUGTMjU/CFwrDFTP9ROjMFeczaIxGYXU7MZvJIZi3QJjIQXhuC4KlEg4oZaRvuBCdm09DURRRni9AkShwVYj5rDlszWHF2PBBuKMu2AWSP/7n2JnmaQRSiI0A5LIEMS8h0hxBtab5shYNfPHtn0Brc+uiwN0pgLBEAAJRzw8++wSee207Pn7Du/Dkt+6GoJVw8LLTIOkGwi2Npm8B9Uqz6rYKKV/Ey489xbPimzt70bXhNO6lFjM5VIoiepYvQ6qYgydrxRnNfdj783sQozJDOo1iJo2BDV1wXn0uSrkyxIzEi9AhWFBIzvOC9cdimJ+ewcz4YcT7EgwI6geQmWWaNBqz1DVveFVS4XA6zMEltUfNKfjQFXfijLWbFpV1LjWAQONgH97yFA5OjOLm867Aqz/5OcRsEmNXrEOyUEScsstaJk+xpBbFQiqDXS+8yK2kfRs2ItHVBpfNCimbh1GU0LWsBzO5DOKiBxtb+rDnRz9GTK9Am6VRshns2dAF31suQG6+CCkrsTW24LAgNTENfyQAm9vL4GNm/BASfQ1HM03WNlj5AjGHfR2NpSZrTH+Tg6Z5+VggJkv4/Ns/jhW9yxeVsSxlgDCTnMWPHv4NNvevhSddxPwjj+FgixuWizYyMOOuBKpF262gSSfUcnxkx25MToxAK+q44LYbmXgjs+3M+DRampoh+D2Yn0rh7MRKSIMjkLc8B4euQ08mMW4omL31UjgaYijO5aEqFdjZQwHY/eyLWHPR2ZBlFeMHB2AIElud1y8a2pd2mplS35+1uFITniZpENzCwo1EWgQyNvvCnZ82uxsW8byRAQKxB6/sehWPbH8B77nyBhx86FGUX30VBy/ox7gqo211v3m2WQDBZuP9aGgadm19EflSDrF4C3rP2MjdYDYCWBOz6F+5HKliHpWkhHPaTsOBX92LaKEISzYLNZfFXr8dlrveDEWvojxfMteFwwJNLEOVJHijURSyBYwc2I1oTxhWKifVPncGdDwM7/X7kTseKgYE11EHRa2o4v0XvhOb129eFLg7BRCWEED48ve/hd5oG1Z3dWH0Rz9H8OyNeMwnw+bzwBP0mYpnvnirUCUFO557gccxK0oFPX3L0bW6j3typwfH0NXVzYZJc0cmcOPGy2Ck0zh4z68Q9Hqx5tabMHjf/fjjqy9j/rYroRo2bn8j5046gDJzKc40fJE4NF3H9NAgUjMjaD6tDbbaqGE6BGkhm+Ins4WKNgGrpV9HMwByXsbtZ96IK85fnFBxqQEEURLx1e9/B+uXr0GHP4TJ+36L8JkbsCWooVytIBAJcRbJsaxWUcqXsOflVyBpNA3QwKqNG9HU0cKxTE3MoqO9A7qhYf7IFG7a/CakBgeRfPgxeGw2bPyrO7HzG9/CvtQk5u64BqpU4RkK9VjOTUzDFwzAKnhYJDU5eBjzs6NoWd3GGSQfigQCzA69oxMfWftQGw9+zIUhpsp4/yV34LwzjlKxf859spQBwks7tuGJV1/EjeddgcHHn4Breg4jp/dhtskNncR+XhfH1MzU6bMexeDB/dDpctasOO+6q+AksFXRMXdkDMvXngYy7WmQ3Ljhoivw+29+B16irtesQtsZp+O5L30FO9oC0M/fBK1MHppVCAJRzlZsf2Ir1l14LlSVKO48Bl97Fd4GF0LNEb7saG8K1DtpDmo3bdhr8nhuxzyWaqgC3pITX7zjf/AI8sU8b2SAQF0nd//sR3CGArhg+Toc/MW96F21Eo8HVCQNlSdlEqvm5I/FAlmUsO+VV5HNpdisqr29G8s2rIaTmDejAnEuh4a2ZqTGZnFu82mI2R3Y+5Ofw2+xYO27bsX0s1ux7+knse/KzajEY6jINKTLBOw0oE0qifAEInzZp+dmMDawG00rmrlsRIkV6cvofDAdFczHqE17ZN+aY2KnlBRc13sprr/6LYvSBZ0CCEsAINDFms3l8Lkf/BO+cOdfY/jlHUjf+wASb70G94kTCHe2cE2YVbI1jcHUoWHs3fMa7CRoU6tYd/rpiDbH+VCnfne/0418oYDwtI533vg27NmyFUO/uBcNnV3Y+IG/xPRzz2PPj3+K33VGEdy8DqQ54ywS4GyWvBV8kRgGd++CYqFhMiqKM7Po2tDNI6Tp8KHMk3QJJNzRdQOaovN0M7pw6mOi6f2oXe7OC27FZeddspizZ8lZLU/NTuMrP7kbf3PLnZjdsRvZx55Ey41/gYfVWTii1O5I7VFmLCsVHUO7D2Bw8BBsPi+rlNefdSbCsbAJwAwDPsHN1rztkhfXX3EVnv7Vr1F8egsiDU04+1MfxdgfnsAOimV/ExrPWAertcqxpGimZ5KwCU44PX7sffEFWP0uaKoCtVhAy/ImnsDp4FiaGhOKJQnXCEy4XHY+rOiNuOWeSkjTeXzs2vfhzNPP/G/FIJA978PPPYnR2Wnc9Rc34fd/+1W0eDwYWN+D+SbTTpxiSiCecF+5UMKOZ7dCsRvQ9SoS4TjWnrMJtloHA01ppou6OJrEDadfgq72dvzswx9HY8VAz+WXoeP8s/HSl/8B2wYHMHTxJrhjYQbv3O1cBQZe2YnONWsglkoYPnSAUl+I2Rx8fgeiHXFmCATOQk2lPPXyk4aEAKnbTXMiTM0CPzTbI+PA373/s4iEj1pz/zmb9Y0MEHL5HL7843/BRRvPQrvgx74f/ARnvv0G3CdPQ4t5eY3X9yN9GNNDY3jt5ZcgRIIQCyLWrt+Att6OhfkMjqqNB6hFshbcctm1GHhlO/b/8CdIxBtx9mf+BrmBw3j+i1/G821h2C+hSagGx472I5UJSmTVHIxgePduyBaVfU/kXA6Jzii8ET8Ep33BNItABIkRySvBIdggOExmgRm9KiDmJNx02tW49k3XnAII9Jmkc4XXS+r/ZBXXFff0KzvFLQGAQMj+yaefxGvFKbzv0rdi56NPQLz/d2i842bcVxhBtL2JFwx1MpgZgWmyMfDqHszMTXNf/VmXXMgtcnXBC7U+je7Yg8/d8F7EYzFsf/gRHPrev6G9fxk2f+Z/YOblV3hRP+LQ4b3+Eu63rXcmyCURYlmG2x/EkT27UBFouo/JEpST8wg3+BFpDsPpFqBqFe6ZJ1Mk+t6+MG24uoLR7O9Nj6bx2bd9FGdsOPlLDFQqenzL09ivzOPtGy7CgceehrzlebTd/jY8LE3CFfHzxX9sLFVZweE9+zGfmgN1R2+68Dy43K7XxbI4PIW/uvhGxGNR/P57P0T+4T+gpasLZ3/1bzH5zHN49V+/j8e8VoRvepNpn11TQpfzJTbqcXsD2PPCCxDiPgZvNGBLzeUQbgwg2hRmxzhNM2qxpHHTVnhDHqap+e3MsfWY3T+Jf/7o19DX3fffCiCk02n8asujPCL5L04/H7/+6Cewsqcbe1e3Yz5mmiTRFiIAYFRp4DowPzWLIwMDKBaLWLZiJTqW9dT8CCg7tEAqFNFUsuGWN72Z69Lfu/l2tEgKVt12M9ovvxTb/+7r2LljO45cshHO7paFCY60p5LjU3CHI6C1M3L4AGx+lzlhNZODYK8i3h6BL2xODlTIHEujqYMqPH4XXB4TINTBAcXVNVHFt7/wDbhdi5ud8kYFCHQPHBw8jN8f3oazmvrhzEs48P0f4cL33ol7y+Mwoh7uAuNOodpUR5qsOXrgCKamJ5FPZ3HO5ZcgHI/V2k+pO8SCwuw8LmlehXM2bMbOJ57C7n/6DlpbmnHeN76KwvAonv/MF7DdZYF+y5U8o4FZVhKS0zjpXAEefxCDu3ZDEwwezEVmVzRNMhB2IdoahdsrsI06taESW0zCSHJgdDBAqLMKVeSnc/jsWz+C9WvW8dr7c59TDMJSAAiGge/+7EcwWoJ419lXYe+Tz0L6zYPw3XAtHsI8Ys0J08aVDDkMcuM3W20M6nlPZTE3PYeedatMH30eMGKqmbWD0/jCO/+KxSsvPfg7HPrnf0VTQwPO+NvPY+KpZzH8u99jnxPI3HARlw4YeNS83Wlao93hQi41j+mZUVgcdpMVoO+uajDEEgIJPyx2GwhQ0JAmd9DD6Jd+ENps9F6UjYqjOXz5PZ/G6hWr/tz1y69fSiUGAqU//NXPYe2K4dreTTj89FZITz2L8FuvwZPWLDxhH8eSHrLdracCFV1HdjaFTDKNjtOWcz2ROwfYj92AZ07CB695G18kD/zLd1H87cOIeH244O5v4eAvfoWJZ57FAY8N2ZsugYM9KExqmd6XYik43SjkchgdOQSby6w/88RIGsykK/DHvLAKDoj5Ml8sroCHvRNonZHvI60nvVJFdu8cfvil76C5qXlRsVyqJYbxqUn86In7sWHlabh85WY8/OkvoDMWxZ4NPUjHBThtdjjJC6FqzkSo+xeQA974oSGEmxoQjEV5bxBtTQC+UpKxydmIK867kAH/t294O9rzJXRfdQV6broe277wFUwND2PgwrWoLO84WiagTFSUUKlYYbXZMXpoAHJVZsvmOgMtJdMIRN1wBtwM+nRVQyAeguB28NRAdlFlBotmRgCxaSf+8StfX1QdmxbCGxUgEGB/adcObMuN4qxYL5wFCYd/8BOsvfGteMiWhTXq4SFZxOrRfjQTTDoHDRTSOYzsP4zejWvh8tC8DLObgQ3NUyXcuOIs9Pf24ZVHH8Our/8TGtxenPdPX0N6337s+8GPMeIAxt92CQTab7UOE4pzuSjBLrihqgoGdm6HgwTddUqAnFRLJfhjHh7NLZck/no6N+hsJQaJ9yN52+gVlKdL+Me7vojO9s5TIsWTlUGQZRlf/t63EFzfi+u6NyG9/xCUX/4aSl8nXtrYiliChokI7LsuV1RzLdFfFqKEAYUNcIxaz3StRFXR0ZCz4F1XvpmR5SuPPYHD3/4uYnY7Ws87B+XxCZSnZ3DEbcXgFZtgdTiYXq67eFFLDp1ymqJh5NABqBbNbKWiMgeVECQVc4dHEGoMoWllC2wOWrzUU2w6KtbdxKSyirjkw6fe9VG0trYu6lJZSgBBVhT8w4/vRnjjMlzcsAK5XQegPvQI1L5O7Fzfyh0FZMtLQI/mLZixNP+PPn9qVa2brJC5FSd6egWtsoBbL7qaD/AHf/ozlO69H2FY0Hnpxci8thtKucyxPHLlZtiPjaVBBwmtDSv3ZI8c3AeFhs7UDLMoblVRwdzBIcQ6E4j3NfL3IEaJYmkavpr92qKook0O4/Mf+BRCIdOJ7899lipAIHOku5/8Dc4/61yc39iPnd//N8Rmkth51nKUVrYi5HQzKJZ0hQECPTWJCV8q5KbLXYbsOVYb5FOQcEXrGqxfuZr37913/CXaZ5KINDcjsWkjZp59jgejvbq5F1JfK2eutEboof1ZtyfJptKYGD3MqnpaRxQ78qkoTSWRHp1E7zkrEGigiZGmgJL+u0kyWRjAlzNlXN9zKW55+82LumTe6ADhd88+gb3VLM5s6kM4r2H63/8D4XgcL25shbM1Do/gYkBAsavPVq07ltJ+pM+c7JPJDMl0tzYgpCXcdsblaEgksH3Lc9j79W8iYVTRsul06KKIwsgopmxVvHr1JjhdroWzlT4rnRYDwYwqMD02jGwhTUph01+B9l6litTgKNx+JxqXt/CUXAvZrHO/rHm2EgOlqjq8BQf+/r2fRXyRA7dOMQhLgEEoFAv41gP3wNIZg1euAmPzsD74BGKNDUi/+yq4vR6exUATGyVdZcRfFwia40nNfl1aPmavtQUWXUOH5MLbydTGZsOel7fh0Lf/BU1VCxxOwVSkqyqetioQrzoLlQodPscYetURLbW75XMYOnQAdi/NvTfpZvr+uijBaRVgcVcQag7C4SRsewx1SSWJdAlnxdfgr9/9frhcZivWn/ssJYBQLpfxzQfvgbUzDndZh3FkGt5nXoI7GEDutsvhCQU5W6F58QT22AqXdCU1u1b6bOpW2DTqly8BTUOX7sXbLriCD/5nH38C6R//HE1WGxwCWfwCBUXB0xYZytXnsIPl/y2W+UwaQ4cPsHq+Dk6obq4Uy/B5fDAcCiKtYRbCLTSiULZbi+VbVl2Gm6+7adHzGJYiQKCL9bWBvfjZzmfQ2NYCf15H7qkXsWJiDtMXbUD17NPgsQvEx0DUFG5LXJihQPqcWnswdRiZo6BNgIBsGW/uOwMre/uYQbjni19G68AReFwujjOxUYOFPHaf0YdKezMzONSGv/DUGD0CfhNDh1GQS+xbweCE/Baoo2k2i2A8BEfQAl/Et6AzoteYDF8Fc7vH8fO//f6iAfwbHSD85plHccBagLdqg32mCOOxLWgoyEjfcRWcHU18thJgJ4DAoLxmS82D0MixlI1QyXfAMGNZqUBIiXjPBdciGolg/+492Pm1f0S7XoXL5WQdGNltv6SWMfMXZ6FatRHGP2qWyBEyyw6iKGJwYA+sbsEEjnWfDE2Dy+qCYZURag+ZrM8x2gNmFzUDXZUEvvjBTy/ahO4UQFgCAIFENN+8/x4oCR9CkSDsso7KTApOowrvql7O/mhtlDQZUkWrLVoLzDylLo4ys1CipNmVTVNhG0rhhnMvQygaQTqZxHPf+wHiJRFlaxUpmwWZkAf5RAj2aNScIlYbWMIHDAGOmpSAaMiRQwdRUkuMZAkgkPsf1Tz9Th88fh/K4hx8jXQAmV9EG4uc/KrTEj70ljtx7tnnLqpmTe+1lAAC1Zv/5/0/g94YhN/ngV3RUZ1Nw1EFPMs7YbE7+PAuahIkvcIZC13Q9XOfVfA1IVrdNZFEha6pIq7bdAHHcj6ZxAvf/R6ikoyypYq0zYJ0yINCIgRHNEqmfguP6V/ACQqXHGg65+jhwygp5mWyEEsWtvrh8nlQLE0j1Bp+XSyJScKUjE+98yPYsHb9n4vxFl6/VAHCtj2v4ac7nka8vQkhrx/afAaOdB6u1kbY4mG+ZGiiYlGXWVTGnQSU6dOBT50iNVtenolC+5Mm/81lsM7ViE1r1sHtdeP5Rx6F8uQzsAh25IwKUm47svEg9MYY4KAs9/Xd8lRypj1K4K2YK2Bs5Ah/M1MgXBv8oxtoTLSgXMrC7tfhDpHrpgkOaF/L2TJ6qo342uf+blEit3pg38glhl8+9hD26Bl2BfVY7ajMpmErivCv6IbFY8654bOVJipWq0zh0/9oT1LiReJwJvJqw7SojVkZmcNVyzehp7sLpXIZf7j7e4inM6jYrUhbqkj5BBQaIrA2Jsz9WItd3fKahqLx0DWtgunxcaTSs7BR4lY/W2nwnmFnm+f52SEGCQ7BdC+l96CumezgHO687BbccN1bF322ngIISwAgkEf45/7nV5G0V+AKe9G7ZiX8Tleth5nGido5y8ypZcgV3USZNTRp9jkf0w5TBWRSoVP73HwWAaeb6WBSy5OrXkXX2Cue6qBVVWWhlKIYcDldzDzUs0qaJ1Q/SGhtF/N5HKGuiaCH9Qo8mEZR4Rf8aF/Wj+T4KHRXCZ6gm7+OwEHy0AyuXXMx3v+e9y0a4S41gEDlos9/6+tIua2wOW3oW7sSPqeLLws6zdnDwmJFVimxExrTirUDqN59Vu9ios9d5KyRxGd5+O1OBEJBFjRlknM8XMZwCUx9VhUNcqEEKum4vaZnPOtFalMBFzz7ybY3l8fwwf2weByw2Uw734okw+8McizT0+OQbTl4w8QyWFjgNrtvEm875y/wzre/A56aidNiUMJSBAj059y1dw+++h8/BjwO9GxYiUQiAVfts6PPj8pGxO4VNZmH+bDJjan7XZjKWE8hSXzG9ryKCi1XRiwUZlfDfC4HOZOF6rSjKjjYvpfYo/R0Gt6A6VxJZQbel6QNqWnSTN1QFWNHDiGbn4fD44aFqOpqFXK+jJ6elXB53ZgcGYC/1QO7w2auqVwZ0qEs/umz/4CVy1cs+pJ5ozMI9/3+ITwxtA9lsYDV52xG0OdjAzKzHdTK+pGsUuaRy/y51vdjLX7/p/2olMqwqwaLVmmPZOaT0FWVXTErZIRFo5zLItJkPZ+Im3GrbRgC7PX9SL9FepKhA3uhWQ3YBGo9tnLcrTKwbP16SPkcpueOINoZ5XVF+qL0UBLrI/342Ps/wiL0xT6nAMISAAhUf3x15078+LEHka2osDmsiLY1obm9hWl5i6Yj4HZBhMrzFyiTSI5PI97WxAt8QdVay070muXhQsLBTQgmXUYXN9kpy7k8iskUstPzSHR0wi4QRVrHpzWgYA4zM3/XMCCWihALZNhizkZ3Ou0IRhMQ3D4Y1K63ayccMSphOKDnFGxqPg133XIHGhKL93hfagCBYvny9m340R8egEgZnmBDor0FDS2NcLtcqCoqe1GUqjKDOLrsaahPKB4x/dtrn/fR0b+mHwHXrmvthiZwqx6NZTaH/GwSuekUEl1dcDjNUhCLrfjF9ZPpmFgWCxALBZC9N/EXgiAgnGiAXXBxLEf274Y9WGWvhEpOxYV9Z+L2t96MaISEdot/lipAyOXz+I/f/hovTwyxdsQXCaKlrxPBQIBFoQ7yEfE5IeoKCzrJ2pwuDhLvHuMZxgyfWRY0ofjR0JiUM7UjarIKRVJQmksiN5OE1SogRHuIqe96lfwoAKQEgS4gYprKuSxfOMQgkt7A7fEiGGtg5q+QTmFm8hA8cS9TfO6CDe97yztxzhlnHxd78EYGCLRPRsZG8Z3/+CnmocEwKoi0NKC5q41LOTTbIuxyQ7KSuNQs6RGA9gR8XJqtn60UJ56BwiLFmgS1xsTUrGlA3Q90NsqFMvLTsyjMpRFsaITLS90k9dP1GBODGgChC18Ryyjlc9yVQl4L1HocjifgcPn4Z5gdG4akmxbbakHG6kgfPnjrX7J9/Z/6zvw5u/MUQFgCAIECShfLngP78J0HfglPYxyqKGJ2bByty7vRQIvZ44JDMHtgaUGR/zdRZtyQM0P1AAAgAElEQVQtUOs+UEiQRgKF2sQxAgoMEipknqPD0HQU5jMY33eYe3ObejroBoONVfWm0RH9HCRSMzdG3SinZrbCC7o285yoTBpPq5v+8vRyq8XAnpe3Mi134znX4h1vvdkEOH9inPTnLOClBhDo56Xa8e4D+/HjJ34Hw+uGVMwjNTWNjtXLEO9sgcftrLUrmSpyRZZ5gBZ1m1C4KL50EDHQgznJUauPgaVYyhqqWgW5ZBoT+w6xKKRlWTeqVQdsbI5jrif6ahNA1gAfjwk8Gst6NwybslSoHm020bKWRRExsOMleJ0C3nbhm3HDNdcfF3NQj/lSBQj081P56N7HHsYr06OwCXZkpmeYmVt+1np4fG643M6FGj+BcNoUNHyrblJkDk0z25TrUJCLTLTvVJ2zzqqmY/rwKKaOjKChsxm+SBQWq2OhxZEYQNqv5qVE9IRZQqoLFlkYyV1EJoOhaWZHkzlxtYqZoSPI5afRIsTwybs+ihXLli9amHjsPn6jlhjqe4G6UH7y8P2Yt1SgKhJmhkaQ6GpF+6peeNwuCC676SFDDKxEXT8C+7ywJpHaE8lLojb0inYYn60UA/IoUDQYNB49m8fsgSEUCwW0r+4lo/Qa22q+B2sMmEGsjZHm1vJabHiLmtoUih19Y5U0zMQOU2KnKRh45SW4fTac13cG7rr13exZcbxn6ymAsEQAQn0hT05N4t8evBclZxUSDecYnOGhS7aoF4G2BriiQbj8Hqai+ASqGuaFouqQRRlkjws6RLiEUIFVNWCXdBgF06Cj6nFCj3sQbW9dGBJE7l02i4GZ0Um4AwEEImGuT5M1aL2dklS+hD3MDWNOm2EsQuYt5MhXMfiQG9t7ANeu2ox33f5OPniOdwEvRYDAIIF8Kg4dxL1PPYKSCyhnC8geGOfBSwi7ESFxFLUT+jywke1hbZAOx5KyEFFlrwJqU2T4plAsK7CLOixFhT3eSeho725AuLWplo+ag5isVgNzY1PwBEPwBAPcdUIW2hxLzWzlMtX0R2NJZXMrxZLWFYmzVA3JIyO4auXpuOVtb190+9ufgsGlDBC4k0MS8fsnH8e2icMwPA6IkxmMvvQaYm2NsCUC8DdF4Qz54HQTzW/qcYjOJ8BG3iK0PymuNhIymspU2OQKrKIKMZlDoLkJg1OjaDt7ba312FwaFFe5VERqdh6NnZ28Zki4RkuHW1r1igkETJG9GVtudwasTrLLtnNMNVFC6cAIvvTXH0dXV9cJ2Z9vZAahvv7os5mansYvH/ktZowyRFGCPDoPNZ2DJeRGqKMR9rAP7oAXdmLgai0oNEabTLJESUFFUvmf+eSl9gZijaQKUFJ4fLs94EPBA7SdtmJhP5qW12RYNkcbDEHyUyBrc8HGWiND1831UZu6yU0qXDIy22CsztpET1lDdmYWHYYTn/vY/2DG70ScracAwhICCHyYVKvsgPir++/DYTGFikfA6LY9aMwCPZEWyKoCRVOhGJrp1Q0yaDHHyDrtAvfJOxwC7CS14dY58u+uoKCKOGwvIrRmGRwuJ2gcLGsZbKaDYilfYD+DaEcr7C4nfAEPL2TaSHpZRkVRTVq7YoqbWN3rdcEV8bE9qJwpQSvRxLIKUi/vws/+5ftwuxdnuvKnl8pSEike+7PT55XJZHDf7x7AETENw+3A0B93okfxocUfg6TKUHQVSkWr6RAojuQFb4HLQU54DtgpW7SybIrte0l3UFJFHHKKCK/pg00QTFEjZx5mbZNm25NFdqSlCXa3C/4AjfYGxLKECk2Vo4yHXBNJqKYTrWqFw++EK+znC0bJFHmsrCYpiBRUfOHDH1t0B8rJBBDq+5MZoj27cd+Tj0CLeyFLMo784QVc3LaWmQFRkSBTt5GZtsNusfHvE2VNPffUeUIjv8ksy9xTOu/TkXIK5f44Ao0Jc8pfjYKmC4YA+vzkLEKNcQiBALMVPr+bLyypJMGgGSuq6atBGgdqgyStkDPig+BzcclCzZTYITM3Ool3X3w1Ljjn3BMG/N7IDEJ9DdJnrSgK/vDk43hpdAC6z4GpvYOwDCaxsXk525nT+UrdDKwD4PzHTHLcDifHj85WdsMkbY5hMINE2pN9chL+DX1wBfxmG2mtq4wcFGlsdDFbQLS9BQ6fh/cj6UAkSYZGZ6us8t42qlRiqjI4cLidcMX8sDqskLMlaAWZX2OfL+BL7/1rnqZ6CiD8Zy76pHRS/D9R7tS6RNMdH31lK8YKaa5LCskyEoqA9kAMEW8QgsP00jfJKTO1p0VLX6uqGnLlIlJiHiNKFnpLCM6WBOsDiBkgYEDzFuSyCKlUhj8WRqgxxgIngWqqlP1biebSmXnITc+zMtpqF1AuS3CFfVzLo2+saBrkTAG6pMJC4qtiCTdvvADnnnn2CaEvlypAqF8oFI89Awfw+LbnMSnloJUkOOclNGhOjmXI46/F8mh90nQCNUCKaRrglC+XMFvKYLJShNIchIdiKZixZMET2bWWJSgiDYIJIdwYhd1txlKoZbKypkMslFGYS6Gi6rA5XSiXRHjjFPsorx9F0yGn8mYZg9iOfBm3nH0pzty0+YQcSEuZQfhT8Fcql/Dki89jy55tUAUbm+f4MhranSE0+ELwu72vu4BNxsaAXqkwgJNkGZlyAaOFeeT9VlTbonBHQnDQQCbqrSPTM1Vj22YC4aHmBGsfyLPEZSc7XnK3rEKSFZQyBeSmk/D4/VC0CrfPNS7rhNvnNhkpSYWaKbINe0VV0aTZ8YFb3oXwIv0s/vTMWgoAof4zE8AjXcJjrzyPgdQke73Y58sIl4DuQAIhtx9uEokfIx5hIahh7keKXUksY7aYxZiYhtzoh7OjEYKLSofm2cpgRJJ4v7kDPoSb4xB8HtarOGn2iQXsQitJCvKzKZTSOXhDQWYq7B4XIq0NXOKgcdFSrsRJGrG21bKIS7tPwzWXX3FCwN0pBmGJMQjHbjxakINDQ7j74f+FrCbBFwxBL8nQhmexNtqGiMWFKAMFQrWmFoEXr1RGRilhXMphSM8h2G8K19j8xm7SlWKxhGImj2Img2Wb1yHUFOMxzdR+Zc5BN2uYzGgURaTGpqGWRID6vR02tPR3Qy6VMX14iKb9IBSKwqpXagu/ilXuCO56262s2D/eZykDhGOzl7379uFfHrkXktWAPxCAWhBhjM5jVagFcYcXUU+AqUPThhlQdQ1FiqVawriYwwhKCPS0MQPEUz0dptlNOVdAIZtHKZNF3xnrEG2Jc52aY8njYuuxBHKFEjITs5CLZcDqgCPgQbyzFXK+gJnBEVi9HgR9ATZnIlwhFiRsTnTg1muv55/teJ+TBSDUPwfK4O/97f34/aEdcPu88Hi8KAzPoEGxodefQETwIuDx1bQgpliAGIa8VEZSLeJQaR5Kox++RIw7D6gd1SwbGMjPZ5GbTzMo6FrbD4/fC51EB9QCRzR1jWFQNR3ZTAFzR0bhDQRQyJfQsrqX10l6fApzYxNo6OniOR80qZBoDTmZZWfOlcv6jzek/PVLCSDU/8CTk5P4xr0/RVopMbAitiB/YBTLvQ1odYcQcfnYetpeszCmNlZJlpCWi5hVSziiZiF0NcHpJYaOQJ3J4pFIlMZzF9IZHu3e2N0Kwe3k/Uj7tT7QiwBgWVKQnppDenwWLn8AuqWK5uXdXAqcGx5FKV9EoqMdFgL0lLDJGhp0Bz5w020Ih8PHHbtTAGEJAwS6nCmAvx54GbNSjtsWaZyy3SFw2xsZf3gNC6qSBhuZJznsUEmJ6xEgCoA14GYFraEbMCoaqhWNVbs0PVAqS3xU9G9ahRgNeSK0StmFXoFTcDBIoAVJPdY5uoBm05gfn4HD70Pr6mXIzc5ibnQCSqnETn0dy1fw15FwkdB2wuLAp2+764Sg3JMFIAwMDOCB0Z1IlfIcP6pHU21YyZXgMSxw6xRLFXYqG9ltkIwKrD4XygJg97v5IOKSQEVHtaJydlkqlDhLobpp/6aVCCfMbghZM2BQp4nDvhBLorzpIiF1NcVSCAbQ1NeB/HwKybEJyOUyx3LZuvVsBlOvZbfY3Xj/W26G32d6+x/Pc7IBBLrIf/vYI9iBNPLzaUj5EqzUay+THbkCP5Vv1CqqsgIHgWurBYq1CsMjQHFZ4Qr5zdeTJ0bF7CgRi2VmDchK1xsOoP/0lfD6PCySkxQVApURaZpqrZVSlFUUMnkkhya43BDv74Lb58Hs8ChyM3NcwqBZHM2dncwCEoVNQOGa5RtxyVnnHk84F752KQKEmdlZ/GLnM0hqZT5bSfPlcLmg5EtwqAa8FStA+7FSZc2HSkb2bgGy08L6E7ffb1rT6zqMisI6EBKPU+ysDgEtva1o7W0zz2USOeoVc8id1crsD52/hSIxehnMDE3AKghoXtFjCtRHxlDO5djwrHPlKt7DJFak7+coq3jfVdejt6v7uGN3CiAsYYBA0Z+ensY9rz4DJeLhg5/61SePjEItihDzRXMscygAXygI2OyoViqsitdlBbJY4tdQ6xp5ictk2gMbfNEwyvNJuL0OrL/YtOYlmnJkYJAVtO39vRAIJJB7mK4jT5dKMoNdT7+IzTdcgczENIq5DNc4SXCVnU2jb/0GOAQnr3o6hGxlCV+9869PiPL9ZAEItBl/tutZWONBtlTVRBHTQ+N8IEmU0ZMxVigATygAi8VmUpqyDE2SIUtllHIFnqng8nogUwmgaoU/HkF6bBThxgg2XnwGaxXowiD/f1JLt/X3cOZPBxJdFNl0AbmZeQzvPYRVl5yD1NgEyvkcl4IolpmZeaw9/4KFejbF0iVr+OTb34X4IkcBH3uKnYwA4YmtW7BVnoQ76Oe1n52dR2ZyFkpRhCLKXLcmN0O728P7g9rhKKaaIqGcL/AAH8pgq1Ybx9Xl9rBvQSE5g85V3eikjBJAciaFudFxNHS0ItqYWOhUKJZEyPkSDr+6H3avG429HZjYNwC7y87qetIfVBQD3WtOA4nueAaHpuP8jn7cePlVJ6QMuBQBAg3g+t6zD0JPBPgSNzQNs8PjKKfzzLBRYuXxeeANh2BxCNyxQPMTdEmGqogoZQvsWekJ+KGqFRZte8IhSPkMT0ddffZaBCNBHpY2OTTOALx9eS+fiZR8UQkvky3ygK1D2/eh+4y10CQJ6akpWGmAk0wJQBHdq9YwiOSzFVWUkil88JobsXH1mlMA4U8+gf82GoT6n5taq7775P1QG2gKoBVk0JGamOKNTtMbaWCTWBSRSxe5lqbJEuxOAU6XEzbq89XN1hpuZaxRZaR+LiVn0LOmD609rVzHnBqZxNTIKAtw+k9fC4/Pyw5ioiyjnCthbmwa81Mz6Fq3ErPDI7A6bGygQ3RaamoOqzadycptWsTkuWCV/jd75wEdVbU14G9mMjPpvSdAIIFA6B3pRRBQEURAkWd5iu2JYsGOHZ/P9uz6LOhvQ0FFVBQQRJp0kF5CEtJ7md5n/nXOBERFRQiYhHvXyiKaW/c+5Tv77GLnumHj6NC+/SnvXTcHQBD6FA6Lzy6eh661f3/RbjJTXVQqZSYmETFoi0IuxhqzjId22mzoZAiWTvoLCOuBSiTNEvtEIpOVcKLSaqg+nENW306ktm0pnZwO78+hsqREDnCd+vf261JsKzkcWGqMVBSVySp1CW1aUllYIK0VwsHNZrFSVVxG7xGjpEOUWK6IbSat3cG1Iy6ifdt2p6zL5gYIwsq3bc8uPj60kYiEGBnaYyirlOZlvV446fpw212yf9rMdglhbo9LArvYAhCe7cJhVIYuyoJp/mgTETLsMtXQc+Q50tfE7nSzc+0mGbkQHBpGmy5ZchISOjIaTDjNdvZv3kGLLu2plVYDh1xxikqAZpMJnxMye/Q8ms4Xr4sOoXH886LJDeKA2hQBwWK18uS8t9BkJErfALfDQXVhCQ67QzpYywqYNie1VUbpw+G222XlRVFpVRsUKDMkCn0J64JKTOACFzQqrFUVRMeH02lAN5mfoqSghLy9+yW8t+vZjcjYaLQaUUvBJS0/xip/Uag23TtSkV8g8+AIi5LDYqOuppb23XrLRdyRsdVuNHBJz8Gc23/wKcOdYkFo4hYEMQC9uPADTInBVOYVUpGXJ4t3VBRW0HnwAJktzWywywlcpPHVh4bK2uMidOYI1R4LWf6CICqcxhq6Du4hnRaLcgsJjggjb88+Ga6Y2asb4cIZCjAYzbKiWMG+XJLapcmBbc/aDYREhGG32TCYTdSWVtCt30CCQ0L8RWDEhTYHl3Q6h4H9B5xyI24ugCAsAo+++wqadolyhVmek0OAXngzu2nTqZOMbbIY7BTnFKALDUMfLErRilwJXpmSVYaV1ldy9v/iz3NQmZvNsMvGSNmXF1dIeCvOzsFWZ6DL4P6ER0VKaKutM8lBp+xwCWExEYTHRnFo6w6ZDMlmtWE0m6SjW/9RY+TEc0SXapuDy/uOoFe3HgogHGfNVlJRzktrFqGLDuPwtp14vSJM1U5MSioRIvW100NdtZGyvCLCExJkjL1YCYpCSf4okp/1Kn4X/dPrchIVHUh6l3bUVYuoFK+EPpfdKsu7d+jXUzoSC6c5YeETzsS5P+2l68iBFO45IH2LxL64wWCQIbFat5qOvfzl1mXiLY+bFuogbrpkGmFhYae8Em2KgCDG1jmvPo+vcyoup5P9P24gOCxIVj9N69hRWoPsFhflBaV40aATTr86AXQe6WAoQxGP7Y8yWaoKQ1kJ/S8aIi2wFSUVMlyxOCcPa20dmb26E5eSKIs/GYWDuMFCdXkNdSVlZA3py8EtPyH2acX7GEwmjLV1dOnRTxZ88utO+DhYGJ3RjYtGnHfKW7gKIDRxQBCN4v2vP2d90UEcVgNqnUo6uxQcLqJjj94yZMrrEtEINpmoQ1BvWHS4bNBiNSn2lIXXriweo/ZnbhPZ1kLDtYSGBsnYXrGybd21o/SedtrsMvOfWLUI73ljrQmXzUlJTj4ZPToSGBxI/t6DlObnyrTPdVY71qpaevQeQFiEPx2sXDUJ7/eegxg4YKACCEelAq9//H/sqCzE6TTJ+HQx0IiJO61tB+kk6nN5sZlsmMX+o8tNREwEnl/pUqZmFrr0+bDU1hKdGC4dn9w2B1a7ldSsTNQ+j9xmimuZIreLbMJfodoot59EjoRWWRlyOyN3x16qywqxOF0YrDaslbX0HzbqF8WYPAYzVw06jz49eiqAcJyptKqmmue/nkdhaTG6IDVetfDbMREYGkm8LIutklYEc50Ju9ksV6siP4XT5S/cJMoxC6CX4XEiNNntwVxZSlLrJNRer4wyQq+lRWYG5spKIuJiCI8RtTx/nmRMAhLsNjK6d5SObXvWrser8VBrtmG22Qj16ejUq+9Rz3zhi5Tq03PL1KvOakD4aP4nbLGWUFNRjF76eXiorTGR3CpdWu9ELLDdYsdULfqjkxCRGVMfhNPlhzvhVyCTxMmxVUSdONHgICwiGJ/TLaNJoloky60GAQhxLZLRC+uD10Od0JnFLi16YkGW2q41Jbn5FB7YL8Nkay02mQq/a9e+0qn5qFW5to4L2nfn4vP81V1P5VAAoRkAwpof1/HqondIzsygzmLG7nRSaTSQEteCyITY+sQaXlkbQTjKHNy0ndjUVMLiY/GilgV6/AlUPDKVa9nBbHRaDx26dZLZwA7u2c+g8aNlbHV9vg7Z2EU4o81okdndsrfuosOI/v56DW432Zu2UlxWikPlxVFcQ++hwwmNEI1YTFxeHBU13D3xH2RkiGJTx6QXPYnW3FwsCGJCXy/SMC/5kOiWLag1GaTZX1hpEhNTiYgVoYZiAeEPRRNxKXvXbSGpdWuCY6Lw+PwlXv1ZL72ymlvJ/v0S9tp3zpI5EkpLSug+dAD6QJ3MVXEE2ExmCzajFZfZSs72PXQaM8RfIMrlZs/q9ZQbqnGqfDgKqhg6YUJ95Ti/Lj2Vdcy8eCqZGW1PWZfNbYtBiFCkq37k6Seoi/SgCwymymjEYrfJff9W7dr6t/eEM5vIZupxYayooiT7MK27dEKl09XnLfD4S36LfW67g4NrV9NjWD+iRaG16mq0IcG0654lc2IcUavwKTHUmmQcfdHeg0S1SCIiNUm2H6fJwublKzGp3SIxAiGOALoMHXQ0lbfwgcgKieGGS/9xSnVSjrSwpmhBEO8utnCvnz2TpK7tsTttGCwWDGYrEcGREq5lfxQQ53Ci9nnJ27kXtVpLSmaGXKgJy56/iJb4XcC9kZr8Q/Qeco7cpistK6V1x/bEJscfTa0thkOrzY651iy3LbI37aDz6CF4hV+Cy0Pu1p8oKCzEpvHirbPRq98ggo86CPuoLirhykGjGDV42CkvvhRAaAaAIDKAvfTJ29iC1BgddqxOO3k79tNr5HCCQ4L89OrP0YtHZEuzOdEV1NClazd25hzkYHE+KuHcFiFqwoOxsoRW6SmEhYZgsZspLyxjyMTz62vN+8OgZLikwSwTJO34fi1abSBpXTsfreAkPOgriov9hBwbR3h09DFxwyrcZVU8PeOuBvF8by6AIAYk4Tn9zIevQ2QQNWazDEmtLqmkQ68esmCPsAzIQ0KCyHznJKiwlo5du7LtwF5yykpQBwcRGBYh96xriw/TNitdRpCYbSasZhs9Rwz6hS5FuKRF6NLuZPeqDag1Wlp37eyv0yBXsC7KCguldUHUY4iQBWj8liCZ/b+ylvuvvJ6khMSTwLtfXtIcAUFY6JavXsmCTd9JB9Mai5mq8nLCwqNokZEufTyOFj5zuXELX6EqIx3C43EGqKVea2w2giIjCQgMxmY0oFE7aNW6pYxqqKquJC4lhdTM9GMqOvqwWO3YjGZMVTVsW7KarAH9CKkPfZO1U4xmig7nyeJdoiqgTpippSs8eOwO+iWkMe2iiae8ChUabqqAIHKUPP/u65SqLFjsdox2K1WlFbTukEVohIgwqe+PItuhyyUtQZoyI/06deOnnIPsyTuEV6uTuhM5YirzcmjZLpXoqEgJHLU1NbJvC2tdfZJzaT0wGS3S4leWnUdJdgEdBvTBV58zWwBJVUkpdXW1hEdEEZOU6AdzqTsV1YcLuOXCKfTr2euUgV0BhGYACIJQ3/i/uawvPSBX7MJxJbV9pkxyIrzTZeY04egkMy97cRbXcM/Ua0mIi8doNPD8/Pf56dAhaiuqsJsM6IK1tOvZSTrKmEwGklq0IrmdSLv6c+5xYT1wiARJZZUU5ZRI60Ra105ytBfPFCFz9VVtJTRIvwMZhiPqqfsIrrUxZ8ZdDTL4NCdAEPJ56sX/ss9ZgUP4HJjMMs45Jkbk3PdnqZS6FPURvF68pQYevOIGIiLCqaqs4pWF89iWfUiGJtotJvTBAbTr0YmAADUWk4HYhGRadmpXXx3Dryez2YLDbMVaayR7+wFpNm3Tw+8BLb2p63Up876r1DLxkj+pj/hvH5EmF3deeR0R9RUFT4USmiMgCHnU1NYyc879qBIjpPVAWO3SsjoQpPdbD2QJ6Poy6i6zg7aacKZPvlzCw/fr1/HhqmUUFpRgNxmx1NbQtl9nYqIicXodOIw2Og7oI9NyHykVJCqBiux8XruT3B37MVQYSMpIkx73MjWzSrQjlSxAJCY5/wTjXw1LWLHbGZ3elQtGjj4VdR69tqkCgmjjy1et5KONS3GrVZjMJgJDwmiR0UaOp6L/iK1aKUOfF3u1hUldBzCwb1+MBiPvffsFP+zcIVNgO60C1iroNWYwIUGBmCxGNB4VHYeeI6um+pHbn/vAXiecyh3sXLkRvBra9fM7kIpnirOEtVBY78SC4cjW8BHdOUsquPXiabIC56keCiA0A0DwrzxLefnrebgjdNK0JRzYhClReKr7xx5/0SSHwcTw1PaMHzWGAI1wqPGyeecO3luxhGq3W/ofOE1VhMdHyaQswnM+s0c3ohLj/DXQvT5sIt2oSOJjd1K9O5e4iDgOHc4ltmOmPwWsfJZ/v1RMajKnuKzNIJq/uImHLsGxXDPlculEd6pHcwIEIYvCoiLmzPsf4WkJsuiLLjBICtDrFtkT/QVahC6Fk+GQ+AymjJtw1JS4dssm3vt+GUYx8ddU4bLUEpEQ5Z/UPR7adGhPfFqqFLnQh9jCEKtMYd4u2biHpLgkcgrySOiSJXXprw9Y7/Aoqk/KNuD/kRXszGb6J7dh6riJMtvjqR7NFRBEwqRvV61gZfEeNEE6GXKs1Wqlf5BMTV4/PYj+qKuxcNMFk2nVoqWcuOuMBj765kvW5eXh1aipyM0mIjZEOhCLYBW9RkeXwf1kfRRxuNweTBaRAt2Ko9aII69KAp0tREdIbMzRQmvSFljfP+u7pQQEoWRXWTUzJ14uI1Ma4miqgCC+vba2lntefJKIji2lv5ZG58+iKHQnHBG99QWVRAhidJWD+26eeTTyIzsvj7lLviTPYMBhNVNTkEt862S/P4nXQ2RULJn9uvm1L7IrCl8gEUJpd1K2M5uYgBCKKyqI7Ci2okRK9SOVIv1Q4gd4WW/P/6/TQQt03HTZVUQe9fk6eQ0qgNBMAEEMLPNXfE22xiwHCLfDLdMvi9WmrNonKrc5XXjyy5l1xXVy8DlyCDPaN8uX8+H3SzBYTQToQRekw+t0EhoaRueh56AP0ktatokJxSz2T11YSioZ16k/A3r3Y93WzSzctQm1XucvO1z/c2wDFpOLGAxFGbJpvYfStwFMYOIbmhsgCF1+sPhz8oMdcmXpD091/1yBUeWTK1Djjmyevffh+przfm2K/e4PFsxn6a6tlJWXEREbKqNaRGx2SGgYXYb2k2FYIuW2VaTYFXn6HS7MxRVM6TGcXj17Sl1+tm0d6uBA/zZDfU0OmbJZ5oIXqxY/rGjtLqYNHEGPLt1O2ZwpntNcAUEM/kWlJXywYSnumGDp2Cb6qFsWx/IXXtSI/lVnoltIPFdOufwocIkebHtZGW8AACAASURBVDSauPvJx6nTq6kozCc8LtyfQtvpIqNrR1LbtpETu1Mk4xHlnEVdDZGWt8zEjRP/QXh4OC9/No9Sr92v0/r+Ke4hfjx+1xV/9ITLQ2tNMNdPnkp42M/Obyc/zTTdLQY/SHv5btX3rDHmERAa7M8bYXdLy8ERi6gAZnNOAQ9ddTMpyclH+4IAipVr1vDGl59hdFjRBasl2AmHRr1eT+dBfWWeGnEf4ShsM1v9W0y1JvrGtGHcqDEcyM3h1cWfoY2u9+GSxbn8dXL8eTPqd3aF9cfl5vx2XRk5dPgp+x+Ib1cAoZkAgmhgq9at5f0flxAbE4ctAFlUSaQ71gYFyXA4Va2Vi3sOpk/3Hr+p7y4awqHDeaw7sIPqELDX1REZGUF0UjxBEaEyP7zF7pC5/EWVMlu1ke7RLbh41PmEBIdQW1fH65/NI89mQB8i9sr9g43IsSByLcjS0Phk3HDn0BiumTy1QeKrmyMgiG/6cdNG3l39NdGxcdjEYKALwGGzy4yIugB/Xv8rhoymc1bH30zMO3ftoqK2igXfLyGofQrmknKiE+Pkj8j7LnUpkrlYHdLB1FxRS/+ktlwyZpzc8hFe9+8sXsghQxXa4MB673l/Glj/ROLXpajO2SexFVPGXoheJMFqgKO5AoIQjcVi4aX35lKmtqLW6iFQK+uiCPCWqc49bhIdWq4ZP/kX0Hdkdbn8++/RhQbx9g9fERYfLbcB4pLiiYiPQa0NwO5ySb8DkZVRWptKarhK5KeoT5csrEsLNvyAS1R5DNLJSUlsPcnCXO56W5HPh97u4aoRY2WaZZEgqyGOpmxBEN9fXVPDAy8/Q1SrRGximzRYL/ujSAYXIGRfY2RM226cP3zkb/pjQUEB+w9ls/ngburi9RhKyggJDSE2KZ6wmEjcEtYdEhrF4knklUlxBTJ90jQiwsOx2mx8tvxb1h0+gDpIL3ObCDIQ24yiOJ7sj3Krw0t6YATXTZhEWOiph6YqgCDTxfqIjxUm2IbpCCfSmRYuXIhdOHxFRTFixIhfhIydyPXHO0dQ7vIVK5n7wXtMnXIFX6z5lpC0ONqFJnPAUCoT4YzK6imTZ4iKjsc7hEPhO19/SlW0moiIULlFIfK/iwI9ZotVrkhEFIS52kAqwVw7cSrRUVGyQ4jBJu9wHi+99y4GrRdtoA6tE7zhAdJq4La60EWFE+nycfe0a+R+9alGLxz5huZmQRCy/Orrb/hq6bdceP7FfLdzHdroYKI8gZRjRe12M657f4b2HfAb0DsiE7PFwmNvvkhYt9aEhQbJrSJhghYFmYwWf3U/4RFtKq+hhSqUGy674qhJUrSlbTt+4qPFX2ELVuPyuNA4vGgTwnFZXbKSoz46nARNINePu6RBnBOPvHdzBQSh0/Lycj5e8BkOp1s6C+42F5AWk0hJcRma+DDCbR6uG38ZyYn1Tme/6qTiHiWlpTz2xTu07ZWF3FAQqZFRYbE7ZSizyI/gdXooP3CYaYNHM2LQ0KP9TPTvNz54j7yaCpyRegJMLmotdUS3SMJcZUQjigkFBDAioyPjhv8ylPVkx6Uj1zVlQBByX7NmDUu//4Ghg4ezdu82KgIsJKnDKXOaZFhqj9gWTBo7juDfqVArQPD/vvyUgnA3UZFhEszF2Coii0wWuwwfF9EkdqOFwBo7My67iuREf5l28fyCokLmzv+EGpyYPXZCfFqI0EndW6uMBEZHEujx8Y/Bo+jRpWuDja2KBaGZAIJoSCLt8vwFn9Krd1/KKkoora4iPTUdi8NEVmY70lu1/sNVu5hoFy9fSVWQE22IlihfMIeMZWhCQ1DV2XCHalCZnXSKTGbM4GFyYjgWrESp1K+/WYLd6yQ3vwCtWk9RTRHRYdEEBugJT4pmcNeedG7focEacHO1IBQWFrH4m2/o3KUbpVWlVFZXkxSbhMvrpFOHDrRplYb+D4oj7d6zh00/7SbHXSFq0pKsj2JfbSHBkVE4Kw14QrRgdtIrKY2xg0cQK5wgjwk3raisZO269di8LvYfOCB1WW6pJDY8lpDAEIJjQhjavRdZ7do3KFw3V0AQ7VQsCrb/9BN5Ih1yQgKFlaWovSppgQsOC6RXl27ERIlon+MvVsRE8drr/8MRpMcQ7SXMqcFssmIM8RHgEA50BnThoQTV2rmgzyB6dev+C8uOuP7H9eupqKqhwlZHTXEN5VVl+AJVpEalYPc6yOrYgWE9+0rwb8ijKQOCkENVVRXrflxPbGwCdaZa8ooLiQmPxqPy0C49nc6ZHeTY+nuLHrPZzGdffcOushyCUiNJC4plf3kRmrhwHKV1ODUe1B4VrXURjB82krSWrX7RDoT1afWadZiddnbu202wLoyS2mKCg0JJikrC5rMyqFcf+nbr0SALziO6VwChGQGCWPnV1dXJ/UbRUIVpSsTahoaGysb2Zyt2scLZsWs3HpWXAwcO0qvHQJatXiY9pbu060alsYxzuvekU9tMmWr01/eTTjYOh1zVivhhsRcqTdHC616jISoq8g870ckOSM3NgiDkIHRpNBplkhqpS6tVriREnvYT0aWoRHcoJw+by8bqVasZN+5SFi37gpDwUJKjU7C5TQzo2ZvM9AyCjjOwiecLfwahN4PRKEsPC4dSsRJSawJkmNbxrjtZHTZ3C8KR7xP9Q4QIC9mJ/Wkx8AudCodFoec/66PfLV9OYGAwh0vyCVAFog4IZOuBLWS1yaKsvJT0jJb079abpISE44KG0OmRo7qmFrfbRYCo++FyExwSLK1IQud/9h5/Vc9NHRBE3xN9UPgNiP4nYE84np7o2CrO37R5i/T92bBlA6NHTeD7NSupttfSKqYFNaYqBvTpTbcOnWTo9++NrUI3os1YLFZ/tIlIvuT2yv4YIsb5U8wp82u9KoDQjADhr3baX58vOoGYAKRDVVGxnODj4mIQOcnNJjNtWqf5C4mcYnauU33PX1/fHAHhVGUkJngxAcmtn7w8HA43iYlxsk698JJOa9VSDih/NYrEH9p4aomt/ujbmrMF4VR1Kq4/0j8FaOTk5skJKjQ0hLKychnqmpyUdBQ2/srzTrdemzog/BVZHu/cI2Or+FtZeTll5ZUkJyXIMMXKimpSkhOJFGHpv7P9e6rPP9nrFUBQAOFk206juU4BhEajilN+EQUQTlyEp3tSP/E3+fMzz3ZAON5i7HSC9p9r5MTOUABBAYQTaymN+CwFEBqxcv7iqymA8BcF1kROVwChiSjqV6+pAIICCE2z5R7z1gogNHkVHv0ABRCajy6P/RIFEJqmXhVAUAChabZcBRCavN6O9wEKIDRLtTbZWgzNUxsn/lUKICiAcOKtpZGeqVgQGqliTuK1FEA4CaE1gUsUC0ITUNJxXlEBBAUQmmbLVSwITV5vigWhWarwuB+lAELT1LUCCE0EENxV2azeWehvZRotEXEpZKa3IlTvL9ByvMO6cz4hXadw7oynWfLUdUwd1oIl2ePZdPhdMkNPX6jame4KTcuC4MOQv5utOZVSTDKnQFIb2qWnEvj7qqRm9yK6DL6E1iOfZclHQ7hC353Px7xI3Vc3E3GmBX4an9d0LQh28lb+SJ6sbAXaoDCS0trSOinSn/HweIezhifGjOD+bA8rVq0mYesLDJ30MD3e38XSaf7KqM3laMyA4DCUsWXHPhwyJTyExaaQmZlB+B+MrbCFUQF9WDHh/zAsGMaLupbc334yJTs/xp//sHkcCiA0EUCo/Wom0eNe8Lc6dQBhMYlcNP0/zH1sKtrfyRKtAMLp7aQiFv3zzz+XDxGJo8aPH38CD3Sz9j9TGHSP/zqVOoCohBaMve0N3ph1LkG/cwcFEE5AtA10Sm5uLhs3bpR369OnD+np6Sdw50Ie0bXiYZd/kgkIDCGhbXee/+hTLumUcPzrFUA4Abme+Cki78eqVatkSmuRT2DSpEkndHHh+vfod94/KTGJwgYQEp1I+ugHWfLhjX8w2SuAcELCPc0nud0eqmrqZD6JYxN8/V4Iqaq6zljP8Md/MxE7LA5Z474J1WI4Agj/+vgAd6ZspOuoa4gbfi27vniF4r3rOVRipPfQ0cQ48liy/gCxXYeSVfnlbywI3x4cx5ff34mjwkC77j1oHRuK21zLwZyDlFXW4VGFk9m9Ky2jg8Ft4eCuneRXGgiMSiKzfQfiQ9WU5uznYH4xbm04aRmZpCVFY63M51BOPuUGB0ExyXTt0oFIvZqD274ntyKCc0b0JLhmNyu2F9Gmz0haqYr5YdNeMnv2xZG/G1tYW7q1Szyp5tS0LAhHAGEjj325hEkhqxk9YQYhPR/jh6X3Ydm/kn3FIfQe3ocI40GWb8mlZdeBJFavOI4F4Tl2PT2QklIbWd16kxoViM1USe6BXMqqanEFR9KtSzcSIwPxOU0c2LOH4vI6tNFJtG+fSXyYjrLD+zhwoBBPcASp6R3ISI7EVpnPgdxcKupcBMek0r17FmEBFvYuXUNBVBtG9MnAlL2VTTk2Op7TlxhnKRu3FZLZtxs1B7bgSuxGt1ZR9YVp/5pKm64FoR4QOlxK9pqXWH79JG6cv43ZH65h9rh4Nq/ZjqdlDwZ0iCZ/yyoOVMXSf3gLXj6OBaHL/1bxdCc3psAU+nZpS6DGS02xKKZWRK3ZTnhSOj06paPXqLBV5LJ9fz5Gq4aUjAw6pKfgs1azd/deSmudRCQm0b5dO6ICPeQf3E/+4VKsuiBapHelQ6tIvKYifvxxN97McxiapuPg0tXkhqcyvF8mJdu3kG+No2s7DTuzi8jq3pfY4JMr6d2YLQhHACHz/PdY8EI615wzmEWF57Opah4JW9eyVxPBoAE9oDqfddsPkNi6N13a5R3HgnAJ+759lIpDpUS16UWnFmH43FYOHzhAYWE5Nn0wrdt2o21qOGqvm+LcfWQfKsYbEkmrjA60TozAXn2YnTsPYfSqiW/Vno7pyWCu4MChQ5RWGVHrY+jUsxsJoVC4Zh17vEH079+LAGMxP27dR0yLHnTroGf70i2E9x1CYNk29tiSGdE9heNX4Pnj/qlYEJqYBSEhowvJehs7y508/NJ87pvSh0en9eCRj7bzXYGHc0ueRdXvLs77sJDPO/34G0D4bHMACXFQWmEhZfID7Jv3AAHb59Hq3OuoqTPjVQeTOmwGK5c9StmzNzFxzsdU1FnQxXXmlW+/4QL9Ni4ZP52NeRV4AkIYe8dHfPL4ODa89C8uve9tKiwudOExXHrHO7z5wPk8ND6WJ7/qw4baxbRdcR0xl7zFPT+YuUXzLqmDb6bfuNHk/rCK4Tcv4MPHz/9rs0n92U0TEL4mtV0mMQEWik0x3Pv2Am4d2YpXrkzi1vcyWV65kp5b7iNqzJPcOG8Pj3fK/i0ghCaTGmiiuMbJsH/OYcmrt1Gw4mUGTL6P6jozbn0IPS6/i61vP8Dql+9g8uw3qaqzEBCdyjOfr+LqNtlMGH4Fqw5V4NUH0+2ehax7aBS735jOiDv+jzqLG314HCNnzmXeIxnM0nbg9f53U7XqEXY+eD7DHzvM65tWMaL8YwaPu59uE8aya9lX9H1uHZ9M7/37pvU/0HKTBwRtNF2z0jAdPgS9prJg7tO0sX3HsLYTsMz4gh3PD+WV89KYtWwMWx0vs+Q4gGBLbom2rgSrLo3ZHy7lgTGxzJ8+lms/2ozZ5iQ4Oo0b3lrGkwMcTBkzgSV7DmN1qOkx+WbWfPgMnz10GTNfXESN2UVIVDQfrc/jwgwb/xzalXlrS3AE6EhI68TbX3/HQMfn9Og2HeezGym8LY57tOn8p/v1lP/4FB9cPIrH11fTNz2YNeVOFn2/nhGtT25DqykAglmXRkZaMGWFdZz34Ce8clM6b6e2Z0ZwL/bv+BpW/JcuE+5l0t3LeX9OOOf9eoshIIKMBD2FJTVEZ4zky+UL6RScz+UjBvP11jKcWj2pHfsz74svaG/+jgkX3MCmw1V4A0MZ+uhXfHNzIrOGjOat7UXYfCoiJswhf/5daNa+SKtx91JjsKISi7Kxs/lh4dV8k9mN6x2t2bJ1CVHb59LjglsZcd3XfPJiAuMD+mG8ajrur99n/flzsb59ye9aJ/9o0FUAoYkBQlqP4bQLM7Fy7SHGPvACCx6cxpx/9DxhQPhqbwrzf/iYXfcO5r6l8czL388lUXl8s3ArRKpY8ux0Xlvdni+LllI2axzXfX2AG+57hHGDetG/e1fKf3iRoRfPInLC3Tx69Qg6ZPWlY2oopfs2sT67BGfRbm6+5zFaDL2c1Z/O5YlL/hgQwjP6ctOM6zn3nEEM65VxFgHCN2T26UeqzsjGfUVMvuv/ePmO0bz5z78ACDFXsHLFdcwdOJL3wwayI3sxbauz+XDdIeLVpbw55Qa+7nAxJbs+4aNbLmLW699x5eyXmTK8E7269sa381XajZhJ4sRHeOwf/cnqPICslECq89axblsFVsMhHrrvftzJt7L6x2t5POyPAOEOvO2GcuvMy+jW9yLGdP8ds/qfaLjJA0JQMsMHdMZ46Cd2+zrwwcfvMyJq818ChNa3vc+H51cx8tzbyL/yfzjn/pPyTd+wtkRNUMUqbrnxGQpmLqDu+mD69JuAI+MC5tx/DVkdu9C1XSqPXJLBY595uOeVf3Ne50y69etOhMbO6mXLMDg8rH/rGf699CceW7SVGSlr/xAQ7vj2JwZNvJZpEwZz/ujxpEQ0XwuCI7wrvTpHsHf7VuLPfZSv3rqMz9L/AiAE9uODTfMxPHYl/1qwiYcXbGb26GRWLF+F3WVn5X/n8N9t5by2dD0j6j6i54QHyLh8Dg9c2peOnQeQ6V5N646jMXadynO3T6V9Vi/6ZsbhqtvDt4v3QZiHDx+9lvlb+/JD1ccc6N/9DwChF4s1adw0+1+07TaOmRe0PamxVQGEJgYIt36Rz9MD6pjYtj/ftBlJ2Y8LePmffX4GhMJ/oxrwwO9aEKSTYt675DzWivOfLuTZ9bVYXruUFxdvo8eo8WgOfMC327rwZdmPjGAfbz/7JI+/9ilmXSp3v7WI+0Yn8N1HrzBnzktsLHcxbOJs5j/ek6uGTGWFKpXxA9NZ9NlnpI+Y9htAaLFsOilT3v6FBWH0ze+y+MUrT6rxHrmoaVoQNvHUku+5sYOR4SNGURLWm9Xff8PXt6YctSB03ngfCRf8gQVh5ItUfDuJj+LbMbOyI0ss37H22kG89FU5/ScMw/rBh6zKmkjJ7k8JK97LO88/yn/eWky1JoY7X1jAI5MyWfZ/z/HwEy+ztcJD99GPseiJ9kw47woOq1IZeV4WKxd8gL7Vbb8ChIfYef/5DH+i4BgLwh10fXQZXz4wkpObQvzabPKA0PFyira8Q/Uns+h6+WtMe3IhL01yHAMIA3hlZAazlo/9XQtCj3d2sfT8cgYlnMva4Y+y55ksrpl8M0W+NMYPSuDzdxdRcusCfE9fwN4fPubRh//Np5vyiR9+Bdu+fA113gZeefRBXv5yNZ6QFGYvWMHgrbcw7vGthPQdRc/yzczfWXBcQLhNm87zx1gQ7thQwac/bGBiVtwp9dGmYEHIGvcJX7x7Ps9f2ZsHPsrhw70HqTm3y88WhOVP0+Xi2b9vQWg3mZzdH5J3+zTO/e+X3PbqCs6vfZCpz+widuC5tM9Zy+cFdgkI13YP45u5z/DIf95gZw0MmvQ0n74xjfIfPuHBh+bw+eYCErKu4psl9/DqFRP5YlclAy68gKp1b7N234DfAsK2/9HjwjuPsSD0YvHwF6heOoPoU/BHVwChiQHCqJufZWxMNvf++03CR84gd+GzvHbDEGbNXcvFt84mev97vLM0nxG/t8Ww3cUl106n9stXWWYfyeqtb/L0xd1ZeVjLg3Me5+DH9/DOytYsLFqK+ssPyNWFEZa/kqsfm8f1b6/kga5lfLqukhitidkPP0pop0tYfHcGHc+7jxaXPcCsc3w8eP+zxA29TALCC1e25cGPDzH1rofwrHiFz7ZWcccxWwwXzvyIL5677JQGn6YJCCuZdOc99NPt4cn/vk/seXeyct5TLL6jE9Nf3cOFtz1C1LZ3+WhVHtf83haDJ41rZoxm3RtvUdp1EvvWPsC/UrqysHIML7w7gu9n3MOilmMp2TWfTR++RaFbB7mrmfH4R1zz3GKeG1TDi2uraBEJLzxyH2Xh17Hw0SD6XfQIPSfdxoxhUTz16BPYk25m9Y8zeKF9B57Ob8G/HptG9tzXWJYX/AtA6PHUD3xx55CT2us80gCaPCAkncNzD13Fng9e4J21hTzw7kruGFTDyE5jORA4hNumt2XeM3M54Lj4dwFB1+kCLj/Hw9NvLifjoYUsaL+JEdMeJW3qA9zc2c4TDz7LoRvmU3dLGs8vXEd6jJ4VL97HB47+ZG/5gq0fPIVR04rijR8w+39LuH/RalJnnceNB1tz/0ez8cx7mSeXbJeAcGvGLs7pMoWC9AncMTaaV158m8ouP28x3LGpki9WbeSizJhT6qNNARAiO93IzH/E8MYjc9gS0J+12xeSO747V/zo4NJH7iJszYe8vXwbl9234vhbDK4YJsy4Dsfqj1l60MxrK7+l7vIB3JXTnoc+vAPDW//l+c0lEhAuYgPvbjOQqLfwn4cfxtt2FmveGsaz8zaT1TaOtW/O5u1NWXy77gFmXTiKyqBMHr3nRpa9ehefb+7OyqpPKb3sHC77roqJ991J/PbPeXPJZsbdvLh+i6EXiy98A8PCawk/Bc0pgNDEAEHqOjCc7iOv5vnnH2FQmwjKti7iimk3sN4aw50v/x+7Hx6K+Y59x/VBWBJ/B9ODV/D8F/ncPvcjnpzSi9Vv3M/UG58nfPjVPDGzO/dd/j5P71uC7a3buOP5dyiqC6PftFt559l70GfP5/IrbmV9rp2kXufz/CsvMLFrME9fPZYH52cz5u5HuajsNV6q7CsBoWbTAqZdcxU/Obvz9Bv3s/i68XR6t+aoD8LZCwj+KIaAoDAGTrmbF56aSee4ECp3reCaqy5lRXEKs1+ezf7Z0wh5aOtxfRCK7n6Nvjtf5ZUNRv7z9pfcMa4jXz59HRff/TadJt7LB1frGHHXbnbsms+qZ2cwa9arFBFBr6m38vZz99Ky8GPOmzCLTUW1pPScwH/nvsGEdkaemTaFxz7LZvTdDzOo+BNe2nMOq3/8D5Yf3+SKS2dxKL43Lz44jjmXvswtG4/4INyBAgg/RzFEpHbg8vtf4LGrhxOlsbHgP7cy86H3SbhwJveM8XDT9aV8d1wfhLlMfXIGG559jOJOU1j8wXO01xzmtimTeHubkSvmvEuL7Q/xUMTtGG9O5Nor/8n8ddmQ0onHn3mdu6cMYO5tI7nxxRV4w+K56LoneOnhaUTu/5BBF9/GnoCe/O+RyTxzze1M/WIr95+bzNzZ07n7mUW0uXw2j3Tdy9iPw4/6IJxNgHAkiqHDiCt49uWnGNU+HkfBSq4edxWfFmmYPfsufrj7VlLvWHJcQHhzxGXMbm/g9g82MmLme7x71yjM615j2GX3UhwzlDcfOI8Hr5vD7UvWc4HrWy6ach/byi206j+ZF958mQvCdzHhkmtZtvEgAXE9ueeNt5l1QWuWPHEL0x/6hOQJtzBrtJaZt2zk0+Kl9LGtYfqEq/g418td993L1jmzCJ02XwEEER32OxVnm20UwylAYLO/tGlZEJq9Ok7pA5uuBeGUPrvZX9yYLQjNXvin8IGKBaGJWBBOQcfN/lIFEJqPihVAaD66PPZLFEBomnpVAEEBhKbZco95awUQmrwKj36AAgjNR5cKIDR9XSqAoABCk2/FCiA0eRUqgNB8VHjcL1EsCE1TwQogKIDQNFuuYkFo8no73gcoFoRmqVal3HMTVasCCH8jIISEhJCRcXLJgZpoezstr221WsnOzpaeq8OHDyc+Pv60POfXNz22FoNOp6NDhw5n5LnN+SFut5s9e/ZIXQ4aNIiUlJQz/rnH1mIQ/VP0U+U4NQnk5ORgNpuJi4tj2LBhMm9+Qx+/rsXQsWPHhn7EWXe/I/1RfLiQZ5cuXRqVDJp1LYZGJelm8DJ/JyA0A/E1qk9oLIDQqITSDF7mTAFCMxBVo/sEBRDOkEoWLlyI3W4/Q087ex6jAELz0bUCCM1Hl8d+iQIITVevCiCcId3l5eWdoSedfY9JTEyUpZfPxCFMmgUFBWfiUWflM2JiYggPP5U8cCcntpqaGgwGw8ldrFz1hxLQarUkJyejVv9OjfpTkJ+o0FtWVqYsvk5Bhn90aWBgIElJSafp7id322a5xXByolCuUiSgSECRgCIBRQKKBI5IQAEEpS0oElAkoEhAkYAiAUUCv5GAAghKo1AkoEhAkYAiAUUCigQUQFDagCIBRQKKBBQJKBJQJPDnElAsCH8uI+UMRQKKBBQJKBJQJHDWSUABhLNO5coHKxJQJKBIQJGAIoE/l4ACCH8uI+UMRQKKBBQJKBJQJHDWSUABhLNO5coHKxJQJKBIQJGAIoE/l4ACCH8uI+UMRQKKBBQJKBJQJHDWSUABhLNO5coHKxJQJKBIQJGAIoE/l4ACCH8uI+UMRQKKBBQJKBJQJHDWSUABhLNO5coHKxJQJKBIQJGAIoE/l4ACCH8uI+UMRQKKBBQJKBJQJHDWSUABhLNO5coHKxJQJKBIQJGAIoE/l0CzBIRDhw4hSpMqR8NLICUlheDg4Ia/8XHu6HA4lHLPp1HSCQkJf0u555KSEiwWy2n8srP31hqNhrS0tNNS7lmUXy8uLkb0S+VoeAmEhITIUt2N6WiWgLBw4UKlZvlpaGUqlYrhw4cTHx9/Gu7+21uKgejzzz8/I8862x4idDlo0CAE8J3pIzc3l40bN57px54Vz4uLi2PYsGEIUGjoQwDCqlWrKC8vb+hbK/cDOnbsSJcuXRqVLJo1IIhBUK1WNyqBN8WXEdYYr9fL3wkIii4bruWIgb6x+BgIuwAAIABJREFUAMLpmMgaTlJN505H+uiZAgSlPzZc2xD9URwKIDScTP/wTkcsCGFhYfTs2fO00PQZ+pRG8RhhEt63b9/fCgh6vZ6BAwc2Cnk05Zc4fPgwOTk5jQYQxKCYmJjYlEXaKN59w4YNctvmTAFCQEAAQ4YMaRTf3pRfoqKigl27dimAcCZX8kcAISoqihEjRqDVaptyG/rb3134dGzevPlvBYSgoCDGjx//t8uiqb/Azp072bNnT6MBhD59+pCent7Uxfq3v/9XX32F2Ww+o4AwadKkv/27m/oLCGBfv369AggKIDTdpqwAQtPV3a/fXAGE5qPLY79EAYSmqVcFELw+4mOjzqgvgGJBaNjOogBCw8rz77ybAgh/p/RP37MVQDh9sj2dd1YAQQGE09m+zsi9FUA4I2I+Iw9RAOGMiPmMP0QBhDMu8gZ5oAIIjRAQ9i16miH/2MgnK6/j6jGTuGPxYWb0jsLntpKz5j2mXXkXGwtNLM7zMDZNiYJozIBQvOp5+ly+ja833sy/Bo7jysUlXJ+lxud2cPD7N7l62q2srzyHbyvWMDpO1SCduinfpKkAwu0Tsvhs+Cc8n/cYly/qRW7OXQhXRlvVYT58+HpufWUZkdd9Svb/JnJmsnI0bq03GkAoW07fdrdwx/pF7L5tEFXXrODVKR2l8Cr3LOP2yy7jg12hPLtpK7f3jm3cQj0Db6cAQiMEhMXPXM34Dd3ZcpOKURd8zoKC7xkcq2LVa7dy5T2vkm90y6ahAIK/hzRmQNjw8hQu2dSLjbfGMXz4V8yr/oweAW7WvnY3V9z7KnkGOzBAAYT6wa5pAEIZl3UdTK/3dlL97+G8mPUMhgf7463dz7+mTubdJbtwAckKIBydwhoLINT88CRtblrM6m/+zSNdr+XC1T9wVdd4ylbNZeI/7mFDUTVeX0sFEOo1pwBCIwIEQ/b39B0yhgOlzl+yYcsBbP7+SV6efDVbEi4gtvQNVv1kVQChXkqNERAsldsZ2/scVuf/KqtbUju+nvc87910A3uyhpG2bR6Lc3srgNBEAOGzuy/lkqc++c3abeQtz/Df3rmMfWg5o8f0ZMEr8whSAKERAUItDw5N47FVxt/obvLc5XT67G5eKwtnpHo3720OUgBBAQQfIgGErxEBgsdhYv+B9fxn2nRCr3+FmLWzeTnocpbfdiHtO7TFVVmKK0LNfYPa8tY2iwIIjRgQvG4rh/Z9z4PdpxH++Ou0+elWPg/+F6/NnEhGZiaquhIcQXU8GNON1939FUBoIoBQW5xH7tKn6PVKKZteHc+N/Z9j2oq5nJ/egoyUcAqL69Dueo3k8x9TLAjHTMV/vwXBQ8nBDbw+5WoWhkxl1vCV3L3Qw9xX/ktm5860UFdTZLKzdPgQbszWKICgAELjA4S6gj2s3bqCZy95gow5c3B9cw8b02/jlennMahfT7TS3aCK6T3TFEA4ZvBpjBYEa+lelq74mseumUPWPfcT/O1j7Gl/Ew9eOY3BQzsTJDPNHuBGbQcFEI7RZWPfYvhp3WJ2fv4016/U88G/unP79G+5/vPHuLjfMNonhskvKf/2IRLHPqoAQmMCBFMRC79dzkf338/ujMlMCv+Ot3eHMGf2s1xw8UBideJlq/lfu67coADCUc0pWwyNyIKw7b17GXHlk9T9ygjWZcw/WLXwPSL1CiAczy+nMQLC4S/uo/WEf//mdVt1uo21m58lNVA4JCqA8GsBNXZAuPHcaF5fUfvL1w7Q89Dn23j4wiwFEI7XQYG/3YKw72NUWZcd5+2GsbJqBUNjRH9UAOHXAlIAoREBAvg4/OE1DHypnPVzp3Pe8Dk8t2U5o1MjjtGbYkH4dSNujIAAXnbOvZHhj+xlxUc3MWT8fbyxciOTOx1bSEoBhKYGCNhzuCG0Lb5nvufy4mu5t3Y66966+xefoVgQfjsP/+2AIKb/fd8yaNi13LdoBW9dMYyYe79lwVXd+DkOTAEEBRDqyyyL4iGNzQcBzHz2zyHMKbmQj29y0/uRbfy04gtaR0r7V/2hAEKTAASvnU+uGc+d60bx2b+LOO+OJSzfsIOeicem1VYAoakBgiv3e6IyRnDn8h8JmDiUgzO/4L2HxiiA8DuWgyP/uzEAwqFvnmPIuJ3M2/NPbhh+HtcvquTWXqHHvLkCCAogNGpA+JNepvz5uBJonBYERVknI4HGvsVwMt+kXNMIthgUJZyUBJQthka1xXBSOjzrL1IAofk0AQUQmo8uj/2SxmBBaJ6SPb1fpQCCAgint4WdgbsrgHAGhHyGHqEAwhkS9Bl+jAIIZ1jgDfQ4BRAUQGigpvT33UYBhL9P9g39ZAUQGlqijeN+CiA0Dj381bdQAEEBhL/aZhrd+QogNDqVnPQLKYBw0qJr1BcqgNCo1fO7L6cAggIIDd5yvV4vNbU1RIRHoNVqEREjxx4qVcMWJVIAocFVePSGbreb6ppqoqKi0Gl1v9BlQ+tRPFQBhNOnyyN3Fv3R4XBgtVmJjIxCrVJJvYofodPToVcFEBpGr2JsraysJCwsjOBgfxmwI+Pr6dCbAggKIDRMy62/i2isBYUFvLnoXVoktGDSyPHY7Db2FhxA61Qz8JyBBAQENOgzFUBoUHEevZnQ5Z69e/hgxXw6turAhBEXUmOokboMU4fQv885DT6ZKIBwenR57F1dLhefLFzA5sIdXDfmClq1asWhglxKKkvpmNaeli1aNrheFUBoGL2WlJUw96v30Gp0XDvhKrweD7sP78PtcDOk90B0umND4k/9mQogKIBw6q3omDsYjAbe/ew9ioKrKc+voFdsRyp81VQ66xjXdiSjh41Co5F5hhvsUAChwUT5CzioM9Txf4s/olRfTfG+YsZ0HMo+Qw4mjZVRKYMYO3x0g08kCiA0vC6PvaOAvo1bN7Fg65d4Y7VUriygb99elGirsVfamDXxZpKTkxv8JRRAOHWROp1OPl/2BTstB6ioqeHclP7sKt6LJ0lDRFUwd145Q1psG/JQAEEBhFNuT6LhmswmqupqWL19LTmOArTRgRzYn0uYM4A23TPYs/UAN424gvi4eEJ0QSQnJTfY5KIAwimr8OgNhOnZZDZTWlXGup0/UuQtRxWhZe/Og0QTRMtubdi/+xD/7DOZlqktCAsOJTE+ocFeQAGEBhPl0RsJs7TNZkMAX3bBIVYfWI83Tk2N08L+lbvo078Hdq0X90ErM6Zejzg/JT7pqAm7Id5IAYSTk6LY4jObzVTUVLJ571b21h5EFx9ETkERznwDXYd050BhPl0caVw49nz0ATpaJKc22NiqAIICCL9puSLDpMVqIScnB6PFhNvrxeVxic0u9Fqd3IsWvzs9Lix2G0a7ibK6CnIr84hpE0dAsA6r3Ur2rhxat22JJkTL1qXbSYyIweZxMSqtP9OvubbBGrECCMcffMRq8cjkcDD7ICaLGY/Pg9PtkrLXaAIIEroEHFKXVkx2M+WGcvLrSohIjUAbosdst3BoRw4durTFrvKw6evNpMQm4FPDhV1GcNnFUxpMlwog/PlE4vV5ZRbY0rJSCgsLcXncOF1OfCqkHvS6QDSoEDmEzVYrNpeNWpuBvNI8bMEuIuIjUelV5OeXYMivotPATuTmFlGyNZ+EFomEegOZdfkM2rRp8+cvc4JnKIDg9xUQ/VFs8WQfypbA5hb90eXChw+NWkNQYCAqnwovXjn2Wpw2KoyV5FXmE5gUQlB4EG48HNh9iBYtk9CF6tnw3TaCHGqCY8PokZjFHdfc0mDbuAogKIAgu7gYcCqrqyiqKCa/vIAqaw1mlxk0KlxuD3a3HZfXhQoVGrXwIfAhxiCHyyHPCQwLkuYtr8+D1WbDZDATFBxIeEw4tSYTB7ccIjQ6jBhvGA9fOYvYmNgGm1QUQPjlKC0GofKKckqqS8krO0y1tRaT24JKrcLpdktdur1u1KhQqzUIn1EvPhxOByqtmqDQIDTaAMREJFaexlojoeGhhEaHUl1nZNeqXcS2jCdFG8fMi6+jZUqLE5wm/vw0BRB+H/bsdjsFJYUUV5dQWF2MwWHE6XWCWoXd6cDhdeL1eghQBwh+RxOgxul24vJ60AXp0AcH+tuAy4ndZpd9NKllAl6Vj0MHCjBVm6TVYGzmECafNwG9TlaHa5DjbAYE0R9r6+rk2Hq49DCV1mqMDiM+jRh3fRLgXD63HFIFJIhDpVFhd9gl9AWGBaLVC5D3YbPbMdQa0Wo1RCfFYLHa2bRsC7Et4gnx6bl+xOX07d6nwcZWBRAUQJCTwIq137O3MhtPkIeYpGi0YoLwgsvpwSYGFI8Vj8crmEAOPuKXo17PokVrwGy0YqozodPrCI8ORR+kx+31UFVVR97ufMKiw+gb3pEZV93YYA1YPFoBhJ/HcKPJyNIfviPPXIBb7yEuJUZaCoSuXE4vNpcDh8cugVAc/vgSX/0vKlRq5KBkNliwGE1o9XoiYsPR6QNwe3xUVlZzYHM2UfFR9I3uzC1X39igPiUKIPx2Pha6yzucx+J1yzDrLQSG64mMi8TnFfVkfDidbqwuqwR46dFer06xKlUJjhcEqAK320NtVS1en4/AID1R8RF4AbvdSe7+AmwWOzqbioevuov26e0aBAyO3ORsBQSX28WaDevYevgn3EEeohIj0Qfq/f3R5cXhckpAEOOkGFj9Y6vQnPhHALwKn8qH3WrHUGNArQ0gPCqMoNBAvF4fdQYTP63aSXRyDPGWMJ659wn0DeioqADCWQwIgmx379vNdz+txBriIDQqlGB9kFhXSpOX3emUq0oXHlRqHz63D1OdGavRSkCABm2gTjZUsdrUaNUSIMSqM0AXgEatkgORAIz8gwXUGS3o9VqmZl3AhaMvaNDBRwEEpNly556d/LB3rdRlmBhEdIFSl+KwOR1ylenBg0/txev2Ya41YTPZ0QRo0AXqCAkPlisXjVYjAULo79e6zNmbh8liI1QfxOT2Y7jw/IbVpQIIv+wadXV1fPfjCvYbctBG64iICEMjaByVnFRsDrvc6hM69XnB7XRRV1EnwUGn06IL0aPX6wgI9Fv93B6P1LFYAIhDTDJmg5UDO7IJCNaTqormrmm3kpiQ2KB99GwDBAEA2TnZLNu8glqdieCoYEKCg1FL3QnLq1P2Rwl1GvC5vdhMNky1ZtQatdRZkOiPatAGauXWhNC3iAALCFBLsPO4vJQXVVBUUCbv3T+iMzddc0ODLr4UQDhLAUE0uPUb1/PCwjfIGpyFVqeVK0G1WhieVXjcHjxixNH45IBirrOQu/UQialJpLRKkaYwsTIVf7e6rRIMvGLbUyuu9q9aPF4vHoeX3Zv24AvUovL6uHnANIYMHNKgg8/ZDghCl6vWrWbu8o9I750uLThC/jKc1KfC7XLJLYQjujRWGynYlU9SyyQSk5P8uhTnasDqskhdSiUKXar8iCHgz+3wsGPdTnSx4WgdPq49ZwpDBjWsLhVA+Llr1NbW8ur7b1IRXENcaqwEOZVKTYBGKwFOVqNVeVHJuV7F4d2HsdZYyOyaSUhIqH87UBuA0+fE4bb7rUUBYlUqdiX8AO9xe2Xf3rFhN5FJMbTRJnH71JvkFmBDHmcTIAg4yD2cx0vzXye8fRSBYmtH+vxoUKvUuF1uKXsBdaoAlQSDvB25REZF0rJNSzmuyp8ADRa3GY9X6Bl5rjAGCd15vD68Li8F2YUY7Ha0Xg0XpA3i0kumSL031KEAQjMAhCNJTqRJUe4r/1zh/PcaSmV1Jfe88DDqlkGkpiQQoPHvRavEtWL7QNomkSuOw7vz8brctOvclvDACLlvLQ63z4VVmsf8+2fSLUEj7iE3IhBWM+GFu+PHXegjQ1BrNVyQMoipEy9tqPYr79OcAOGoLn0+P6ydQFIp4az24OtPoGkVRFJinLTuiHYg9SBpzW+2dHk8FO4rwONyk94hg4igX+rS4rLKweiILtUav6ObXGl6fNJEveWHrUS1jMdjczO25UCmTZ7aoLpsroAgIK5+Z+6EkhGJ8z9etIDF+1aS3C6JiLBQP6wJndbrVRqiVWCoMVK4t4CktERaprYkQO0HRPF3h8chfU4k9PlPlxON3FgSTnMeMNYZ2bF+F3GtkwgxBzD7yjtpkZLaoHptqoBwbH/0y/+Px1Zxfm1dLY+88ASGGCet2qSg02rrt3n8E7zoU0I3QiflRZUYy+pI65BGTHgMAWp/mKL05XJbpQOq1LPcKvL7Jhyx/Pg8PnIO5OEUe8EeHx3ULXlg5j0nNGacqHIVQGjigCBNWXk5rN+6GYvNSs9OXWiX3o6wkBBpqhLEKgabYw+x8nj+1RfYaN1PcGQIaS2T6xtxfQMUjFBvASjIKcZeZaZN5zaShPUaPSqf2u8N73VIBye1178awVs/Ah0ZCUF6zP+0YQ/68CA5cbVTpXD/jXc1aLxucwEEocuDuTls2r6FOqORfj160S6jLcGBQWjqYeHXWSmFw9nTLzzLdleO9E5vkZxwXF0K0BO6dNRaadOxNUHBQeg0Or8uvW65yjyqS6FHoU8/5/n/rdfl1jU7iEiOxmV1kBWYxt3TbycoKOhEx5s/Pa+5AYLQlwgD/mHjOvIKDhMVFkHfnr2Jj4lDr9cfzWL4a8FkZ2fz1McvYQ5zk5QSR0xkpDxXTC4qjdrvK+LzSSe1nO2HSG6VRFRcBKHBYXKrIYAAbF6r7KdSf14/5B1ZW0r11s91VTW17Nl8gNiWsTjKLcya+C/6dOv1p5PhnyrzmBOaIiAI+VZWV7N87UqKysro2bEz3bt0IyQoiABNgJTPr/ujAOwvFn/JB9u+JCIxktTUBEL0gVISYnIX2wnSeuP1UlZSRcm+AjJ7tCc0PERuCYrQIJnp0muX/VGs0yTbCd0daxgQjsU+L9n7jwCCh6AqNc/cOYeYmJi/opo/PFcBhCYMCNJ5qSCfFTk/4Y4MwuywUVtdg97hI9ajZUDH7oSFhlFTW43RaJIrSmF2FuarZ999icD0cLRBWuLjowkV+2Mq//aCyM5lMdmoLqvF51QTE5eAxeNE7TORnJ4o96/FvCFWmOKeYh9T+CccGX0EZIt9bDG71BksHNyTC2ofukA9AbVenrrxERk7fyKr4xNp6c0BEIQu92UfZFXBHnzRwVgdDmqqqgh0QDyBnJPVlZCQEGpqqjGaTNKKI4BLyPypt58nIisBbWAA8XHRhAT7gUL80esWurRSXVoHLg0R0TFY3Q50eicJLePkwCN1Kc2Xx9OlMFP7By2hywO7stHoAuSWVLgziDsn3kTb9IwTUdMJndPcAEFY0BavWkFxsAu3To3BaMJeZyTcraFdRCLdszphsVikl7vIOBqg1aINCCA7P4dF25YRmhROaEQo8TGRclISehX9zePyUFNZi6nGjl4TRGRSPJVlRbRsH482QCsdGP0wUb/i9BxxRPWrIUCrln8T9ykurSRvf76MOFJ5VfSL6cwNl10jAaahjqYICCXlZSzatgZVfBh2r5ua6hqwOInz6enduj2JCQlU19QgHINl1IhGLcfXRSu/oSigWvp9RMdEEBkWKrfxZP8SEWF2B9UlNbhsEBIUDkFanLZaUjMT5Rgs4U3jtxbJrQgxttYfAi40Or9Z0GKxk5dTiNlkITAkCLXVy7Te4xk94rwGG1sVQGjCgGC2WFi4djmlgS7UwXpcbjcOs4Xq4nLsNQZCdXqS01oQGBosPWfRaGQOdqPNgsVsxVBWjslkxKNyEx4aSHCIHp/Tg8PsIT6lFa3bi4FfRZ3DisFiYdcPq+jSP11618omq/bvT4uVyZHVpoQQnX+bwml3UVVroLq6DmOlgbC4cBwmO7107bjr1jsbbIXSHABBJCf6dN13VIWCShfgD0c0maktKcdebSQsKIik1BQCw4MlaImtIOFAarBaMZstGMuFLk34VG5Cw4IICdaidoPF4CI5LZ1WbdtInxCj00at1crhrZtJ75R4VJdCbzLc8VjQk4ORf5npsLuorKujptpAdUEFMS3i8JhdDE/pw7VTr24wXTY3QBDQ98nu1YSnJkonM+FMaqyoxlhWhddiJzE5kciYaBkmLODAI6wCIrTUasEkJp/qGmx2K3q9mrDIYNQiksijxmVT0757VyJio7A5HBicdnIPHCRYayZSTPT4+6gAPwmBwohYbxESwKcW0Cf8D8xWyqpqqCmvRaNRERCoJ7AW7ppyMx0yOzQUH9DUAEGs8JdsWMU+Tw2+QJ3sjy6bg9rSMiyVdeg8PlLTWhISFYYuKFD68Ih8BkaLBbPVgrGiEpPBKC0BYSF6wiKCUbu8WE0uIqMSyOzSUY7HYlFncNjZv2kzqa1CCA4J9o+twlgkAOGY/ih9SnR+cHA53dQYzVRU1FB26P/Ze+8wO8/qWnyd3vuZ3kczoxn1LktyEe64F2yMjTHYQAjBkBBIIQkhhSRwQy5gCKHGoblQ3DDCBdtykSxZklVH0mhG08vp/evfOb9n7+8cSeZyf0/uyH94FJ3n0SNZHk05+3v3u/bea609jfruRmiShgFHBz73kT992yyXzwOEBQoQqKI7fOI4Hj38KpxN5CkAEN43FyVYKiaEG+qZqUwFhKxphoyG5pLlCiQyVimr3KKihCTpZX74pVgSQa8fdS2NnKwkMs9hfbUORVExceQYvE4R9S11VXncW1vQTMSxGW1QVdaQKwrI5POQSzLyiSx8ER/MFgv0WQl//b4/wUD/wNuCdBc6QKBYHjh2BE+PHUAl6IaFzG4oxRdFWGBGuK7uVCwlTeWY8WVerkCsxrJSi6WmQ5VVyHMJbmdHW5qY9SxqGgoqsaZ1yLKKySODCAbKCJNcrnYNnDFOMGJptLLp43OFEtL5PI8W0tMphJpCHLuQ6MH9N34YvT29b0sszyWAICsKfvTM40jUOfis2Uwm2FQdFUHmzp43GIC1ytcRVIXPJ7WUlbLOZ4/a1cRcoBmzouqQMnmgUEJTSwv84RCb7JRUGYKmccs6GUtg7tgB9C3vhNVmOR3XM655GjvSGeXxRElCplBELluAVBCgaxo8AQ+0ooJLWjbg/TfcAa/X+7aAhIUEEOi9mZ2bw4/f+C2UqJvBr5NGfEWJZqYIRaNwut2wEq+HcqOuGZwPyqUajV5J96UzkVCm3KqoEGYT8DtcaGhrYRIx/Rs6j7Ju/PuZ4VFYtQya2qK//zxSbidgZyHSsY58UUC6kGdFWXoqiUB9AFaHDS7RhvsuvgPrV697W+TH5wHCAgUI1Lr8xfZnMWQXuO0YdLkQcrjgsFihGnwkflH+0XSV56BktMItsXyB5VCukA+Bxih/vJ1c9az2asIqM2KmxKPRJ6E5qqojfnISam4KnQOtp79AtSqhC4uqTU5oCiFpgX+JRQkVVUchlYfL54LL44LbZkcv2vDJez7+tjh+LXSAQLH5yXNPYdKtwWK3IexyIex0w2a2gAoI6hYbsayAdNXE6yCjG45ljmKpwBX0IdhcD7UCOMwUSxvHkoADEZ2KusYJi7sBqobpwWG4LEU0dUQN7XW1amEyFI+IjFjSJZcvCMiTIx8lSBpZZEssi3T73bAqwOrQAO699QNwu4ztcmfzOlcAAl0W8VQS39uxDeWwG06bDVGnG367AxUQh6dK7+DzU+b3mWJLZzOTTkMUJeYPRNubYXE6Qa4VXqsDdjMpjQyCm0DPASkZqp+LJMiDL76CdVt7DYVR7VU9o9RNoF/ER6HPny0KKJQEaKIKXVZRTBcQbArDTV9vTsQf3fBhrF2++mzCeerfLiSAQBytJ3/7DA5WMjC5HZxbKXZOq+0t55GpHRWNY0dKITqP6UwOmizDZDWjvrsNGo0CTWZ4bA5YCQAy4DNyq1rlhqlaGanpOUipSXT2NRjdntp5rP6RRkIVM3knaAwOSGpM3R+oOmRBhlQUEWqMwG6yoEH041Pv/zga3gYL9PMAYYECBJJAfffZxxA3SWiur0NLfR2cVmMdr1ydK1fKZeSSaSSSMV7Zm0imGLVqKMNc0dHZ3oW2JX1QK+SOaILDZIbFTA+9gXy16s1BB0Giltb4DOTsHNoWRZhjQKCAPoQkcKytBxl/qCiJEoqCCFVQuY1JXQtFlCEXJQQbQ/C53bCVTLht3fW48IItZ115LnSAMD0zjf/c/mtkzAramhrQFI0yWDPiYHAEiBeSTaSQTCeQTCWRTKVRUCVyNYC5oqGtpQMdywegcSzNcDLj2ogldYgIHNRITqKiIjEyhYqYQEtX2JA41ohsLFc1Ykk+GCVJRrEkQhVVoBpLTVYhUSzrg/A4nXBIFrz/wvdg7co1PEM9m9e5AhDofX/ptVfw64mD7CXR192FoNvNs2itTJWnQQRVJBnx2VlkcmnE4gl2HZXIVc9UBhkmL9u4Hg6/n3XvDrMZNh4FkSKFiGz0bBjEQ/p0pEaYPjCE1m4n/EGaVVUNzUgSR3E1kw+CxiMJOp+iIEOXdFCeoDMqZErsuBgI+mAzWdBtb8Ef3vZh7nac7WshAQRaOPefzzyBCT2PxmgErY0N8NidfA4pL3JarFRQyOQQj88hnU0jHotzblUqOudWv8ODZRdtQoXVYWaOnbVKLOWuQpXQTZCBirH0TAJCbBKtXQHY7PYqCZW6hHQeWfMAWVMgSDKDA0VUUFGMuFHOLyby8NcTSdWFiqDjmoFLcf1l1zBv5Wxe5wHCAgUIo+Nj+MfvfwMNy7vR19sDn9PFFSc9u5peRkEQcPLoCUzFptgkR7eYUJKpxazBbjHBZbJj5eaNMDuJYWviv6OKk9rWMvkXkPCWax3S1lQgSApyMynkpkbRvMgPh9sBaoDSLEzRdO5SSKph66rIGsqyDtMZ5Bq6nGaPT6OxtxkBj5fnot6cHX/2oU+dNdJd6ABh15438K0nH0b76n70dnfC43DBSmS0SoX3YFAFP3J8CLPxGY6lZjahpJBdss5x85idWL5pvRFLkwkoHQG2AAAgAElEQVR24oEQIYplbgT0jMqFCE6UTCjJUCyTJ4+jc0ndqViSIx91pqjlSUCPnpXfjWVtCpEai6GuswEe6hpoFXRam/Gx93wI4XD4bPIRzhWAQO/zl77+bxjWsli1eS2i/iDvvaBTxWM9RUUqnsKxo0fYc18xlaEQOViV+WPspgo6OhahuacLZfI+MBtxpRgqepnBAZ1biisrjvQyA4T8VBK6NIWW3mbelUHSVKo6aZeKpFL3if6sQ5VUmJTTrUb6bDQ+EvMi6lvr4LTbISYF3L35Frzrwq1n3a5eSABhYmoSX/zuN+Bd1IBly5dybqUOK8WUYlcUJEycHMPYxBgEqQTNYoZA4ztdJ1oB3GYblq1dB0fAy2DCZjHzeImueUWvcJePc2sVsdOzkI+lET9xAo2dLjY5I1BAuZV4ZXQeKXYkJ6e/0yQdJmr7nvEqpQtsrOT1uGG32uAXXbj/lo+itaXlrM7jeYCwAAECocoDRw/jod3PoWMZeRN4+AHmB64CxGbnsPuNPdAtFSjQuaVMiYFrUU1DQyiC3hXLYXGTPM0Ep9XEXAW9DE48dAhoDl6T0dPnzQsS8rNpxEZH4WmowOqxsVcC7WkgvgGxodmbmXqnjGpPP5dEqqEkJuRL0JUymlrq+f8rORF3XnAzLr/w0rPqIixkgEDtzBdffxXPjexDe/8iBF0eBnrsR0Gz0Nk5vLlvP+SKBsVEsVT5PeeaQlHQFK1D38qVVXAAOM3UQTDCIGlUd1RjWR03UVTy5MM/m8H4oSOILHLB6rZxdUnmWIqsskMbPwxU5FZ/r0WzFstitoiKWkFDcx3HTowX8AdX3YNNazeeFWHxXAEIgiDgyw/+O+y9DazYcVqsRlxNJm5JHz5wCBMzM8YZLRsXAFuZmyuw6cCinj7Ud7ZzBWozg8EBHW+6YGT2sTp9RqlnQ+3qTLoAKZnHzNhh1PVFqpWnYcWsEWinWJ46n29VNRADn+JPZOJQXQget4efP2cK+IdP/A18Pt9ZndGFAhDoXB07MYQHtz+FpoEuRPwB2MyGeoTOA21W3L3rDeTFIlQTVfUG6OLYVXT47E70r1wFdyTMHRxH9TxSvqNuINVMNXsRpp8AEBQVuVgG04Mn4IqocIbdqFjId6TM57FMvBWKHeVVmjVVkyv1juhzELmUbLKpA0TmZ9Q1UAoirl96OXcRzmYF9HmAsAABQiwRx/ee/QW8PU2wWS3w2qjiNGSFdC8XRQm//P5DsLcEoFaoJUYs5jIsxLxta0d7fw/MVb9uB6FbbkUb4IA6CFStEECgz8dSxAqQKZZQnMsgOT2HojoHV9DFDm4WwgNVQEAPcU0+zxi5Wm5ayY+B5uFlID2bRkt7E7uFVMo6Ok1N+PQHPwFnVSs8H7i7kAHC5NwMHnvjBVQavAzyvHYXLCQ3ZcBG0sI8fvurZ6B5zFCqw0lK9NZyBV3d3WjpXcRsaK46SWZl4ApORgT0bGYzJyQeaVIo6XMWBRRjWcTGJiGb07D7HaD9WxRLNs+p6q7pz2fq5ukTWMmKmRb+EAk1kUdzO0mzLCzf6jG34OPv/8hZtaTPBYBAoO/ZnS9jUI3B5nXBbbXDbSMKsXGmVL2MoweP4MjgEegeckU0qsGKrsNhsmLpulXwRyKoMEg3wUmSNxOPm5mwSGeSAIPxMs4oFQG5VA6lVAGTI0fhbLSBUgKdOzOPGAwtvdGSNv6+FmsiLtqqDwnZNHt8Xvj8XnbhrBQ1Jr1tWLv+fwRAYDXRq88gFyA7ahsTC43zWO2uaip2vPgqEqUMZILftdwKE6LBMPrXrARshtmRnUZCZKPMxFPqBla4k0Dnp3YeeVQhysjHM0hNzCFbmoIr7ITJbob1d87jqarr1K4N4zxSfqUuUWIygdbuVtgshszVMqfhrz7ymbPqIpwHCAsMIFD34Jld23G8kobZbuUH12dz8cyQqkVSDkgWoFAs4fCu3cjkMqwc8Hv96BpYDH80wgZKBAAIUhgzTaOwoAuFiTRVUhPf78yWLyOTL0JO5iHkchg5fhCRRVFGrsZFZqABYzZXtQKtgYXqHJSSI52L3FwGbZ3NbCPK3kppHfdufS/Wr1s/H2zA/2ahAgSSvG3btR3D5TT74NP83m8zEhIlHpIwimYgk87g6L43kRfybHgTCoXRsbiPmewmi4UBwFtiyYWiAfR+N5Z0eeVyRUjpPMRCCWMjhxFoC/xfYmlcPpRsDH6jMf+u/S6kiojUheDyOFEhs6ykjk/c8CEs7V8y71gudIBAcSOy2k93PwtTnYe5HE6LHV6rYZZD1WZOkVl9MjUyiuODR2B2WFEWVXT09aKlqwNWp9OoDEn1QL/zZQ6oDNhoFHgKG1R9rCooKSrL75SSiPFjx2CLGioUannzOSPQdwanqAYUjDNeLQbYN0ODkpPQ3GnsYlAkHW1KFH91/5+dVWdoIXQQ6GzsPLgPr8aOwRP1M54zcquxx6IkKyhVysgW8jjx5iHEknPsV+B2eNDZ34dIQz3MNhtvsuHY8Uiomlvpwq7ygmrFUw2w54slCMkcK8mO7tuFYFcYNifZMp+OW433UDuPBjH1jPNIu3MKIpMUo80RPo+5WAF3rLsO113x7nmfx/MAYQEBBDrM6Uwa//HcLxBtrufNfCavvbom1Iw923difGgU77r7PXBYLcwNmDo+ArvDgYaeDmP7IjcnjfkXPfZcOVQRLnUCLJWygXCrzn30R2pr05ZGNS9AKgrY9+IriPZH4I14qtWmIbKuNhuMqrPKYOQHudpJoL/KzaRR39EAn8vJf1/KiNjatgF333rnvBPQQgQIFIvjJ0/gsf2vINwQ5RmmyUOVB/EHzNjx7EtIJzO4+I4bYWI3PpKZDrE0LtrRbEjiKKFXgQADBHJqOyOWVoolxbfakaCY07yzkClAKwpQZRn7XngFkYEI3H7XGbE87Z5o+LobPq9GtXRao11M5hAI+REK+bkKFrIS7lh/A67Ycum8Y7nQAQI5Wz76zFPI+kywlAHRVobFaWW/iWw8hd0vv4bG7m50r1wKU4V4AwVMHhnConXLYbUblry1U3omQKDqkygDZoopnV9joQJzhOg8E3GNQJ8uKxg7PIRUZgYNA41cDDDAo85D7YyyUqXKMK4CQO78VZsSNErs6G1jIy7aOJg8FsMP//E/4HLO3zFzIQCE2XgMP3n5afha6iCUBJi8NlSYz2PBgVd2Y3p2Bltuue7Uez47MgFFlNBCHVkulkidQkWWoR4jYiL7wVD3QK/A9pbcWnWr1QiwF6DSyA7A7l+/AG+HB8EmPyoVMq07zRPhk1h1T6/d+DUFCz03iiBCF1S0dTdzHqCv2W/rwP3v/9i8OSTnAcICAgiEcH/yq18iblPRgTocP3kE3o2dyKUyfHE8//jTsNrs2Hj15TzDPgUE2JaTuWTcIdAqpGIApEwOkfoIhKpWN31yCtOvvYGmjhY0blwBp9/LiaQoy4xwdVGGIimYm5hCxaJDswjMemYeIy9/qbY86TeqXmtdhWqVQpcVkeOcPjeidSE+TLKsodfeij+89b55E9wWIkAgw6rHX30OM3IBLQjj8PEDCGzoRjaVRiAaxmMPPoSG9jasu2KrwTKnjdrU9TnV7QF3CIjESO+zmieDnCDEaiwTQ+OY3f46Wpf0oHHTKtirC2NIYVJK5aBLCuuz41OzEJUizC4VNoplNVYMBmo4gfJcDeidEctiPAubw4ZoQ5SfKYrlGt9ifPjWe9j1cT6vhQwQ2Nl0agKP7X8ZfrMXXsmCo9IEAouaIZVKiE/HMDg4iN6lS9Ha223Yk9e6eDAZsrfaciwa9Qgij4hsHhck8kLICTjx6huwzsTR+a6N8He3wmqzGkTWfBFKpsA8gsRUDA6vE/G5UTiCdgYJVdReLRKq57O6j6GmiWZ+SbmC9FQCjZ1NvBKaiJNSRsTHttyFLZvnrzh6pwMEit2Og3uxY+oYGhHE8KHDcK5uRi6fR11rEx759wfRPLAI69518alFVwTOqJtDeY9AAHUM+MKmWOUL8Pq80AlkaTqKcymMvbADYY8bze/aAE80yLGm0VAxlYNaFHhUOzF0EhWzDt1SgsPrMAoBBo2nuQeGOqWa1I3GHpOaySRPzIlo7Wnlj6dxVJMewp/d+Un4ff55jYjOA4QFAhDYvCM2h2+/8hQ6nA3otHjx3A+/i/DHb0JiNoH6rjbs3b4DnkgYbYt7jA199OBUyhCLJdicTpStxkiCOpRyJoeQ1webx41EoYDyXAHWwRl4d+6CUxIxtLgJ0VsvhzMcYA28EMvy6mZN0ZBPJtlQJZOMQ0YRNq+dbUbpAT/TLrx22RCQpjkZXXCZuQxvmAtE/ahQKx0V2FPAn97+iXlb9i40gECxnInP4Ycvb0OLux7BtIAdTz6K6MduwvjEDNoGerBz2wuo7+5ES183VyxUlVhovW+pBJvLjTLLp4zF3FI6i4DLA7vfi1S+iEqsBBwaQ+OefdAFEUeWNKPltivh9HnY6U1I5KDKZb5McvEE66dnJ0ahmAU4fNTeNjoTvz+WJu5UEHDMx3NcNQXrAizDo+rGMqXinz75BdRF6+aDDxa0ioEA/HN7dmDH8GFc0rkOhx96CIkmO4Jb1yKXyUFSNUyeOIn2pQPwhQN8DmkmrcsS6+itXp+xzoQANykOsgU0NzchSx28dB7OWQnpbb/F2lwRx5UShJsvRuOmlXyJ59N5KHkBqkqt5gKEbA7eaAAzU8OwB2ywOm1GK+8M8nAtQPQc1WbZFU1HciqFUHMYDpeDwQex4ruKDfjs/Z/mvDKf1zsdIBD34KGXfg1VqWCxM4oXHvgqPB+8CqPxJPrWLcfObS8i0NSA7pVL+HwQ64eGumKhCJvDjoqdrc2MJXUlAZBURFsakSyWoCWKcI7l4Nj+MuoLJeyNuuB//zXwN0ZZEl5K5qAIBkmVcqs36EM2mUBRThn8IAJ4zBj+nXeeOxUGf4S6vmJBQDFTQn1HPXcNOXYF4PN3fRYtTS3nAQJhqVQ2/3uOwOk3tjaHY8kKmYwsIIDwwq5Xse3Qbnzggmtw4NGfQ5k8ianbL2KXu2h7C0RRZjctm8XC44OKqmDkwBHMTk6hZVEvWpf3MyHRJCtIjE1h+cqVyMolFMYz2FC/GKNPP43GRBLlVAqxQg5jV65F4OLV7LQmJAWD+GKpoJBI8kPrDocwNTwMuZKHJ0rrZU/PRqnlVmO808NrjB3Aq03tdjssjmqioQSZUvDpm/8QK/tXzCf3LDgOAjnkvbJ3F145ehDXr7wQI489hfTocSTfezGm4kk09i6CLMmceIiESl0fXRIxvP8Q4jOz6FmzFuG2ZoPZrihIjE5h+eqVSAlFaDNFbGpdjmOPPIyGbA5aLMaOa0evWI26S9fz5r9SssR3BdkfZKZn4A0H2Ixn/OhxaFYB3jrf6UqTik1qZVeVKFyMVnvRckniC8PqMkhZXBHNFPHFD38eHS3t80pIC7mDQJ7833nyUbTWtaJFt2L24UdxoicMy9Y1DBCcoSCv+rW7HAZZjTk5cRzd+ybkooxNt93AbyNZ7RfjSQZ9gboI5uIptKp+hIQyhF//Gm5FgRyPY9BthuUPbkbZ5WCwRpcMV5OWMo7v3IeBLeuQz+UxM34CzpAN1lqHqHrKqKN3Kq48sjJ8M8S8AJfPfWqPg8VsRX3Jj89//C/hsM9vP8M7GSDQz3z85DB+9PxTuHnTlUjv2oP4b57BxE0bcDKXQ9eqpVzp01jHQbmLLuZKBRNHj2N8+ATqmtvRsWYFdxBInpoZn8XigX7kJAHpySTWhnsx8eJLqJ+cgiWdQTGXxY72ENrvuwlFUUYpUWDlEPFFlFIBuqLCHQlh5uQY8qU4fI1+BuS1/Moup/TffC4Nzhc7cCoqq1XIkK72wXpexZ/deD8GevrnNfY730FYIACBZogPPPSfUPISbrrkMuz92r/D29OB1zrdKDvt8EVCfNgNp2ODbDR84DDGRoZgsjnQ3tWL7pUDcFhMiI1OorGuHr5QALHpGLY0LUc9LDj8nz9CwGpD86plmHnlNbyRj0G462qIosamR/QA2+0mpGNJno15I3WQRRkTxw6jbBURbA2feghtViJI1di61dZbjfFLN9MZcFjKSbjvojtx2aat/yMAAjlafvOnDyLgC2JL7xIc/eFDcLQ1YM8iP/KqgmBTHcuquGtgMkGVZAwfPILpyTGiP6F/1Ro0drWyPDU1NYeGSD0va5kdn8G7OtfCWRIx+vDP4TWZ0L5hLUYeexJHHBpKH7wOQkaAUlJhtQF2mwmxiRn4gn6YHW7WWI8dOYiyTUSwxYglYQGKJa8ZrhHaqP1dNYsxdjic7jUIyRL++OqPYuOaDf/jAMKhwSP4+SvP4fqNW5HecwDq4UGM9DciN9ACUZLg8XsZ7FFMaSyUTaZweNcbkMsydAG4+LYbYKf3WtcwOzSO/mUDEGQJloSCmzddjt0PPQLz8RGEmhr41/7HHsOBDYtgXr2ExwAE4G12WshmxhvPvIzVl10IWSkjMxfDzNgxBFr9vMuDXnTBUFxroTtFfqu2so2qtYr7KoBPcONvP/TnCIVC8zqj72SAQGThnz7xc8wJBdyy+VIc/vGjiLhceKXdibmyirqOZp7hU3FFsdNVFVPDoxg5ehS6BWhsaEfv+pVwWWm/hYbiTArtPV2Iz8bRa29EX7QJh7//IHxaGW1rVyF14ACGRo5j9Lat0Dw+yAWZ3THpPMqCCKkkwBUMQ9crmBo6jqIQR7g9zJ1XehE3hPa0nYpPlYtUI3vxmvbqSykquG3ptbj28nfPy7X2PEBYIABBFEV89mv/hD+69W5kRieQfOQXiF5zOR7TYvA2RZngZKdWYdWtKz4+jf17dsPkcrBefemKVWjqbOHEIOWLiIYiTHIsHZjEJ+66Fyf37MPwTx5FpKkZa//gQ5j8zXPY88gjeHlDH9yLupi9biOrVjOYbKWoZXjDUSSmJpBKxlDIpuFwmtC4uIVdFin50FiBt5GxrL7Mpi12m5WNQ5hsU+31CBkRH9x8O6665Ip5JZ+FNmJIZzP4q298GR+55S4Uh8eR3vYMmq67CtuQArwO2CmWJE+k+aZexvjRExg6dgQmp4M3u63asAHRxjrmIMglkeVV+XwO9ikB99x4G15/+jfIPf8SAoEQNv/5pzD000ex98kn8dLFSxHq7GRyXC2Wiak52N0e2FwezJ48iWwujWI+DbfPhmhXA3v6cxfDUt0sVzaMuKgdaqf/9zuxzMfyuP/KD+OieTpkLtQOAi/3eeVFHDp5HPdddzt++7VvgnQAQ2t7MVfvYMtrh9XKMSOsJZVE7Nv+GoSyCFUDAm4/1l16IXf/yOJKyYsIRUKYG57EVX0bsGbJMjz0uc8jKsjo3HoxOi68AK9+/h+wKzOH2UvXw0a7ASx0eRjz6kMv70bfxnWQBQkzE6NIJ+PQNRnRtjA8YS+DCIofVZoGiZGIdCx1gN1Oq4yNqrT2cmZs+LuPfg7Rea4SficDBFqu9Hff+jesX74GvcF6HP3Bj7D22qvxWCWJktfGXIzaeaSrNz4xg307dsDic0ESZPQvWYaugR7mARC3C7LGypTKZB53XXo9po8NYfB7/4VwIIhNn7kfyX37sfOrD2Dn0jZY1q1geavNZuRWAge0fdUVCCM1M4NMJolsKg6bHajrbmDOl81mMWzUq2MH8kug+BEwsFc3vNZiJ+Ul3NB7BW69/ubzAOFcHTHQOGTvvn14cnAn/uTGu7H/2d+i9PMn0PiB2/Fw7iTquloMVQJVfFU3BJqNvfnaLhR1CdaKGRsuvoj1zWx+xDM0M8YHT+DudVdjWX8/9m57BkPf+QHa+vux7jOfwtzO3Tj07e/hCQ8QuHYr2LGzWm4Us3n2/3YHQxjc8wbgsfKCJjlfAlQJ9Z118IU9LGXUNbL5LUMWFeiKDm/Yw1USV6Mkv6KV0JMZ/OmNH8eFGzaf8wCBYrl73x5sG9qLe7dej6Hnt6P0wna03X07nixNwlUX4BjVYkkWudl4EoNvHkRJk2CDBesvvhBuXiFrKBnoSslMzOLWZVvR39ODbd/7AXK/fhZNnV3Y/IXPYWr7q9jz9W/giZADDTdeBou5Kl8k06RkhvXZLq8fe55/Hh5aFkPk0VwRprKC+s4ovGEvd4M0Ml4ip01RBs2qiYdCQLBqtskXU2xoDv/ykc9jWf/S/1EdhHw+j19s/w3Pbd570ZX4+af/An3trTi8rAPJBtq+aaiGjBk+gWUNI4eOYXJ6gqWP3V096Fk+wDGls0yzZbEowJtScedl18Pn8eK7H/wwmhQNS977HrRfegl2f/HL2L13D4YvWwtXZ5NxqdNnL1cwfXwEwZZW5qyMHD8CR8jLnSjmq0Q9iLRF4OSRQ5mVClSt0lI1m8MCt9d5umNE8meyeZ4x4St/9sV5L296pwIEetbHpybxw9e24aLu5fCJOga/9V1c8pF78XBhHJV6L8vELSaSDVvYsrqUzePIG28iKxch5oq4YOslqGtqYB6Woeo2I59MYb23E5dvugj7X9yOQ1/7JlpaWrDlHz6Pwug4tv/FX2Onzwa85wrescKqEsIWgoRCrgC3P4Sju3YBfjuPepSSAF0sIdISRrDeD5vdWgXq5LioQhUVeIJuLsBONfTIfjuWxyevvA9bNmyel5LhfAdhAXQQqDr5z4d+jFzIgnsvuh4HfvM8xF8+icjdt+EX8jQizXVsssPtaNraWPVnp+QwNTKO9FwCa6+45BQDnnYsULGQ3jeEf/7op3n//OuPP4FjX/8WWjo6sOkfv4Cpl7bj+E8ewW6rDun2y/jhMrrKFV70VCpKcLg8iE1OIJmNw0TVCJu9aMy+Jtff+p5m3iyYmUnD7rbDE/bB6bQZIKXK+KVKNDuSxN/f+5dYtWzlOQ8QiPfyw18+AqnRjet7N+L4cy9CfOkVNN55C7apMThDHjgspKU2Qa1oNdoThALFchS5RAartm7maoCtW0kKReTQiTQ+feNdcDgcePzr30Tu8adQX1eHrd/8KnMcjj78KPa6TFDvuPItsSSpI8XS6fYiPjWFWGoGFoehZoCmQisJ8PisiHbW88KuzHQKDreLJa4Oh42rnpqZFsmq5g5M4vtf+AbamlvnFcuF2kEgCdyDzz+BxZ2L8O5Vm/H4Z/4SvZ3tOLyiE/Gw0WlxmG0cM43iSmoUTUcmnsTwoaNo7+/lTX/09wTYyOpcKQhYWgnilsuvZmb8A++5A60FAf3vvQ1dN12LXX/7Tzhx+BCG3rUKpv6OU7JXdvzL52lvOIP6k0ePQLPX3HUqzE1SMhm0LGmF3etkYpuQLsBXF4DL7zo1eqiZA5UrJnjGgK9/8SvzduV7JwOENw6+iR3JYawLdcJVkHD02z/Apnvuxi/1OVTChs0yeZOQp4Wh7ilDlRXMjk3i+L5D2Pjuy+ALEOnaMCijq16OZ3FzzwasGFiCN7Y9gze/9BU0h0LY+s2vIXVkEHv+5V9x3AYk7rySlSg1/gflh0KuCIfTi0ImjZETg2zZzC9dZy6S1aShqa+ZjbQys2mOuzfqg8Nl505fbeRHnYX8VA5fuu9vmAA+nz0p5wHCAgAItOXti//+VQRXduMDa67A8KuvQ3zoZ9A2rMbzbXY0NDWwzzttf5N1tQoQDBMNuoAlsmAjBUPVB57rDF1HKK7gozfezlXNzl/9GkNf/SYiTheWfOAuJPbsRfrIIE64zBi/YQuPMOgiqs2eFYUc3cwQBQFjJ46ibK1qdKk1brVCyxaQODmGcFsU9T1NvD6akLDdbmGLZsP7D5BkHY5EBX9z72ewqHvRvC6VhTRioFj+rx98C6HVPbihez0mXnkdwhNPA5vX4bUWB/x1QV7UZMRSMTotVUMUOvCyprNzIlWZdJHw7FjX0VSy4AOXXQ+rxYJffPs7KP3sCQQArPzEH2Ls8SdRisUx7LZg/MYLYbPb2KWRAZ9egUJ7MywWTnojxw6hTOuA6evSzJVimSkgOTqBaFc9/6JZKLvvcYva2NfB7o1EkJoFvvzZf0A0Gp1XLBcqQBgaHcY3tz2Kyy68BJd1rcRv/+nLqC+WsG/TEuQ7g/A5aFeK2VjjzH65hlae3zcil/GiNBrJGURBdvbNS7isoR8bV6xmgPDVOz+AjmQGdf2L0Xn9tTj67e8hXyhg/5YBKH0d3MmhM0q/U1egrFFlakZsagrxxBRMBPzYmpcURWZkRiYgFfNoW7WIial0gdBIiZoc9MzRM0abBlVJw3pzH/7kU388L6Ib/azvVIBAxddzO17GfiWGS9tXwJUuYeQ/vo/W1SvxXJsT9qYQXDYyMQNETTaKIPaRMQzkRFkFEXqoOOPVM4bOEdaMhLvWXIrW5ma8/tzzOPilf0NdxYSB992G0swsYq/vxpS1gkM3boGz6gnDYmYiG8q0rIuM5Co4OXgYckVGpcoHYoM5UUVieBTeqAf1vc2sNuHzaD99HimCZLFtSZfxzx/9GzQ3Nc+ro3ceICwAgFAoFPDPP/42HP2tCOXKaBZNsD3+NJSgDyPv3YpAwM+rSEVd4UuFckTNiZU3+VWX9fBDXNNRaSo6RRfu4I1fFrzx0nac/Oq/o8Fshsvv54ecGNfHXRYc2bqMH1hVM/gEtS2ONWvn2MQk4unZqrOjkVzoa8nZPMwVE4LtPjipMrFZThMXqXVZpo1oJSz3LsKffuh++OnrzuO1kABCqVTCvzz0XTj7WxHOlhHNyHA9vx1Flx2Tt14IbyTMK7ul34kl5R5JNwAavf/Ur6FYUhVhUhV0aR689+KruTvw9C8eg/Cjh1FvtcJNmwB50YuOYw4rBi81YknjAjbHqa6TJjBJ/x2bpFjOwMymPUYsiSxZSqThdLnhb/XA4XHAZjM4JjWuKWn4i+kSLm3biI+894Nw8hKw//fXQgQIPAI8cgA/eP0ZtHd2okO0w6RUlEYAACAASURBVLz3EKLHRzB4QT+UTUsQsLsZsNMyJooFA7+qnTbtVqDLgThENUdTPr/ZEm7q3Ygli3qZJ/CdP/5TdI1Ncpvf4XFDpZ0aqorXV3cg397Axji6XiWwn2oYEACUMTY0CMWsVyVzBvOdCM2JE1OIdEQR7iRSqgl2ljkZ/APuUKllxIZm8JWPfAErlq+Y1yXzTgcIjzz7FI5aiwhrVrSIVliefxnmRBojt18MZ1cLr05XyjokTWbvFuNcVA2Qqu6xpGCgM8DnkyyzUyXce/ENiITD2Pf6Lhz+8r+htWKC2+tlkEWy1gmrCa9fuhQWm41W5LBRGY+ISTNspvNoQiGbwcQYEc2NMW4tt2qlEky6Gc6wBb76AJ9HHvcZ+JBzAwGEJjWEv//Dz7EvyZlk4v/uyTwPEBYAQCCzjq//6iHoTX543G7kR6agvXEETYEgHNddCDN3B0woaTJEjSoUw4Offq/ZJ5N6gVtf7AkO6KqCaFLH3VfdwNKdyZNjeP0rX0ULzSnLOoq0z95uxht+C4LrVlC3+dSrZsHMROdqkjuydw/KdqO9RcmFWNq0ojjgJJc9BfZgxdjfUEUudAiIFKXMlXD7mmtw+623zbs6WUgAgZa9fI1i2RxgUJcbmYT14DDCHi8cV10Ai8vJsSxqEiSOJdlhG7Gk5EM5gOWNvHqW2tUVds9rLJjxvq3vhsPpwPCJYRz43w+gWVIglnUUUMac3YxdPgvq1q98ayzZVY+NM/l3WVJxdP9egNz/zoylpiPoDkBRRDijJrgCdOEZjwTHkhbLzBbxR9d+CJdetHVeyYg+10IFCPsGD+GHB15CXXsz7FoFszv3oytZgHndUlgXd/L8muStBU3iy8bgjhj2yfRGOsxGnDmx00VPo4h4Dle3r8DKgaVc9W/7rx/D9dIrrIQo6hpyVjOOWnRkVyyCLRxGFXdUq1wjprWV34nZOczOTvIosHY++QMVDeFwPYqlOKscaLZdnWsxgNckDRgp4Ydf+95Z7Ut5J3cQfvbCNhxGFh6XE1I8C/GNw6gXNLivuwiWSNDgg+iUW2lbrWGZTK/a4iXKrSQcoLiRYZJOrNOZLO7ZcjUaGxp4FfRz//KvaM/leQxR0HWkHGa86TLDuXkVn8eqZ5ZxoJgnBu7kkLJo5MgRSFC4G1SLHQFG3sFjs6FsK8JbZ5ja8Xmk4os4JekS3tW6AX9078fmnVvPA4QFABCIAPX33/46si4z6jqbUF9fB4eJDnqZvb+pXUjoPycL7PFOTwi7elXlTOy2W73eaZ7I+8j1Mqb3HkFPsAk9A4tB2+fefP01nk+ao0GYvB7otBWQEr9Kh4JmcFWpGz3DFu50M+qltmZ6LoapmTFGunyxcPu6DK/Ni7aeHkyeGISz3gKH25hv0+ijlCyiQ4/g7z/7eYSC85NP0edaSAChUCpyLIt+GicE0NTcxNbKlnKZgR5VF1Td5RQBEo0TiBxVTUjspFgzxeNEYIJILWBdR/LISXR6Iuhe3AP6Ggd37DBaoRE/zF4PVGqJ6jpkmfTW1L48I5Y0SqBYVhdvpWMJTE2dhKm666MWS4/FjbbeXowNHoSnxQGnm5zejFjmZ7PoNTfjr//kL+Y9XljIAGHXm3vxwLZfwFsfRGd/D7wuN8zlMnfnqMvjsNogaQoKKq3pNkYIBr421qwTUa12O6i8sbHMjpfiiRms7F+CaHMjBg8fROLoMVQiQViDfujElCejLFGFibZtVZ+J6h3DC7iMXSq0qbOCkcHDkMoyTNWHiBj3uqKhrWURxz+ROIlAa4CJkvQsEH8oN5TA/Tfdh2uueve8L5l3egfhh4//HDvjY7C6reju6+FYmcs6LKQFpsVYFiuySglSdSMujUf5Aq+qxmq5lc4U5VYyriLScCBfxtLly7g7tGfna9AFAaawD1a/Dyo53dKIQlBgtdvfeh6pQ0i+Vqz+qqCUL2D46GGY3XYDeFN+1cowS2X0rlrFUkizV4a3zm/sfihXIKSLqJws4Uuf+0f0L+7/7zYM/o+POw8QFgBAYIvlnz2C54/uR6msoqGrFQ2tTTxaIFmUWS/D5XCgqIuQCSDQ/EkQ4HSfrthrDzFt8qV98uytz1DVkDkZzGljfzzNRGmRj1YoIn5ykuWMdpehnzZUEqd922vIg7TEc2NjUDQFehWkULUbCjcgWN8IuVTExMgh+Ft9PNeWsgI8OSs+fc8fYc2q1fOuOBcaQCD2+k9+/gieO3YAMnTUd7agvqUJAb/PkLjpOlwOJ/KqAL26iVNTFDZNqm2B44uAqs8ztvsZsaTFSmXDOIVjqfG6WDFfgprPI3ZyimPp8nqqfv9nxPJUlgNon0BiahKSLLKZGAFOAifR+ib4w3VQZZFj6Wv2cNUiZUXUyV78yQc/gYHF8zNkqWWmhdhBoO99amYaX/2v72G8mIEj6EVzdzsiDXV8LkmRYqdxkM2MoioxE562X9LLdop1bpws3qrKY0HjtFHVyK6WxEsgpM+tYxWypEDK5iGkMsin8gg3NTEnqGaPzTLi03J4rirz6TRS8Vn++vRsEDChzkZzRw/sTgfik+MoaQl4Il5eMSzOFvGuRRvxsXs/AreLOkZnfML/xyvnndpBoPHQ63vewPd+8xiysohIawMaO1oRCgWZvE3jOdroWCgTsNPZMZR8EIhYSOesmkKNjkKZxoDVZSX0F1UiNgNBBtI6t/1pn42SyyEzHUe5YkGwLvp/nMfaXht6JqhIS8VmUSjkGOTzZl6TiWXM4aZWLhpGjx2CI2KC1W6FXJTgylnw8VvuxQUbNs5L3lgL73mAsAAAAgVLkiU88tQTeGXsGCRVga4p8EaCiDQ38OXidTtRIaJg9YE6cWAQi1YMGESyatuJHmDy5zaSCKmtq1cN/YWuQ1PLEPIF5GeTEAt5CPkivMEwPGSOUu1CUHKhRHSq/jztp2LQd6jPSa1wQ2INvUyGpMafS9k0Ro7uY7bt8pbF+Nh77kV3Z9e85Ddn5qeF1EGg75vGDI88/QR2z4yiJIoUMXiCPkRbm+DzeTiWZdq9zNv0VMQmZ9gYifwIarFkoEftm98TSyItEkOe5Fj52RSkYoEBnycUgScQODWk5rW/p5I+O2yd8aJYEtikWBKKJLUEdZGMhymfiGFs6CA8fjdWti3BfTffjUWd3WdVZdKnXqgAgQhrx08M4ZGXnsWEmEcxk4E35IPL70NTZyucZjOcXid0Gh5UgHQsxZdGqD586uI1wIExFjSWqtUoHtU1zZrOLed8LIlCIs2gm85ssLGJF7Lxx9P4oip3rh1aGh0ZLWyDQMeaeXZcpO4CdQsMYEEXH5meSWoWIacPN2+5Fjddef2892qc+TS9UwECfY+0F+U3LzyP544fREERIQkCvLSErKkOwWgIPocDcBgZj967xHQMwfoIq3hqL8qtNL41nHqrHgWn3nLD1lwqlFCYTaGUz7FFs93pRaA+Wl28ZpBTa93X3xe7Wm6lbg+dW53OY5VzIORzGNq/G56QE63eBnzohvdj4+r1ZwUO6Ns/DxAWCECgB48Ibtv3vI7nD7wBzWVBZjoGa0mFyWqCuykMT30INo8TNifpri1Ve07SrhvVpCSrTDwkjSMXI1oZJrWMiqDwNjGlKPKMLa9LCDQ3wB3wVUtMeiArvBTKbLbyYihKQmSIyHJFAh3V5T41zMHgQOftxDCROxy3tHUM7d6LTV2Lcc9t70dba9tZVSW1w7nQAAJ938Q+f37nK3jl2AFoDjPvgjcVJDh9TjgbQvA1hGFxO2Czkw6aYmnc62xoQ9WdohqzTool/T3Jq1QdlZIMPVeCXFIgCCWUbBUEGuvhDfoNEhSNE8jsKpGC1eFk0hS1nBnQ0TZIXtNtKBxqYIRwAzWFyoQhaiBFVTBx8Ag2dvfjA7e+D02NpMN/C8I48374b/95oQIE+gHJ7+Pk2Cgef/E5TKl5yJoCcSYNMZlGqLMJ7voQnCEvbC4nE9N4G2N1Syb7S1BnQFa5SrTQZUHjO70Mk6RBL4qQEjkGeCdPnoSnvYGdUG0EDKo8El1RkIolEGk2nP/Iu4L9S/j5MAqDWkz5uuNZNW8BM8YONPbLpJE9cRL33XwnLtl0EVwu19tyRt/JAIFBgqLg9f178evdr0KwlZGcmoNN0Pk9dDUE4G+KwuxxcKfFOI+GBwnLvjWd1QyUWyl2tuqojlp8JlGDliuhkMxyzowXs4h0tsIfDfJKZlaVmMFjBOLxeINBHhdbKGfSqm7KrVXF0ZnnkeowCh3FjXenqBpmRobRCBs+ec/H0N3Vfdbg4DxAWEC7GGoZllr5+48cwhMv/gYZa4Wdt7KHR2HPSGhubkbFTR66VmjUtDI2OfOqWWppmkkWpzNBFkxr1Cowk7uhyfAmOKnmYOttgZWSmNOYL3OlYaV5pIzZ0Uk09/XA6nTA6XGwJIra37TlkcAGdRco4bCErmyCmZi1Pje7iqkFEZogQ8wVEE4K+Oe//fuz7hwsZIBA37soiXjz8EH8+rWXkLXqELJF5AfH4CnqqG9shO40o2K38sV8Si5AyYdjSWxpI5Y2jmWZ4+kwW9kEa6ScQ6UtAndjBNaqrwElInLaI3+MTCyFus42WB0OuL0uvkiodU2xrNRiSTNQ3Yglu2P6XTDZLdAKElRBhpTJY6k7jPvv+4O3LZYLGSAYFWYZqXQK215+AbtOHIHJ50R2dBbZQyfRHWmCLehF2WFBhWx5a5K5KtGTkry5bJB8rRVazkVx1WEtm+Cw2JEs5aD01kN0mOCtjxiXVPWCoYssNjEFl88HdzgMu9MOl8dhjBMkGWUGHnRGDQ8U4iQwUZIUKV4nymUdak6ELqsQJmZx/y13YtVZqBZ+FxG+0wECfb+UW4dHR/DU9ucxpRbYEKwwNAVpbA49bV3QXFbAYYFek4hRjmWQVYaFbuvqamY7yC6bAHuZjc1sZguOZ2dhW9wCW1MEDpeTu3UEp+k86oqMuYlphFtaeIOu0+NkObiqadAFicc9FDfmklDRRWu/Sdboc8LiskMTZah5iW2ao2IFf/PxT81bRfS7cTvfQVggHYQzA0ezrHgijt1HDmDn8GFkSkXosRzCOSAMB+p8IZ6f0S/2069eL7yjgRCvroP0+LKqQlQkTBXTyPrNqLRH4QwGeN+C4edttCSFXIFhri8agivo53amk2anZrrkFG5flwgh078wWyBLGkwOK0LNdQw06GuVEjkGCKS7L03N4jO3fQBLB5b8tyvL/78PXIgdhNrPQ52dWCKOnQf3YffoUeTEEvTZHCJ5iqUL9f4gE93IGMmIpVG1sP9BNZYKbf7TVBQlATNCFhm/GaaOOo4VyZ+oJWnYslZ4hESoz18XhjPgh8Nhh5PJiODFMXJRYHIcdRJMVitEQeZ1w4GmCFersqZCjGegiSpXLfa8iI9ddxsW9/W9LbFc6ACh9iZQt49WPz+/dyeGktP8vrrmRIQlC+pdAXidZEhkZWBljHmqpghV0ied0VpcY4UMUiYJhQYPHK11rHsnq2ySTdJLESVe7uXwuhCoj8DqcsFFS9tsZlYKCSUJUq7Aa4XtLhfLIYuFIsLtTXAHfXzZFGlddKrAQF/M5bE20ooP3HI7q6bejtdCAAhGhV5BKp0GqVJeGzqIhJCHFMsinNYR1O1o9oeNvQzkfcDOiUae5JFtdQEgXex0TgRJwmwxhYzHBLU9DHckyF4Fhh22cR4pd1JvxxP0wxMJcofCVbW6pq6EXF3PLuVLsHvc7DVSNps4tzrcTuYplRJZKCWJc6spX8Jdmy7DxvXz24VyHiBU9SQLbZvj7zukiqJg34H9+M5TP4O9OQybyQp5Ig7HRBZXLrsAblrxfMacuvY5arOuo+PD2BEbhmN5Jzx1EW4fk9yWZ84k2xFFnNh7GB3LFqOhpx0enxsayGSFJFkGqZHex1xBQGJsGmVFhdXuQi6XRdvKfkaxmbk4b0IjJE3/n0cbegVrfU246+b3zMvd63ffi4UMEGo/C8Xytdd34jvbfonwohbuBsjjCXhmiti6eA18Hs9bY1m9T2qdhcPjw9idHoNjoB2eaJhjaacuNlc71GkSMbTnILpXL0FjbwdcHhfIp9FG5ji8Ea4ay3wJqYlZKLQZ1OmCJMto6u+G3WFHZiYGjcisKrnxGbGkrselnUtw67uvf1u6COcKQKhdNrlcDg8+8lO8OnEM7QO9EGMZqCdmsdgewaquxace5dO7+gwwR/+dKxXx2okDmAtZ4F3UCpvbxURVAvA134q50QkokoyOlQMIN0ZY1URzaTubIRnkOEXVkEnnEB+e4PFgIVfiljktBaO4Tx4bgb+xAVqmaCijzGaIE3H8+d0fQUdr29uBD96xRkn/tx+O8ubgsaP415/+AAh52ClRmUmjfGwGm7uWob2+mbsu9OLY/c55nE7M4dXpY5C76uBtjLI7KdHBCBwQMKDPP7L/CMLNDWhZsgi+oA86qZlI1cKySePc0jro5FScx8n+aBSFQhENfZ1we90Q80UkZmPw+fzQRYWVMdRN6Db78Ad33gO3y3XWsTvfQViAHYRa1OlyHh0dxSOHXsUweboXBJgtVnj8fhSn4vAJZTTY3LCqRhuaZHSirkKwlDFXEWCK+uEOBZknQEmBNsGVNRX5VBq5VA6qoqNzeQ+aulrgcNqZhEPJh8ABb6WjZUK0lS5bQHYmgVwshbLFirYVi42NZ0eHkI3FYbbb0dbTaywSYf+DCtptHnz6fR96Wy6VcwEgUCwHBwfxi+E9GB0fhS6pMFttTBArzaTgE3TUWdywamVYCaRZrShqMmQrMFspwRwNwBUK8NVCsbQ7qHWpMG+E7JmJFd+1kux8m7j9THptXvlMW/1OgT0gk80jN5tEZjaJitWKlmW9zOSeHBxCLp5gn4bugSUwUXKs+h/0uIL48I23weP2nHVCOpcAAr0Z1O17bNvT2ClNY254nF1Lyda6omrQY1nUle0ImOwwqzqsVjsqZtLJK8ibNWQdZbgaIjA7HMb+FKsJDrsZhWwO+VQWxWwR7qAf3av6EKKZtsnMcaWOhL26eZDuGUlR+TyTIonOtCsSRFNfJ698nxg8zp4ogcZG1Dc0ggYfbLak6bht5RZsWbfhrGNKn2ChdBDO/GFnZmfx470vYDQxg1LC4F95gkFI8Qys6RIaLG44ymYeB1mtNlaQSdYK4mURst8OdzTMZgbUjbWSAVVFQz6dRSGZgSSpaFrUhrb+TrjcTvZUoDPKWzaruZW+l3xRRC6WRPzkNMpmM+p7OuDyezAzNILE+CRZnaJzyRL+HugZIcWDTynjo9fcio629rOO3XmAsMABwuTkJB4+/CqkAJGVKhDTORzdsZd6/Yi0NBokI3rwLJaq2Q7btnEiYjQLE5PeStkMaAOkxWpHsIV2KMiQCjlsuvZifoBlrQxJViCXBAQiAZZusTMj7VLI5FCIpzF+9CSa+hcxA3h0/yGeW5NjWD6ZQ/fy5bDZHPy9UNViL8n44kc/Bbu96vt/Fo/yuQIQ6Od4+PhOlIN00ZZRTKRxYtcBmEwWrjQcDqchR7VYeB5JBCZWFdAcuhZLRYOQyxqxNNsQbG+DlCOCVAUXXHsRJyDS2ReLApMc/UE/OyLWNkemUxTLFKaHJ9HY381kqemhE/w1CfTlElks2bwJZcVQq9Dnc4saPvu+DyEcDJ5FFI1/eq4BBKoUf/XbZ7EbSW7v03s+NXgCsZEJ+CJhBKIRw9WQd50YezWIN8B1qYWkjWY2QFJEAZnZOWRTWZaaeiIhSIUCPH4bVl64jvkMklZGJpZEIBxkQE/gj0dHggQhncf0iXEIJRG9m1ZjbP9haJrC1awsKyCjjPaBfkPyTCRVXcelXUtw02VX/Y8gKf6+Bzcej+P7O7ZBDruZMKAUSji+801oIq1kb4TH6+EzQFJVYxGmwcOii5p3cpF3DI1sCnnERidBDtvBtjboqsz8rY7+NjS0NrAvhiCrLH+k80hqJaODUEY6W4CQzGLi+CgCzfUINzdi9MBBAwyQHL0komPJUmI9sNKIcquQTOOT193OeyDO9nUeICxggEDBT6VS+M7Lv4JaT9v9qvvIcwXWSOfiKaiSwi0wskwlqY0iiSxT5I81myAWRdicTrgDAZjtTgYZJI3MTk+ivb8DPSt6QeZK8ZkYRg4Nsh5/YP1qOD1urjyJg1DMFpCajmHwtT3Y8J6rMX5gEFanlRm9iiAjNT2HgfUXwO5wGlagpjLMgoTP3vR+3nB2Nvpqeg/OBYBAP8fc3BweeOEx2NvrmHdQ1jSUcgUI1apDkxSyPoKqGjJGWaCOEbHVDcIbzZrtTlc1lgZgpFjGh4fQvbIPfav6GSTOjE9j8vgwv+9LN2+A2+NmgEAXRT6TR2oqhqkTo1h84TpeVUsggZ8dQUJicg7rLr8cOpkwVAVddknGJ657Lzrb2s86lucaQKAY7Ni7G0/MHoaPRj+VClRJQiGVRSmdYykqlY7sWqga9uaKIhueGFYz6+Y1ReOYOrxew6GMhQdlFOamsf6ai+DxuqFoOgZ37YdIG/8aGtCxpI+BHz0Z+VyRz/ngjr1o6O1koFfMZWC1Wjg/CEUBZUlH79q1zD3hIYemYm19G95/zc1vC4hfiB0EcrD9ymM/hKmznveXEFKjDZsE3IupLG9epNxK55Fs6DVJ5DNH7ysdKLEksZqMlAlWl7tKLjShFJ+Dw2nGhqsvYgCYjCVxYv8RlHUNAxvWwB8O8ZiB1BHZdJa5I8d3H8Dii9YjMT7BsmgCcsTpov+/eNVa7hxTtcB23pk0Pnjxu3Hh2g1nrSw6DxAWOECgCuVrj/8EQqOHCS2psQlMDQ3DYrOjb+0qrhCKWQHJWJYverOVRgmGNTMx1OnX6d0KBt6kC0HOpbH8whXw+DxcbebSWcyMjnIyW7xuFbwBH3u554sCpLyAqaEx+JqjvO1temgYdqeNk0++VEB6JoGVGzfDyS3oCpPmIMh4z7LNuHDLlrO+VM4VgECExb/70bdg721kNvncyBhmhkfgDYXQPtDHybuYFZGMZfiioNZlLZaGD79BWjsVT1agmJEaHcWWm7eycRZVkPHpOSRnplnWuuzCC+AL+BggGLEsYW5sBnafi8lwsdEJrnZozs2xnI5jE20XZK0+VbiAWZBx58bLsG7VmrOO5bkGECgeE7PT+OaOp+FtCKOQTGH66BAK2Sza+/vhDQWgSSrS8TzyuRKfW4oZL+VheSn5FhjnshZXXuRU1uH1WLB47QCz72W1jKG9+9koh8yP+tat4kuGOgG5LDHyFYzsH8SSrRswuu8wyuRxQW6NJQH5Qh4WzYKBtev4fDJpsqyh1eTCx2+7e94rns+sXhciQKDc+g//8XWYljVzly4xOonxI0f5HHWvWM4dA7moIkG8EnI25DGt4SRbs5KvOmmfkphSx62QiGHV1rXwh7xMAk4n0pgcGuKOQN+alYg01oMmEkQaFrIFZGJpxKdn0LlyAJODxznG1ImiHT2Ul5et2WAUXxQ7swmyUMTVi1bhhsuuOusR7nmAsMABAh3C7zz2EMYsAmaHT0Ivi7C5XBgbGsPyTcYOcPJTz6WyEAsCr+p1uR1QywbypQRkmHsYngZMahIEOBwVNHU0o5TJIZNKoaW/j5EpsbEXrRyAy+NmNUQ+Q8lH4vZl14rF/PfHdu2FJJUgyHSpCMjHU1i7cQs8PmMZE7uKFQS8d9VmXLTlorNGuecKQKA4/Ot/fRupgAWzw8OAWWPSWTqVR9fAMu4qqKKKbCINiVZqezxwuuzsqEjb+0huxQTUaizpvVZFAVaLiva+To5DSRDR0NOJQiIJuVBAz+plRiw1DdlMHoqgIDY+jcbOZlY6DL2xH5JYYLJUThBQmEthyxmJh6lURQF3b74CG9asPQ8Qfk9PN5ZM4IHnfoa8KiEzMw2bx4ZCvgRPIIJIQyNfJuR+l5qNc8Xp9rnZJ0FWdNbGE6mXng1jXwZZ9OoQcxm0dDfCbrMa/iQOO/zRMFJT0wjVRdDc02XsbJAklDIFrmZT07NYeuE6JKfnMHboCGmdkckXURQEuMo2LKsy37l40FS0woH777gHPp/vbDvVC5KDQO/5N773bcQa7JgaHoGukU+JC5lUDi2LFjPvgEZt+XQOhXTOyK0kLYWFY0eAnUDGmeeRugS6VEDvqj7k42leyx1oakCFdmvE4uhaNsD+FtQOyGaKkEsikvRc6Dp61q/A6KFBZOMxSKqMTEFAMZfHqtUb4fEYK6HZkC6fxzV9q3DzldecBwi/8+SaUtl8zQ/k9z7UtcvwXFAx1H7AZ7a/gO8+/lO0LulAieZSsoK5VBLdnX3wBPzceiLEScz0YjIFqVSEN1IHm9vDrU3yXK8preiSSU5MgqS6kbowAqEgRo4NYeWlWxAMkwsfNS2rkjlJRilTREXTMHZkCP0XrWf2PMmkjrz2OrJiCSWSU86lsXbzJfCHjBk1vfdKKouPX3EjVq1cddaXyrkEEH7z0m/xg6ceQcfqHuRIPipIyBaKaG3rgsfvM4iBimp0Z+IJnk376xpY2kZdBLJWNpQLZKdbRmp8HKHGADx2G4KRMGamp7GY2pjBatKvuucWBBFipsBjhIljI1iydSMvgsnFEjj+xh7kJAElImHNpHDR1ddyp6gWSz2Vw8fefQtWLl121rE8FzsItOfkn777AMbTU4h2NCNTKCBfLMFktqO1sxNms4W7Q6pEc+giiuk0p3p/fQPLhsk9kcZ11I4mMyZNVjF16AA6l3QjFAlBFAWUTSYsXreC1SbEY2AQXi4zgVgrSYiPTsLTEEF9Rwufv9E3D2Fq7CTytJ9DUeBTrFixZfMpsE4cpEU2Hz7xvnvgfhukjguxg0B57tix4/jig99A40Ar51UqeOhcRiONCNRFDLMpKrQUlbtDYj4Ph9cPTzhsLDBTjC13rDCgde2lEuRCEoGAD3WNhBPETQAAIABJREFU9UjEE2jsbme3TQZ/1W2RFJNCKs85e3xwCH1b1sLhckEqFHHs9d1I5TMoahrUvIDVay6A1x8wcngFyMTiuH3dhbju0ivPA4TzAAE4PjSEb/zyQdiiPmQFAYIqY+L4SSxdtx7+sPHgcJNA01m7nk9mII/H0d3Xh3ipgFQhDxO1NkkWSQ/Y5DgamsOoa6iDrEoYO34Sl95xQ3XibLzjtJmuSB7/oozR/YchFSQsWr+aF9NQSURM3cmTJ1GiC8wbQGtPD5N5jEsFUGNJfPHDn+TFPuc5CKef4hPDw3jg8Qdhj/iRLhRQkqiCSGDR0qXwBvycaJhkSrHUdOQTaSjjCXQP9GEml0G2JMBkt8HqcDGYS44No31RM4LBIERZQDqZxvqrthoWF9Uvy1sGc0WWSI0eOAIxL6Jn4xpjV0e5jFwixbEUZQlBfwgdi0medxqHl+MZ/MVd96H9bZDEnYsAgTptP/35w3g9doy7e+liAel0BjazAx39fTzC4WNDnQIG8hKykzE02L0w+T2IZTMQSSpMu1WsdgYRpcQ0Fi/v55Z2IhlHIFqHruWL37IVkCSqpWyRAfuhl3aie80qeIlZT4+QqoEkkpOT49yebmpuQbih8VRcyVxpTbgZ9956x9viyLcQAQK9TyQ//sIDX4ISdrItel4qIRVPoamtA6H6OuM80lmqnkchm4MwlcLi7h7MFnJI5HOokG8C7bIxkfvtJAJBB1rbW6GoMhKJBBb/f+2dB1hX1RvHP2wQBJGhDBcIyFRxa7k198wsNffeKzVHjtxprsw9cqfmTi011MyJAwkQEVQQRPbe4/+c+xOzf5kDMsBznofG89z7u+d+33PP/dz3vOd93d0wNCmt+vBS8inkKMu6GcmpxIaGE/x7AI4N6ym7VPLy0oQG3Sc2IQ4DPQMqVXFUdjXlPZORD0IY3roLDevUy/fcKpcYisESgxjES9eu4kFuPGnkEhsdRW6OOg7V3ZRAQqXsc06uEtWsvFQeRdG/cRscbO3w9vFm0/GDhMfGKbsUstLT0NAGh2rO6GhpkJAYh14JQ+xruSoBcqqWS0pqurIPNzUuEd8rXmhr6lDBzVlxcSl76slV1uWUwiJPkyqp8surfkU9Mo4l46YVyORTXDwIeRPSF1/NI8lUmyTxoogTwWS6VHS0V9YlRZiB+DIUthRfLqkRcQxu2l7Zr+55/To7zhwnNDaWTJEVMSsTdY0cnNxdlB0r8YmxGBiUorK7sOVT14GIUUlLJz0hiczkVG6f91R2m1SsKrwBqqzy4sgMkcZZOE81tZ6WlVUBgrC1Tkwyn/cdRmlRsyOfrTgCgvgqDAl9xMSlX2LiUI74pCRiIqIpb++AsbGhomeWCDQQu0LIJSM1E6OkXIZ1/VgJHP3hxFE8/G6TlJymFEITu1IqVrPH3NSErOx0EuISsKvuqiwxqDIoiHGSo0BfZmoaYXcfcP92ALbVXZVtesKuwg8oYpIERIg1bVHSWHieVDkYIDcjg8ZWDnzYVnwY5L8VVUAQSwT7jx3mfKgPaWJJNSmB1KQ07Ku5qfLFKN9dOapCaqKSY0oGdU0q0KFZS7x//53txw9xL/KJKoV2VibxT8Jxb9kAwxIlSEiOIystG6cGtdDW1X2G3GkZGSTHJSqw6PvbdVIT0nCoJ+JD8qryquKNsrJE3hntZ0vDInBRfGwlBocypnNPqru65dtwEhCKASCIUeB1+zZrf9pHdglNMnNzMLGyVMoIC9elqiaCqqpHrgiE0SxFv47d0NHRUdaej3ic5uDVi6SKYjEJ8aQlRmNWvowy6LMyM7B1csKkXNmn2ftECfksJfNaTnoGIbf8yc1UI/JJOHb1ailDWENNNfkok43IKy7AV9kT/vSrMycHG3V9xvQZoOwLz28rToAgXibXrl9j+bFdGJgbK/nWS5mbqyrLiRiD52wpPEIVMrQZ9kkfJdJcBKv9cPokR65fU3JWpCclkJ4QhelTW4r1T+tKlbCwq/jUk5NLWmaWUpRLpOK97+lDdmo20dFRODas/wwAhMdHlNIQc6CSHz4vh78S45CKq6EZAz7sgZ6uCJTKXyuOgCAUSUtLY/O+nVyLuo+6SFtdQh+j0sZKlUaR9lj1aIgnJhe1uGR61G2Ou6ub8uIODn3Etwf3EhgXp6xpx4Y8UJaNdEvoKlsh1bLArVE9NEWk/dN0z4lp6WTEJykxQ8GefqSJrXkVrDAyM1XV9RDp15++cZTS0yKnydPS7QIgMqPjGNS8AzWqVs+fQZ+eXVQBQXT/4cOHTF6zCMMKZZX0xyVLmyiJipS5VcR65n375+SQ5v+I2SPGY2ZqquTAuHjDk+1nTxGdmk5WWgoRgXcp72qrPM+5OZnoapfAueHTrIfCs5qdTWJispJiOfzuA2Lvh5OQnIxj4wb/9zyqYEDMrWJeV4quCvtlZWCcmsOo7r0pW1Z4hPLXJCAUE0AQg3HLzweILaWurJWlp6Qr+3VFEOLTeizKhBDpG8CED/tSzcX12chJTklh99HDnA7wIS4qCnJSlUp0YvCJte7qTd+jZClVgKFIIZqUpKqrINK3OmqU5oNGzfC4cokrkcFoKJOUKrOYmHSU0vNqYguX6stGBNGJibC5hR0dWrXJtwtM9Kk4AYLyRZKVxcp9W8muWJpUkY8iOU2JdFfqXShb3FQvlHsXPVk6cgp2dnbPbCmKQH274ztuRT8hIjgY3RJqlDAyUIptieWg6k3ew9BExILkKhkuE8UWtxQRLZ2Afbo+7dq245erl7kUFoS2qBD6nC2VIDlUtlQ+mESq58RkOrrUolXT5gViy+IKCGLc+wfd41jgNXIMdBQXsnDjZ6VnKRN7tshlIWySlo5ZXBYTBgx7VkVRQOODkGBmrl9NllFJHvl4Y2ptomxvFV+lppaW2NdwU3YfKZU2U9KU3Si5GVmkhkXRtUYTTExM2HrmOCk6qrTaeeWg855REQgpKjuqIEUdzYhYpg4cjpmJaf7eMMUAEMTcumbbJlIdTJQKqskJycouI+HBU6opKh9EEHHvASObdaJunbrPngWRLvvAiR85eOMKiYkJZCTFYFSmtPI8qnYtVKNMBStlrhRbVROTU8kS82tqOiXDU+jz4Sd4+99h3/XflFT3CkY+LeeuquooApQF8KlAJTstnZqlLOjbvUe+4w/EtSQgFBNAEJPI8dM/czrST4l811TXVlxfwp+vVIQTXzHRCbxX1obOrdspCZTymjj3xs2b/Op5hYDoUFL1NUkIj1CSdlhVroBpOQvVPvuMTCV6Pkd8nSSlYxifxeCuPZQ4gkehoSz7YSdZJfWUAay8TNRUlKtUjBNdeepZ0IiIZebQ0RiXyr9LujgCgrCHx2+/cvTBdSU6XUNNU6k1r3iAcnKVF0lKdDytKrnStmWrP00E4txTZ37B734AF31vYVjZksgHwZiYm2NlVx5Tq7IKZKRkZCh743OVZaVMjGOzGd17kFKb4eGjENb9eJBkbVWuXvHFKWwn/lt8MalyWeQqwGKlocfwrp9gJMpIF0ArroAgpElMSuKrrWtItTRQxZGIUuhqqlLOYoYXxdREbNCYrr2obGv7J+ASnoNv161D01ifMz6eaJfQISslDXOrspSrYoOuyIWQna0sF2Ulp5CbkUNyeDSt7GrQvHETxRNx4NQJfgnyVdL+5u1YUjwHSgEwlU2FbUVhtW41Gyhr2KIGSEG0ouxBEM9UTEwMkzYswcjWCg01LdWcpoQECJxSFVKqlK7F8F79/qSZOPe2tzenz5/lfuwTsC7F44D7ytbRspWslPlVPI/pIudJcio5qWkKMCbfDeWzXoOxKFuWuLh4Nh7eR3BWslJJUvXxpdrSqHgORNG2p3OrURaM6PgRZc3LFAiwS0AoRoBwy8ubWYvn0bBeI7wSQihdoQxJwVHolCmt1C6vrGlI3w7d/jYqWQzk9Ix0vjtxiDCDbEoZ6SvuT/GCV14oaelKkhBBvaK6WGZIDMM7foxtJRvVMTk5nP31V7acOUZJKzMlgY/Yg62pq6Vyw4l8C+oaZMTEMaPHAMoVQIKkvImruHkQhJbXb3qxbO031KlRB5/kcPTMSpIUFoPeU1va5OozoOsnf1u1TZwvoqDnbFiFnms5jAxLKEFUIkGWWJtOEQW2klPIycgiOz2DWL9gZgwYSTkra8WWorjWT2c92Hv+lGJLVZrFHDR1tcnKUJWfFbbUSs1gaKtOOFS2K5DJSNizuAKCeL4SEhLYd/gYv/veRs+kNAmlRbUzUTAtA8MyZmikptGrTguqurj8pUaJOF/YVeQs+HzXt9jUcELnWVVBSBc5MpJTlDgS8cZPT0rFLrckg3v2VZKiifYkIoJvdm8jLCMRfTNjxfbqmiI3ijaZ6YIQxBbKXKroGzOoa3dKiMC6AmpFHRBEie0tu/ZQzsoSn+hQNKyNSH4cg6ahvrLUkxEYxpyREyltrAoCfb4J2wmv4K4ThwnSz8BIzK052airaSi7FlIyM5VkVcIeYm594hPImE69qOriquwqEcfc+t2bNYe+R91YH009HeV5FnOrUvY5M0cBh+zUVNo61qBdsxYF9jxKQCgmgCAG5C0vL/bvP0Cdeu9z6dpvZOpq0KTG+1y8fYWqTo40qllXcRm+aNdAaGiostQQZ6KOkakRKU/ilUIlGSIhSFyyUjc+JzUDrdhUOr+nSowj9ubntZTUVNZt2ExIXARp2VlUMLUmMDYYI30jNHPUSdbKpoljVTo0z38Cj+cfwOIGCGJC8PS8zk+nTuNa1Z0bvjfJ0lDD0dqOO48CcHdxpkntBpQyEjtUngYb/t+kFHT/PvtPHCexjKaypJASHgsmBoobMy0uUakjn5OehV5cOh81aYWLo9OfPBHBwSEcOHKUx8kxxCUkYFGqLI/SIjApYYyuujaxpNLMuTqtGjdDpwDSZed1v7gCgri/uLg4PM6e4/GTSHT19PEJvYuzjSMREZGo66vT2L0u1Z1dnm0h/bsXzeEjR7gWFoShowU5SWmkpaajJhLuJKWQmZaubJlMj4zDXs9EKYb2/AtLjKuDhw9z72EIwalRmGmVIio2inR9NaxLmBOZHIuZmQk9mrfBtmKlAnvJiPsoyoAg+u/j68PFi1ewLmeDb5AfD6LDqGbjgt8Df5yrOND6vcaYm4pdDXmB3H+2npgbd+7fj19mJBa2VqRHxJNVQotcHW2SYxKUpEti3TDnSTztar5Ho3oN/uSJiIuP58DBI4TERBAU9hAHa3seJoaho6tHWT0TguMfU6NyFbq3bo+hoWo5uCCaBIRiBAhiN8PVq1dxd6+hpPsUhZzEwHRydFQmnRcN3ryBFBgYyFVPL+Kyk4mIjqSxe0N2HN+LrqkRFfTMidJMwrqkKR0aNPlbD4D4wgkPf0Lp0sbc8rrN/QfBYkUdLW1dtLW0qV7NDUsLiwJZGyvOgCDuLT09XQk8dXN1U9aaBQSJZmNjo9hSgME/bQ/18fXl0eNoAh4H4uPnQ88OPVm7dyPWdjbop2mRpJeJtYExnZu0xMrC8i+/Ja4fGxurTDbXrl3nYegjdLREeWIttLS1qVGtKpaWFi8dU687SRVnQBAv6CdPniiehEqVKiHyI4gCXSKGxNjYWFXO+wXAJ3QU56/fsBHLcpXwjgzAWs+U1NRsbob7YWtWgdDHjzC1scTdtAItmzT9E7zn2UGkZhfXETkVPM5eICIqHNNSxkpynzLmZrhXr6p4GPO79fj/7V7UAUHMbfcCA7G2slKev7DHYcREx+Do6KgECL/seUxKSuLsr5cICQvhXmQwvdt9wq4fD5BtrEPJFA2isxIoZ16WtrXfx8HO7i9zpIiDEFsiRfE2P787BD0MUYIctbVFSnU1HB3scHCwL7AloTz7SUAoRoDwd18cr/OgC8CIT4hXNkqJl5OoG6ivr0tMbIzixrKzt1G20/3TBKJK9KH2LDujWLcWWx1Fe9lD9Lovk7zji5sH4e90yNP1VTVKS09TSsMK/8KFCxcwMDJFT08LEcSYnpqOg4MtFctXUJYoXjRGntlS9XZSYhDybPky2HzVfv7/ccUZEF6kyevYNjomRrGp8Eb4+t3FoKQRGloQFRmNoWFJnBwdMDcz+8fdQc8/o3nPqngBvgxQ3tSmxcGDkN+5Vdl9EhenpLEWYzwtSw19EUeSk0lMZCzlK1hhX7kyJQ1KvtbzmFc6WmTM/TeaBIRiDAj5GTBiQIu/vCCl15nE8nPdNzn3XQCEN9El75y8NdDnsx++Djjm59qve+67CAivq1He8WJbq3g+817yhdWmxREQ3tRmeZ4g4aETcJ73/4XVdhIQJCDkZ6wXinMlIBQKMxRIJyQgFIiMhe5HivoSQ6ET9C11SAKCBIS3NNT+vctIQPj3tH3bvywB4W0r/nauJwHh7ehc0FeRgCABoaDH1Fv/PQkIb13yf+2CEhD+NWn/0x+WgPCfyv/GF5eAIAHhjQdPYTlRAkJhsUT++yEBIf8aFsZfkIBQGK3y8j5JQJCA8PJRUsiPkIBQyA30Gt2TgPAaYhWhQyUgFCFjPddVCQjFGBByUmO56RuEobk1la1MuX/Xm4T0UlRxrYju3+fzKJKj+F0AhKzUOPzuBqFd0hq7SiV5cNOXWMPyVKtsxr+zwem/GQrvFCDkZhEeEEBoei729g5opUTgHxRGiUpO2JX+IxX6f2OJgr1q8QOEFAJu+JFYqiLVbAyJuHGbUN3SuDlVQlUyq3g0CQhFBBCSrqyn+5zDqlGno49jvXYMH9Adm9I6LxyJKbf3ol+1O81HfcXJxYPp0aQcJwM6cfXBVhwM/j4DX1Ec1kULELLx2beQSVsvKlJr6OhTs0VPhvTrQBndF9sk5vfDuDX8kEotlnJyVyN661TnQOuVxB0dScFUQSgcli+6gBDJrg592Sly9AMly9jQ4uOh9GrhjM6LzJoRw/zWzZgWkM2Zc+cpc30FjbvNwn27Nz/1cikcBimgXhRmQIi6c4Zx05cTk6rK12Jbuy0jRgzAwfTFcyt40lKzNmc6f0f8vias1C7PtCofEXZ7DxYFpFlh+BkJCEUEEGKPjqV0hxWUqVwVC+1EvO/cp/qHX3Jh1zR0XvAJKQHh333ExF7mAwcOKBcRxa86der0ChfM4sKi7rw/5RjWDlUwUYvnTsBDnD/djMfmfhi+4GUiAeEVpC2gQ0Te/StXrii/Vrt2bWxtbV/hl0OYrV2BWVomVHOuQFxQAA9StPj62DXGNa309+dLQHgFXV/9EJFt8Ny5c0q2SpEfolu3bq90csilbdT9oD9J2pWwr6DDPR9f4iqMwt9nBfYvrFUlAeGVxP2XD8rKyiYqJk4pPiaSReXlk3hRXgm16LgEpbL6i5pIGiOa+LcYUKI4ibmpKs3p22oHDx5U6sOL9KrNmjV7Ye715/uTBwijDz5gevkb2L/fnXItR3F13xL2Lh7Gtl/usXjXKdxj9tF85HpqTt3DF6a//MWDcMK/DV/Nc+GHY3cZOHsOH9WsQErwbTZt24THFV/SNSozZM50OrhZQUoIGxcv5NBlf8xcmjJo+DDql9fGY9caNhz4iRRDOz7sPYRuTary6MpBvtt5gIv+0ZSp3oKpU0bibKLFxhld2HOpCqsOzcP65jI6zz7Ox0uP0UXjJ7qPXcXg+cuIPbSEx5X6M3NQozcyQdHyIOQBwhUWnfiFj40v06xVf0rUX47HkZGcW9KN1afKsfiHpdjf3Uynz3fTftomPjW79TcehAXsaB3DtrNPGDvjK1q7mhEReJmdG3Zz3tOHREtHpk/5gsZOZuTEBbFu2TJO/uaHkWsThg4fTH0bI87uW836jT+SZmFP209H8GlzZ8IvHWD9nj1c9kvA0r0NM78Yha1BKCs+6MtRp485sKwvQVunMnFHOGNXL6N6rAfjph9j8Iov8NowmYSGX/BFF9c3Wvoouh6Ep4Dg1JOQq2vxGNSV3nuuMveH3xhTI4YJvWeS1mkOG0ZU5dCUHqz3rM2a48PY9zceBIdFO2kcdID7Zi1YPqU/ZjpZ3Dy1l+37T/L7w0jsmvRkzoRPMdFV5/Fvu5m95gD3wnVo0bsPo3q2JDv0FiuWLuesTxwODZsxbOBAnM3TOLj+Ww4eOMtjwzK06zWNEV2cyAg6ztDBX5M59Bv2fFiKDR/04vvK7di/cjCnZ03mYFhtpvfXY97W44yetYLaViXf6BktzB6EPEBwbL+HQxucGVzDnd2hn3ArYin3+/TnGx17tmyYh9qN/QycuZFG3b9iyoBsPviLB6ETvyxpwaatHrj1XMCEtrbkpDzmh/XrOHLsAhGlLOnWfzoD2tijkZnMz7u+Yev2U2RYO9G5zwi6N3Ig4sYPLFywjcBMTep1GcbYXs1RC7rM2u1b8fC8h1bp6oyfP4OGFeBY38Esz7Tg2zULKHnvJEOnraZ623nMGGnMFy0/x375DszOTmdZRAsOz/qANym9JT0IRQwQnj2dxpVYsv1Hxrd1ZHZPd2bvusmp4Gyahy1Fre4kPtgZwgGXi38BhP3XUnBwdSYx0JtHtr15eHULFkFHadBjHnoltQm/c5m7Wh25dm8r90e346Mtl7FzqUoZE2smrFpNtYhDNGo9nHhzJ1ytjXDpMpfl4xpza9scPlt/htzMeK7d9KZuz+Wc2DiKOZ1NWXi0Npdjf8TuzGBMPtzIlLNJjNbYinXDkVg6ViYpJoNPx29m5WfN3mjyKZqAoPI8iGZQrh7LDhxhQE1TVvWxYMw2B05HelDDcyrGrRcybLcPc10C/goI2cY4V7PisbcPRs2G4/XjShKubKf9hA0Y6mQS+OsVEhsPIOLMer6f/CG9lxzG1q0mVqUNGLLoO1rr/EyNOgOJtnDD1UqfMh8t4ftR9QjYN40By86jQQq3b97Cqv03XNjTlGk6jqytP5moc7O5/UVbmn75gLVXz9HsyR4adpiAkZMzSbFxtFp0nHW93EQ13NduRR4QMv/4PrHtOInjm7/EPO44Tew6kzzqEF7LG7P6g4p89nNrrqd/w8m/AYS0MpWxN8nktm807db+wsEhTpyc0ptZv0ahlx3FtSv3qLXiPMfbp+FeozUhamZUc6pAuTpt2bpoEl/3rcW0HXdwrlWVUho5zNl9lsbl05nSqyOXH+cSE+CLb3Qq687eoZveCdyrDSJj6RVCxpkxRcuWRdWH8OTiYnZ0acmMM7exMDYjy6oSO/cdoUH54gsIYYmq9SFto3IMWX+CFR+ZsdqqCqNK1OSO1zE4swy3zp/TbfJpts8z/CsgZJbAtrozOSF3CE0zYe/Vm7S2TmBsv0/xicol0s+bgGwD9p69To3YXdRrPo60clVxsihB5b4r2Ng5nWY2DbmsUwF3eyuo1Z8zX/dD/dZ3NBy0Fj19LR54X+JhqQH43JnHBZdqDEmvhOf1kxjf3Ix7uzE0G3yM71eWoZNmTXxr1kQr8CHxvbYQvKwN2q/9NIIEhCIGCJ2mb+PT8sH0GTMfy3bDubVrEYv61HxlQDju3xCP37dzd5YjPTck8+3vcfQxuMqiReu47B9A0O9XuRfhzpHHHmiv6kmrxSeo7OxCo+4jmTeyJ1l++2j4QV+iDCvToFUHPps4lSZ2JfE7vY1VW3bg5R/OdS8fHFv34fz+zcz/8J8Bwb7VcL5fPoEypuaUKW3wBkMYpZDRtWvXFPdS06ZNMTc3f6Pfed2T8rfEcJ5+8xbRslQQk2Ytp1zDqRze8Tm7hli+OiDUnMW9n3qy3bYas1PdORd1GofA88xbtZk7PgH4XLxGmFNXwrz3cml+X7rO2Ekll/eo/1E/5o/shVHkUerW6UaYoQsNWrRn8rRpNKqoS5DHZhavP4B30CO8b3tj5jie8xcHMrfkPwOCeesv2LK8N2VNrbAwVqWRfd1W5AGhfFO2rxzDvZ2LmHsshFlbjjCy2v3XAgSXZec50jaSxg5dudFuMQkHRnBn3xqWHDjH4wcBXPe8Q8rYfaRPLEerqs24mmOMa/0GjPhsJj0aOrJuSENGbLiBY4MGdOo1jnEDWmGiFs2mhXM48vMNAgPv4BuZwpeHrzPK6sI/AsKEM4FM+XYbA5s4Y2lhhZ7Wm2Bf4a7mmOdBMK85hVlj7VkzdQRXk1vy07VvuVLV8dUBwbodV27tImzKp3Red4pJmy4w90NT1i5ewM8eXgT4++Cfqsuany7RQfsc7zXrT5xJVeq36sy0KZ9Rz/gunarW4kSSJXVqN2bA57Po06ACif6nmLdkK9fuPeDe7asExzTibNQe/OtX/0dA+NGgM0fPzcPOzAoHyzcDOwkIRQwQRh+4z/zaT+js3JRTti2JuriPVf1rK4Cw1yuSen4zKPfx2hd6EH70r8/xa5u5P7c6fbemsfqaP9cmvMfum/GMnjWfhOMTWHfGkSOPf6WR1hOunz7M2jUb2HsugCGbPFj1sQ3+Ny6yc90GVv/wM+XrDuLU0to0cu9DVIO+zOlSkZmzFlC+cY/nAMGGE0EnKX2gL3UmHv2TB6H92F0c+vqT132P/On4ogkIqiWGQbbhNP+gI09K1eK8x0mOjbZizDYzvvc/i/3ZiVQfsuXFHoTqk/E+0otdLnVZkF6D85F72FivCtu8bJi2ugf+Iz9jvwCE3/ejH/GI62f3s2bdNvZ5+DLw6+OsG+iG9/Vf2b7lO7YdPIlmxXH8stqGuu8PxrheTyb0dWPlzOlkW4z5AxAcB+N3fg7XJ3ag16boP3kQ3Bef5dDERrxw2fYVrFzkAcGpJ8HXNhG6dQz1Bm/h0wUHWflRugII8d03cHFVfb5qUZuvb3Z4oQfBcd5J9neIoalbD3zaf8X1kTq07TgWw7p9mNbBmDnjvyZwzD6yFrYhLNiLg5vWs27LbnzNm/Pg2iEMogP47Yc9rN7+HT97PmTyEU/q7upM5z3ZdJg/A7cL25h7yutPgJA25Si/jzVjqGU99rr/4UEAvZ84AAAKwElEQVSYcDWSQ+eu0NHB5BWs9+JDisYSw24ObWrGwh71mXfwPjv9gohp5soonDh3/RiaR7+k8dCv+WjKmb/3IFi25PylbYTOGsQnG88wectJHA92p+8hTbovmky5o+tYcitCAYSBLvrc9vTgu03fse3wKcxqfsGvR8eQ/NCPQzs3sXHHHvxi3+fMjYXMadOUm6mmTJ41mZubRrD/St0/ACG+LMcvHcf0txU07T+flkN/fOZB+LH9euIPDiQ/xZ8lIBQxQDC3caWsdhI+dx9Qs99yzq0bxc7x7Rm48kcsbKugrZlAhH8Y779giWHf1WSsKlYk43EQEY79eHhmIePb1+Xw1TCqODuhmRaOr1859occJ3jqANb7hKCZEsmNO/GM332WQQZnGDBtB+nq2fj5+WHfaDI/z6tI9dqDSLBywM5Kl8hbvpi07KUAwtaR9Rm74RJW9lXIzYgh9kEEo55bYnh3AeEoVnYOlFZP4O69YFzH7+CXBT05NbMl3eedwqyyI1o5scQGhdPrhUsMJahga07M/YeYtRiJ17GpDHe3Zbu3IW41yqEeEcQtw0aEeX/Pts/6svusHyRH4RUQwaj1p5le4SJNxu9ETwsC/XzQrzMXj9mG2DccRimrythblFC24WnajOD8xalsa+fI1DPJ2DiVRy06ksAnRhIQnr0T84IUS+NapTwJIYGEpmix9oQnH9tH06ZOIy6Fl6ByRQPin8QQFtfmhYCQZFiWcqVzCXiQwofrPZhr7UHDzpPIMHfAxqgU4WFXCev9PVEDdGnTfwaiWGpkoA+RldsTeGEv64c34PCtbNJiQ/C9/4T5p27jsLYpXX9Ix6GWI/rx0dy4/1gBhPHuj2nm3ALPzDLYlTEiKvIOkXbvJiAkalWgcnltHvj5E1vvM4JOzuTO6Pq0WX8Ha0d79JMiuPsogh6fv2iJQQtL20rkRD0iJrsMP3ieJ3KiG/2PZVOlpgMl4iK4EZ6mAELTyB10mfkDOurZ3PXzo1zrZfw6vzz1ukzH0ECHqAe+PNTuzOVfJzG0eTP8IrJwdLAhIyYE//tunIk6SsacZrRceR1LBzsMU6MJeBRBxxF/LDFIQPgrsBbbIMWkqxvoMfeo6o519KlStxOjh3XHugSkhPuwfMFSvFKN6DN5DgHrBxHTZjVTK/jRbfRiqrbrx+x+H7Bkan9uWfSlq+4Vtv8SRu9p0+hS3YoH5/czZ8ke9Gt3YtQndqyadohPv51Nzrnv2Lj/BBGJ+ri1+5iJvduSGXKB5cvW4v0oHVOnhowbPwRXcy1+WvMF634K5r1+w2gYvY/toTYs/Hw0WaG3WbJkLv6ZVRg/fQDn5o6nzMidtFc/Q98p66jdcSLTBjTM19dJ0fIgZOO7fzFTtl1S7llsc3Rv1Z+x/VpQUh1SI4JYvXQ2VyLMGTplIPdWTyOn29f0Kv+Y0Z8vpEy1/sye6MLXXcaQ2H8GbgHfs8criRFT5tLCyRTvnzYz/dtD2DXvz5x2Ggxb6sOyVZMJOL6ZjesO8wQDnNr0YGK/dpQIPcfcBZv4/UkC5k7NGP/5SJyMEjmzchHrTgfToN9Qqj05yY47Nixc3A/10EssmbWS4NLOTBrckE2Td9Jq6QKqxp1nypebse03n2mdXd4oODFvABRdD0IkuzsPYPfTbY4GZWxoM+AzPq5rhWZuFl4nvmPF+h8xbdyLvvWymD8vmNkHhnJj1jS2h+Uwd8FCSgUeYerCs7Qf2wOv79YSYdeSheN7YZIbw7av5nPkThLtR8/G3Gcda9Vasbe9Keu/WclprxAwr8yIkRNoWc0Kj61zWXHwKrn6JjTpOpqhXaqjE3GdyTOWck/TielDm7Nt1lIaTFvGR9XLcungWr7d7kG5toMZUvk+o47lsH1xP84u+IJNd+OZtmApdd4wODHProXZgxB15xcmzlz5bJujTZ0OTBzbB2t9LUgL5psZczkVrs7gwX25vmIxBh1nMe5TPWZ2nIBX/XHsmezG0c79+KVuG4ZUSuKrY7ep3XMWoz6wIf3BBabM+YYnpWryRf+6rPlyPW1nLaEOXixavBW/6FQsqrZkwmdDsM/yZ+nS1VzyfoiGsSMDpk6ipUNJ/I9tYf7605g37cGn9dRZstiTSVvn4KIdyrqZczkRmkvfAf3x2/A1NJrEpMGlmNdpHJ61RrJnWss3Ck7Ms5v0IBQRD0K+3qDF/OSiBQjF3Bj5vL2iCwj5vPFifnphBoRiLn2+bk8CggSEfA2gwnCyBITCYIWC6YMEhILRsbD9igSEwmaRV+uPBAQJCK82UgrxURIQCrFxXrNrEhBeU7AicrgEhCJiqP/rpgQECQhFc+Q+12sJCEXehM9uQAJC8bHl83ciAaFo2lUCwn8MCE2aNFHSgsr25grcv3+/UORBaN++/ZvfhDxTUcDHx0f5Ezkt3n//faysrN66Ms+nWq5VqxaVKr0gVfJb71nRveDx48dJSkrCzMwMMeeJtLgF3f4/1XKXLl0K+hLv3O8FBwdz+fJl5b6dnZ1xc3MrVBoU61TLhUrpYtCZ/zJRUjGQr1DdQmEBhEIlSjHozNsChGIgVaG7BQkIb8kkebUY3tLl3pnLSEAoPqaWgFB8bPn8nUhAKLp2lYDwlmx39epVMjMz39LV3q3LuLi4YGT0dgogi1TLnp6e75bAb/Fuq1SpgolJ/jL4vUl3w8LCEMtWshW8AgYGBri6uv4rxfHEEoOvry8JCQkF33H5i1haWha65bZiucSQV1FSjrmCV+BFZT4L/kqqiqCy/bsKvE175t2JtGvRtam0XdG13Zv0vFgCwpsIIc+RCkgFpAJSAamAVOAPBSQgyNEgFZAKSAWkAlIBqcBfFJCAIAeFVEAqIBWQCkgFpAISEOQYkApIBaQCUgGpgFTg5QpID8LLNZJHSAWkAlIBqYBU4J1TQALCO2dyecNSAamAVEAqIBV4uQISEF6ukTxCKiAVkApIBaQC75wCEhDeOZPLG5YKSAWkAlIBqcDLFZCA8HKN5BFSAamAVEAqIBV45xSQgPDOmVzesFRAKiAVkApIBV6ugASEl2skj5AKSAWkAlIBqcA7p4AEhHfO5PKGpQJSAamAVEAq8HIFJCC8XCN5hFRAKiAVkApIBd45BSQgvHMmlzcsFZAKSAWkAlKBlysgAeHlGskjpAJSAamAVEAq8M4pIAHhnTO5vGGpgFRAKiAVkAq8XAEJCC/XSB4hFZAKSAWkAlKBd06B1waE+Pj43HdOJXnDUgGpgFRAKiAVkAr8owJqEhDkCJEKSAWkAlIBqYBU4P8VkIAgx4RUQCogFZAKSAWkAn9RQAKCHBRSgXdUgazsHHJycxHrkrm5b2+lUU1NDfGnLv7U1dDS1HhHLSBvWypQuBWQgFC47SN7JxUoUAUEB2Tn5CDgQEdHG01NDbQ0NNHW1irQ6/zTj2ULMFH6kE1mZhap6WloqqujqaGugINsUgGpQOFQQAJC4bCD7IVU4F9XQHgLUtMyMSypj66ONhoahePLXXgv0jMyiEtIRFdbS/EsyCYVkAr89wpIQPjvbSB7IBX41xXIycklKycHo5Il0dLS/Nev9yYXEEsdAhLUAU1N8U/ZpAJSgf9SAQkI/6X68tpSgbeggFhSyMzKwbR0KdTVC/eLVyw9xMYnQG6ujE14C2NDXkIq8E8K/A+/RMgrI4wcqgAAAABJRU5ErkJggg==;" vertex="1" parent="1">
          <mxGeometry x="910" y="40" width="624.68" height="370" as="geometry" />
        </mxCell>
        <mxCell id="DcXh2wUwOKzSPhFC_znG-3" value="&lt;b&gt;&lt;font color=&quot;#ffffff&quot;&gt;Header&lt;/font&gt;&lt;/b&gt;" style="text;html=1;strokeColor=none;fillColor=none;align=center;verticalAlign=middle;whiteSpace=wrap;rounded=0;" vertex="1" parent="1">
          <mxGeometry x="1040" y="90" width="60" height="20" as="geometry" />
        </mxCell>
        <mxCell id="DcXh2wUwOKzSPhFC_znG-4" value="&lt;b&gt;&lt;font color=&quot;#ffffff&quot;&gt;Barra de Pesquisa&lt;/font&gt;&lt;/b&gt;" style="text;html=1;strokeColor=none;fillColor=none;align=center;verticalAlign=middle;whiteSpace=wrap;rounded=0;" vertex="1" parent="1">
          <mxGeometry x="1320" y="90" width="140" height="20" as="geometry" />
        </mxCell>
        <mxCell id="DcXh2wUwOKzSPhFC_znG-5" value="&lt;b&gt;Card&lt;/b&gt;" style="text;html=1;strokeColor=none;fillColor=none;align=center;verticalAlign=middle;whiteSpace=wrap;rounded=0;" vertex="1" parent="1">
          <mxGeometry x="960" y="130" width="140" height="30" as="geometry" />
        </mxCell>
        <mxCell id="DcXh2wUwOKzSPhFC_znG-6" value="Página Container" style="text;html=1;align=center;verticalAlign=middle;resizable=0;points=[];autosize=1;strokeColor=none;fillColor=none;fontColor=#000000;" vertex="1" parent="1">
          <mxGeometry x="1150" y="380" width="110" height="20" as="geometry" />
        </mxCell>
        <mxCell id="DcXh2wUwOKzSPhFC_znG-7" value="" style="shape=image;verticalLabelPosition=bottom;labelBackgroundColor=default;verticalAlign=top;aspect=fixed;imageAspect=0;image=data:image/png,iVBORw0KGgoAAAANSUhEUgAAAuUAAAG6CAYAAACvCjhBAAAgAElEQVR4nOzdd5xc1X3//9e5bfrO7GyvWq2k3VVDCFFUKabYFOMeA3ZiExPHcYn9izEQJ/n+vt+vEwdwS2I7v9jYISSOiXFiG4GNKTZgVMAUCQn1rtX2Xqbecn5/zOxqVVZaSVsEnOfjAdLO3Jl7ZiTtvudzP+cccehIm0RRFEVRFEVRlBljhMOhmR6DoiiKoiiKorytaTM9AEVRFEVRFEV5u1OhXFEURVEURVFmmArliqIoiqIoijLDVChXFEVRFEVRlBmmQrmiKIqiKIqizDAVyhVFURRFURRlhqlQriiKoiiKoigzTIVyRVEURVEURZlhKpQriqIoiqIoygxToVxRFEVRFEVRZpgK5YqiKIqiKMpbUk9Pz0wPYcJUKFcURVEURVHeku6+58tvmmBuzPQAFEVRFEVRlBP19PSwfsPGce9vaJhHU2PjNI7oWGsfe5y1ax8b/bqoqIhVq1Zy87tvmrExjfVmCeMjVChXFEVRFEU5z+zctYuvf/2bNJwidK9d+xh33vkXMxLMd+7axdq1j3Hzze+moWEeALt372Ht2sem9cPC2scep7u7mz++/ePTcr6pNKOh3DnwJN/46vMU3fEF7risdEKP0Tpe5MFfNLPkQx/kwriY4hG+GXSw8d9+wf5lH+Yji2MzPRhFURRFUSbB7t17aGhs5K47/2LcY9Y+9vg0juhYI+MbWxVvamxk567d7N69Z1pC+YYNG1i/fgONjQ1Tfq7pMOmh/ODjf87fPpoZ/TpctZCL1tzAB6+eS3DMcaL3Ff7tgZ0s/Ku/4qa60ISfPzvUzc6X91Jxo4QpCeUpOl57nqd+vY7nD3QBRdStvII/+NB1NITP5nxDvPz9e/hH76N8+1MrKJzs4WZTdO3ZxJ6aGwEVyhVFURTlrW6kLWPVyhXHfA25FpKpMFK5P94df/KnJ9y2O19FH3Hzze+ekpaWnbt209jYMFol37lrF2sf++Xo/T3d3QD88MGHjnnc6pXLWbly5aSP51xNSaVcyhXccudyanAY3PE8P/mvr7Hf+zL/+9pZR4+JX8wdX734jJ/bmHsTf/+DKexVynTw0q+3Yy9/H3e+PwROH5se+3f+7h8N/u6vrqZ66s58dqw6bv67f+HmmR6HoiiKorzJ9fT08MMHH+ITt3/stOF2JACeqpI9FU4WgscqKiriri99cdLDeUlxMXfe+Rd8/evfPKZlZTy9PT3864MPTWt7TUlxMatXLqe7pzd3Q2MDa9c+RtNxlfTGGezDP5WpaV+RcWqbmmgEaJqDNfgl/mHjDg5cO4vZbg/bnnma32x8jS0tA7jFC7j2vR/kA5dV4cs/vHfTz/jRoy+ypWWAcFUjlQW5CvWF7/8818unuf2rP+Ome/4/3jtHY/jlH/KpVxfwtettnvnPp3j+QBeFC6/mPbe8h9XluWcUqSOs/+Vz/O61deztkoQrL+baj9zGjQ0nqdD76rj5y8f+A/MffJinn01iT8mbBZm9v+GRR57l+QNdhKsWcun1Hzjm/cgc+h2P5F+bWzKb+cW5e6recTsfubCfpz759/zgpjt55OZ56Aee5ON/m+GL99ey/cePsnFLK+6pXq+iKIqinEdGwm5Pd/eUhMtTKSoqorgozt33fJn77v3quOeeSL/3VNiwYcNo6B7PDx98iPUbNk56ZbqoqGj0/ZhIz/jOXbsAprXfvaio6JgKeE9PD2vXPsaqlSum9e/R2ZqGJREd7IzELYoSAtAjmGYBF9/yBb7+T1/lf11XwKs/+BZP7PNyA2p9gQf+eQMFN36ZHzzwPe77cAOZ7WkWvufPuK7u5MP1v/o/3PvTZmbd/FHu/PzHuWjoWR744TqO5O+XgQABXxVXf+orfPvr/4ePLR3gZ/c/xLoeOe6os6lB2vfv5I3fP8baDXVc/YeXMXty3xgAnMNP8g/3PUHzgpu484v/D3dcW0bzD77FAy91AiBS2/n5t39MxyV/wj898D2+/4WriO3YSema2/nghSdvVxHa73jg689jrfoD/uSLn+JdRZv4n+/9nE2p8V+voiiKosy0sS0Sq1at5P6vfWM03E2XP77946xcuWLcpfTGBvLprpJ39/RSVFw8GpBP9t906unp4Y4/+VN6enqO+b1ydqYmlIteDu/cyc6dm3ju33/If70c4LJL55ObymnR8I4bWNlUSSxQxOyrruJKMcSh7kEABlt2s1vWM7c+CoC/vIIycZC93elxTydlAdd+6FYuX9RE06IVvOu6izEO7KOlfySEFrH03VdxSW0JgWg5F11+JZeJ1+nuHy+kDvH6f/wlf/333+Jb33+D8OVXcGVjyWS9O2Ok2L3ucbY1Xc8fvXc5TU1NLFr1Pt5/o8Vrj7zEAUBrb+aZAcnc+hqCgFlaRp2AX7V1jVbSTzb+hR/8BDdfNJ+mpqXceMMNaIObOdShQrmiKIpyfjo+7K5auYJVq1by4IMPnTfBfCYD+XjuP0mft/LmNCXtK0Js5CffyK2rGa9byRWf+hDvXDZS1U1x4LdreXLTTvbsbGUgf+vi/K8FVQ00iEfZu3+A1UUx0u1tdFDF0vKCU5yxmNiYSZimBuBgu/kbMu1seuoZntm6k10HukaPG//CToRLPvldLvkkZIeP8Ooj3+HL32zlf3/pJmZbYyd7pmjfeYj+/FeB0tnMio8flU/US/Mmm8yq2jG96hYVVXMQA8209Ejqy2u4JirYu7+Z5JxZmJ0dHJRwXVXFKZ+5ODZmWq1uAkPgjnu4oiiKosyYk4XdoqKi0YmMDz74ELff/rFpbYUYmTw40srS1d193gXynp4edu/aRU9Pz5uiPWMmNDQ2vmnem6mZ6OndyF0/vJkT/+lkOfj4P/K3v/Bz8xc/ze1fKMGnH+SpT/49O/JHeJVr+OQn9/EP37+bO76fW73l0k99iptmnW1Rf4iXH/oK321fyZ987Mv8+awg/r5X+d5d35/Qo61wNZeuuIwffvN5Xm+9kdl1Y0N5B1u++S0eyRegF99xH5+/7ExC+enJwAI++Jn38Y2vfpU/fwTcktmsueXL3LIsPKnnURRFUZSZcKrq8/kUzIHzKpCPreLffc+XKSoq4r57vzrDozq/FBUVnTd/XhMxzeuUZ+hqbSZz8Ue5fH4JPkD0dnNwbFdFdjfrHnmRhX/xz/yf+foknLOHvlcckjddyqpZueqx1tPG7zlVpfxYg33tSFlBLHD8PXVc9/3vcd1Zjy1OzVIT377DHGFevlqepa1lHzK6gpIiAfTw8mOPIj72FX6wemJruSuKoijKm8Xpqs/HB/PpDp4jrSwwvZMWR4wE7+OrvXd96Yuj1fs/vv1j5+2KIueLN8PVhGkO5QahsIb16htsObyApdYR1v/0UXZGBaOLJVoV1Cyq5Dvf/DRP5W8au0JLcJxnHp+JXqsR2LqVzauqqBnYwlOPvkB0nKOHX/0xP9pfy8WLiwkDTs92nvz56wSWf4IlZWffgq8l2tm3cydH69sF1DZV0rD6JhZ+5Qn+/Rch3t8Uw+l5nV/+sof5H700f6UhQm1TE7sf+hvuyC+z6UXLufiaP+Tj75p7Fu+HoiiKopw//vj2j512zeiRYF5cFJ+mUR1rJsL4qpUrWL9+w2iV/s6TXEUY0fgmatGYCSNXY37wwPdmeiinNM2hPMDCd/4ZN3Q9zH985S5+XnkxN/zxX/Jnr9zNr/JHdG74Ef92ZA5/9Pk/oNQAcOjd9AQ/fOBRauf+GVec8TmruOKPbuXAvz7Od+55ksKFV/ORj3+B2f/+FdpPcrS/pJ6CV15k7Q920jogcUtmc/nld3DLO5ed08Y/1s5f8y87fz369WiLT+07+cLdBo888jhf/2V+ScQ7/hcfuKwMgMyuX/IfT0lu/rMv0BDMtc6k9v+WH/3Pv/DUvPt575xzGJSiKIqizLCJbuJy/HJ3b3XHL31YVFTE7t17TjhmJoPm8ec/30Pv+U709A+eR0ty5PvLP3Efn7/s6HJ/WtdLfO3LT9L41399Dr3lb0a53UC/Vv4FHrl5zCL92d387LPfYPDT3+TjF6q1xxVFURTl7WDtY4+zc9fuU/ZJ3//1b9LU2DAlO2hCrn991aqVp33+DRs28K8PPjSlQX3Dhg08uvZxGo/bHOh4u3btpqi4+LzvL5/mSvnpBPDP1tiz9Q0ONl1EmSUQycM8+5OfsaXuKt7/tgrkAAahgoLR1pvGoIBsD1ufeJTHI2v43FzVvKIoiqIobxcNDfNYu/axUy6DuHvXLm5+941TNoZVq1ayfv2G0fGcdAy797B27WPcfPO7p2wckGvbWbWql+7u7lMet2rVytF5Ceez86xSDqJnF798bC0vrN9LFxCuamTJRZdz3bXLqAqI0z7+LSdzhA3//Qt+vemN0XaaixdcypXvvoqF0bfh+6EoiqIob2M9PT2s37Bx3PunevfKkfOvXfvYuMcUFRVNqJr+diPlqSP3eRfKFUVRFEVRFOXN7nQh/HjnWfuKoiiKoiiKorw5nWkQH0uFckVRFEVRFEU5B6cK4xPN6SqUK4qiKIqiKMpZGC+MH3OzONmNJ5qRUH4upX1FURRFURRFORNCTO7iGCfLsicE8ZEbRn6Z7lCuAreiKIqiKIpyPplIPp1ocD/+uUa/PC6Ijz1uIvF40kK5CuOKoiiKoijKm9VIlh0vnI9bHR8J48dVxI/mcznu48c651B+8gGqgK4oiqIoiqK8OYwN4icL5xOpjkspTxrEhRxzKONn5HMK5ScOUI57n6IoiqIoiqKcb4QQ4wbxsfcdvZ1jquPHh/GxQRwkXu6Z88dJPNfLHzdyfhCIsw/lJwvgpwrlKqQriqIoiqIoM20iveMjx3ied1xQ56TV8WPDuEQKkFLgeRLXcbEdB8+TaJrAskxMXUfTtNFzOK43ee0rUkqemDfnXJ9OURRFOY4EMsJgyAjS6Y/TUtREtT3A3PZNmJ6NkO5MD1FRFOUt4fo9+05aHYdjA/nYvnFJrmIuJEgh8TxyQdx2sB2HcChItCBMMODDNMaP3mcVyk9WBVeVcEVRlMnnomELjVZ/ETtCtRwsm48sb2Q40U7JYDPRZBem6zK5i30piqK8PY3fTy6OCeTHV8clEonAdTxs28VxHQqjEWIFYQxdn9C5z7mnXIVxRVGUqSER2JpOr1HAc8UX0hqfjVkxD8300eILsK1mJcv2PYXh2QjpzfRwFUVR3jJG2lZyVXMQGuMGci/fH+7YWdJZm1gkTHG8dLQ9ZaLO7GjGX21FZXNFUZTJIwFb6PRZMX5WvYojJXMwSmajmz6EEGR1k611K2gpaiCr+/HEGX87VxRFUY4jZS6Qj/0aAdLzxg3knifJZG1sx6OqrITS4sIzDuRwFqH86CCPndSpKuaKoiiTwxMCRxh0+Qt5tvxCDsVrEYVVGIEApuniNxxMXZLVDV6fvZqeSCWe0JGTvGOdoijK242XD9+Q7xfP/W+cQE4ukGdsdE1jVlUZoaD/rM99TqWVo2H85A3xiqIoyplzhU7C8LOx7AJeLZ1PIF6DFSzA0iXF1jBryrcTtZKgCTqj1eyuuoS0FcRjYn2LiqIoysmNzbW5359YhB4J5NLzyGSyGIZOTUUJhnFu34MnZUdPFcgVRVHOnQQ8oZM0AmwuXcRvq5dRGIgT8oUImi5xX4KPNjxHkX8QgcO6jkXY0mBXxRKqu3dQ07MHzXYRp9icQlEURTm5ke+cI8F8pCtwbJV8bMtK1rbRNI2aipIJLbN4OpMSys8XkaoawrW1hGtrAQjX1oze175uPQDDhw8z1NI8I+NTFEUZj0QghcawFWJryQIenXsVYauAiC+IpUF5aJD3N73CspJWhpMaqyp2cSRRyoHhUjJekE1zryaa6KHIzaJJB6GKJYqiKOdGjuy/KUYDuRQS6YHremSzNnXVFZMSyGEyQ/kM/QCY9+FbKVu1ktI1q0fD+FjDhw8Trq1l8ZjbOl9YR8f69bSvW69CuqIo5wUpciut7Cyez2/mXokdKKTU8OPTBAHT5h2zt3Pj/L3ELIcDbRqeN8BNs17mR3uuosOJcqSwjjfq1nDJnl8RygwhUGuXK4qiTNTRDThzSxuOnTs/0sYiAc/LfZ3JZCgrjuOzzEkbw6RtHjSdIlU1LLn7Luo/ctvobfv/88dsXb+B9nXrAE4I2iNVdIAld9/F7NtuZfE9d48+9vX77lfhXFGUGSGFIGUEaI1W8duGKxkIlVKj+TGER9SfYnFJK7dcsJWioIuuCSriHpmsy6yCLi4vf4PHDl9G0jHZV7GIksEWGltewnQlSA8pdFxNx9NzPziEzN2uSQ8NifA8BN6MFVYURVHOR9LzQAiOrk+eD+4y17bi9/uIFYQn9ZxvuvaV1f/07dEwfiZheqilefS4tve+B4CKFauYc+stlK5Zzfs+chsbP/1Z2tetU+FcUZQTSEAKDRD5jXpyM/I9oeWqKgJEPuyeCU9oZDWTznAZP1/0bg5Hq6mWGgaSiJVlfnEbd13+DMVBB13Pnda0BIEgtAz5CBhpomaSpBMlbQTYV76I6q6dFKR6kEKQ0P30Fs0iEylDlw6am0VLp/G5GcxsCtPLYNkpdMdGk27+Pw+kpzYkUhTlbWd0TfKRr0faVvIVdE/mVlspr4pP+rnfNKF86ZfuGq1sb733PjZ97f5j7u+uXkxr46W0z1pEd3k93fFyBoJRXE2nIDVM4WAXpe0HKDu0jco9L1G55yXaNq6nbeP60cr74nvuYjF3sfXe+9nzk4en9fUVmhYVfj9FpknYMPDn17fMeB5Jx6HbtunMZujMZKZsDLWrKqhcXkZ8fpxIRQgjnKuspbpSDBwYpHNzF4d/18pA8/CUjWGsg3E/m+ojbKsIsidmQTB/iSjjUtufYUFHmiWHhljQmpiW8ShvcyLX8+1oBhIdzbPRpENKsxj0FxJxkgTt4TMK5SMTOzsiFfxq4Q1sK2ukLutiSg9dSObFO/jDJRupidmjlRrHg4Gszrb+Cn51YBG7+qroTwcQ0sVnpwlkcv8+XSCp+Xkt2sCROatJROrwNIEG6NIhKLP40kOEs0OEk30UJ9uJ9zUTSXRhZVMYnp1bZWAq3ktFUZTzyAnXCaXMN6vkq+Tk5v0gJbbtEA76Cfh9Z3ye3Xv309reTltbxwn3LVu6BNHTPzjha5YnW5s8t55jrsz/9ILGMx7gRLzrF49Sumb1CZXxvrK5bL/8Vl5dfjObS07sJz+VxoEulm/8OYuf+0/irTuBXOV8yd13UbpmNVvvvY+9P354yqvmVX4/jaEwxdbE/nD7bZvdiWEOppKTNobFt85j/kcb8ZeHJnR863MtbP23HXRs7Zm0MYy1uTbMT5cVc6QmMrEHdKe5/bVOrtw5MCXjUd5+JAKEwBM6jmaS1S2yRoC+SBkt8QY8CXOOvIRIDbCpsIHeikWU6XDZ7icIp3sxveyEJlpmdIt+fyG/XngDv61ZRoU0iLseIcOmODDMpy55livrWwiZkoQtGM5q7O6K84sdS9nZVU5PKojIuljZLIXD7Sw+uIGKvv0EswMkhcGmyBxeiTcRrJ2PEyjGRcv9gBn5OSNlLqTjYnlZfHaK0lQXczu2UNi5D392GMvJYHj2tLW3eELDRcPTjFyLjfTQcNXEVUVRpszR7y6Ca7btyE/clIjcNp4AePlNhdKpLOWlcSLh4ISfv7W9g+df2MDwcK6IOG9e/QnHXLl65fkdyiNVNaz67ncoXbOap2+6mbaNuRVU+kvqefG9X+CRNR+elPP8wQs/YeXPv0lB90HgaFW+84V1rP/MZ6ckmOtCsCwapS4wsSB8vLZMmlf7+0l6Zz+Zq2R+Icv/8mIKF57dJZgdD+7g5e9sOevzH88TggeurGTD4rMbT/3BIT792xZKhu1JG5Ny5kYCLQi8fPqTo4v0iWM2uBH5FhAhQYhcw56Wqx/nbp/mMXtoeELgCYOs4SNthRkMxOmI19Nc3EBfsBhHN4n3HaTg0Kvsdg0y8Rp8lfMxrAD13Tu4eM9TFA23oXsOmjz5v08pBC46A74CNtav5Kfz30UJJqW2iyEkxcEh3te0mQ9fsAVLlwxldPb1RXlq90KeO9REJquBA5adIZboZE7HVhqOvEIwO4TuOUig1Szkp5WrSfojFNctIKNFkAJMzcNnOjgy93pdqeGh4SBACjTpYUiXqlQ7Tc0vUda5h3CiF93Nokt3ysL5SHtQQli0hqvR/EEi6QEC2SSWm0L3bHTpIaQc7YFXSz8qijIZxgvlCDFykRLpSRzXJZO1aZhdM95TneC1zVt4ddMWKirKuOjCC6gsLxv32PM2lEeqanjfls0MHz7Mxk9/djSQv3rDZ/nuLX8zaecZoXsen/nP/5cLn/4+kFvVZfE9dwHw9E03T2owD+kGKwoLiZvWOT1P0nV5sb+X7mz2jB87++oq1ty7CrRziz1tz7fwm7s24Dln1kd7vJ6gwf+9cRb9FRP/5HlSCYe//OUhmton70qCcmak0HPVTqHjaQZZ3UfKCpE1AtiGD1dYOLqJQGJ4GQw7i89J47eHCdgJNM9G9zwEDto0VEdzgVzD1nSyhp/BYAndkRp6CirpjFXTFygma1h4mpZrYZESfaCdZMtuUnaGQPUCrHglQtMwXZvq3v0s2/sMpQMHsZzMSYOjK3SGrRAbZ6/i4fnvJKr5qbQlppRYust1c7fxuRUvkLZ1Xm8v5YWDDWzpmEVvKojjgT+bpmionTntW5jVuYN4oiP3AWBkFzoh2OWv4NGK5RAIEahYhDD9aJpHY7ydBSWHSdoWA9kwbYkofdkChhwfWdfAk7kRC+nhlw7Vg4doanmNqrY3CKQH0PLBeLJ5QiOLzquROWwqvxCjYiERN0XRcAfx4XYKh9qJJ9oIZgYw3CxG/vWqYK4oyrk49juI4Jo3tucLSyC0kVAu8PIbBfksi+qKkgk9d2t7B7984mnmzavnytUrT3v8eRnKI1U1XPv4WgB+tnQpAFl/hCc++W0evfj6STnHeD64/r+5/vufRUhJxYpVrPjn7wCTF8z9usaV8RIKjMlp57elx/M93fTaE68O111VzeVfXzUp5wfofLGdX3/m+bN+/KDf4HPvq4OSwOQMyPH46//ez7zO1OQ8nzIuKTSk0HGEjq2bOMLCNv0MhEvpCVUwECwh5Y9gG35sTcfTTFxNw8vPojE8F81zMVwb3XPw2QkKkr2UDDRTPNRMKDOI4WYwpIs4wwmU449Z4JH74ODoFrbuI2lF6IzNorVoDn2hEhJWARnLn+sfF2Mq/yK3eok90EWyfS9C0wjNWoqwLIQQ6FJiOFniiQ4u3fMUlT178Tup/KTJ3PdPR+ikdB+vVV7EL+ZfzQB+5pohTHSEEJiax7LKZm5s3MRv989nT08ZXckwnivQHYdAdoiGlk3Mbd1MLNGB5WbR5NENgyQCV2i8Eq7nN6VLCcaiiMIGNNPC0CU3zXmFK2dtw5OCjKuTtE0GsyGah4rZ3juL9lSUpOcj5Vi4HggJBfYQCzq30rR/HQVDHRiugxjnKsDZcoTOq+F6fh+bR28wTqRiIYZpYiCwPBufkyCYGaJ4oJXy/oPEh1vxZZOYXhbdy6JLmXsfJunviaIobw+nDOUid1tuKUSPVDpDUSxKUWHBhJ774Z/+HIBbP/S+CR1/Xk70XPXdXBDe+OnPAjBYVMsjX3iQDbMWTfm5/3vVB+mPV/KBf7ydto3r2Xrv/Sy+5y7m3nbrCZNLz8byaOGkBXIAU2hcFovzdHcnzgSqV/H6Ai7/6vJJOz9A6fJy1vzNJbzwlZfP6vHfuq568gI5gKHxt9fX8p2H9xLJqrWaJ9PxbR6uZpI1AqTNEB2xWbTE59IVqyFthHA1Ixe+hRj5/oYrjp04A+RntZO7XXponsSsyhLODFLfsYX69s1EUn2YbgbBma9uMjJumR+3o+U+OKTNIN2RGg6Vzqc9XkfSDJHVDUT+6pEmwBQeuuaiay5px8KROrn4qyF0g0DpbIRhYAiJT7eRCBxh0hGpYt3893DZriep63oD00mPBmcPQUuojBeKm7AO7qXKsdGqFkK4EHQDR2q80lbLprbqXIuJzL2HmmdTNtjK0n3PUTx4GL+dwJAOUgBoyHzwlwJcKei1QrhCkMZHIH8JVtM8yqLD1BSncV3I2hLHFThuP43xNq6o3s6+/nI2dDSyZ6CCISdA2rPo0WO8UrWchD/CJW/8inCiC9Od3GUUXQT7gmUkDD+OlLhuFs304RgGDiZJK0h/sJiOaC07ai4lmBmkqnc/ld17KB5uwcqm8LlpdGmPVvNzbS6oarqiKBNzTPOARKAhRa51RUqJ9Dz8/ol1ObS2dzA8nOCKNaevkI8470L56n/69jE95EOxKv7zSw/zcuXcaRvDM/NX4t75Y26590Ps+cnDhGtrRld+OZdgviBSQKnPP1nDHBUxDC4qiPH7gb7THrv8SxeBpU/6GGa/t562VzrY+8ThM3rcoxcVs79ughM6z0TU4t8vL+czz7RM/nO/nQmBI3QyZpC+YDldsVo6ozV0RatJWgV4Mr9soBB4QqALiSa83HKBwsPUZK53PC93SVDD8zRcJEgNV4Cr+bF1i011V7K/7ALq2zczp30L0WQnQmbPuNfcQyOpmXT7i+kpaaI7WktnYTXDvihufryu0BAaGEJiGg4FRpLycB/lwT6ivmE2d85lz2Alnpe7pGmE4+ihGJom8Bs2F5Xsx6dn2dxVT286RH8gxu8b30nKCjCv7VVC2QRSungIjhCCtmZMdDxNJ925H7/RhBGMggDPE6NLLY5+opGShD/CprlXEk30Ek32EB3uoGTwCNFkD4abGf3AIoVgUA/iASG/hSdyH4QMzaOicICqEomen/Np2x6pLCTSLom0S8h3hPpYB/v6S/l9ZyNv9NfQmw2T0Qy2FS/GW2xw8Y5fUdh3BB1n0oK5kJKy7BDN/hI8KbGzScGolycAACAASURBVAxfbs6NQOIJ0IXERcdBJxuIM1gZZ1flUkLZQUoGWogPtVE41Ek80UY43Z+7yoIHk1zVVxTlrejEnywSjlmFyvUkljmx6NzenlthpWHuiZM6x3NehfKKFauo/8htbL33Pto2rkdqBr/48wemNZCPeHbuMgKfe4APfuO20SC++J67z3pFlqCuszgcmbJ6TV0wyIFUgq5T9Jc33DiL4kvHn2Bwri7808VnFMoH/QY/W1E+ZeP5/YI4V23vV0smniMpNDyhY2smGT1AT0EVh0sW0h2tZMgfJ6P7kbpAE6BrEkN3MDUXQ3MImlli/gRFgSEKfAkCRhZTc9B1D88TuJ5G0vExlAnSkyqgPx1mIBsk4xlkHAPHM+kLFrO1ZjWdsVnMP/Ii1d27sdw0QrqnDecuGrbQ6dWDbA9WcTA2C7d+NbYZxNM0NE1i6BJTczB1m6BpUxPpZk60jcpIN0XBBGHTZiit0zxcxt5BDyk0hOnDLChF03SCps2caCfX1W1CwyViJvld6yKGsgH6AoVsnnMVKX+UhQfXEcoOoEnJ3GQbh7QQbf5CspqF9ByEkz126a3RV5f7ytMN+gNxBv0x2qPVGK5DwEkSTfRQ1bOf+rbXKUjlwrmNRr8Vzi3hKHzo+Uq5T3coCicx9KNPb/oEpgWREDi2Rzrr0TfsEjRbKA/3U9nZzW9alzBgh8g4BjuK56M12Fyy/XEKhrvQXGdSKtGagLJsHzouGhInmwCKGZkmfGHJEVK2QW8mTMYzyHomjqvjSYN+vYhBXyGHihsJOsOEUwMUDbZR2bOP2u4d+JykqpYrijJhUh6th4BASi/ftg2GPrHCZmt7B+HwmS3mcV6F8hX//B2GDx8eDcFPfuKbPDt32YyN51dLrqbk1v/LFQ//LzZ97X5m33YrS+6+i3V//rkzfq45wdCU/0iYEwzTle0d9/6mWxqm9PzBmjANN9Wx+/GDEzr+mcWFoE/t+hq/uqBIhfKzJEWuTcPVdNJGkP5QOdtrV3CkqJGsbo22pQghMXUXS3fw6TbFwSFmF7bRWNRGWaifkJlFCIkmchVPIUZ2RQNPitwyU1LgSkHGMehMxNjcPput3bMYyIawhUZKD3HIaqAnXMZF+5+lseX3WF72tBVQR2jst4r4bXQ+3f4o0h8iZvgRhoFA4jdtwmaSykg/S4oP0FTcQqE/STTkUhzxCAWhewD2tAbw6+l8sBPoviBCgK4JSkLDvGfRqzTE+hhKaFxZsw3PM/hd2wIGCdKnx3l91kqyup+l+54mkB2i3B1kWaaNZ4NFyMJyfGWz0axgPopLhPDQR98viablKuCeFDhe7s8la/jJWH76A4W0xGezq3oZl+x6kpquHSQRpA0fmq5jGAa5DY8kIStLPJDhmMwPox1FpiYwfRAOQWnUoblrkKj1BiWBYX6yfxXdsoC0NNlb2kRRspP5O5/B73mT0l8upKQkM4CZfy4nkxhdgUcIyaLigywuOUhfpoAtnbXs7K2hLxPElgYZx8Q1NLLST8YXoDdYTEusjo74LOLDrViJlFpSUVGUs5efVySlzK/McnrhcIihoTPb1+W8CeVLv3QX4dpanr7pZgB2rL5l0pY8PBcPXf+n1O7YwOzNv+bAjx9m8T13T3gX0bFqApPYMz2O2kCAVwbESXvLixsLiS2Y/N2njjf7nbUTDuWPNhVO8Whga0OUoWd1Ihl1+fpMSCFwhUnSCtMVreVwyUKaixpI5fuUhRDomofftCkODlBZ0ENdtJM5RZ1UFQwRtBx8psRnSXwGGAYY+tjab64SYTuQtSHjQDorSGUcwlYXVZEeLqvayaaOOWzpmk1HIoqDRsKK8Fr9NXhCY27bq4Syg6eslntCo9NfSH8oRtYMICwfrgATD0uTXFmznTWztlERGSbs94gEPcJ+sMzca5SAZcp8AJejixVJoWFoHgEjy1Wzt3NFfSuxgORIh4MYhGvqNhMw0zzftpjOZJSM4WNH9UV4ms78Q+vR7SRuQTnh2ia8wlo8zUAI0ISLz3ApMFMU+gaI+RMUmCkCuo0uXLKuQdK16M+G6UpF6c5EyLomDjq9wTi/W/he5rTPobB1Gyndj9A05Mi3eQHxQBLTcE92lXb0GPK72fkDgroKCPVnMfUDJB2TXzVfQmu6kGHNz47yC6lo20FJ7yE0ZxJCuYCIlyJkp+g1w3iOjes66NICAe2JKBeVO1SEeqis7+aq2i10JGMcGCijNRmnMxmjO1XAkO3Pr3MuSBt+MmYQiZbblU9VyxVFOQ15bJn8mEVORr6eSDCvLC9nz579DA8nJlwxP29C+ci64G0b1+OYQX7x4b+e6SGNevrDf8UnN/96tFq+6rvf4dfvfc+EHx81TcL69LzVZT4/LekTVx2pumzq2laOOf/KCnRLw82eejJeW9SCwjPfDetsbKsJsXzv4LSc681OCg0XHdv00x8sYW/ZUo6UNDLgL8TTdUxNYhkOASNDRWSABcWHmB3voC4+SGk0Q9gn8ZlgmaDpIrch/fFV2WNOSH63eonrSTJZl2TapWdQw2cMEPW/QV2sjRdbFrCjt4as0EkSYnvtSvzZJHM6XkMf2RZ+HLqmkfIHSRp+MCxigEau+jqvtJOmyiECPknIJ/Gb4uj2ygKEB7oGmibxaQ6ayAV0DUnQzLCwpJX3LNxOPOShCagsBl1z6BqASyv2YGguv2m5kJ5UmIzws7PyQgaCMcRgF51ljSQDRaAb+HUPv5GlPDDAgvghaqOdFPmHKbDSBE07v3Y7OJ7A9QSDGT896TCHh0rY1jObI6kiEo6PpAiwq+oiAuFy3P5uDENDjKwgAxSH+vHp8pj3fiRPjywyowmRm30rwDShLA4+0ybtHqA7HeXptiUkpY/2YAn7ay+hYLAT082csrc8d35tdN36kfSfu+4gENJDArr0KHSTtCDxpIdjpzB9QTwp6E0XgNDwmVl0IfEZLiGrk9qCboZtH33pMO3DhaxvW8ih4SJsT8fWcmvNj66Nf4pMLvNXExRFUcajCYHrehjG6VtYRoL47r37uOjCCyb0/OdFKF/6pdx64Os/k1tt5eUbP8ee6MTWgJwOL1Y1cNk1d7DkmR+w9d77WfHP36FixarRtdNPJ26c23rkZ6LQNE8ayoumoUo+orghRscb47fRABwonforByP2lwRVKD+NkY1bXGGQMQMcKZ7P5vp30B8oQgqBJgSmkASsDCWhAa6s28qS8iNUFmYpiUksMzf5cbS6MNGupNHDBQZgmBAKQmFU0tVn09HrETDaKQsOYu132NI1m5Q06Q8Ws7X+csoGDlCQ7oPxQrkAS7okLT8DZgBPNymX4OVfM4ZGRlrsbosRtmwuntWDPnb8Ilfh15EYmgMitwOmITxKggm+sOo5qgpsNC1/LktQWSLRNAckXFaxB0Pz+MXBSxnKhkiJAAeKm/CKGxGajiYkluYR9w1zedV2VlftoDSSoijiEvLnQnEuwwpcR5LKwkBCMJjIUB4aYl6sg4tL97GhbQHPty9kCD8p4SNZVIcRKEL2H8mF8nzgLAkNYo0J5VkbBtO5SxhCz7XK+ASYGphG7o9TNwRFMWiUKRL2Njb11tMqTTK2xrbKC5l76CWC2SHEcbtuytENpLT8lRcDTzPwhMivGJN7bZonEdLNb7QkidlJdMBB4tppkBJPagw7QQqiGsUBl3QGUmlwPYHhefgMl7gvSUWojyEnRFsqSsY1sA2LtBnEExr6OHk7tzKPlpsrMLp0pVTtLoqinEBoYNvOhEJ5ZXkZ8+bV8+qmLTTMnTOhavl5EcrLVq1i+PBhhlqa8TSTJ9/1iZke0gleeOcnWPLMD9jzk4dZfM9dzLn1lgmH8tAE/vAmS2ScinykJjx9Y6gOnzaUt0en74PKkZg5bed6MxoJ5EndT3ekhn3Vl3GwdD62ZuIJgWV4RKwktbEullYe4NLqZioLM0RDEp+VD+JjQuw5yT/e0KEsLgj6XFq7JZIU19ZtwvZ0tnTOxkHQ74/z2px3snLHz/GfYn1qUwjSvgCeFcp9RxUCKQWOq/PI5kt45PXLSDk6NzW8wdLqXnTtuFVrRa5SbumZfK3XoyQ0xPsWvkxdPIVpcMzr13VBRbFECIeOPsmysn3owuXXzctoTxTiaFr+eSURK838omZumruJCyq6KCmQ+KxcNeb4q6OmKfD7IVaQWzFlYMijd1jD0JNcXbOZsmAvTx9ZyuFEMY6n4QbC6FotnshVyoXwiIeSmHpumUDXhe1tQe579kakLtA1m1DAZla0l4bSI8yN91IXS1Lg99A1iIZhTskQq0u38XjLpaSdEINGkCPVi4j3NWO6EsiV3aXQsTWDhC9Gf7iU3nA5/eFyBkKFZM0ArjAQ0kF3HXxOmlB6kHB6gHCql4wIguUH10XamfxSjxppx6QvE6CxfJiABY4tSWUglYFkVpBICeyUR4E5hK55aICrG6TNAJ7QT1oJl/ndWzsKauiLVBBNdhNJ9BCwhzA8Z0KTiRVFeWsZaV085uv8h3QhNNKZLIHAxK70X3zhEtraOnjsiad49/XXnTaYz3goj1TVULpmNVvvvQ+AXSs+wOFgdIZHdaLXyuo5uPga6rY+Q+cL6wjX1k74sT5NO/1Bk2S8c/njk78U43j80dP/ZR0KTN8Hla6gCuWn4qKREgb7rRK2li1juGQhnm6gaQJDSCojvays3cmKuoPMLk4SC+d6xI8J45Mp3+6iCYiGc73rWreNYIgra7fQkYjRlohj6xbNxXPpiM2ipncX+klCuQAs4eJafjD9IPT8BFaBC7QOx9CQ6JqkKxnGlmDll1IfoY9MZtUkPt1BaHBJ9T6umH0In3XssSO/13RBaaFEFy6tvYI5he3MHz5CZzIGgCkkISvNmqodfHDRJuaVJAn5j15ocDzI2gJHgpdvb/RpYOoSXc9V5EviEAl5dA96dPd7XFhyEITksYPLaUvFcv3k/hCe66F7ElP3iAUSmBogIZGC3e2FtAxFyUgTB4HQBJvaawkcWMisWA9X1O3k6vq9VEWyGAaUxjxWVO5hY9cCBrJBXDQOxufR5HsBPdWPQMfVDAaCxTQXNdIWr6crWsWwvwBH0/MbMWnHhGMpR/+H4Tpo2RSmk8VNDeFJme8Fh6Rj0T4cAboRmhxdNaYgnHuP2ro9UlmPmD+JpTkIAbZmkLWCuJqOOK7tXQodR9NpKZzDa3OvpiNaS0G6l4rew1R17aZs4BB+J4XuZtClN6aKrijK25NEE4JkOk0hE1vKORwOccWalTz/wgYe/unPuWLNSirLy0bvO96Mh/Ly1asB2PvjhwHYecnU7th5LvZefD11W5+hY/0G6j9yG5GqmglN+JzOq6ByvB8a0zgI6Z3+XGIa3xNDXYY+pbRmcMiM82R4LhkXClwbwzDRBPgMhw9d8CJXNbQSj5BrxoapCePHy7UhEw4Kako9bNehwunn2tmv8/D2y8noBhkZpLm4kbKBQwS8k89yN6WDafrI+IK5ddY1fSQD5q8SCISU9KZ9nOyvrpb/gGBqDkHDpkDPcMsFm6mKOSd/H0aq/YagqBAc6bKnL8Cuvho8mVua0DRsLq/ZxScve4namHP0fc1Pfh3IamxrL2FLZyV9mQhFoX6WlbbSUNJLzO/l2mXykzErLbB0l+YuQWlgAJ82Ut3NbZjkaKBJB7/hEPVnMLTct4PuQcGRvkKynp7bpAgBMrdMZco16EnXsHegjP19ZXx++e+I+11CfkFdUZIFsSMcShTjCJ1Bq4DBUDG+9CCe0Gkpmsdrc6+hPVJJxgzkqkzi6CoqWv49zb9cXClGf83qFuRXofFFS8Gx8bzcpNuUbdE2WEDWheDI+zzyIUhCyA+GLgmaaXyaixQSD420EcIRFpA85o/JERqHSxbwwsL30h8oJGX46A8U0BKtZmvtxZQPtrDg0EvUdu7E7wznPjDkW2xU9VxR3tqOvVKZ2+FOCIFhaCSSZ7ZbeGV5Ge++/jqeW7eB51/YMHp7OBzi1g+9j9b2Dl7bvIW2to6ZD+Xh2prR1hWA3y+6YoZHNL43Fl3BNTDawjLRXT7T07jtc9o7+blS3Sl8ZcHpGUN/5rTHRJPONIwkpyQxfed6M+rSIzwfnkvS8CPtDOnhLsJWDa6nkXUNXjwynzUN7blZjzA9gXxEPpj7fYLSqEcq41BX0EZtpJP9AxW4QqM/Us6Qv5CAfWIo14CA6yAsf64lQkpc28azHTzXQTN96KaFRJB2griOBtaxJVVNA01IfIZNabifD12wibp4iolcAEvagoOJGA/vegftySguGn7DZm5hJx9Y/Brl4aOB3HVhMCX4fVspP9t5Gdt6KkAerc3+t+6wrPwQH1m0kcaiBEGfHL2iEA4LEt1h1h5YRXMyjpufSCkk6J5EF7mwGvKl0YTE9SBtC3pSBUgp0KVL1EkQTfcx5IswZBaQMnwksia/aW4iaNrcsWwjJUGXkqhkTqwVq2MRWUcnY/rpL6zETCc4WLaILbNWkjLDOLqOkV+hp8BKEfMNE7Nyk1dDRjq3cZGnM+z46MuEGMwEGbBDDDkBMq6B42lg+nObSnmSrNTpHI6StDVi0jvhk71l5n6Q+g2HiJVCT8XwgLQVwjUsZH4ZeCl00oaffWUX8Nrcd9AXKMTWzdG/b65mkNZ0jsRn0xGtpni4g7ktr1PRe4BIoptgPqAL6ahwrihvcfkFqXKrrUiJruskM1kSyRSh4MTnxoXDIW5617UAx4Tw1vYOfvnE04TDIebNq5/5UF62ahWdL6wDoKvmAjqs6ZsAeKa2lNQwHKsg3N8GQKimZkKPG7btqRzWMYbcky9NNnBoiNjComkZw8Ch06/LWTGB4D5ZqvvS03auN6O0MMgYPlxdRwqNVKIPf7gYwxfE9QS7u0p5bl8NH1hyCD0/ofGc5KvUnge2m1t7W5Jb0UQTRycYjq3KaxrEwtA75JDI2NTFOjg8VEpWaAz5YiR8URg6yVUrKbE8OzduXAKJAcRAL6lMCi+TwhevRo9X4gqNVNYg5Qhio9+Gc+cWWm45xHggyXVzt3F5fRv+sX3k47zGREawvbOAB1+9nLZkAVlPRwgImxmuqd9GU0kSa6SzyoOBpOA3+6r5r52raR2MIl1JVB9C02BQhujLhnmprR7NE9y95jcEfS7I3HKSB/sD/HzfpewZLiPr5UrhmvQwXQcpdTRdEjSzRH0Ompbrx85kdfozQaQUaK5LU/dW5h16ib5QOc2ljewoW0SSAGlh8cuDi1lScZBrZx/B54OaaB8RPU3StbCFSUusjiOhWewvbiJlBTF0CBg2VeFeFpccZl68nZqCXmL+DJae+8jgupB1BBlbI5Ex6UmFaB4u4sBgObv7q+nNhsh4Jo6n4ekCWxp0JmMkbB3HczGO+1BkGgJDk/i0LH4jk9tJVmqk/GFs3cy1LAmDpBlgZ9Wl7KhbQVeoFEfX0TVJyMjkJwALsp6Bg4GtGxwurKOtoIqS4Q6qu/ZR3bOH0r5D+OwkhpdVrS2K8pYhGZ2FDuR2isjPRhFHe8stw6RvYOiMQvlYleVltJeX0daWC+QVFWWjgX3GQ3npmtV05PvJeyvnzfBoTq+vfB7h/jaShw5PuK+8ZxpDeW/25GG3e2sPs26om/Lzy7RL9+6+0x5X3z59QXlehwrlp1LuDjHLHWDQiJHVdbLSY2Cok0KzFiFM+lNBnt0zn0tr25gVP/Mt7o+RD+S2DUlHcKQvwIGeON2JEAHTob64m3mlg0R88ui+Uvk2BcsSFBVIeoZdSgKD+I0sGTtA2gyRNUMc1woO5KrIhucQziSoaNnLrI59NBNgSDNB09FDw1j5PpaMq5POimO2VB7hMyVNpd1UlbgELXnaQO55cKjfz4Ovrub1jmpsV8u34EtKgkNcO28/flPmPnh4kLElW1sKeGjrVXQmwsScfi7IvkFIS5IJBHlFLiEtfPg1m2vrtxIwvNHPDa3DJj96/VLWH5lHyjFyt3su3kAH/lCIDEGEkAR8aUKWnQvEEhJZk6FsIF8p94j1tlHYd4TCviNUdO0i6gywoXI1w0aYgYyf5w83sLyyjcKgS2E4Q9RK0JWNkDJ87K9ajJ3VcISOFBD2pbhhzmZubHyDyoIsQcvDMMToNARJrs3NkwLHdUiksnQPpJiV7GFpyUHaEjF+c2Qpb/RXk7D9uFLDERrtiShDWQvHyfW4j2XoEsuQBE2HkJlGz1fSU2YIW/chhSBlhni97gq2zlpB0gri6rn14Yv9g1xT8Tqm5rK5r579w6WkXB82Op4Q2Fi0xGpoj1axo2YZ8UQHjc2vMatjG5FMP6Zr5yekqmCuKG81+SJ5fm1ygWnoDAwmKC2ysaxzm7M2NpDDeRDKxxosqprpIZzWUHElAMOHJx7KE65Dv20TM6d2wqEjJR2Zk4fyIxvbmY69UVteaJ3QccVJm3BHkuGpbqlxJYubz2xHrbeboJflkoH97A9XkdH9ZAyDtJdFTw9RECzEdnQO9xXx7J7ZfHDJbiLB04TSU8lPMNzSEuF/tl7Gzs5SMq6ZWxZb8zA0j9nxXm5Z9iJLKvqJBMaEHA3CQTA0id/MYGq5tiRX07ANc/Q7pyS3IowrNFwMDNflts0/oyCbQHNs1kYXMiSsXDB0MuTL9GRcnUTWRGIf8/J0TRDwSSrCNgXB06+7nsrAkQEf/7DuWrZ2V2B7uSUBNTx8hsOqmt0UBXMTEfOtinQPabzQ3ERHKkzhQCfLtz9OZf8+0v4Cttatoa8+RkloiA8veInlte34TYntQEfC4D82XcbzhxvJurlALjwHu68VZ6iHgG8OGLn2mwJfhqDljVaphzIWaTv3PviEjWkn8ivYSPzZYRp3Pcehwrnst2aTFSYdyRidST/xYIKw5RCy0vnPFAJb+LC13OurjvTy8YteYOWsdsKmzF/5GDMpOP/BTNNE7kOTIfBZEIt4DCWgvTeD3+zmtuBzvNC6kPUd8+lKF+B4Op3pArZ1VFBdsB+/b2SB9fwvQuCzZL73P4OuueCaJKwIaV+I3kAJ22pXsKtmGRkrhNQ1fLpLbbSXm2p/z7yCVpCSpaX7ODxUwivd82hOFNNvh0i6PtKeiSt1Bv1hkv4gndEq3pi9nKbm16jt2EEs0YnfSaIoypvLmGuj+RvE0RVX8s3lI9+vc6txCQxTp7O7j+rK0rM6Z8PcOQAnrF8+o6E8UpVr/xg+nLvsnA7HZnI4E5IJ5caYaG6m/iO3Tfhxh1JJYubUripzKJkct04z0DxM54vtlC4vn9Ix7H9iYrt5Arx7ez8PT3EoX7m9D2MCE0/fzgzpUewOc8nAPp4uX0LGMHCFQDpJ/F4EhMFw1s9vdy/gwuoWlviG0XTOPJjnA2h/ArYeKeH1lmoSWQspQdc8pMwFt9fTATqHr+W2ZRu5YX5zrsUjv2KIroHP9NCFh5avhOYWutPw/n/23jxIjvM88/x9X151d/XdjUYfuA8SBwmSIgmQ1EnJkizZK1sr0ZZlb6wdntm1I8YxljwxsxHe2JjZsRQzMTGWtRvrGSvskUTLlnUflGhKPABCPEHcQB8Auht9d1d13ZXX9+0fWX0ABEjwkAhJ9Ysgu7q6Oyszq5D55JvP+7xE6R6hjLLWS/E2yk4rNTuJZ8UpColUPobThYOB79VRKrxi3Qr1JFc3BAoJHS2a5A0IcteDC7k4//25Q5xZ6KHuWQgUCImUYBsBd/ZPYK/bf6GCXMlidLmX0DfYOD9CR34KGWjGe3cy3rOLmO3zK5tP8N4tI6SdSJDPlCy++NIdPHphF0UvBisjoL0aYTmHY0qklIREuerZWCWqsNNoJq0n8AIDtMbxqjhejZV8bqlCHL9KZ2Gai5noDlvVtyi60SnDNhV2I7d9Jc3GMjQbUsv83oEnuW9ojkxs3cWbioYU1QJB2TUouRaWVKRjAUlbYRka0xBkMxB3FPPLUaLMfRtOkzBcfnD5dpbcFIGW/MPpu9navkg2lsdesRE1/ovbGlNqsnYVU0bvbc2OMZcZ4EzPfqY6d1FxkkhDkLB89ndP8ol9RxlML6N8TbUGVVfSYk+yPTvDTCXLueWNjJV7GS93k/OT+FriYVG3Laqmw1Kik6VYK/cO/6Apyps0+QViRYivzDzTDbEOAse2KZQqtJSrpFOvXcekUslrDhS6KSrl5YkJAJR580fXhY1BQCsXEjfKWLXCjlSKmPzpRQGOVF+5Inzm4eGfqijPn1ri0hM3VikHePBUjofv7ITUT+99/5Xjiz+1Zf+iIFE4OmRHZYqx+kYOxzehpEENTdKv0SnTeL7B+HI73z65ly0dR8msVLAbVc/XklMugKxTJmnVqPkWcavOQGYOpCRXTTFfbWO+nOZ7Z/axu3uBbV311cVKGcUxesokVNG/JaE1hg5R0qAYb+NS561MdWynHMtSsVP4ph01PgqB0BCiSIYhYeAThj5CREZ5rSXLtWvEeQpIJtdNu7kWDVE/WXD44kt3c/TyFjxfInWIEQb4jTSbFrtOT6a6dlGjIQg0pbpFPTCRKiBTWUJqxaWOXRzb9naCliQPDpzlN285SU86ujswXzX5x9N7+c7oHqqevZYHIkBbMZyWDsJaGSUi1WrIaNhRlMGucX1BwY3hqegUkAyqOGH9inKR0GAqd/VN1kRDlyBKUTHW/bKQmpSs88nbjvDOzXPE11t8NFQ9GF5I8fjEDk7mNlByE5hS0REvcW/fBd4+dIGOZIApwXEEGzqiiZ0sutzZPUIliPHP03vJe0kul7L8/am72NL2z7Qnwka/QETciTLlE1Y9umhAE0iL40MHqVsxlJQIGe2PB/pH+J39R9nSXsVpnAk9X1OpKfIlSbESMGQssjGV5y5vmKlqG4/P7udkYYByGH32tFLo3BRbJp7DuUajcZMmTX7e0Fec01bu8q279qdxOsF2LGbmFkkmNiLfpOjrm0KUpwYG1ZpowwAAIABJREFU4OgR5HWaFG8mZBidFFdSY26UQGtOl0scyPx07gacLZcoBq+cMjJxeIbJRybof9+NZ6y/Fo59/uRr+n2pNb93dJYvvOfGGmZfKw8+v8BA7mfXUPrzSnSgUaSDKnvylzjbspEFywHDYFJ5tKgAQ1gQCI5dHuBHw5f5wO4J/FBQ8QX5qk1bwqMjpV5ZlDcOZKmYpitRoT1RZKmWQtZ9upaGsXst2tMtSKmZr7YyW8wwttTCprY6VuNaVqtoimOxnqAWRhfIUivqZoxzG+7idP+9lONZAtNCmGAYmrgRYIooIk/oqInPCw380CLUDbEuoga/fM1G6bUe09Ud9Epo8DxYqhr83Qt3c2R8C64vSbhVepcvYQUeo717AIOEWcc0X/7vVAiFEKCkQSXWwkzbFp7a/2GMtM09vZf43+4+TMYOUQqWPcn3zu/ku8P7qHo2UmgShkeoJIGWhIYFmV7SqdrqhYuUIV2ZArKxnZ4vKLsJ/IYoj/lVrNBdt0lRdGQ13kIUYiiwjZC4GSIEhAhqygId3aewjYD3bjrBPYNTa4K8caEyVxA8PjrAl0cOUfDiBKGxEmfA+HI7L80P8NLsAJ/Y9zRb2yKBbBiCjlaNH4aonM/9facYL3VyfHmIQJmcWejluake3j40TdLQq2dLp+Fi6oyXVivlCEHNSaGJfOcpp8Z9A6P8/p1H6E74xCzW/l4IHAuyaU2tHrCwLClWwVMBZS/BxXJX1B+gFSLwcWZHuX/0MTaUp7DUzX/+atKkyQ0iRCPGdUWjCwQKIWUjHlFimSZu4DI5s8BgX/eb8rJvqSi/OuM7Vi28RWty4zhvYB3HKhU6LJvB+Jtr2Zj3XE6WbmyM/NHPvEjHnjbifW/uhM8zf32ay8/Mvea/e/vZZc72JvjJrW9uMkzXVIXfenr2TV3mLzJCa+LaZ6A2x+7SDE8kdoJhgBDMap8BHVVcC26c757dw6b2HCXX4tjlAZ4b38z7dp/gN/eNYa0InFfANiGT8BhsmWM010sQGISXS/SMjpLft5O23iwL1Sz1wCJXTeArgdWoyoYaap7JYq0FNzAbOdwGZ/vvpupkCEwTw4Kk5dGVLNCRWKYjViRt13CMADcwybtJ5qtZZittzNVaCEIRNRIqg8XG96a8Wplfh0bT6lTJ5osv3MmPL22jWrcwVED/4gh7Jp7iYtctCBWiMZBSXemvJjroxy2ftlgJjD7Ge3Yy2r8PL53mjt6L/Nb+p2mPhygNuarkByOb+PtTd5KvJ5BC0x4rsqdtgvl6lpFiL/XAIhQGVZnCUAoZKoTQ9KRLkVbW0QTMsu+sVspj9TKGH1XFNQIlJJVUB1PpAUIpEELT4tToiHkAuIFJPXBQRB7/nkSRd249T8ZZd2GmoViBx0b7efjcIeZKraS9ZbrUMvG4T81Jkldp5r1Wfnx5B4ZU/Mk9j2MZUQ67NAQdLZpqPcQNQu7uOcdwsY+SMil6CY5MbOW23lmSTrj6mobZEN52DVv60YUOMqrsC0V3qsT7tpzgY3tP0BoPI2vU+s9rwyYlgWRCYFqaMG/wg8ldfP/yfvJeEl9phFvFXJzglvGjbClcJB64SJqivEmTn1fW+8rX21ainzVSWFaEOqCFRkqB7djUqjWmZhbo6+18w+vxllfKyxMTdB+8l5GvPEwqN/NWr86rkspFQq/74EGq4zdeKV/hmeU8McOg276xEa2vRsH3+cnyK4+0X0+94PLEnz3Nez7/doz0mzPq/uI3LvD8/3vqdf/9v/jRNEtJi5FNmTdlfcjV+bPvvzZ70S87UQKhoiWocmjhFMe7trIsE2BYLEpNC4o2DOqexehCN//5R++m7MZZqCbRSvDk6E7euW08sle8kkNLRPaTTCJke/sMT4zvJRAG8y1DbMqdIT4+g9GzG9BoDUForw76gWjK5XLNZrLYhdLR4bFmx3GtGFIo0o7Ljo4pbu8ZoS+zTHuiRswKo2UFgiDQ+GE0sn2xnuLsUj8/mY4aCeuBzcmZAS4snWd7ZxXzlfzjNNZJRd7ufzyxjx+M3Uo9MDF0wKb5s9w+9ihJdxm7bRtSawKg5scIQwl6TUiaBqTskNvax3hxaSsL2T5sM2Qgned39x1lV0cFIaBQlXx/eAtfOHYfBTeOFIqeeJkPbn6WbZkpyp7Djy7v45nF7ZEwRxJKiUIgJXQma6spApW6QcWLE2qJROMEFSzVqJQLgRdLcnzXg+TtFhACWyp2tszQmoySpAq1GEU/hUZiGAFb26bob6msVZ01eAEMz8Z5fPJWctUUbYUp7h55lA53Dh0zWBjcxqmuO5jXLYRKcmahj1zVIWPXInuPBssStKZhLJfkTH4AX0eDn9zA5MTcIFPFF2mPl3Aah1MpBbalSTkuCcOPKlo0BHmyxCf3PcW7tozTlggxXqUvIlQwWYzxt6fu5Mmp7eTcFL4SqEoR5i+yYX6YvflR0mGNaC83adLkFw3RaPTUiNXjiRYCKSVKqeiYE7MplMporV934+cKP7v57zdA68zoW70Kr0rr7Njq49diX1nPk0uLXK6/tolQ12LR83gyv0Q9fG3DiebP5Pnhv3ic2tQb90COPDzMU//Xc294Of/u2+PsO7/8hpfTMlvlP339Eu3Vn10M5S8KArBUSG91kXfNnIiODoYJpsWMCS4QaEndsxhb6mK6mMHzLfzQYLqQ4bHhTYTrBPT1MCWkYore9DJdyQIYktnsEL7hINwQvxbVCiwZknKqDR80oCBflUyV2pmptKKRaBHFHiYcj65MkV/b9Sy/d/tTvGf3BPs3ldjQHRBLGTgpi44Owa6hgKEen850nYFMnvs2nuU3dz7JQHoRgWIs18FXT+xnvmK88nboyEpT8+HR4W08NraTemCitCBEMtW2hdMDh1hM9yNQKGmgtaDkxViu2zRCTkBE6S7ZpGJX2xT3dAyTidfoSRb59L3f55bOAqbU1D14eqKHb569HV9JsrEyB7ou8ufv+Dof3jNMT6ZKT7LArww+z31dZ0hbdSwZghAoKakLh5LvUAsErh/dbSj7zurgIMetIIIQLUxqsTRntr+DMy278AwLQ2qyTpUHhkaJSY3SUPIsir5DiCBueuzsnCG1UiVvfAaKNbiwlGW81IXyFbeff5zuhTHMYoFyzeGEeSuzopNMzGVv5yR/eu936c3UI7GsIAggX5ccndnIfzv9IM8ubqMeWKhG3SrnxpgotF3hp0drHAsShott+pgS4pZHX6rAv7nve7xn26VXF+QKXB9OzqX5P5/8AD+e3MVyPYnva1Qph5w+T3tuivuWTtLql6Kc8mYUYpMmP/e8/JAg1j1asTqK1Wmf0WOJISWxuEOpUuXC+DSe9/r1x1teKZ9/6vBqtGDnxGvzJP+s2VZYILMYpYusz1d/rWjg6XyOXekMe1Lp17WM0WqZFwuv30qzcDbPtz/xz9zzqdtfl8dc1wKe+0/HOPf1C697Ha7mT34wyTcXanztUO/r+vsHXlrk956auXrQX5PXgKFD4qHLnfOnudixhRe7doA0qAqDghB0BAq0IAgbMVGN/5e9OI8N7+Y928foyryKt1wKUjFNygnY3TnOzPI+alaSqdbtZKwS824LAkjH6mxoKWE2qqZ+ALMFhyfG9+ArAwXRpErTY0fHNB+55TkO9C+RiEHVl7ww3cmR8e0sVNPc0T3KA5sukmwVJGOatnTI/LIiVwyx5By/suk5vj12N/O1Fp4a38GtvVP86q5xLJPrli58XzO7ZDKXi9FuF/ECi4rvoAxBTcY5038HY717ifkVlDDQCCqBxfm5Dna2V7BWlishm4auisv7h56hc6nIgY2X2duzjGVoggAmlmI8PrqDrF1iMDnD/p4J7h26zGBHgCGhxVZcXtRIUeXdA8cQQvHMwk7yXhyQ1EKbzz/7dv7gjsfpTxWpBSZVL45WAksHJII6SkrK8Q6GB+/mRPedVKw4SEHGcvmNbc8wlC1jGtHAp7GlPjxlorUmbvpsTC1H27NOlOeKkvlalkpgk6gU6Vm+QM1OMtm5g+PbHqCeTNGRrnFw4wi/sfs4/S11HDMS/RVXMJZP8MjwLTx68RZytSSekujGoKmE7fLOwbPs7phfzSOPPoqCuK0xpKYvmediqYednTP8zv6nuW3DMnFLI653J6dxobVclxyZ7OVvXrqfy+VWSp6NDkPC4iJi7gKDyxPcv3SKHjePKcKmIG/S5BeQFeG94i0HGhOWNZKoGqSVAglKySgZLGbjuT4jFybp6W6nvfW1J+695aJ87sjTbP6th0j39VOamuTB00/xw1vue6tX65rsPR1NHu295yAAs4ePvKHlnS0VuVyrsjOZZlPixnzmk/U6o5USC573hl4bIivLj//tUQYfucSuj22/oWSWsOwz8rUxTv7dOWr5N7+J8sMvLnLXWIFv39bJkVvbojLoq3DLSIEPHVtk52wzjuyNshIumPbKvG32JKMdgxStFpAG4whSKiCmFAqNi0ZrTVKYuIHFfCnJsxM9PLhzGvt6zqjG2+lYkIwFbGmd5Yizm2LgMNq9lxa/wLKbIR4PGGhbYFtHEdOIhvEsVwXPTQ0xVuxGaYGBJmb67N9wid+67Sfs3VBBCpgrGfzjiVv58aVbidken9z7JAf65uhsieINozgrTXcbxJ2QqUXBjtZpShtP8PUL91DyHL5zdj939U/T1+K//PqiITqrNSiWNW/vP8WejotMldsYWd7ASL6PhWoLIQZlmaDiJKKqvhaI0OTwpR28e9sEWXMtocQ0BQOdimyyxP7Nz5O0o0E4WkOpqlkuKN4/+BxJJ6Qz49KeViTjkfUFEfmfB7oU00saqPG+gWNk7Co/nLqdopfADUxOLW7gr1+4n4/vOEo9CCl7sWgghgpRUjCx8QBj3bcy2TIYCXIhSVged3cN8+EdZ0jb0R25WiA4n+/BCw3QAkd6dKXKV6SgaK2pe5J6ENmPTOUx27qF4f7bmOsYQsVN7um7wAd2HOf23kVSlsI0IFAwXbD44dgW/nlsD+OlNuq+TaBFFJmJxlSabqfAb+99noFsPbpwWvfxsq0oYrM7meP+wXP8xp5jbGuvvvLQp4YgX6xK/uHUrXx3bD/z9TR1z0D5HsHiNHZugj25UQ4sj9IWFDEJEbopyJs0+UVi/SHiam/5ypOaqA8LKZHXEObKD5lbyLFcKNHRlqUlc+M9fG+5KB/5ysPs+bNP0XPoEKWvPMyuFx65aUX5thceAaDn0EHKExPMHH1johygFAQ8V8hzrLhMbyxGm2WTNk2cRryOpxSVICTve8x6dWqv0apyI4w/NcP4UzO09KXY8LZu2na2kt6QxEyaqFDj5uoULpWYP7HIxJGZV7UnvFF6Cz5/8Pg0nzw8w0uDKYZ7klzO2swnoujENjegb9lj63yNPRNlWquvnDrT5LUhtCKmfIbyl7h9cZzH+24F0wEpGdWCzdUaS/jMa0UcwS5hEChBNXB4fnKIA/3z9FrB9QWQiHpIW5OKbKzMhnSe5Vof8+kBcjJEWIJsvMb/tOcEbclocmXdh7NzGY6M78QPImtJ3PHoTJT43TufYWdXBcuEYhUePT/ID87vo6RiHOya5vb+BTpSrIlGBa4vODnVwo4NRXraA4IAdnVMcDo3yInFIaZLGZ68MMhH941G49zFleuPhnRKsEmGLBY1catIR6LCluws9/aeYyTXxwsLW5l3M3ihha8EgYZAC84tdfPSVDv3Di1e0WjoOIJOGxBrdxpU4+GmbhfbcrHNFdEpYP16SYjHBH2dGiFCvFzAUGYOazpqPhQiSnhpj5WJmy45P04tcAi1wJM2J4buoyZilOwkvjTBkCRMl9vbL/HRXc/SlQqwzMhnPVeKM1JY8fRDxvSJG+HLdpEUmqRVQ0rIpbt5av+HkDGTRDzk17Y9y6/sOE1Hwidp68YwI8G5+SxfeOkeRvKdLNdSBDr6bKEVUitMHeXZh6Gk5pvR1Fd55QtbJmQSivftukg6OUJrLCBmc32zpgbPjwY+fe65+zi52M98NY0fgvI81MIEsfwMdy2eYm/pEqmwhq2bFfImTX5pWK2Wa2jM07ieMJcoMA3ipiTwQyZn5pldWCKbSZNJJ4nHXrmf8C0X5Sts+fjHGPnKw2w/+jX4nX//Vq/Oy9haXGT7c98AYM+ffZqTr9O6cj0CrZms1ZisvXGv+eulMFWm8LWbJ2vXCTRvGyvxtrHSW70qv1QIwFQ+LW6J2y8/zzM9m6kZSdAaN6xyVlVZ6RisISirgIw08X2Lc7N9jCxk6G3JrS3sGkgpSCc1KdtnoGWOswsbCU0TaQq6kyU+ccczHOjPI43IW7xYNnjk3K1cLrWjtEQKTTZW5X9922F2d5exrWg4zehcnGcvbWGpmsK0FaYZ4lgNQd5I1ghCzVTO4Ccz/YT2DHs7lsimQqq+z/7OMc7k+6kGDs9ObuZDu8dImdcQXyKy22fSglRSU68HLJUCShWPdq/OhtQyd/SMMlro4aWFLYyXO8nV07jKpOzF+fb5PWzvfIqeTIBcEdfX2FeGhNYWccXrXnOfNsSpbQmyLXB8vpV/GruPvJdEATHT5/buSX573zOomk/Fb8UNLBQSZUimza6G/1wgJGTtCnvaJ/jorp9wS3cZx4pORKGCZ6f6qa7GSQKhJlT6ZRPxEo6iM1akxapRs9vwDYP9XeM8dMuzHOibJ25qpIjet0vLDj8Y3sXXz91GyY9RC6x1949BqoCwMIdMdiKkiRuYzBST7Ogsv2w/xBzBYJfCtOqsjoV4Bf+4H8KLMy383fGDvLgwQMV1CBSoehXmL5HOTXAod5rtlcukQhex5mJv0qTJLyBi3bFntVou1wnzleByooLBemGudZT2pJTGtASmaRAGIbnlIvNLyxgS4k4Mx7EwTWM131wpRRCEN4cov/jlh9nzZ5+OJnxOTfKJH36B//Hg773Vq3UF73z0C8CbZ11p0uRmx1QeQ7kx3j3+It/eehCnVuKWxQnS9TJPdG4FLUEIckKQFJJQCeYraZ6fGOTOgRxxm1eslju2oDXl0ZtaImG7CAEDbTk+uu9ZDm2ei6Y1asjXJI+c28IzU9twAxMpI9vKwcER7ts8g2U2Yv5qmkuLGRarLWjAV5LRxR5Gl9Ls7SkQa1RK64FgopDihcImvDmHfd05WtOKXDmkK7FMi12l7MeZL6dYqFikYj4va1RYt13SgERcEI9p3KymUgsoVQWFiiJhT7C9dZrJcjtHZ3bxwvxW6oHF8dkhvn1ulo/ceo6OpH7ZMtcW3vh69S3Uq9EQhjBXNnhsbBNfO3uA6VobSgssqbi9a5I/vPMJNmcrjFQsivUEgW6cDBoNTFJqbCtgW2aWO7vPc/fGi2ztdUmtTDLVUPIkR6a24wbRXSsLTRgY5OsxtKpfsX/aM4re1DK72yZpqbo8MHSWdwyNsjFTJ2ZpQgWLFZMfXxjgRxd3cW6xl4rvEGqJKaLsczc0CJAoaSKdVHQCBLzAYrLQRqiuimFtXCwZ5lUXMtfYX2gouZIfjPbzjfN3MJzvoh7YUTZ6uYBeHGfD0jh3588yUJsnofymIG/S5JcEsarG19tYrvKXi0aCudYgBVJHU5X1amRYJM4NSyAtg5huiG8V4laCaPhYY+K4kAIh5c0hyo999jNseujjbH3o4xz77Ge447uf4x/e87u44uY4/G0tLnLge38FwD2f/9ybZl1p0uRmxtQhyaDOoYtH0FozuHiJ3vIMNWkzZ8U5l+4BJItoOqWNKSzqvsULlzcxXTzLpvb69eOdRDSdsyMT0ptZZiC7QCrm8cm7fsItPWVitibUUK4LfjQ8yDdO30nZjaG0xJIhG9IF7tsyQsLWCAkqhFxJ4gdGY2COINSC6UqWzz//Dj6x9yfs7lrENDTTpRjfunwHL5YH2NyWiwYaJcCxQuKmR9auUPQTVAOHpWqMwTYv2g4dvU4QRvYbY32FW0bd+TEJjg2ZhKYrG7BcCVgq+tjGPGjNTLmd6WqWZTfBN8/dgdAGH9lzhrSjoouQ6+2w6wlLBW4Q+bzHltJ85eQBTiz0s1BNE6ioQzZrV/mDO55gR0clSjVRsFTLgAZTKqShsM2QnuQyB3pG2dF2mf7WEtt6fRKxhg+/UdEeWcpysdiOG1ogIC4Uy67DpeVW9vcuY627eEgnBNt763yi9VmEKehN1sg4De94CGfmUnz19O0cn+snX0/ghiaO6RMzPPa1jdNmF3lk+nbKXixKXImnEY0Bc64ymS62UAskqXXxktfdV1fttzCEhYrBP566lUcv7GG2lqbi2YRaoZYXYGmSrbmL3Js7RadXwFEhRjOHvEmTX1pW4mSjxw2Vvs7KIjVoqVGqkWVuiNXIRBr9V5F2F0gBRmNhK4erlbLPTSHKYa1aPvrlh2Fqkv/lK/+B/+dj//atXi0APvwP/wHLr9F7z0FSAwM8+sEPvdWr1KTJTx2hNab26ags8Ounv7U6HKVkJtiRn2Ak1kooHRAhpdAlYVj4SpKvJvjuqd384aEXsa/2Y68uPDrIZRKa/myZj+59joNbF0gnIpGtFZRdwWMj/XzxxXtYqGai5A0BlhFyS88km1rLq4JRa021LrGlR8KKGn4VUPIcjs0NcP6pXjoSVRKOz1i1jWVtE0gYTC9iiKiymoppLEPhmH6U9qJMqr4ZHSwbArhYhccvDrG/b5qupE/C0Vds08pdTUsKLBviMU0mrhid9tmUWeTO7vP889R+8m6C6VILXzp5N5eLrTy0/zkGWuoknHXLWv91faG+8ThQUKpLJgpxfjS6k++N7SFfT1IP1/L+bKHoTxToTtWIWZpKVROGgsVaGkuGOJbPxswSd/YOs611hpa4S3smYEO7xnHE2kVHo6r87HQ/S/UkrpIYWmMKRdV3ODffQ2XrOHF7zQ8vDehqgy6qV2yH68GZmRR/c+wgFwsd1AOThOHSGSuytW2O+/vP0iKKaKWZr2f5ydwOPExCaUa56EoRhAaLlQxVv/FhudHIJR1ZcKZLFn/74h08eukW8m40oIowIMzPYC5cYuvyRR7InSbrV7Fp9qw0afLLiLiqMBwJc7HuZw1hDqsTo6WIcszRYEgZ1cv1mihfOYDr6zSJ3zSifKVavu/Tn+LwH/8Rd37vvzJ+y0G+t+ftb+l6feTpr3PLk18CmlXyJr+crFYIG8cQJ/TYnr/EYHaIC4nWKD9clWk3YliGRdV3OHJxMx+89TSbOlyue8NLQMyBzT0eO615HLtx0FOwWJE8en6Ir5+4k8VaqiHIBYaIRPO2znla4+uiF4XANDSt8SoDmUXGCn0oDAItUSqaXlmp2Oi6oKpNhKXYnlzk3r7x1chFx25YE5RYPdCuoqFS1YzOOHz1+O188+x+DvRd4G394+zoKpJyNFKubddqdLYUJJPQ0x4SzAfc03sOrQWPT+9h2UtR8R1+dGknF/Kd3N0/zJ6eKTa1lskmAhyjMeBeRg2fSoMbCAp1k/HlNBfybZyd7+PMQh+LbioaGKQaK6E1htbYBHQnclgysn34QdSA2ZUoMpiZZ2PLIhtSBdJxj2wyoCOjSCXANK4U5FrBaC7F0cnt1AMTocFB4XkaicnpuQEu5k+RsqO7HC+7qGjsQ9/TLC4LzKDKR7cdpuDG0EKSinl0Z+p0Zz0kmsWcIFcyuLf3DLPVVsbK3YShiRZRNn2oFYuVDGXXJFBRHvkr0vjsVuuCF2db+fuTb+PkwgaKboxQgXZrhLkp4kuTHMidZ0/pAumghinUT72xvUmTJjcv1xLmK9WXFY+5EKJxjtLRRGAdifQVcQ5RhXxFoMPPgSiHtWp5ZXKSY5/9DO/9b/+Ky//HdzjR0feWrM/BidM8+N//BIDb/vRTzSp5k19Kro59M3RIX3WOTYUpLtpJtBa4UrHsluiIt+IFBoV6nCcvDNLXMoLjXF/VGIagpRHVrzXUPFiqWPzDS3t5fGwHc+UMfkMgS62RMsrF3tS6hLWuAVMA2ZQiV/LZ3zPGyPJGLtfbGsN8TEIlUUFkabEsRZtd5qGtz9CT8hArB1IZDUdaGT0fjWZf8xBXXShVLcpejMVSkolCG89ObmH/hnEe3HaewbYqMUOvZZuvCHMB7WnwfB+dh7s3nMMyfH48tY+8Gwnz80u9TJTaeOJSga50gZ7kMr2pMtl4Bcf0qbgJlqpx5ippFmppFisZlmppyr6DFxiNyECN0CHa97GliaEFhqHoShVXE2SCECxDcWjwDAnLIxMPaU0FZBLRBZJlXpXqQuOuhS94ZGQPF4odhEqAClF+Ha0NQim5XG7lsZFdDGafxzH16h2Ml73fpqA9o8kkQpQuoykjJdimwDIjWxAaLBS1OmxM5rmjc5i5egsllcBHEkqBDdQCm3rwSuNjVzYg2oaSK3hsbCNfO3cHY/kuqr6NF0Lo1dBzF2lbvszdiyfZVJ2jZXVKZ1ORN2nyy861K+Zc6TFvVM2FeLk4X4lRRNMQ8Bp5nWrVTSXKj332MyT7+6+wsXzsc7/P3L/5KnPOjeV4v1ncujTNR/7y97H8Kr33HFxNXGlWyZv8smOiSAU19uZGeCE7SElaoBV5t0Crk8YXJtXA5vjlfh7YfIlNnd71E0PWemmoezC8kORvnjnEsel+ar7VGBajCQkxhMSRCssI6Ey5q149iOLsW9OQygdsUAU+tvsJ/mnkEBcqXaveagHYQtPhFPmNgef49c0jpMy1iNEgFNQDk4IXRwuNJQLSzlpOeaij/7QWeKFJxXfI1+KM5rt4/MJu3rftFB/YdYaetIdjr9tGwLIFPW2aIAwQaO7tPU97vMT3L97F5WobnjLx6gmWawlGcj1IGVlDhNSr+yhQklBLQi0aJ4Toea01QgVQr+Lmp7ANgZ0dQMmoGbMrXcKUa/upIxPS114ilYCYHSXhrL4XV79Pjer8Exc28tjkTkq+g0ZgeHXUwgV0pg+y18SoAAAgAElEQVTpJKkHJt8Z2ceW9nk+uPMScQu4Wi8LkCbEDEHsWh+sdRaXVELQlVUEoc+dXaOczG9ipNiL7ztoITAtzV39F9iQqUWxiNej0W9VdAVfPb2Tfzx9F3OVDL6KToyqVsGbPk9veZb7F44zVJ8npoMo1qxJkyZNGqyI6bXvVzzm0YF4fWPo1eIcIoEe+c91I6N2zaO+fpk3lSgHOPzHf0TXfYd4z3e+FVWlL7zAH332If7yT7/8MxPm+xcmeOg/f5Ls3Bjpvn7e851vMf/UYY599jM/k9dv0uSmRmsModhQW2Lv8gTPZQcQQiK0ouqWSMezqNDkUq6TEzOdDLRPrTVFvmxZgIK6pxmdi/FXT7+Tc4s9uIGB0uCrgFLgUgzq9Cdao1uGUuOYIVf4CkQ0SGdjh4JFH0GB39r1GKPLvUxWu6hrG8sIaUuUeFvvRW7rz5O21aq1RmtNxTVYrGcoekmk0KQcl45k/WX2G7222oDADU0Waim+cvoAT09s4eDgMHcNjLOto0zKUauRh7Yl2NipscyApYJml5imJ/FDTiwOcX55I9OVNgpeEq0lWkOo5ap/URPZV8KGN1EohQ58tFvBruVJL8+y7PsoKwaZ9uj9EALbCMnGS6v2jrYWQWsLjZMG1xfjjRetuYLnptv4/449QNmNgQJTB5j5yxTmpjF9cLo2oaVDzbf5wov3EWrBO7eM055UUeX7al6tEbOxPp1tgnI9xAs93tv/ArmRt1P1o0gfITWtiQqG5Pr2qEZj7vnFOF89dRs/nthOxYtHdhUVEhYWEblJduYvclfuLL1eDkeFiKYgb9KkyTV4RWEu1h/arhLn6CuKDtFfiGvciRM3nygHePSDH+I93/nWqjDfMHyUf/3n7+ebf/hXHB685af62u8cfpYPf/5fks5Nku7r59dPvER5YoJHfu3DP9XXbdLk5wVBZGlJhC4Hcuc5n+qmJgyQBnW3RMJKEkqLfC3JC5ObuH/LNK0JfV0x5gcwlxNMLzkUqg4130RpQaACltwyi34ZKwqAXVXE6mrPt4i63dMpzYAMWSwqEpWA9sQY+8NxQJKMBXRlfTozirjDmhhVUfNfsWZybnEANzRI2B79LTmy8fCKaj6wWt4QWhF6LoFlEwSSmohR9bqYKrfwzNQWbuu5yLu2jjLYViVuaUwJti3obdekYiGLBYVTCWmNnWF3+wRz1RYmi91MVTuYq2YpenGqoR3ZRdCEvge+i6qXEbUSol4gWV1me2mC7nqew627cE0bS0o00W3VmOnTEnMxhV5LibmBdBI0eAEcn8vwxRP3MF3J4gYGpgporc7SNf4sp1QCd+kyMp7Cyfbia4OFapr/8dJB8rUEH959nrZ4gG3wilns1/uQSQmtGchVJDHDJ2nWV098njL5yfRW3rFlhI5Ebc3Pv279lYLJJcnfH9/P4cvbydcbA4FUSJifwVqaZPfSMLcXxmgLijgqaNpVmjRp8opc22N+bXEuGiEEAnFVckvDU371xHJ9E1bKAUpTkxz9l/8793z+c2sV86mz/O6fv5fB3/6/+dK7PvFTed1P/uCveeBL/w6I8sjf851vUZ6YaPrImzS5BjHl0VvNsbk0x3CyC5QiCIv4dgbLyuL6Fqdn+ri4lCITK10xhn09KyPZhVZsyCwwVugCIFQhZb+MClxMaSK0QitJqCSluonW3prGazwwTEEmBamkJggCPB9C7WGZ4FiRVeOKCjGAhmod5sppTiwOobTAMX0ODlzANq4v0pRS1JcmUNIglunCjCXxlKRQj3Nyto+RpS4evbCH9245w0f2nKQj6WObYJqC1gxkUppy1WcuF5KwlulNFri1/TKhklQDmxfntvPNS3cRaokKPKpjzyNqZQwdkghdtlfnuaN6ibRyKRjJKENbCExzzROftF2SjntlE+oN4AaCsaUk/+XpBxkpduGG0Z2LtKqyafRpNudHKNsbGNFduNOjSCOGkW7HDU2myln+7vghnr60kz+463H29OZI2RqzkTt/I5GFujHUp6ZMnlncwXdHbyPnJlfvHISh5HKxlYv5dja1ThG7esCTholZmFiKMV9IU3TjBEqgQx9/cRyZm+a23HkOLA+TUXUM3fSPN2nS5Ma4QlivPkfjOVhV5lqv/u6KQL96GVcu+CYV5QAzR4+sCvNfP/ESj37wQ8wcPcK7/vZfs+357/HEr/8JP95+55vyWu8YeY4HvvpZBs4+AcC2//nj3PP5zzH/1OFmhbxJk+sg0cRVnR2lKeasNBXTQegQr75MLJ4GaVDxbL5zag87uo6SNK5RLRdRc1/cUThGQF9yEUMoQi2RQhLTkiAMMJXGUyG2kriBxXg+w7bOKtY1fMtIkFpgW9FI+lUdeC2rRqMifDnv8Nil/VQDB0Nq+jMFDvTPrFV4r6XXtEarkKBWpFxdxoq3YqVbMZ0kwrTQvklIin86t5/Dk1t55+bT3Llxgi1t5UZaS2OqaULjugFVFyquoFKTLJQEMcNFShVVvHVIT3WebGWRLq9In5cnqyo4KgQEddvEkwZKCELpIBBYKJJ2nZQdXttGcjWNDPPposWR8QEePnUP87UkbmCgNcTdEm0zJ9k9e4qkV2R/oFk24ixKg/rMMI7ajJHpAMOirk1GCx38+yc/wJ6uKQ70jdCfLdIRr5FxQuKWwjb06u3feiCoB5KKb7BYdZgtpzg3v5FjM0PM19JUAxtfmZhS0REvc3vvOB/YdoJ9vUvY15q4SnT3w5IhCau+Vrmq5GnPT3Fg/gQ7yhMkwnqzobNJkyavi6vtLNFz0dc1v/nLvrwiN60oh0iYr7eynPyPf8Holx9m4PSP+MTpH3Hf3gc5/vaP88073v+6lv/+449x24+/xJYXv7v63Pu+8U267jvUFORNmrwKUiscFTBQnaMzuYE6rWg0XrWAn+zAdpLUfJuXpvoZWTjB3r7y2tjz9csRglRcY5uKtkSJtOVS8GIYQhCXJkEYAlHaR2ha1Hybcwvd3DU4T7ulrin01z933QNhoyJbrAkOjw9xbmkDoZbELZ/3bD1FWzx42d3Fq7ffVCHK91AofN/Drxew4hmsZBskMgTKoOYlqLgx5sp388zkVm7bcJEHhsbY0l7FsSIvfCIhSMShTUOhFFKqhxgyjBJgtMYOAw4Vx+isTOOoAAPdEJPgY1A1HHxhIqQkblv4RNGHqViNhB00Ov1fXk2OGkWjqnTFl5ycaeMHY7t5YWZT1BDZSHVxlEty/jzbx1+k1V3GVAGbVI56+RJH2MKS1rjT5zHdMnbrRrTlUFE2Vc9mqZbmmenNdCVKdKWWaYuXSdl1HMMFodFIar5DxXMoegnmyy0s1tJUAgc/NFBaYoiQuOWxq32W9249zl19U/SmfRzrGm9w43vbjHofkqaLKUOksmgJatyWP8f28iUSodccCNSkSZM3xLWq5tHza4/XfvTqJ6abWpRDZGX52m23cei//iWbHvo4mx76OCf/42eYPXyYoRM/ZOjED3lfIsvErW/n8va3MTV0KxM9mxnNdFyxnA1ulaG5S2wcP0n/+WcYOPFj0svTqz+/7U8/xZ4/+zQAJ//jXzSbOps0uQFMrel2l+mvLDBjplGA0nWqhRnsrq14gUnJjfPY8HZ2dB4jHn95RVIISMWiqL6sXaU1VqLkOwghiRk2rgrRYUDgVlBOCjc0OT6zicnlUdqTlcZCXt/61zw4M5vh+yO3UfCSCKHZmC6wr28K+1qCbx2ODrk7f5aLgWTCaaVq2ODVcH0Xr5zHiKeIt27AiqXwkARujJNzfYzkuvjR2C3cPzjKb+x5ie60vzrNU2pWmxfXv7QpFRlVJ6FWkkHWohqVENQNh1AYaGHg6yh1xZCalO2StK4xXKdxQRKEUPUFx6c7+ObZ2zi+uIGSF8MNrcjugcYJq+jpYQYuH2db8QKWDhAobK3Z7c6TUS6PZnYyrzXe7AX8wjzxri2YmQ6UYeCFkkDFKHsxLi23I4RGSH3FJYJSKw2tAk3kiQ81mEITtzxubZ/lV3e8yP4N03TEQ2KWXrvAu06yT9yO9lvKqmLLgAqatPbp8cuNhJWmIG/SpMmbw/XEefSz6//dmtc8+nrTi/IVDv/xH9F7z0H2ffpTq9aSsYf/ntnDh2Fqkm3PfoNtz35j9fdD08aLZVBCYLtVLK9yzeWuWFUALnzpyxz/i89Qmpr8mWxTkyY/7wgRVcu3lac4neilIi2UUvilJbyWXkQsiRuanJ3v5fzCMPv7y9esbJompOMhiYpLe6LA5XIbAoltOlgawsAnrOQJ41kCM8Z4vpVHz+1kqPVFWuLXz8W+HjqEui84M5fkb48dYraSxVcSQypCJaNp96/SmGhoRSZ0eXduhHkjyZnkADPxVopWAl8rwmqBilvBjrdgpTsxnDihaRFoG0+18K3hvRy9vJl3bTnN3QMXGczWSDvq5f34ImqsFWik0C/LjQ+FpCIdAmlgmyaWaeATecpTdh1NNDQnVFALJFVPUvAsFstJzi9s4PjcRsaX26mGNlXPwdeSUINUPrKex5i7xODCMHfkh0kor7EuABqLkL6gwPsLpzme6OeS3UYh9HHrJ3CTWcxsLzKeQlgO0rQQ0iDqNl3ZwREK3bhu0JgyIGl79LcU2NU5w/2Dw+zozJG0FHFLRxcw6/oBgqBxIbP+MyCIhlER7QNbRtGWgRlDGdbVUexNmjRp8qaw3it+vQFBV/7+ld//3IhyiOwsM7/24SvEOcD8U4eZO3KE2cNHKE9MUJqaxAg84uXFK/4+3ddPz6FDdB+8l677DpEaGACaYrxJk9eL1BqBojMosbU6w8n4hkgdaY1fmseyBwlCg7liluPTPdzSM4p1dQVaRA2YrSnF7LJPbzLHWaMfL3QwDRPbsPDCEkGtiFdewnT6qLgOhy/toCNV4df2DJONqxsT5o2klbIreG6ygy8fu5uzCxvwQnO19lwPTcIbSMUztMZEkA2rtLpFNro5LsU6GUv2cDHeTdV0CEMfL/DwawXMRBYr2YZOZgiVSc2zKLlxZk7cy08ub+WujaPc23+JzlglqlJrgVgXichVj1bwhUHVsFFCgGGiMBFCoLRgptjOd89sQaMpuzZFN0WulmSu3MpCLbVWFddiXaKNwgoqhIUFjPwsWxeHuSt/Nppwua66HF2zaBwd0BcUyZaHGbJaGXM6uWxlWfbrBMUlRCyOjKUQsRQilkQaNlqaSMNEiygWTIUBUodIEbCxo8K7d41xcGiWTW0VMo5aE+LrxHg0+dXg6Hgv92+apiWuEOvsUbYVnfBa7Spx04/eWzuOZzpNB3mTJk1+6lzdzHkjIv3nSpSvsCLOV0T2lo9/jE0PfXzVfgJQnpigOj5BYjAS3isCfIULX/oyJ488zchXHv6ZrnuTJr9oCDRx7XN7eZzzVjs1YaKlwi3ncFKdBEaaQj3Oscubee/Oi/Skw2sOlknGwTYVGzOLWEYAOEghsZ0EXmEerRT15WmsZAvE0izWkvzTyQNUXJuP7D9Ddzp45ZQRFcUvzpdNvnFqFz8c2cN8JY3XSBZBaLQW1AODWmAB9VfZ7qg9UOioYpwJa+yuXmaoNs+SneZkepDzyY1UDU2oNWFxAb+SRzpJYtkezEQWD0noOpye28CFfAePjd7Cvs5xdrVcItRGwzUO4hWuNiJRHg3VicfsSFwLcAOTkzMbObfQgxKgtCRANsS3INCREUY14roECkt5BMVpastLyHqFty2e4ZbyOJmwinEdKRv11ipS2meHu8CQn6MkE0xbGcacDmaCFqrVAkqaaGmgpIkSAiUlShpIw8KIJUilMgz0SP7VA0+zp69I2gHL5OUXWxrCEKYKNn/97Nu4lOugr+Uxbu0u4axLyzFNgWFoElYd2/ARQuMaMXzDWWf+adKkSZOfDddMXLmKn0tRvkJpapLSVx5eFda99xwEoOdQ9DXZ3095YoLK5CTliagKPnv4cLMi3qTJm4ylQrJ+lSEvx4jVQSAEoVvFrS5jxlL4gcHFpXZOTHfSvnUW6yqrAUQWlmQspCe5TNp0KYgkWgiSVoIw8KgpjVKK8vQw6b5duMTI6STfO7+Xi/kufvWWlxhqK5B2QuKmRopo4I4XQsWTLNUczsx288i5/UwWWyi7cfxQE4Y+QXUZK5kF2yJQBsV6HN8vAdEy3FBQqBsUvTi+Nl4m6gQ6ar7UGlO7xF2PDr/EzvIUJ1JDTMdbKVtxPBWiVUjVrWImMtiZbkInTmDY+Mqh5tksVFMcMbbTblcJQgkND/n18IVJ2YhHZWFpI4Ru9HAK3NCgrtbWd7XOLSIRrrUCFSCDGlTzVIt5TK/OhuoSd+XPsdFdJKH8RmTg9Ymy6xUWYCpFTJXIhhW2uvO40mLZiFMy4lSEQ82Mkc/0MNOxAx1rxbBiSMMkm/B46K4n6Ei7CCEi7/n6F2k0ptY8wbmFJF988W5OzPVhGorxXCs7O0s469dJRqK+xamTMD2EACUNPCuBFitZ7s2aeZMmTW4efq5F+dXMHD1yxdcmTZr8bDBRxLTP5toil40WSlKiAh+vnCPZ0k1AlMTxyNm93DUwT9a6yh8iIl/w/8/efYfHUZ1tHH5mtqpLluTejW1MMSWmlxhMTbAJnVAcSGihxEA+EkIgQAgklNBbQjc1AUwHY3rHBDC2MbjiXtXr1pnz/bGr4i7JMiNLv/u6uLKePXv23ZWyenT0zpncTFfZNTH1yS3Vitp8uZYtnz+oISaiuY5PCdeRE6lWfclCZRQNlFGWSpI5qopl6NvVvTWscI0GFa1WcXaVwn5XCcdWVSysFRWFmlveUyur8xVN+pV0LBnjyiTjilauULxqjXL7j5QJBBR3/VpU0U15GVFVRwOqjoVUGcnUioocLSovVnUyY73LIze9DCOfHPmMFHIcZUVi6h0v16JQd83P7qWFGd1V64bl2Aklq+NK1lfLn5WnQFahTGauHF9AUSdTVZa0KpInYyz5tX6feXNJy6+oLyBLkt9O7VQiKxXlLctKtbXIlesaGceRbZKKJxOynKhMIqpkrE6JSL2UTKp7tEJDa1doeN1yFSVq5Lcc2S34k2uzL2P6VE1HAeMo0yRk3JgKk3VyZaneDmlht+Gq7L2jMrO6y/EF5Vo+yZIiTkD/nXaARvRcqu17rNTgolINLKhVYWZS/vRfVurilj5c0EuTZu2h2WWpK79mBeNaXFmohLtkrUIsSaGgUdBOKCcQky0jx/apLpQt17JTrTOteG0AsLV1qlAOwCtGfuOqb6JKxcka1fiCqYsJRaoVq69WKKdQUSeoOWuKNX15kQ7Ybs162yPatqWssKug39XQ/BX6cuV2MukrnBWFQnLrV2l+sFDxpKV4VYnceFQZ3QcrmJWveNKnKjdD36zqp+mr+8pnu/LZRsZIcTe1rZ7j2HJcS45rJCcpu7ZEVaVLlYhGJBm5ybhck6lo0q//ztxDr82OK+74FUv6FXX9Sro+JRyfHNdu7L/e9B8jjfxyle3EtX1kufrHSlUWyNa32f01J6uv6vwBmaRRvLpUyfpq2aEMhXJ7yJ+VL/l8zdZxrY22rxhJMdunWl9YjjEqL18tn79cVvpUxoY2cVdGlmuUNK4s15HrOqnmetdR0E2ob6RcI2qXqW+kRLlOvTJMapeX9gitVnpNOmr7NS13sGblDFJdJCK/r1a+jDzZPkuWsZVwLa2sydGayHB9vnSIckMRFWXXaHBBqfbot1i982v04Q+DNGXuTlpTn6t4widXthKuT8trchVNpDc9b/ZWhYNGPtuoMFQln+0oaVmKBLNkLHuTLUEA4AVCOYAtZknyySjfrVO/eJWWhvKVkJVq1ahYqlBWgZLJ1C4hb80dpl36lCo/a+09xm1LCgekcMBRn9wyZQVjqo5lyLJ9imYXa9SyLxU3tpYEC5RIGjn11apdNkuhgp4K5faUHQgpbvtkbF+6ETlVmHHTzRyuIzlJheLVyl2zQD3L5mpqsIfi8smyfXKcqPxGclxLJXU5Kku3v7huw1Z9JnXJZOPI5zqyk/XyuTFZZsNnhTacoumTI9tIfsdVphtTYbxGI2qXanruIC0PF6nWH1bCdeQmE6qP1iuYka1Abg/ZGVmyfYHUGY0bWCtvaFGJ+oJyZctnjJKxqJLxWLPnTw200w0sfteR33UUcBPKSsbUO1auIXUrVZysVtiJp/ZAt4zsjbymtjCyFLED+iJvuL7N6a8a269ErFZWvF6Wf7VC4TwFM/JkB8JK+nyyHJ8iCb9qYmGV1OVqQVl3fbhwmPw+o5hrqyaWoVjSLyd9HoDj2iqrz1NtPCDjxhpP9rSU+n7y2Ua5gfrUzjWyFQ3lpHraZa13agMAeIlQDqBdpK7wmdTgRKm+cXqp1mfLcZNK1tcoFqmSsrrJJANaXF6kmSvzdcB25WtPYKV6gDOCrjKDUfXOKld1rE+qpSOcr262q5/W/aDPTX8tDBaq3riSk1CkZIliVWvkzypQIJwjXyBD8gdkWbaMjOQ6MsmYFKtVZk2JBpfN0fZ1y5Q0Rl/n5Sniz5AxtpRMpM6ON5YcYylpUoncdZNynYSsZEJKxmWSEeVEqzSgarG6VS1rUXtH6pcWVz7jKmgc5cSi6l1aocXh7pqd1UdLM4pV5c+Q4yYUS8aUqK9WMCtf/uwiBcIZktbfCrFhYr/jqH+kRHX+sJK2T0ljyVg+2XLkT1/gKOQmFTJx5Tgx5cTrVBSvVmGyVlluTAHjrn1Vy3bu6HBlaVmwm9YE85S0Uts1mmRCrmXJchKqjdXLql0jfzBToXCefKEs+YMZMoGgko5fkURATkM/SsOcTlxOLCJfZrZc41NFJEsV0YAcNyZ/w/kK6e8nn2XUJ7s8tWJvG9WFc+TYvtRfEeheAdCBEMoBtBMjn6TCZL22j5Xqq4y+jZeij1atUiAjR5bxq6Q+R18u7atR/SqUEWrWbmBJgYClcMhV0JfUoPxVml3eR45lKx7MVCSjQN0rF2tMzRzNC3XXzHAvrQlmy3GM3KirRCyqpL1asn2y7dQVeGxjZBtHmYmIBkVWaUT9avVJVMhnHFVambLTqcwYV8lorez6Kpl4RE4iIisekZuIyXYSsp2E/ImYcpK16hct09D6VSpO1ijLibXhIjRGPiNlmqSGRlaqT6xcawJ5mpfVU7Oz+6nWF5IjKV5TJqe+Sj5/QL6gX7aTWCtEWqnCNTBWouKyaiVsv5KyZKzUpt2WcWQZyd8Qzk1SfuOmT9pMn5ia/hvA1kyntlI1FpTVqTyQo6XhIi3O7K6SQI7itl+ybckxSkRr5UTrJJ9fPn9IvkCGgpm5CoRzJH/DPpqWkrE6RStXyLiOMgKDZNuWKiJZqoqElXRq5W/2U83vk/w+o+xgRAHbUdzyqT6QpdT2P7SvAOhYCOUA2kVDu0bQJDUyslzfhbqrzgrJtRwlItVKRmpk+7upNh7Wt6v6a3n1bA0ujK91ZUbbkjJDUtjnqHdOqYK2o7ixFfNlqjqzWD0qF6qbE9fO0RUaHC/TwmCh5oaKVebPkCM7FUiV6sL2yVWOE1O/RKW2j65SQaJOmSYhX6rDWpl2TBlOQhE7Icuy5F+zSHbpUvmMo4CTUE4yogI3om6JWhUk65WTjCjDxBRyEwq7Sfktt1UnQa77PjW0tQRcV5mxmHrEK7Vj3TJ9lTtYCzO6K2YHFI45GhQr0b6V85SRqNW64dmSFDJJBd2kjNNwmqVJX5HCpPc5N6mdTNIX5/mxo2hqL3NHhcla5Tv16hsr0261C7UqmKfvs/pqWbhQMTugpO1XwrIkk1QiGVcyXqd4fYVsf0CBjHwFM/NkuQlFKpan+v8tn0wyLhMMqi4RVEldruJumcLN3iOfLQX8RjmBqPIDMdUngooEs5X0BWRasD0ZAPyYCOUA2lXQOMpz6jUoUa7vfD3lGCM3HlW8vkKBrALFEj6trM7TF4v7ql/eDwo12x7RSu9XHvI7yg/VqyBcqzX1eUr4AqrMLlbCH1JWPK5cN6YsN6HCZJ12iixXnZ2hal8wtfIqyW+McpyIcp2owiaZah1pFtYcWQqapPonqtTdqVGuk1COG1GeE1WuE1W2E1VIjnwmtZrcsKJsNQ+17bC43LCVYEiugiapnGhURfEqLQ8W6oesHuofKVH/WGl6RX7DgdpqdjXMRuvW5nGbhiUjf/pk4JBJKtuNqluiTkPrV6nCn6VF4e5amlmkNcE8VQSyZGy/jOPKtRw5TlxurF5O5TL1jVVJdlg1voBcn19uMi7HGBnX0srqfMWSzXpSLMn2WQr4jQL+pLL9dbLtbCX8QcX8GcpuOO8AADoIQjmAdmXLKGwcDYmWaEkgX5VWlozrKFZbrnB+H/mCYUWSQb07b0cdMmyJugeSjY91jGQsS0kFVBbJlWtSzRWObasiq4eigWxlxWsan8eyjDKNUdipVTenWd+xadiab8OXprfTq7ej6+bKNZZ8lmkM4JZpeEzDgnPTZeW35tqqla4r0yQ1KLZGfeNlChhHqT1GOlfzc8MFhwLGqDBRq3ynTiPql6vSn6mSYJ6WhQq0LKNYlYFMObJlW9L2NSu0R+08Tc3eTguyeqre9slJRBVwXcmWllYVKeZYqUye/kLZdqqFRUbqk12qBbXFci1b9eFcFdSt9vAdAID1EcoBtCs7vSLaK1GrnvEaVfsy5LpGbiyieF25woFeiicCWlxZoA/m99fPd/xBlqSYa2llZYY+WzRAnywYouXV+aqMZaXWpy1bVZlFigazZeqsplXr9M4ijTaUXTd4fmSqpzrbjaf+vbGV5R85C1sy8hlHPqXaUjqzhq+BT67kSmElle1E1CNRpaH1K1VXFdKScJHmZPdRXrJO+1bMUY4bUT9/qZZkFMsYKRmvkzGpC0UtqypULOlX4yWSrNQvVT479UtWfrBWPttV3PKpJqNAxmLvFQAdC6EcQLuzLSnXRDQwWaGFpqnevf8AACAASURBVFAxyy/XdRSpWK5QTrHivqAUC2vK3BEqzKrV0sp8fbV0oOaV9lBdIqS445fjWjLpjbZdS6r3hVUVLlBvy0ptTdgOdW7NlW/XsmWZhhMpsTkNLS4+N66wEsp1IyquqdLOdYvlk5HfdWTLqE+8XEGTlC3JiUVkTGo/+pJIlpZXZmtAfiz1gy29A4vfnwrmvbKr5LdcybJUm1kgx6anHEDHQigH0O4sYxQ2SfWPVyrPiarMypRjHDmxesVqS5WR30sJ2fqhvLtu//AQRZIBJRyf4k4gfYGfVPCWm5Ri9bLrSzWgdJ4Kq5fKi5MV26I99/ruShpbhYyR37LkcxOpNqL0nzMKkrXKSkZVFsySScbkJmPyBUOqiwf1+PR9taBirkb2XKkhhTXKCqZW0X22UU6gVkHLkTFSbbggvVcQAHQchHIA7c5KR57cZL22j6zW5zkD5biujJKKVa1WMKdIskKqjoZVHQ3LGKUvzGNSF8tx4nLqKuTWrFGovly7V87X8Lqlyk7Wa6PXuEenk9rdxjS2ERlZCjsJFSWqtNztJsdy5NTXyB/KUlyWpq/qqx8qi1Q4r0aD8su1/8C5GppfqpgrBWxH2YG4yq0s1WTkyaF9BUAHQygHsFVYMgorqR2iqzUzq7fivrCMMXJidUrUlsuX31PGWDLGlXGSqW3uojVya1YrWL1GedEq9YtXasf65SpM1igoJ90Ogq4r1YfeK1qpb3NcucZSfcVyJeK1CmYXyc3IUSwZVmUkU4uqi/Xp8sEqCtdpx4Kl6pO9KrVdpKRoMFOuzy8ji/YiAB0GoRzAVuM3rnLdiIZFSvRVZh8lbEtuMqF4ban84RyZRESmvkaKVSmzrkzFdWvUPV6l7olqFSZrlOlEFXRd+S0COZp2qOker1TYictYYTluUom6SjmRWsUCIflDObIzsuXPzFY8GFA0madVkRwFreGKugE5lqVoIEMxf0Zqr3K+rwB0EIRyAFuNL30xocGxEs0PF6rCypSVjMtUlSgeq1UwHlGv+hL1i6xR71i5ctyYst2YgsZp3B9ckuf7bKPjsIyromSNRlUt0JzsPioJ5spxHBkrLjcZUzxaK9UFZQXC8mflKpDVTb5QpowVlKzUynjSCigWyJCRvdWvaAoALUUoB7DVWDIKSCpy69Q/XqHacFDZTlxFsTINqSjVwGi5st2IgibZtE+41bQvOLAuS1KWk9A+1XO1a+1iLQ1003c5fbUqXKBaX4ZiPr+UiMpJxuREaxSvWCVfOEuBnGL5MnPl8/vl2LZigaymq3ryrQagAyCUA9iqLLnKdWLaObJCvRI16p6oVoETVUgJ+V1HAaUuJNO4qwoBCZthy1HQGPmSEW3nrlLfeJnKA9laHirUqmCB1oTzVBnIVNKy5do+OfWOnGidrEBYwYwsBf1+RZXe4QcAOghCOYCtypJRyCQ1OF6uAfFK+dNXqOQEO7RVaodEV7akgOsoU3HlOVH1jZWrxhdSWSBPy0PdND+rp0qCuUpaPrmWZBIxJeurVBgrV1HV4vQVWz1+MQCQRigHsFU1tKL4lFrhtLaRfcaxbbHlKiijbslIOqCXareaH7QqmK9ZOf21NFykhB3QwPo1OqjiW2U5EflM6gRiAOgICOUAtrrGC8J4XAc6Lyt9wSFJso3kl6OwSSocK1HveIUq/Zmq9GerOF6tHKdeQdfhrzUAOhRCOQCgU0m1txjZcuQ3qfaWfKdeipV6XRoAbBShHF1W3qDB2ue227wuAwA6rU8uuFA1y5d6XQawTSCUo8va7cqr1P2A/b0uAwA6rV3++Ad9/LuLvC4D2CbYXhcAeKHHqD3V/xfjvC4DADq1waeeosIdd/K6DGCbQChHl7TTxRO8LgEAuoQR557rdQnANoFQji6n/yGHqc+RR3hdBgB0CYNPPUW99qVVENgcQjm6nKFn/MrrEgCgS9n+7LO8LgHo8Ajl6FKGj/8Vq+QA8CPrN26sdjznPK/LADo0Qjm6jO677q69brvV6zIAoEv6yd+v14AjfuZ1GUCHRShHl2AHgtrv/vu8LgMAurQ9b7lZ/nCG12UAHRKhHF3CAXffo5yh23ldBgB0aRm9eurwF17wugygQyKUo9Pb+cKLNOD4Y70uAwAgqXDPPbTPjTd7XQbQ4RDK0an1OXC0drv2Gq/LAAA0M/SsX6vfQWO8LgPoUAjl6LR2v/xPGvPC816XAQDYgIOe+69GnPlrr8sAOgy/1wUAW8MRL7yo7gce0C5zxSsqtPzLr1RZWanyykpVVlYqFo22y9wAsC0IhsPKy89Xfn6e8vML1HfkSGX06L7F8+5xy83qtvNIfXLpxe1QJbBtI5SjU+m9/4Ha+87blT1gwBbNE6uo0NdvTtHzL0zSXc8+q7gx7VQhAHQOvxx9kE4eN04HHPVzFQwd2uZ5hvzqdBWM3Ekf//Z8Vc6b244VAtsWq6yyusVpwzQLJsYYGWPkuq6MkYzr6q0dhm+VIoGW2P5XZ2iPW26WZbe9K6tu5So9/+CD+tN992rFypXtWB0AdF63Tpig8RdcoMItCOfGcfTZeedr/qTn2rEyoHUO/W6OLNuWZUm2bcuyLFmW1Xh/89vtjVCObV7+0GEacdbZGnpW23sT3Xhcz990sybce49WEsYBoNXy8vJ0z8WX6JdX/lm2v+1/iJ//yGOa+9hjKp05vR2rA1qGUA60QWZxd+1wzjna4dJLtmie2uUrdO7JJ+upjz9qp8oAoOs6e9zRuvPRRxQuKNiieeY/8phm3Hqralcsa6fKgM0jlAOt4AuFNPJ3E7Tz5X/c4rlWfjNdexx4oJbXVLdDZQAASepbWKgZX36lgoFbdn6PJM2+9z59ff31SkYj7VAZsGmEcqAVxpeVtcs8VUuXqbh/fyXESZwA0N5sSctmzlSvnXZql/kmFha2yzzApngZytmnHF3WHnvvRSAHgK3ElbTbgQd6XQawzSCUo0v6y4UXat6KFV6XAQCd2uqKCp197HFelwFsEwjl6HJevvdeXXfPPV6XAQBdwoMvTNKL99zrdRlAh0coR5dSsXCRfnv99V6XAQBdygU3XK/yhYu8LgPo0Ajl6FLuufFGraBtBQB+VCtWrNBdN/7D6zKADo1Qji5j/ltv66p/3d/qx+Xm5urwww/X1VdfrdGjRysnJ2crVAcAHVd7fA5e869/ad7b72yF6oDOoe2X3AK2MR9+8EGrH3PSSSfphhtu0ODBgxuPrVixQtddd53uv7/1AR8AtjVjxozRvffeq2HDhjUeW716tSZOnKg//OEPrZrrk88+09BDxrR3iUCnwEo5uoz/vPtuq8Y/8sgjeuaZZ9YK5JLUu3dv3XfffTrssMPaszwA6HAuvPBCvf3222sFcknq0aOHLrvsMv3+979v1XzPvte6z2GgK+HiQdjmtOXiQbGqKoXz81s8ftSoUfrf//63yTG1tbXad999NXPmzFbXAwAd3e67765PP/1UoVBok+N23XVXTZ8+vcXzxqqrFWxD+wsXD8KPgYsHAVvZ/KlftGr83nvvvdkx2dnZ2mWXXdpaEgB0aEOHDt1sIJekI488slXzzv3s87aWBHRqhHJ0CUsWtW4rroMOOqhF4/r27duWcgCgwxswYECLxu2zzz6tmndxKz+Pga6CUI4uYcmSxa0aP3/+/BaNq66ubks5ANDhVVRUtGjcsmXLWjXv4sWt+zwGugpCObqE1q7MfPFFy9pdlixZ0pZyAKDDW758eYvGffTRR62ad/FiVsqBDSGUo0soWbW6VeOff/55ffXVV5scc8011+jVV1/dkrIAoMN6/fXX9eKLL25yzLPPPqtnnnmmVfOuWblqS8oCOi1CObARo0aN0pQpUzZ43/vvv69rr732R64IAH5cxxxzjP79739v8L5Zs2bpxBNP/JErAjovLh4EbELDFewGDx6s/v37a/78+Vq2bBmBHECXce6552rFihV8DgJbGaEc2Ax+8ADo6vgcBLY+2lcAAAAAjxHKAQAAAI8RygEAAACPEcoBSA/NlDFGxhjVvHdF0/EJb6o8fdxUfqDLfZZ3NQIA0IkRygEAAACPEcoBAAAAjxHKAbRa9nkT9W1JfWPLi0lEVPX9e7r/193TIwbquH9O0fyKZmMqVmn64xdrSMMkja0xqzVl/FG69Yuy1LjZj0m6TzPSj5tx3wQ9OqOsaZ6S2frP+Ts2FXPyjXpr5gqVR0yzeiq1+L3bNdZa/7nevOoufbS0qa7Khe/p1otu0pSF5Y3HoiXf6P5x+U3PMfhk3fDO/LWeo3LptGZ1DNT5by5Lt/lM1Y3DAlvz7QcAdEKEcgCt9A+9e9tp2rEoo+mQP6zcod1kfVwhSdrvoVf0+KWHakh+szH5PTTytNv0+SsXrDNfdx14x+O6ZI9uqX9Gq9a6d+fzbtevdu7WdKBouE686WFd408n7s9Cyt2+lwrCzR7kz1P/0RP08MvrP9dhf71Q+/dtqitv4GhdcudlOnRgQeOxUNEuOvevN6Z/gThC97z6kP508JC1niOv76468Z53NeXXPSQdrXF79k7fMVz7HNVjA+8bAAAbRygH0DoTdtN24XQgrpyu+889TAePPV83XHu3zp2bkDRBVx27o1Kxd41eOXWErCG/1ZSVRpJUtM8JmrDOCaOh/HwpWqXVi1ZpydJF6z1lyfv364o7P1ZFw4Gsgdr3lKLU7cUX695bn9B9fz5ao2xLvW79UpH0sKKhe27gBVRp5oN/0V/eLWt2LKalL16jP0ya33Ro4PY6wWdJEy7RL0dkpo4tf1njhwWUfd4UrZAkddc+vzxN0h26YeJXqqyNqnrWi3ry9uUteScBAGhEKAfQOne8ri9KUgFb+bvovH9N0btPX62jhmWlV5a3V+/8htDdXWOf/F5mwX06rFf6WGEv/cS/zi4udV/opl2K1XNQLw0Ye+va9zkz9PRh5+vvE57TF5Xp51VI4aKQJKn45Bt13Nif68yrXtKXrtHKS0cpQ5uweqpuOfc6XffyV00hv2qq7j3+r7r5uLc1c93xI3urcQ29zzhNnJtQ7f2HKb0urux+IyVJH07YQwU5Gcrb6Qz9yzXrzgIAwCYRygGsJbvX8Ka+74IMNXZslK7Ss46RdIeOOPJ8/evd71QRbXhQD4087R968eYh606naG10/f/WzazLZuuPcxMbLqi2UivdjVX7Rz33wGUaO6JA4bAUXzZb38+v2NjglMpVmrjR+TYjuf5rSdRGN/84AAA2g1AOQHr3h3Q7hqThJ+mzj17QE/99W/Mn7N+46lw670MtkKRT/6XXrttT5S/eoPEH7K4zpzS0aoQUKgpJmq0VjSvaVZr56MXaPzdDGaOP1RnXP6DbJxyqc+JtTcXrmHCwds5Or7pXfaEbDv65/vzu8sb2lXYxY0WzFfUZenTCT5WRk6G9Tvm1/vrIrbpoz/MkSac+NFMVNRFVzf4P+7kDAFqNUA5AenKC/tbYYx1S8f6/0KknjNGQhjaUsg90y+/+nbpdNFD7HHmm/nTnE3rlf1/rkcP6pB9XpVUzqyXdoesmzUoH4zztceH9+tI1Ml++rmf+fpGOO6Co/eq+Y5rmJdO38/bUNXMXaNI5OykjuclHtfI5btPT39enbhfuqfMemipjjKa//JRuuOh47RewJE3Q6cfuqPzssHKHH66fTeizySkBAFgXoRyApEW6b8wYnT3xS62sbLbOHK3Smq/+owlHHqEb56XbS0oXaUHpOmvRlYv0we0TdOatyyRJn/xmrE6/9VXNWmdcrHS2ps1ce3eVLXO5Lrv3S1U0hPBkleY9cUmz1fv2MFkXHPUb/eP1WU3tOpKUjKp6zjf6LmkkvaSXv0j/raFqjj57dXU7Pj8AoCuwyiqrW3xGkjFmrdvGGLmuK2Mk47p6a4fhW6VIoLnxZWWbH7SOsw85VA++8/ZWqAYA0BpnHDxGj7Th83hiYeFWqAZY26HfzZFl27IsybZtWZYly2pqSWx+u72xUg4AAAB4jFAOAAAAeIxQDgAAAHiMUA4AAAB4jFAOAAAAeMzvdQEAvOXz+bwuAeiUHMfxugQA2xBCOdDFHX300Xr++ee9LgPoVK6//npdeeWVXpcBYBtC+woAAADgMUI5AAAA4DFCOQAAAOAxQjkAAADgMUI5AAAA4DFCOQAAAOAxQjkAAADgMUI5AAAA4DFCOQAAAOAxQjkAAADgMUI5AAAA4DFCOQAAAOAxQjkAAADgMUI5AAAA4DFCOQAAAOAxQjkAAADgMUI5AAAA4DFCOQAAAOAxQjkAAADgMUI5AAAA4DFCOQAAAOAxQjkAAADgMUI5AAAA4DFCOQAAAOAxQjkAAADgMUI5AAAA4DFCOQAAAOAxQjkAAADgMUI5AAAA4DFCOQAAAOAxQjkAAADgMUI5AAAA4DG/1wUA8N63337rdQkAAHRphHKgi5s0aZImTZrkdRkAAHRptK8AAAAAHiOUAwAAAB4jlAMAAAAeI5QDAAAAHiOUAwAAAB4jlAMAAAAeI5QDAAAAHiOUAwAAAB4jlAMAAAAeI5QDAAAAHiOUAwAAAB4jlAMAAAAeI5QDAAAAHiOUAwAAAB4jlAMAAAAeI5QDAAAAHiOUAwAAAB4jlAMAAAAeI5QDAAAAHiOUAwAAAB4jlAMAAAAeI5QDAAAAHiOUAwAAAB4jlAMAAAAeI5QDAAAAHiOUAwAAAB4jlAMAAAAeI5QDAAAAHiOUAwAAAB4jlAMAAAAeI5QDAAAAHiOUAwAAAB4jlANAi9ynGcbIGCNj5mhiiI9PAED74acKgGYmaHKFmw6ezf6rWKXpj1+sn1he1wcAQOdEKAewefk9NPK02/T+lCu8rgQAgE6JUA5gI9boi8ef0nMfrVAkfSR7j8N1ua+rLpfP1opK43URAIBOilAOYCMqNefs03XCgS9rfsOhvJ7awW9J2ksXPfmxFpTUK5JoanOJlnyv/5y/Y9MUg8/TozPK1hvz/l3nbv7+CW+qvKF95ps7U+MfmtmsrWaRXjk8V9I1+qAm3XJT+UHjLw3DLpyoL5eWN42PVGrOG7fp9KH+xvLu+c5pnN/6/cuaX+PKmEp9eGlfafDJuvWLssbHV395hArXe4+O0L0z6mSMUWz+f3Su3VV/YQEAbClCOYCNyNfwBx7XyzNO1M4Nh8pW6qukkTRVq/MHanBRhsJNGVehou114q1P6Y5hAUnS3565Rb/audt6Y7rpy83ff8dnmlmbXpkeuIsu91n6224jmtU3QAOP6CGdupu2y06F4eTsqfqHY2T9/k19ftfp+knfgqbh4TwNO+JiPfTKQxq7bnbecbzK/jZWQ7ItSTFFS2P67QN365I9ujUOyfnJERqVv+4Dj9b+O2dKkoJDdtV+AUI5AKBtCOUANqK79jz9FI3duSGYxjTvlbt0h5MKyv+98Bbd/fjfdc6YobKG/FLPLHVTw0IDtNtRPSRN0KihmenHVmnm3edpzME/02//fpXumfB1C+6/Rh/NS8+ZN0D7HXyxRg2yJcVUmW4jGbjrCdph3A7qnZ5l9mcPSBqou39ziBrieOnka3Xq6dfpo/RjAsNP0l+uGrD2S/XnqSAsxUoX6YfSlVo08QKdvGfT617y9jN68r9fqWK99+hG/evl+aqsrdSSt1/U43G3De8zAACEcgAtEKtcpA9uP1dHnvl8+sguOuuaU3Xc2Iv173fmySx4Wif3W/fj5A699EV5+naedr7wfr0zZZKuPWwnhYf4WnC/dOW079P3D1D/X+6nIfmWpFX6+uuVkqTsQXvpwqGD0mPmatp9iyQdrSG9GlasF+v9i2/QU0/8RU9/3fBcIfUY2nO917j0uRMVLh6kIcW76hz1UEF69V110/XMz07RaScdr5fmrRu6F+meo4eqIKdAAw79o96i5RwA0EaEcgAbMVePh32yLEvhgkEafcljWpC+Z6cnn9MD40epV36GlKzSom+/18ra9RPpfYeP0Tn/fluzStOnivrD6v6Tk3Tz0/9s0f168rvGfvYeB+2u7SSparFe/XhB6uTTPrvo8F7pj7HFs/X4vMR6NYQHhlvwWqu06LPPNnxXMqoKFsABAFsZoRxAq/12t8GNt5c+c4wGnXGnZtasO+ok/fvlG7RP2cv6+68P0PALp2hF+p5Adn4L7pf07iTNWpkK+3lFvVLHFk3XbVfPSoV1f0/1zk4dLp35cnql+iXNWtiQogdo74sv1Smn/VW/3L2pHWX1vFWbeYWrVdHwS0beXjr/ub/onDse19FD1/3IHK2/vDlfFTUVWvPxHTqUlnIAQBv5Nz8EANb2xryVOn9EH0lSv9PelTlNUnLdUT3V/4AjdfjYn+nMde6pXTmnBfdL0n/01LR/6uhefRTOTq14z5v2hKRMfbfwHO08KKRwtiSt0bRnX04/ZpF+/9g7OnO3w1QgqeiIq/XkEU1zJ+b8R3+9bvFmXuE1euaLC3XgwYWSQur3i2v0rw2OO0nHHzZE+ZK03xE6PWjrrRjL6gCA1mOlHECrvXrxLXp5YX3jv+OLP9Dtp9+pL9YK5qv0w8IKRZsfS1Zpyft36PxzbmrB/Sn/nTKr2QmWizXnmdmS3tcHC5uddlk1W+8+Wdr07zsOV//fPq6vljUbE03N/Zuxv9ErLej9vu/sK/XYzHQfejKqJe/focteX77OqJf08czU+xBf8I0+SdBUDgBoG6ussrrFP0WMMWvdNsbIdV0ZIxnX1Vs7DN8qRQLNjS8ra/Vjzj7kUD34zttboRoAQGuccfAYPdKGz+OJhetfKQBob4d+N0eWbcuyJNu2ZVmWLKupN7H57fbGSjkAAADgMUI5AAAA4DFCOQAAAOAxQjkAAADgMUI5AAAA4DFCOQAAAOAxQjkAAADgMa7oCXRxxx57rK644gqvywA6lcmTJ+vKK6/0ugwA2xBCOQD95Cc/8boEoFOZPHmy1yUA2MbQvgIAAAB4jFAOAAAAeIxQDgAAAHiMUA4AAAB4jFAOAAAAeIxQDgAAAHiMUA4AAAB4jFAOAAAAeIxQDgAAAHiMUA4AAAB4jFAOAAAAeIxQDgAAAHiMUA4AAAB4jFAOAAAAeIxQDgAAAHiMUA4AAAB4jFAOAAAAeIxQDgAAAHiMUA4AAAB4jFAOAAAAeIxQDgAAAHiMUA4AAAB4jFAOAAAAeIxQDgAAAHiMUA4AAAB4jFAOAAAAeIxQDgAAAHiMUA4AAAB4jFAOAAAAeIxQDgAAAHiMUA4AAAB4jFAOAAAAeMzvdQEAvDV58mRlZWV5XQYAAF0aoRzo4urr670uAQCALo/2FQAAAMBjhHIAAADAY4RyAAAAwGOEcgAAAMBjhHIAAADAY4RyAAAAwGOEcgAAAMBjhHIAAADAY4RyAAAAwGOEcgAAAMBjhHIAAADAY4RyAAAAwGOEcgAAAMBjhHIAAADAY4RyAAAAwGOEcgAAAMBjhHIAAADAY4RyAAAAwGOEcgAAAMBjhHIAAADAY4RyAAAAwGOEcgAAAMBjhHIAAADAY4RyAAAAwGOEcgAAAMBjfq8LAIAW65/ndQXoSJZUeV0BALQbQjmAbceRQ6ReOV5XgY7gi+WEcgCdCu0rAAAAgMcI5QAAAIDHCOUAAACAx+gpBwA0MQ3/a1K3k66UMJJrUsckybIk25ICluS3JSt9TErdBgC0GqEcANDETQfwmrgKK+LaaUW9BpfENKTOqCCeCuVlQUsLsi0t6B7Wd70yVF4QlLIC6YBOKgeAtiCUAwBSq+KOKyVcqTSqQxbW6fDlMR1gAtoukC1/WLLDqaGupGRSmrskoQ+XVurNPiG9NyhLKgqngrnPZsUcAFqJUA4ASK2OJ1zlLa3Vmd/V6uSoXzv4s+SXtcF8HZS0qz+oEQpo/2VxPV1RoQd2zFW8T1aqtYUVcwBoFUI5AHR1jpEcV6FV9Trr2xqdmwipp8+nwCaWuxvuCcvSSH9QhfW2rOlVujtgSz0zU6vlPoI5ALQUu68AQFfnGinq6tivy3RBPKw+tn+TgXxdAVnqb/t1aTyso6eWplpgXLP5BwIAGhHKAaCjGXSJZvz5fZmr31fsrAu2/vMlXPWcWaLfxTNU7LPb1A5uWZaKfT5dnsxQ3vSS1K4tAIAWI5QDwOaYCZpxdSokm8tv06Vbuyuje2/1TTcXBrttp99u5adTfVLHL4hoRCC40R7yzbEk+WVp+0BQpy6ISvVOe1cJAJ0aoRwAOpqp9+p3X3+pr5Z8rhvfu1X3beWnK1xWoxP9mfKZLW858RujE/xhFSyraYfKAKDr4ERPAOhwFuqJV/5PT/xIzzZwTUTbBzJlWVbTxYPayJI01BfUoNKoKtqlOgDoGgjlANBeeo/Vwz8/Q7/oWagCW5IbV2X5NP37w7v0x5nLUmO6jda1Y8/RRf17p8aspVbvTTlRB7vXqvyIPVQgSWVvyLr7Rv16/Mt6aFCuVDdVl0736fxRo7RdMPUcC5e+pLMfvUfvtLHsgbWu/JKsdjk305JfRv0jRl+3x3QA0EXQvgIA7aHbsXrj1Et1Zu/CprBtB5VftJf+MO4GPTA8JEm6cNzl+svAVCCvrFysFcmmKSrLZ+mjNcn1524uay/dum86kKefY9CAE/Tg8Xu1ufTKaELfRGOqd10ljJEj07hgbpS+WJBtK+73Keb3K+mz5appUd2V5BijmDGqd129X1en2XWRNtcDAF0RoRwA2sP+Y3VEZvoUyZqp+sML1+nyxdWpf/v7a/x+J0nmGP28RyqcKzZN1935K121ND1Gcc2edZ2uXhDf/HPFl+iJdx7Q0+WxxkMDi0a1ufTP4lGNX7lct5SXamkioaSR3HR/uZEUtyz9z3X1z+wc3ZyXo48cV3HLkknf7xqjuDH6LhbTH9es1u9Wr9bCRKLN9QBAV0T7CgC0g1/nFzbeXrToX7p5xg9SxhH644BUG0owe4CkbzcxQ1DhYMv2PVm9+Cmd/vFkqdshctfd9QAAE7FJREFU+mW3QamD/uw21+7kZymoHD1ZXaNXV6/SPsGQDsrM1NBgUFk+nyrDIc0/6ihd8tvzFAgG9eyjj+rLx59Qj6Sj6kRcM+MxvVMf0bREXPFgUJndi1S2fm8OAGATCOUA0N78xZJ+WP+49YKeXX6mjhiSK4V201W/e1omNzd1X3K+3vlffYumr6j/rP1qlRQbXKQLfjpe0778St/P+k6TV6zQC+Wlypc0MBxWrz59deGRRyizuFi2beuQE07UWQ88qLryci2KRhT1+ZRTUKBefYZpl113UUFxkW6Y+XK71ggAnR2hHABawyrU6F/8WSMb/qnVeu+FB/XwmpWpEzElDex7rC4bmS17xPDUyZqS4rWLJUkPv/6oTvjNRToi01J+fq/UyaDV8/T423/X/5V5tLd3/1xV1tfo7//4hxbMnafp06dr/rx5WrF8ucrKyrTK79easjIlk0nZtq3lq1Yq1qunwn376IDiYvXt10/Dhg/Xrrvtpl59euviK/8g9c3x5rUAwDaKUA5sQm5uri655BKNHj1ao0eP1htvvKGpU6fq2muv9bo0eCXYX2NH9m92YImcFx/Uo29M1uSdh6X6ynP20k3HNDvxMrlEEz/5jyTpwnHnpMbUfKzjH71az5d3gIvsFIT08vypOj36S+21z94atcceqq6u1qpVq1RWVqbq6mpVVlVp8uTJsmxbNdXVuvj3v1debq6KiovVo3t3ZWVlyfbZmvq/L/RB2bx0KN/MSavYZlx99dXrfQ7edtttqq6u3vyDAbQIoRzYiJ///Oe68cYbteOOOzYeO/LII3XkkUdq9OjROvPMM7Vo0SIPK0SHYr2gIx9K6OHjzlx7S8TqWfr3u//UH+ekTspcHK2VFJZy9tdzFzXbxDBZq9nfP6wRkyb9+LW7SU0vdPTwpKf1p3MnKDMjU8XFxSosLJQxRo7jqKqqSlVVVZKkrOxsFRUWyrZtWZYl27ZljFFJaYnufOJhlQzNkNQBftnAFhs0aJAefvhhjR49uvFYw+fgCSecoEsvvVRTpkzxsEKg87DKKqtbvDOtaXa1N2OMjDFyXVfGSMZ19dYOw7dKkUBz48vKWv2Ysw85VA++83aLx+fl5Wnq1KkaPnzj39NvvfWWjjrqKMXjLdgtA+3j3N2lXttyW8QgnfqLy3XXzsM3sEe5JC3Rw3efqd/82G0sriTLr171WfrrrsfqtONPVsDvl8/2SVJjMHddV5Jk27Z8vtR9lmXJcR3V1tXpH3fcon+s+UTqJslNSr6WnbjaJl8sl16fv/Xmh0KhkCZPnrxWIF/XjBkztP/++6umpuVXcD3j4DF6pBWfxw0mFhZufhCwhQ79bo4s25ZlqXHhwbKaPsua325vnB6PLqHfgAGtGn/MMcdsMpBL0qGHHqqjjz56S8pCFzP6xJv1xC7DVaByvfvJHRr3wnUa98Jtuntlw9aG2erVN/DjF2ZJkqOVoVpd/7/n9eyrL6imtrZxIcayLPl8PgUCAQUCAfl8vsYfTK7rqqS0VHc+fL/+ufwTKc9IxpHsrRjI8aNo+KvgpowcOVKnnnpqq+btN3DglpQFdFq0r6BL6N/KHwL77bdfi8b17du3LeWgq2q8qFA3HbzXb7WvK8kOKpz+JI6VfK7rpkd//LosScZItqNF2XX6vw8e0+ySJfrFvodqUJ/+ys3JSa0YyUoFdUtyHEel5WWau/gHPfHWi3pk5TSZYkmWmw7k7XJ5UHioX79+LRq333776f7772/xvAMGtm6RBOgqCOXoEga0cqUc2Bren3K3rvOdoQsHDlSBP6iwJLlxRevL9PWCZ3XapEla6FVxDQvbPldr8qK64btX9eac/+mInfbRrv2Hqzg7X1nBsIzrqipWr5VVpfp83gy9MfcrLQxUSYW+ZqvjBHJs3MABrJQDG0IoR5fQ2j+XfvLJJzrrrLM2O27ZsmVtLQldUfn7+suT7+svXtexMQ2Z2pbULaCvTIW+mv2q9O1kDc0uUG4wQ45xVRat19K6CilkpO62pIDkupJM0xzY5i1durRF4z755JNWzUv7CrBhhHJ0CdsdeIDC4bCi0Za1Brz22muqqqpSXl7eRsd8+umneumll9qrRKCDMI095rIkZUlSXPO0umlDlWD6P0mps0TFGUqd0JQpU7RgwQINGTJko2NWrFihJ598ssVzZmRkaNiBB7RHeUCnw8couozjDzq4xWNLSkp0xRVXbHLMqaeeys4rADqt+vp6nXDCCZscc+6557Zq55Vf/uxnW1oW0GkRytFlHHfQQa0af++992rEiBF64YUXGlfYI5GIXnnlFW233XbsUQ6g05s2bZp69Oih559/fq3Pwddee00HHXSQXn311VbNN+7An26NMoFOgX3Ksc1pyz7lklQyfYYG7bev6urqWv3YUCikffbZR59++imr4wC6pC39HMzKytIPn3yq7ruMbNPzs085fgzsUw78CIp3Gan7r/hzmx4bi8X0/vvvE8gBdFlb+jl47xV/bnMgB7oCQjm6lFP+cJn223tvr8sAgC5l77331ml/uMzrMoAOjVCOLsX2+3VnG1fLAQBtc/cVf5btZ8M3YFMI5ehydh97lJ65/Q6vywCALuHWS3+vn4w9yusygA6PUI4u6aQJv9O54472ugwA6NSO2n13XfLPW7wuA9gmEMqxzVn9/gftMs/9L72onTZxcSAAQNvtVFSsV776yusygG0GoRzbnDePO1Zvj/uFlr7Suv1xN2RmZaVOO+DAdqgKANDgstPHa2bJmi2eZ/4jj+mjM85kO0R0CYRybJNWfPKR3jvjV5o85lCt+ejjLZrr8Q8/0F0XXthOlQFA1/bAn6/UTRMf26I5lr36ml4ffbA+/b9LtfCVl9upMqBjI5Rjm7bmm681+RdHa+Y/btyieS686y7Neu11/XrcuHaqDAC6luPGjNH0l17SWX+7bovm+fqqv+jdX41X6czp7VQZsG0glKNTmHbzTXrrqHFbtGq+w8+O1EMvvaTpr77GSaAA0EI/23tvffDYRD339tsauQULG5XfztI7xxynb++9px2rA7YdVllltWnpYGPMWreNMXJdV8ZIxnX11g7Dt0qRQGvsdtkftPPlf9zieSp++EGfT35TDz/8iN74+kvVmRb/XwUAOrUxO+yoU485RoeMG6d+e+6xxfMtfvY5fXHllYqUlrRDdUDbHfrdHFm2LcuSbNuWZVmyLKvx/ua32xuhHJ1SewXzBk40plhVpeqrqhSprFI8Gm23uQGgowuEw8rIz1NmXp7CefnyhUPtNveM62/QN7f+s93mA7aEl6Gcy2uhU5p2800q+eJ/OnjSc+0yny8cUma4hzJ79GiX+QAA0ifnnKcFzz/rdRlAh0BPOTqtZR+8p8/OZ1cVAOiI3j3uBAI50AyhHJ3avP88vcU7swAA2tf3t9+pZe+/63UZQIdCKEenN+3mmwjmANBBrHjrbf3vumu9LgPocAjl6BKm3XyT5j+yZRezAABsmYrpM/T2ySd5XQbQIRHK0WV8+n+Xavkbk70uAwC6pOjqNfrkggu8LgPosAjl6FLmPcpqOQB44fMJF6v8+++8LgPosAjl6FKWvD1FC5962usyAKBLmffgw1ry1ptelwF0aIRydDmz7rlHybo6r8sAgC5jziMPe10C0OERytHllM/+Xt/fdbfXZQBAlzD7nvtUPvt7r8sAOjxCObqkaTffpPJvvvG6DADo9GY/9JDXJQDbBEI5uqxV773vdQkA0KnNf+QxVS9e6HUZwDbB73UBgFdm3XefikaN8roMAOi0pt9ys9clANsMQjm6rEhZqSb/4mivywAAAKB9BQAAAPAaoRwAAADwGKEcAAAA8BihHAAAAPAYoRwAAADwGKEcAAAA8BihHAAAAPAYoRwAAADwGKEcAAAA8BihHAAAAPAYoRwAAADwGKEcAAAA8BihHAAAAPAYoRwAAADwGKEcAAAA8BihHAAAAPAYoRwAAADwGKEcAAAA8BihHAAAAPAYoRwAAADwGKEcAIBtUOz2jzW+rGyt/467q/8Wz7e5ORrGnfbixW1+LjTZ69OStb+On9+z/qDqWzR2ra/1Qv383PM15odSjS/7Qj8156ZvL9TPzyvc8BM1zLHwFY30WW0fswWGT5rH984mEMoBANiGuR9dp4nZf9LyKqOsU6ZtUTCXqhWdVScpHRa3Ujjr0mLnpAJ0OnxP3bdYEwsLNbGwUHPmuNLQn60drKtv0djEmSrQAi3uUZQeO0iv3ZlsGhP4t94ZXJQ6fn/Zj/yC0F78XhcAAAC2UOjfev3l8Tr79BHK2uOPki7QXp+WaPjwhrW3BVrcYy99UH5zKuDNnauKYcNUIEnVn+qb7cbp61krFVcfSWr22H2165of1O/Po9YLe87I32l82VWSUr8YPPGL25U8+1md+o+DFWoYVP2pvun/qooXX68+eTUq+/MovXbTn5qFzL0U/XDN+nUmTePzbHDO7cbpf//8SGefPkLVc+cqd9iwtepobu33Qap7ajc9f9ESxW7/WGefPmLt4+ccoTHLb1CfPGut58r4aAM11p2dHvuDFvfYS1NuSdXjfnSdHlp0/IZrO7K+af68kzW+bI/G1zt80rzUc1R/q6UPlDfWFXt4bxVIcj96aq33ZS2JczRm4fWNtTTV1ux19Jyz4fdl3jOauPcFa89ndtSINaXatdl7MMMxm/yeyvvoKa0c+Uv1sT5r9jVf+32MpR8ZWTppw6+ji2OlHACATqYh4LkfXaeHL39XMQ3RgHkva2QgPWCYT9U9ilIrs7n7aujt/eR/4AQ9k15pnbrTY6qQUmGq++ANrr4G1ryhiYFHVCHJPuAU/dRvyf/ACZp1xVWaWFioqR+US7n7auQrGXr95dmSclVwxOlrhcxV/53bWGdqriEa8PHdaz3PBud8fkLj/bnW1+vV0dynj16tb7oXNY7JOuU5/TR2i44/fUT69aVWn5+/aImGv3aZ+uRZqntqt9SK9KCxij07d8PvpX/zf0FYr7asB/Tm399LhdN5z2hi4Z76IGmUPPtZ7frTbqnnHTRWM5ym8D2yf4/NPs+6NvQ6ZiSa7u+R/iXD/ei69QO5JOWVatU63x/Nv6c29LWyDzilMYT3/eJvjc//8OXvKpb+ms1YsrrVr6UrIZQDANCJuKvmNd6OLJ0k/z8Xq16ScnuooOGnfvVqVRipclXllj1PaK7qq5oCZOz2j7X7DddpfFmZ9vppt8bjoV9/ngqmu4zRUXsOl7RAS4+/o/F++4CrND5xZmrlvkf/tVpmNjbnpupoevA5Ouzyv2rXNaVN80tyLxqgTElavWStAJzfM1/NW3ia2+h72cr3aEP8D5yg/6R/MVhXW4Lspl6HcvdVr+G2pGpVTH58wxNs4vtjva9Vwy96Db/gDBqrsvTLzTplmn6d/iuH3XOoQhfv3/gLENZHKAeA/2/n7l0jqcM4gD+/uZNTlBQGiyss44k2ByoIGjsbiysOEatUYmMjXMDiOBsR/wHBl0KOs7ETbCyu00psrvCF5LQQBMmR5c5gEyI7FtmZnd2sk93syy8bPh9YMrOZ2X1mt/nOs88MLLv9t+O1K09HFbSqIPfIk1fj32u9ALq3E/e7c6zhoF9D5/pTh13tyspmbPe63BcvFRF3fxwYxeh+/0E9Vz3QKd5vec0x7H+ycdi9vftV3bEeMHQC0Cs2Hn720Xrt+M/yiXjsrcdP1NGu62y5eLY+oRnxK0C7wePo24ud77YiYiVW37s58TUDR76rg//ftu7Ur67GrRffqS/0nO66h7NLKAeAJVas34iNfz7qz2x/2okL774cW1vdKNZv9DqVv8cfa1daA9SAlc241xtduHxvd7wQ9dDn8eed+xGxEqsfbsfzF3frGeKIiJ+/vdNb34vOzfcjImLr6lpd58g7yFxof83jVIE21t6MjYNX4tz2YZIuvngjbn35a3181fv+8Nz1+oLZjd5dSF64tj76szz3WT2WM0lt5z++Hbt/l4c1td0tpbKyGV9XYzM7u3VdbeMzo46j39H+Kf56/aV6NOXyb9+MFcyP/a7a3n+c4yRS58Fe+28qDWVZDiyXZRndbjfKMqLsduP2M5fmUiQAAMzbq79sRSqKSCmiKIpIKUVK/ZOW5vKs6ZQDAEBmQjkAAGQmlAMAQGZCOQAAZCaUAwBAZkI5AABkJpQDAEBmQjkAAGQmlAMAQGZCOQAAZCaUAwBAZhOF8pTSvOoAAIBTa945WKccAAAyE8oBACCzqUO5kRYAAM6SHPl2dp1y4RwAgGWWMc8aXwEAgMxmEsqNsAAAcBbkyrVThfKUUq/wUjAHAGCpNXPtorNt6jzYKyfZoSzLgeX+o7neHbl923MAADAPowJ287mUijqIpxSN5dT6GrN0ftIdUkpHQnV1VhFRFVtElGWUjQ56cxdddQAAcmjG0BQpohHAq0B+dJ/5Z9eJQ3lTP3CXvfWIKpgfRvTeAZSlm7MAAHA6DHXAq0A+/NwinSiUD3fLB4uuAnrR30YiBwDglOnPkPfz7HAYX1Q4n6pTHtEP6M2/zeWKOXIAAHI7GrqLI//LMWp94lDe7JaPU7g5cgAATpu2izkXmV+nnikfNcYy3CUHAIDTKtfFnU0zGV+JiJYZcwAAWA65cuzUobwyKpwDAMAyyN1Unlkor4xzQII7AACLkjtwj2PmoXwcy/DBAADAohTHbwIAAMyTUA4AAJkJ5QAAkNl/E7Y6G71zGvEAAAAASUVORK5CYII=;" vertex="1" parent="1">
          <mxGeometry x="910" y="430" width="620.29" height="370" as="geometry" />
        </mxCell>
        <mxCell id="DcXh2wUwOKzSPhFC_znG-8" value="&lt;b&gt;&lt;font color=&quot;#ffffff&quot;&gt;Página de Login&lt;/font&gt;&lt;/b&gt;" style="text;html=1;strokeColor=none;fillColor=none;align=center;verticalAlign=middle;whiteSpace=wrap;rounded=0;" vertex="1" parent="1">
          <mxGeometry x="950" y="750" width="60" height="20" as="geometry" />
        </mxCell>
        <mxCell id="DcXh2wUwOKzSPhFC_znG-9" value="&lt;b&gt;&lt;font color=&quot;#ffffff&quot;&gt;LoginBox&lt;/font&gt;&lt;/b&gt;" style="text;html=1;strokeColor=none;fillColor=none;align=center;verticalAlign=middle;whiteSpace=wrap;rounded=0;" vertex="1" parent="1">
          <mxGeometry x="1090" y="700" width="60" height="20" as="geometry" />
        </mxCell>
      </root>
    </mxGraphModel>
  </diagram>
</mxfile>
